<?xml version="1.0" encoding="utf-8"?>
<svg id="Layer_1" data-name="Layer 1" xmlns="http://www.w3.org/2000/svg" viewBox="0 0 149.47 149.47"><defs><style>.cls-1{fill:none;}.cls-2,.cls-3{fill:#aa4269;}.cls-3{stroke:#aa4269;}</style></defs><title>Kapitus_Icons_NormalState</title><g id="Ellipse_184" data-name="Ellipse 184"><path class="cls-1" d="M73.47.71c41.28,0,76,32.71,76,74A74.74,74.74,0,0,1,0,74.69C0,33.42,32.2.71,73.47.71Z"/><path class="cls-2" d="M74.72,149.42a74.73,74.73,0,1,1,74.74-74.73A74.82,74.82,0,0,1,74.72,149.42Zm0-146.19a71.46,71.46,0,1,0,71.46,71.46A71.55,71.55,0,0,0,74.72,3.23Z"/></g><g id="noun_Commission_Agent_1383210_000000" data-name="noun Commission Agent 1383210 000000"><g id="Group_453" data-name="Group 453"><path id="Path_523" data-name="Path 523" class="cls-3" d="M122.93,101.89,108.87,68.3a4.71,4.71,0,0,0-2-2.27l-6.29-3.35V39.26a1.26,1.26,0,0,0-1.18-1.33H65a11.16,11.16,0,0,0-22.21,1.33A11.16,11.16,0,0,0,65,40.6H98V61.21l-8.7-4.68a2.68,2.68,0,0,0-1.48-.4,3.16,3.16,0,0,0-3.07,2.27L78.9,77.54A4.89,4.89,0,0,0,79,80.61l14.06,33.72a3.13,3.13,0,0,0,4,1.85l.25-.11,23.95-9.9A3.32,3.32,0,0,0,122.93,101.89ZM53.88,47.69a8.32,8.32,0,1,1,8.43-8.3A8.36,8.36,0,0,1,53.88,47.69Zm66.24,56.07-24,9.9a.6.6,0,0,1-.78-.33.19.19,0,0,0,0-.07l-14-33.58a1.89,1.89,0,0,1,0-1.2l5.75-19.14a.76.76,0,0,1,.54-.4c.13,0,.13,0,.27.13l17.66,9.37a1.4,1.4,0,0,1,.8.94L120.52,103A.65.65,0,0,1,120.12,103.76Z"/></g><g id="Group_454" data-name="Group 454"><path id="Path_524" data-name="Path 524" class="cls-3" d="M62.71,52.51H45.31c-5.75,0-10.43,5.22-10.43,11.51v28.5a1.25,1.25,0,0,0,1.18,1.34H42.5v18.07a4.74,4.74,0,0,0,4.69,4.68H60.84a4.57,4.57,0,0,0,4.68-4.46V93.86h6.29a1.27,1.27,0,0,0,1.34-1.18V64C73.15,57.73,68.46,52.51,62.71,52.51Zm7.76,38.68H65.65V76.6a1.34,1.34,0,1,0-2.67,0h0v35.33a2.05,2.05,0,0,1-2,2H55.48V93.46a1.34,1.34,0,1,0-2.67,0h0v20.47H47.19a2,2,0,0,1-2-1.93V76.6A1.27,1.27,0,0,0,44,75.26h-.15a1.27,1.27,0,0,0-1.34,1.19V91.19h-5V64c0-4.82,3.48-8.7,7.76-8.7h17.4c4.28,0,7.76,3.88,7.76,8.7Z"/></g><g id="Group_455" data-name="Group 455"><path id="Path_525" data-name="Path 525" class="cls-3" d="M93.89,78.07a6.13,6.13,0,0,0,4.68-7,5.8,5.8,0,0,0-5.89-4.81,3.49,3.49,0,0,0-1.2.13A5.34,5.34,0,0,0,87.74,69a5.89,5.89,0,0,0,5,9.23C93.22,78.21,93.49,78.07,93.89,78.07Zm-4.28-5.22a3.09,3.09,0,0,1,.53-2.41,3.29,3.29,0,0,1,2.14-1.33H93a3.17,3.17,0,0,1,3.21,2.67,3.49,3.49,0,0,1-2.54,3.88A3.62,3.62,0,0,1,89.61,72.85Z"/></g><g id="Group_456" data-name="Group 456"><path id="Path_526" data-name="Path 526" class="cls-3" d="M106.73,84.09l-13.38,18.2H96.7l13.38-18.2Z"/></g><g id="Group_457" data-name="Group 457"><path id="Path_527" data-name="Path 527" class="cls-3" d="M107,94.26a3.91,3.91,0,0,0-3.89,3.91c0,.08,0,.16,0,.24a4.44,4.44,0,0,0,1.07,2.94,3.88,3.88,0,0,0,6.69-2.94,4.38,4.38,0,0,0-1.07-3A3.87,3.87,0,0,0,107,94.26Zm1.07,5.49a1.34,1.34,0,0,1-1.87.27,1.72,1.72,0,0,1-.27-.27,2.46,2.46,0,0,1,0-2.68,1.35,1.35,0,0,1,1.88-.27,1.33,1.33,0,0,1,.26.27,2.27,2.27,0,0,1,.4,1.34,2,2,0,0,1-.4,1.34Z"/></g><g id="Group_458" data-name="Group 458"><path id="Path_528" data-name="Path 528" class="cls-3" d="M96.56,92a3.9,3.9,0,0,0,3.89-3.91v-.24a4.44,4.44,0,0,0-1.08-3,3.89,3.89,0,0,0-6.69,3,4.44,4.44,0,0,0,1.07,2.94A3.84,3.84,0,0,0,96.56,92ZM95.49,86.5a1.35,1.35,0,0,1,1.88-.27,1.33,1.33,0,0,1,.26.27,2.42,2.42,0,0,1,0,2.68,1.36,1.36,0,0,1-2.14,0A2.46,2.46,0,0,1,95.49,86.5Z"/></g></g></svg>