<?xml version="1.0" encoding="utf-8"?>
<svg id="Layer_1" data-name="Layer 1" xmlns="http://www.w3.org/2000/svg" viewBox="0 0 149.47 149.47"><defs><style>.cls-1{fill:none;}.cls-2{fill:#aa4269;}</style></defs><title>Kapitus_Icons_NormalState</title><g id="Ellipse_184" data-name="Ellipse 184"><path class="cls-1" d="M73.47.71c41.28,0,76,32.71,76,74A74.74,74.74,0,0,1,0,74.69C0,33.42,32.2.71,73.47.71Z"/><path class="cls-2" d="M74.72,149.42a74.73,74.73,0,1,1,74.74-74.73A74.82,74.82,0,0,1,74.72,149.42Zm0-146.19a71.46,71.46,0,1,0,71.46,71.46A71.55,71.55,0,0,0,74.72,3.23Z"/></g><g id="noun_special_offer_1033168_000000" data-name="noun special offer 1033168 000000"><path id="Path_519" data-name="Path 519" class="cls-2" d="M35,101.05l26.67,11.68h.09a24.45,24.45,0,0,0,9.07,1.65,23.86,23.86,0,0,0,5.58-.61l23-4.27,5.14-1v1a1.76,1.76,0,0,0,1.74,1.75h11.07a1.75,1.75,0,0,0,1.74-1.75v-23a1.74,1.74,0,0,0-1.74-1.74H106.28a1.74,1.74,0,0,0-1.74,1.74v1.13c-3.31-.78-7.5-1.48-7.67-1.48h-.09a26.52,26.52,0,0,0-15.69,3.75,8.67,8.67,0,0,1-4.44,1.22H69A8.57,8.57,0,0,0,60.86,97L46.05,92.77H46a10.11,10.11,0,0,0-12,6.1A1.81,1.81,0,0,0,35,101.05Zm73-12.82h7.59v19.53H108ZM38.11,98.61c1-1.48,3.23-3.31,7.15-2.44l15.43,4.44a3.75,3.75,0,0,0,3.66,3.14H84.84a1.75,1.75,0,1,0,0-3.49H64.26a.23.23,0,0,1-.26-.19v-.59a5,5,0,0,1,5-5h7.67a12.69,12.69,0,0,0,6.19-1.66,24.15,24.15,0,0,1,13.42-3.4c.61.09,5.15.87,8.11,1.66h.09v13.77L98.61,106l-23,4.35A22.25,22.25,0,0,1,63,109.5Z"/><g id="Group_451" data-name="Group 451"><path id="Path_520" data-name="Path 520" class="cls-2" d="M66.88,89.8a4.51,4.51,0,0,1-3-1.22l-6.46-6.45H48.31A4.28,4.28,0,0,1,44,77.86V68.71l-6.45-6.45a4.28,4.28,0,0,1,0-6L44,49.79V40.73a4.28,4.28,0,0,1,4.27-4.27h9.06L63.82,30a4.26,4.26,0,0,1,6,0l6.45,6.45h9.06a4.28,4.28,0,0,1,4.28,4.27v9.06l6.45,6.45h0a4.27,4.27,0,0,1,0,6L89.63,68.7v9.07A4.28,4.28,0,0,1,85.35,82H76.29l-6.45,6.45A3.86,3.86,0,0,1,66.88,89.8ZM48.31,39.59a1.16,1.16,0,0,0-1.13,1.14v9.76a1.83,1.83,0,0,1-.44,1.13l-7,6.89a1.23,1.23,0,0,0,0,1.66l6.89,6.88a1.7,1.7,0,0,1,.44,1.13V78a1.15,1.15,0,0,0,1.13,1.13H58a1.84,1.84,0,0,1,1.14.44L66,86.4a1.21,1.21,0,0,0,1.66,0l6.88-6.88a1.66,1.66,0,0,1,1.14-.44h9.76A1.15,1.15,0,0,0,86.58,78V68.1A1.85,1.85,0,0,1,87,67l6.88-6.89a1.21,1.21,0,0,0,0-1.66L87,51.54a1.71,1.71,0,0,1-.44-1.14V40.73a1.16,1.16,0,0,0-1.13-1.14H75.68a1.82,1.82,0,0,1-1.13-.43l-6.89-6.89a1.22,1.22,0,0,0-1.65,0l-6.89,6.89a1.63,1.63,0,0,1-1.13.43Z"/></g><g id="Group_452" data-name="Group 452"><path id="Path_521" data-name="Path 521" class="cls-2" d="M66.88,79a19.7,19.7,0,1,1,19.7-19.7A19.7,19.7,0,0,1,66.88,79Zm0-36.34A16.65,16.65,0,1,0,83.53,59.29h0A16.69,16.69,0,0,0,66.88,42.65Z"/></g><path id="Path_522" data-name="Path 522" class="cls-2" d="M66.88,57.72a2.92,2.92,0,0,1-3-2.7,3.07,3.07,0,0,1,6.1,0,1.57,1.57,0,0,0,3.14,0h0a6,6,0,0,0-4.62-5.66v-2.7a1.57,1.57,0,1,0-3.14,0v2.7A5.92,5.92,0,0,0,60.69,55,6.13,6.13,0,0,0,67,61,2.92,2.92,0,0,1,70,63.65a3.07,3.07,0,0,1-6.1,0,1.57,1.57,0,0,0-3.14,0,5.94,5.94,0,0,0,4.62,5.67V72a1.57,1.57,0,0,0,3.14,0h0v-2.7a5.94,5.94,0,0,0,4.62-5.67A6.07,6.07,0,0,0,67,57.72Z"/></g></svg>