<?xml version="1.0" encoding="utf-8"?>
<svg id="Layer_1" data-name="Layer 1" xmlns="http://www.w3.org/2000/svg" viewBox="0 0 149.47 149.47"><defs><style>.cls-1{fill:none;}.cls-2{fill:#aa4269;}</style></defs><title>Kapitus_Icons_NormalState</title><g id="Ellipse_184" data-name="Ellipse 184"><path class="cls-1" d="M73.47.71c41.28,0,76,32.71,76,74A74.74,74.74,0,0,1,0,74.69C0,33.42,32.2.71,73.47.71Z"/><path class="cls-2" d="M74.72,149.42a74.73,74.73,0,1,1,74.74-74.73A74.82,74.82,0,0,1,74.72,149.42Zm0-146.19a71.46,71.46,0,1,0,71.46,71.46A71.55,71.55,0,0,0,74.72,3.23Z"/></g><g id="noun_Sign_Up_1394901_000000" data-name="noun Sign Up 1394901 000000"><g id="Group_450" data-name="Group 450"><path class="cls-2" d="M92.58,115.33H93a23.13,23.13,0,1,0-.39,0Zm-41.8-38.2A14.9,14.9,0,0,0,35.89,92v16.88a2.22,2.22,0,0,0,2.22,2.22H62.74a35.1,35.1,0,0,1-2.39-4.44h-20V92A10.45,10.45,0,0,1,50.78,81.57h7.51l.37.36a34.3,34.3,0,0,1,1.66-4.51,2.24,2.24,0,0,0-1.11-.29ZM93,110.89H91v-.11a18.85,18.85,0,1,1,2,.11Zm-2.22-10.34A2.24,2.24,0,0,0,93,102.74a2.22,2.22,0,0,0,2.18-2.26V94.23h6.22a2.22,2.22,0,0,0,0-4.44H95.19V83.43A2.21,2.21,0,0,0,93,81.28h0a2.18,2.18,0,0,0-1.56.68,2.16,2.16,0,0,0-.63,1.58v6.25H84.54A2.21,2.21,0,0,0,82.38,92a2.23,2.23,0,0,0,2.19,2.26h6.18v6.22l-2,.14ZM71.88,30.74a19.09,19.09,0,0,0-5.51,37.37,35.91,35.91,0,0,1,3.89-3.72,14.67,14.67,0,1,1,14.23-7.12,36.44,36.44,0,0,1,5.32-.88,21.36,21.36,0,0,0,.66-2.2A19.09,19.09,0,0,0,71.88,30.74Z"/></g></g></svg>