<svg id="Layer_1" data-name="Layer 1" xmlns="http://www.w3.org/2000/svg" viewBox="0 0 149.47 149.47"><defs><style>.cls-1{fill:none;}.cls-2{fill:#aa4269;}</style></defs><title>Kapitus_Icons_NormalState</title><g id="Ellipse_184" data-name="Ellipse 184"><circle class="cls-1" cx="73.96" cy="74.64" r="74.73"/><path class="cls-2" d="M74,149.37a74.73,74.73,0,1,1,74.73-74.73A74.81,74.81,0,0,1,74,149.37ZM74,3.18a71.46,71.46,0,1,0,71.46,71.46A71.55,71.55,0,0,0,74,3.18Z"/></g><path class="cls-2" d="M54.31,69.88V29.52c.3,0,.55,0,.8,0q16.8,0,33.6,0A2.08,2.08,0,0,1,90,30c5.22,4.32,10.41,8.68,15.62,13a1.63,1.63,0,0,1,.63,1.4c0,15.18,0,34.75,0,49.92v1H77.84c0,.55.12,1,.15,1.51a9.47,9.47,0,0,1-2.36,6.93,13.62,13.62,0,0,0-2.4,4.13h3.06c-.24,1-.44,1.79-.66,2.63-.77,2.9-1.56,5.8-2.29,8.71a.69.69,0,0,1-.8.62q-15,0-30.06,0c-.6,0-.76-.18-.76-.76q0-5.22,0-10.44c0-.6.2-.77.77-.75,1.17,0,2.35,0,3.73,0,0-1.83,0-3.6,0-5.37,0-5.75-.07-11.51-.13-17.26a20.82,20.82,0,0,1,1.71-9.16A11.25,11.25,0,0,1,54.31,69.88ZM65.22,91.64h37.36V48h-16V33.08H57.94v44.8l.79-.49c3-2,6-4,8.94-6a1.08,1.08,0,0,1,.88-.13c4.51,2.45,5.49,7.28,2.09,11.12a74.23,74.23,0,0,1-5.52,5.1c-.19.17-.41.45-.39.66C64.85,89.32,65,90.45,65.22,91.64Zm-15.4,16.18H69.47a18.52,18.52,0,0,1,3.67-6.75A6,6,0,0,0,74.3,96c-.09-.55-.31-.71-.87-.7q-4.31,0-8.63,0a1.12,1.12,0,0,0-1.07.58,6.08,6.08,0,0,1-3.29,2.3c-.33-1-.66-2-.92-2.91a.74.74,0,0,1,.28-.65,3.07,3.07,0,0,0,1.58-2.21,8.56,8.56,0,0,0-.26-3.8,3.07,3.07,0,0,1,1.14-3.47c1.69-1.36,3.39-2.72,5-4.21a8.15,8.15,0,0,0,1.71-2.56A2.38,2.38,0,0,0,68,75.48L53.93,84.89l-2-3c.66-.45,1.21-.85,1.79-1.2a1,1,0,0,0,.56-1c0-1.75,0-3.5,0-5.26,0-.18,0-.37-.09-.81a23.28,23.28,0,0,0-2.05,2.1c-2.09,2.8-2.52,6.08-2.5,9.44,0,5.31.11,10.62.16,15.92C49.83,103.34,49.82,105.56,49.82,107.82Zm-4.44,8.33H70.43l1.2-4.64H45.38Zm44.9-81.28v9.49h11.33Z"/><path class="cls-2" d="M63,60H97.53v3.48H63"/><path class="cls-2" d="M63.08,52.37H97.53v3.47H63.08"/><path class="cls-2" d="M78.86,44.78v3.47H63.08V44.78Z"/><path class="cls-2" d="M78.86,37.2v3.46H63.08V37.2Z"/><path class="cls-2" d="M63,67.58H97.53v3.48H63"/><path class="cls-2" d="M76.74,75.21H97.53v3.48H76.74"/><path class="cls-2" d="M76.74,82.85H97.53v3.48H76.74"/></svg>