<?xml version="1.0" encoding="utf-8"?>
<!-- Generator: Adobe Illustrator 22.1.0, SVG Export Plug-In . SVG Version: 6.00 Build 0)  -->
<svg version="1.1" id="Layer_1" xmlns="http://www.w3.org/2000/svg" xmlns:xlink="http://www.w3.org/1999/xlink" x="0px" y="0px"
	 viewBox="0 0 141.7 141.7" style="enable-background:new 0 0 141.7 141.7;" xml:space="preserve">
<style type="text/css">
	.st0{fill:none;stroke:#A94068;stroke-width:2;}
	.st1{fill:#A94068;}
	.st2{fill:none;stroke:#A94068;stroke-linecap:round;stroke-linejoin:round;}
	.st3{fill:none;stroke:#A94068;stroke-miterlimit:10;}
	.st4{fill:none;}
</style>
<g id="ebook_off_state">
	<g>
		<g id="Ellipse_185_1_" transform="translate(483 1187)">
			<circle class="st0" cx="-412.1" cy="-1116.1" r="67.5"/>
		</g>
		<path class="st1" d="M44.8,53c0-0.4,0-0.7,0-0.9c0-2.5,0-5.1,0-7.6c0-1.4,0.8-2.4,2.1-2.7c1.5-0.4,3-0.7,4.5-1.1
			c6.5-1.8,12.9-1.3,19.1,1c0.7,0.3,1.2,0.3,1.9,0c7.1-2.8,14.2-2.9,21.4-0.3c0.4,0.1,0.8,0.2,1.1,0.2c0.5,0.1,1,0.2,1.5,0.4
			c1.1,0.4,1.6,1.1,1.6,2.3c0,2.6,0,5.1,0,7.7c0,0.3,0,0.6,0,1c0.9,0,1.8,0,2.6,0c0.6,0,1.2,0,1.7,0c2.3,0,3.9,1.6,4,3.8
			c0,0.3,0,0.5,0,0.8c0,11.8,0,23.7,0,35.5c0,1.3-0.1,1.4-1.3,1.4c-22.4,0-44.9,0-67.3,0c-1.2,0-1.3-0.1-1.3-1.3
			c0-11.9,0-23.9,0-35.8c0-2.5,1.7-4.6,4.4-4.4C42.1,53.1,43.4,53,44.8,53z M44.8,54.2c-1.4,0-2.7,0-3.9,0c-2.3,0-3.3,1-3.3,3.3
			c0,11.6,0,23.2,0,34.9c0,0.8,0.2,0.9,0.9,0.9c22,0,43.9,0,65.9,0c0.3,0,0.6,0,0.9,0c0-0.4,0-0.6,0-0.9c0-11.6,0-23.2,0-34.8
			c0-0.3,0-0.7,0-1c-0.1-1.1-1.1-2.2-2.2-2.3c-1.6-0.1-3.3,0-5,0c0,0.4,0,0.7,0,1.1c0,7.4,0,14.8,0,22.3c0,0.3,0,0.5,0,0.8
			c-0.1,0.6-0.4,0.8-0.9,0.4c-1.7-1.2-3.8-1.6-5.7-2.2c-0.5-0.1-1.1-0.2-1.8-0.4c0.3,0.4,0.4,0.5,0.6,0.7c1.3,1.4,2.5,2.7,3.8,4.1
			c0.4,0.5,0.4,0.8,0,1.3c-0.7,0.6-1.3,1.3-1.9,1.9c-0.9,0.9-0.9,0.9-1.9,0c-1.8-1.8-3.6-3.5-5.4-5.3c-0.3,0.5-0.5,1-0.8,1.5
			c-0.2,0.3-0.6,0.6-0.8,0.9c-0.2-0.3-0.6-0.6-0.7-0.9c-0.5-1.1-0.9-2.2-1.3-3.4c-0.2-0.6-0.5-0.8-1-0.6c-2.5,0.8-5.1,1.5-7.6,2.4
			c-0.8,0.3-1.4,0.3-2.1,0c-5.7-2.5-11.6-3.5-17.7-2.2c-2.4,0.5-4.8,1.1-6.9,2.5c-0.6,0.4-0.9,0.2-1-0.5c0-0.2,0-0.5,0-0.7
			c0-7.4,0-14.9,0-22.3C44.8,54.9,44.8,54.6,44.8,54.2z M70.8,77.4c0-0.2,0.1-0.3,0.1-0.3c0-11.1,0-22.3,0-33.4
			c0-0.5-0.2-0.6-0.6-0.8c-6.8-2.7-13.6-2.9-20.4-0.5c-0.6,0.2-0.8,0.5-0.8,1.2c0,10.5,0,21.1,0,31.6c0,0.3,0,0.6,0,0.9
			C56.6,73.6,63.7,74.4,70.8,77.4z M80.3,74.7c-0.7-1.8-1.4-3.6-2.1-5.5c-0.1-0.3-0.1-0.7,0-0.9c0.1-0.2,0.6-0.2,0.8-0.1
			c3.6,1.4,7.3,2.8,10.9,4.3c0.3,0.1,0.6,0.5,0.6,0.7c0,0.3-0.3,0.6-0.6,0.8c-0.3,0.3-0.8,0.4-1.3,0.7c1.7,0.4,3.3,0.8,4.9,1.2
			c0-0.2,0-0.4,0-0.5c0-10.7,0-21.5,0-32.2c0-0.5-0.1-0.7-0.6-0.9c-6.8-2.5-13.6-2.3-20.3,0.3c-0.6,0.2-0.8,0.5-0.8,1.2
			c0,10.8,0,21.7,0,32.5c0,0.3,0,0.5,0,0.7C74.8,76.3,77.5,75.5,80.3,74.7z M45.9,77.2c0.4-0.2,0.8-0.4,1.1-0.5
			c0.7-0.2,0.9-0.6,0.9-1.3c0-10.6,0-21.1,0-31.7c0-0.3,0-0.6,0-0.9c-1.4,0-2,0.5-2,1.8c0,10.6,0,21.2,0,31.8
			C45.9,76.6,45.9,76.8,45.9,77.2z M96.9,77.2c0-0.3,0-0.5,0-0.8c0-10.6,0-21.2,0-31.8c0-1.3-0.6-1.8-2-1.6c0,0.3,0,0.7,0,1
			c0,10.1,0,20.2,0,30.3C94.9,75.8,95.2,76.9,96.9,77.2C96.7,77.2,96.7,77.2,96.9,77.2z M93,81.3c-0.1-0.1-0.2-0.2-0.3-0.3
			c-1.8-1.8-3.7-3.7-5.5-5.5c-0.7-0.7-0.6-1,0.2-1.4c0.5-0.2,0.9-0.4,1.5-0.7c-3.2-1.2-6.2-2.4-9.4-3.7c1.2,3.2,2.4,6.2,3.7,9.4
			c0.3-0.6,0.5-1.1,0.8-1.6c0.3-0.6,0.7-0.7,1.2-0.2c0.8,0.8,1.6,1.6,2.4,2.4c1.2,1.2,2.3,2.3,3.5,3.5C91.8,82.5,92.3,81.9,93,81.3z
			"/>
		<path class="st1" d="M111.9,96.6c0.2,0,0.5,0,0.7,0c0.9,0.1,1.3,0.7,0.9,1.5c-1.6,3.2-4,5.1-7.7,5.1c-22.9,0-45.8,0-68.7,0
			c-3.7,0-6.1-1.8-7.7-5c-0.5-0.9,0-1.6,1-1.6c1.7,0,3.3,0,5,0H111.9z M30.5,97.7c0.1,0.2,0.1,0.3,0.2,0.5c1.4,2.5,3.5,3.8,6.4,3.8
			c22.9,0,45.7,0,68.6,0c0.3,0,0.6,0,0.9,0c2.7-0.3,4.6-1.7,5.8-4.2C85,97.7,57.8,97.7,30.5,97.7z"/>
		<line class="st2" x1="31" y1="31.4" x2="39" y2="31.4"/>
		<line class="st2" x1="41.8" y1="31.4" x2="45.2" y2="31.4"/>
		<line class="st2" x1="28.2" y1="44.2" x2="28.2" y2="52.2"/>
		<line class="st2" x1="28.2" y1="55" x2="28.2" y2="58.4"/>
		<line class="st2" x1="112.4" y1="79.3" x2="112.4" y2="87.3"/>
		<line class="st2" x1="112.4" y1="90.1" x2="112.4" y2="93.5"/>
		<line class="st2" x1="53.1" y1="35" x2="37.2" y2="35"/>
		<line class="st2" x1="34.3" y1="35" x2="31" y2="35"/>
		<line class="st2" x1="110.9" y1="111.8" x2="102.8" y2="111.8"/>
		<line class="st2" x1="100" y1="111.8" x2="96.6" y2="111.8"/>
		<line class="st2" x1="88.7" y1="108.2" x2="104.7" y2="108.2"/>
		<line class="st2" x1="107.5" y1="108.2" x2="110.9" y2="108.2"/>
		<g>
			<g>
				<line class="st2" x1="102.5" y1="33.1" x2="101.5" y2="34.8"/>
				<line class="st2" x1="105.3" y1="28.4" x2="104.3" y2="30"/>
			</g>
			<g>
				<line class="st2" x1="101.9" y1="30.7" x2="100.2" y2="29.7"/>
				<line class="st2" x1="106.6" y1="33.5" x2="104.9" y2="32.5"/>
			</g>
		</g>
		<g>
			<g>
				<line class="st2" x1="35.5" y1="113" x2="34.5" y2="114.7"/>
				<line class="st2" x1="38.3" y1="108.3" x2="37.3" y2="109.9"/>
			</g>
			<g>
				<line class="st2" x1="34.9" y1="110.6" x2="33.2" y2="109.6"/>
				<line class="st2" x1="39.6" y1="113.4" x2="37.9" y2="112.4"/>
			</g>
		</g>
		<circle class="st3" cx="114.5" cy="47.3" r="2.8"/>
		<circle class="st3" cx="55.9" cy="114.6" r="2.8"/>
		<circle class="st3" cx="28.2" cy="82.4" r="2"/>
		<path class="st2" d="M73.9,47.3c0,0,2-1.6,8.7-1.6s9.2,1.6,9.2,1.6"/>
		<path class="st2" d="M73.9,63.5c0,0,2-1.6,8.7-1.6s9.2,1.6,9.2,1.6"/>
		<path class="st2" d="M73.9,68.2c0,0,2-1.6,8.7-1.6s9.2,1.6,9.2,1.6"/>
		<path class="st2" d="M73.9,52.1c0,0,2-1.6,8.7-1.6s9.2,1.6,9.2,1.6"/>
		<path class="st2" d="M73.9,56.7c0,0,2-1.6,8.7-1.6c0.8,0,1.5,0,2.2,0.1"/>
		<path class="st2" d="M68.6,47.3c0,0-2-1.6-8.7-1.6s-9.2,1.6-9.2,1.6"/>
		<path class="st2" d="M68.6,63.5c0,0-2-1.6-8.7-1.6s-9.2,1.6-9.2,1.6"/>
		<path class="st2" d="M68.6,68.2c0,0-2-1.6-8.7-1.6s-9.2,1.6-9.2,1.6"/>
		<path class="st2" d="M68.6,52.1c0,0-2-1.6-8.7-1.6s-9.2,1.6-9.2,1.6"/>
		<path class="st2" d="M68.6,56.7c0,0-2-1.6-8.7-1.6c-0.8,0-1.5,0-2.2,0.1"/>
	</g>
	<rect y="0" class="st4" width="141.7" height="141.7"/>
</g>
</svg>
