<?xml version="1.0" encoding="utf-8"?>
<!-- Generator: Adobe Illustrator 22.1.0, SVG Export Plug-In . SVG Version: 6.00 Build 0)  -->
<svg version="1.1" id="Layer_1" xmlns="http://www.w3.org/2000/svg" xmlns:xlink="http://www.w3.org/1999/xlink" x="0px" y="0px"
	 viewBox="0 0 141.7 141.7" style="enable-background:new 0 0 141.7 141.7;" xml:space="preserve">
<style type="text/css">
	.st0{fill:none;stroke:#A94068;stroke-width:2;}
	.st1{fill:#A94068;}
	.st2{fill:none;}
</style>
<g id="tools_off_state">
	<g>
		<circle class="st0" cx="70.9" cy="70.9" r="67.5"/>
		<g>
			<path class="st1" d="M41.4,62.3c0-1.4,0-2.7,0-4c0-3.2,2.3-5.6,5.5-5.6c9.1,0,18.3,0,27.4,0c0.1,0,0.1,0,0.3-0.1
				c0-1.4,0-2.8,0-4.2c0-0.2-0.3-0.5-0.5-0.6c-3.1-2.1-4.9-5-5.6-8.6c-1.2-6,2.4-12.5,8.2-14.6c0.9-0.3,1.4,0.1,1.4,1.1
				c0,3.7,0,7.3,0,11c0,0.3,0,0.6,0,1c2.2,0,4.4,0,6.6,0c0-0.3,0-0.6,0-1c0-3.6,0-7.1,0-10.7c0-1.5,0.5-1.9,1.9-1.2
				c4.6,2.2,7.4,5.8,7.9,11c0.4,5.1-1.6,9.1-5.8,12.1c-0.3,0.2-0.5,0.7-0.5,1c0,12.8,0,25.6,0,38.4c0,0.5,0.2,0.8,0.6,1.1
				c6.5,4.5,7.8,13.1,2.8,19.2c-1.4,1.7-3.2,3.1-5.3,3.9c-1,0.4-1.5,0.1-1.5-1.1c0-3.7,0-7.4,0-11.2c0-0.2,0-0.5,0-0.8
				c-2.2,0-4.4,0-6.6,0c0,0.3,0,0.6,0,1c0,3.5,0,7.1,0,10.6c0,1.4-0.2,1.6-1.6,1.6c-3.7,0-7.4,0-11.1,0c-10.3,0-20.7-0.1-31,0
				c-3.7,0.1-5-2.4-5-5.1c0-5.5,0-11,0-16.6c0-0.7-0.2-1.1-0.9-1.4c-1.9-1-2.9-2.7-2.9-4.7c-0.1-5.4-0.1-10.7,0-16.1
				c0-2.5,2.2-5.5,5.6-5.5c3,0.1,6,0,9,0C40.6,62.3,41,62.3,41.4,62.3z M74.7,64.1c-0.4,0-0.8,0-1.2,0c-9.2,0-18.5,0-27.7,0
				c-4.7,0-9.5,0-14.2,0c-1.3,0-2.4,0.3-3.2,1.3c-0.7,0.8-1,1.8-1,2.9c0,2.1,0,4.1,0,6.2c0,2.9,0,5.9,0,8.8c0,2.3,1.6,4.1,4.2,4.1
				c14-0.1,28.1,0,42.1,0c0.3,0,0.7,0,1,0C74.7,79.6,74.7,71.9,74.7,64.1z M76.3,26.9c-0.2,0-0.2,0-0.3,0c-3.8,2.2-5.9,5.4-5.9,9.8
				c-0.1,4.1,1.7,7.4,5.2,9.6c0.9,0.6,1.2,1.1,1.2,2.2c0,13,0,26.1,0,39.1c0,0.9-0.3,1.4-1,1.9c-5.9,3.7-7.2,11.4-2.8,16.8
				c1,1.2,2.1,2.2,3.7,2.9c0-0.4,0-0.8,0-1.1c0-3.4,0-6.9,0-10.3c0-1,0.3-1.2,1.2-1.2c2.5,0,5.1,0,7.6,0c1.1,0,1.4,0.2,1.4,1.4
				c0,3.4,0,6.8,0,10.3c0,0.3,0,0.6,0,1.1c0.5-0.3,0.8-0.4,1.1-0.6c7-4.6,6.8-14.6-0.3-19.1c-0.8-0.5-1.1-1.1-1.1-2
				c0-13.1,0-26.2,0-39.3c0-0.8,0.3-1.3,1-1.7c6.6-3.9,7.4-13.2,1.5-18.3c-0.6-0.5-1.4-1-2.2-1.6c0,0.6,0,0.9,0,1.3
				c0,3.4,0,6.8,0,10.2c0,1.1-0.3,1.4-1.4,1.4c-2.5,0-5,0-7.6,0c-1.1,0-1.3-0.3-1.3-1.3c0-3.5,0-7,0-10.4
				C76.3,27.5,76.3,27.2,76.3,26.9z M31.2,89.2c0,0.3,0,0.5,0,0.6c0,5.5,0,11,0,16.6c0,0.3,0.1,0.7,0.1,1c0.3,1.8,1,2.4,2.7,2.4
				c12.8,0,25.6,0,38.3,0c0.3,0,0.6,0,0.9,0c-3-2.8-4.9-6.1-5-10.2s1.4-7.5,4.5-10.3c-1.8,0-3.4,0-5.1,0c0,1.3,0,2.5,0,3.7
				c0,2-1.4,3.8-3.3,4c-2.6,0.2-5.3,0.1-7.9,0c-1.8-0.1-3.2-1.6-3.3-3.4c-0.1-1.4,0-2.8,0-4.2C45.7,89.2,38.5,89.2,31.2,89.2z
				 M43.3,62.2c10.5,0,21,0,31.4,0c0-2.6,0-5.1,0-7.6c-0.6,0-1.1-0.1-1.6-0.1c-5,0-10.1,0-15.1,0c-3.6,0-7.2,0-10.8,0
				c-2.3,0-3.8,1.3-3.9,3.3C43.2,59.3,43.3,60.7,43.3,62.2z M65.8,89.3c-3.7,0-7.3,0-10.9,0c0,0.2-0.1,0.3-0.1,0.5
				c0,1.1,0,2.2,0,3.3c0.1,1.3,0.9,2.1,2.3,2.1c2.2,0,4.3,0,6.5,0c1.2,0,2.1-0.7,2.2-1.9C65.9,91.9,65.8,90.6,65.8,89.3z"/>
			<path class="st1" d="M105,78.2c0.9,0.4,1.7,0.6,2.4,1.1c0.8,0.5,1.1,1.4,1.1,2.4c0,7.8,0,15.6,0,23.4c0,3-1.8,5.3-4.7,6.2
				c-2.6,0.8-5.5-0.2-7.2-2.6c-0.8-1.1-1.1-2.4-1.1-3.7c0-7.7,0-15.5,0-23.2c0-1.8,1.1-3,2.9-3.3c0.2,0,0.3-0.1,0.6-0.1
				c0-0.4,0-0.8,0-1.2c0-16.4,0-32.8,0-49.2c0-1.9,0.7-2.9,2.2-3.4c1.7-0.5,3.5,0.7,3.7,2.4c0,0.4,0,0.7,0,1.1c0,16.4,0,32.7,0,49.1
				C105,77.6,105,78,105,78.2z M97.4,86.9c0,0.4,0,0.7,0,1.1c0,4.7,0,9.4,0,14c0,1.2,0,2.3,0.1,3.5c0.2,2,1.3,3.3,3.1,4
				c3.1,1.1,6.2-1.2,6.2-4.6c0-5.8,0-11.6,0-17.5c0-0.2,0-0.3,0-0.6C103.6,86.9,100.6,86.9,97.4,86.9z M103.2,78.4
				c0-0.4,0-0.7,0-1.1c0-16.4,0-32.8,0-49.2c0-1.3-0.4-1.9-1.1-1.9c-0.8,0-1.1,0.6-1.1,1.9c0,16.4,0,32.8,0,49.1c0,0.4,0,0.7,0,1.1
				C101.7,78.4,102.4,78.4,103.2,78.4z M97.4,85c3.2,0,6.2,0,9.4,0c0-1.1,0-2.2,0-3.3c0-0.9-0.5-1.4-1.4-1.4c-2.2,0-4.3,0-6.5,0
				c-1,0-1.4,0.5-1.5,1.5C97.4,82.9,97.4,83.9,97.4,85z"/>
			<path class="st1" d="M60.4,75c-1.7,0-3.4,0-5.1,0c-0.7,0-1.2-0.2-1.2-0.9c0-0.7,0.6-0.9,1.2-0.9c3.4,0,6.8,0,10.2,0
				c0.4,0,0.8,0.3,1.1,0.5c0.1,0.1,0.1,0.7-0.1,0.8c-0.2,0.2-0.6,0.4-1,0.4C63.8,75,62.1,75,60.4,75z"/>
		</g>
	</g>
	<rect y="0" class="st2" width="141.7" height="141.7"/>
</g>
</svg>
