<svg id="Layer_1" data-name="Layer 1" xmlns="http://www.w3.org/2000/svg" viewBox="0 0 149.47 149.47"><defs><style>.cls-1{fill:none;}.cls-2{fill:#aa4269;}</style></defs><title>Kapitus_Icons_NormalState</title><g id="Ellipse_184" data-name="Ellipse 184"><circle class="cls-1" cx="74.79" cy="74.73" r="74.73"/><path class="cls-2" d="M74.79,149.46a74.73,74.73,0,1,1,74.73-74.73A74.82,74.82,0,0,1,74.79,149.46Zm0-146.19a71.46,71.46,0,1,0,71.46,71.46A71.54,71.54,0,0,0,74.79,3.27Z"/></g><path class="cls-2" d="M104.51,113.46a5.83,5.83,0,0,1-1.71,5.16,4.74,4.74,0,0,1-5.12,1.18A4,4,0,0,1,95,124.06a5.35,5.35,0,0,1-5.16-.35c-.22,2-.69,3.67-2.71,4.36a6,6,0,0,1-5.21-.61c-.15.3-.27.59-.43.85A3.11,3.11,0,0,1,78,129.94c-1.66-.38-3.31-.85-5-1.23a1.37,1.37,0,0,0-1,.19,5.31,5.31,0,0,1-6.28.08c-.72-.54-.91-.85-1.55-2.6a4.45,4.45,0,0,1-4-.87,5.26,5.26,0,0,1-2-3.74,4.8,4.8,0,0,1-4-.11,4.66,4.66,0,0,1-2.4-3.31,4.15,4.15,0,0,1-4.75-1.42c-1.25-1.65-.72-3.35,0-5.08a10.77,10.77,0,0,0-4.79-1,.66.66,0,0,0-.44.25,1.39,1.39,0,0,1-1.67.5c-3.23-.9-6.47-1.8-9.69-2.72-1-.29-1.29-.93-.89-1.94q3.41-8.59,6.82-17.2C37.93,85.9,39.45,82,41,78.16c.54-1.35,1.12-1.56,2.42-.88,2.9,1.53,5.8,3.08,8.71,4.59a1.79,1.79,0,0,0,1,.2c5-.7,10-1.48,15.08-2.11a22,22,0,0,1,4.44.1c2.68.2,5.35.43,8,.71a12.73,12.73,0,0,1,2.42.58c2.4.78,4.77,1.65,7.19,2.38a16.17,16.17,0,0,0,8.47.12c-.13-1.46-.1-1.53,1.24-2.24l8.15-4.31c1.33-.7,1.92-.47,2.47.91q5.61,14.16,11.21,28.31a3.74,3.74,0,0,1,.29,1,1.08,1.08,0,0,1-.85,1.29c-3.28.93-6.54,1.93-9.85,2.75a4,4,0,0,0-2.07.92,4.06,4.06,0,0,1-3,.94ZM72,82.66a14.74,14.74,0,0,0-5.9.18c-4.28.62-8.55,1.24-12.84,1.84-.44.07-.58.22-.67.65-.48,2.14-.94,4.27-1.54,6.38a67.06,67.06,0,0,1-7.1,16.18c-.09.17-.16.35-.22.48a29.09,29.09,0,0,1,3.31.85,2.29,2.29,0,0,0,2.64-.42,4,4,0,0,1,4-1,14.17,14.17,0,0,1,2,1.12,5.34,5.34,0,0,1,4.63-.5A6.25,6.25,0,0,1,64,111.52c2.38-.82,4.45-.48,6.1,1.41a5.9,5.9,0,0,1,.91,6.31A3.92,3.92,0,0,1,74.38,122a7.26,7.26,0,0,1-.21,4.61c1.47.29,2.85.59,4.26.8a1.1,1.1,0,0,0,.91-.48,1.46,1.46,0,0,0-.07-1.06,2.49,2.49,0,0,0-.59-.72c-2.06-2.32-4.13-4.64-6.18-7a1.23,1.23,0,0,1,0-1.81,1.18,1.18,0,0,1,1.74,0c.18.15.34.33.5.49q3.75,3.78,7.51,7.55a4.12,4.12,0,0,0,3.32,1.45,1.51,1.51,0,0,0,1.5-.91,5.38,5.38,0,0,0-.92-4.19c-2.33-2.13-4.68-4.24-7-6.36-1.48-1.35-3-2.69-4.45-4.06a1.19,1.19,0,0,1-.22-1.79,1.24,1.24,0,0,1,1.87-.1,4.6,4.6,0,0,1,.47.41L90.34,121a3.67,3.67,0,0,0,2.87,1,1.79,1.79,0,0,0,1.66-2.7,8.63,8.63,0,0,0-2.63-3.54q-4.06-3.28-8.17-6.56c-1.34-1.08-2.69-2.15-4-3.24a1.26,1.26,0,1,1,1.55-2,9.62,9.62,0,0,1,.8.63l15.41,12.28a2.49,2.49,0,0,0,3.23,0,4,4,0,0,0,.76-4.41,11.76,11.76,0,0,0-2.61-3.37c-6-4.65-12.14-9.19-18.25-13.74a9.68,9.68,0,0,0-6-1.63.91.91,0,0,0-.12.17c0,.14-.09.29-.13.44A9.69,9.69,0,0,1,67.09,102a4.9,4.9,0,0,1-5.47-1.66,2.83,2.83,0,0,1-.25-3.54,12.09,12.09,0,0,0,2.19-5.45,7.53,7.53,0,0,1,2-4.31,12.9,12.9,0,0,1,2-1.59C69,84.49,70.45,83.61,72,82.66Zm27.29,3.85c-2.15.06-4.2.2-6.24.15a22.08,22.08,0,0,1-7.82-2,17,17,0,0,0-8.51-1.45,4,4,0,0,0-1.6.47c-2.16,1.32-4.28,2.71-6.42,4a5.39,5.39,0,0,0-2.56,3.76,14.81,14.81,0,0,1-2.53,6.48c-.11.16-.19.55-.11.62.52.41,1.08,1.06,1.63,1a7.27,7.27,0,0,0,3.08-.67,7,7,0,0,0,4.15-6.23c.06-.94.5-1.56,1.22-1.54,2.29.09,4.66,0,6.73,1.11a45.35,45.35,0,0,1,5.35,3.48c4.13,3,8.19,6.12,12.32,9.12,1.74,1.26,3.65,2.4,4.72,4.26s2.31,1.85,4,1.8a1.65,1.65,0,0,0,1.38-2.59,62.31,62.31,0,0,1-7.09-15.58C100.29,90.65,99.77,88.5,99.24,86.51Zm9.31-6.58-.75.38-4.53,2.47c-.59.33-1.43.52-1.69,1s.07,1.28.14,1.94c0,.13,0,.26,0,.39A64,64,0,0,0,111,108.42a.79.79,0,0,0,1,.39c2.15-.61,4.29-1.24,6.46-1.78.72-.18.7-.46.47-1q-4.56-11.41-9.11-22.84C109.44,82.11,109,81.06,108.55,79.93ZM40.19,109c.17-.23.32-.43.46-.65a64.81,64.81,0,0,0,9.52-24.08c.08-.44-.09-.6-.42-.78-2-1.06-4-2.14-6-3.21-.21-.11-.45-.2-.73-.32L32.34,106.81Zm20.36,11.81.15.08c0,.21,0,.42,0,.62a2.8,2.8,0,0,0,1.76,2.39,2.32,2.32,0,0,0,2.55-.72c.21-.2.44-.37.65-.56A10,10,0,0,0,69,117.41a3,3,0,0,0-1.08-3.09,2.78,2.78,0,0,0-2.93-.43.86.86,0,0,0-.49.5,15.72,15.72,0,0,1-3.28,5.35A7.47,7.47,0,0,0,60.55,120.81Zm-4.3-1.15.1.19a6.85,6.85,0,0,0,2-1.08c1.22-1.33,2.3-2.79,3.39-4.23a1.52,1.52,0,0,0,.21-1,3.5,3.5,0,0,0-2.73-2.78c-1.72-.35-2.62.3-3.09,2a10.87,10.87,0,0,1-1.32,3,3.08,3.08,0,0,0-.49,2.42A2.07,2.07,0,0,0,56.25,119.66Zm15.88,4.11a2,2,0,0,0-1-1.91,1.86,1.86,0,0,0-2.09.81,18.58,18.58,0,0,1-1.48,1.7c-.74.74-1,1.35-.67,2a1.92,1.92,0,0,0,1.93,1.06A3.61,3.61,0,0,0,72.13,123.77Zm-18.43-12c0-1.44-.87-1.95-2-1.31a5.27,5.27,0,0,0-2.7,3.71,1.33,1.33,0,0,0,.5,1.58,1.5,1.5,0,0,0,1.82,0A5.31,5.31,0,0,0,53.7,111.74Z"/><path class="cls-2" d="M70.83,37.16a1.29,1.29,0,1,1-2.57.19c-.18-1-.33-2.05-.49-3.08-.77-4.8-1.53-9.6-2.31-14.4-.21-1.34.59-2.3,1.64-1.82a1.68,1.68,0,0,1,.81,1.09c.56,3.17,1.06,6.35,1.57,9.54.44,2.72.86,5.44,1.29,8.16C70.79,37,70.82,37.1,70.83,37.16Z"/><path class="cls-2" d="M85,19.18c-.37,2.3-.72,4.44-1.06,6.57q-.9,5.58-1.81,11.16c0,.16,0,.31-.09.46-.2.85-.75,1.29-1.47,1.18s-1.11-.71-1-1.59c.21-1.5.44-3,.69-4.48.71-4.41,1.44-8.82,2.16-13.24.1-.62.35-1.15,1-1.22a1.79,1.79,0,0,1,1.17.36C84.89,18.56,85,19,85,19.18Z"/><path class="cls-2" d="M91.72,40.85c-.44-.35-.92-.54-1.06-.87a1.65,1.65,0,0,1,.06-1.29c.62-1.06,1.35-2,2-3.06,1.44-2.1,2.87-4.21,4.31-6.32a1.21,1.21,0,0,1,1.62-.5,1.17,1.17,0,0,1,.68,1.42,1.67,1.67,0,0,1-.32.62Q96,35.4,92.82,39.92A5.68,5.68,0,0,1,91.72,40.85Z"/><path class="cls-2" d="M60.05,39.5c-.29.36-.52.89-.87,1a1.72,1.72,0,0,1-1.4-.27,8.47,8.47,0,0,1-1.24-1.69c-1.73-2.51-3.46-5-5.14-7.54a2,2,0,0,1-.26-1.43c.08-.32.58-.63,1-.75.56-.18,1,.2,1.28.66q2,3,4.1,6c.69,1,1.39,2,2.06,3A9.36,9.36,0,0,1,60.05,39.5Z"/><path class="cls-2" d="M74.73,44A14.93,14.93,0,1,1,59.79,58.29,14.82,14.82,0,0,1,74.73,44Zm0,2.8a12.14,12.14,0,0,0,0,24.27,12.14,12.14,0,1,0,0-24.27Z"/><path class="cls-2" d="M79.55,55a1.49,1.49,0,0,1-1.25,1.69,1.47,1.47,0,0,1-1.66-1.38,1.89,1.89,0,0,0-1.36-1.81,1.84,1.84,0,0,0-1.88.43,1.62,1.62,0,0,0-.53,1.69,1.67,1.67,0,0,0,1.31,1.3,13.33,13.33,0,0,1,2.12.48A4.93,4.93,0,0,1,79.71,62a4.64,4.64,0,0,1-2.85,4.55.73.73,0,0,0-.5.82,4.22,4.22,0,0,1,0,.94,1.45,1.45,0,0,1-1.43,1.38,1.4,1.4,0,0,1-1.5-1.38,1.68,1.68,0,0,0-1.22-1.94,4.51,4.51,0,0,1-2.53-3.87A1.54,1.54,0,0,1,71,60.66c.83-.13,1.51.47,1.65,1.47a2.13,2.13,0,0,0,3,1.77,1.88,1.88,0,0,0,1.1-2.12A2.32,2.32,0,0,0,74.62,60a4.77,4.77,0,0,1-4.37-2.9A4.62,4.62,0,0,1,72.7,50.9a1,1,0,0,0,.72-1.08,1.46,1.46,0,1,1,2.92,0,1.22,1.22,0,0,0,.81,1.29A4.52,4.52,0,0,1,79.55,55Z"/></svg>