<svg id="Layer_1" data-name="Layer 1" xmlns="http://www.w3.org/2000/svg" viewBox="0 0 150 150"><defs><style>.cls-1{fill:none;}.cls-2{fill:#ffffff;}</style></defs><g id="Ellipse_184" data-name="Ellipse 184"><circle class="cls-1" cx="75.34" cy="75.69" r="74.73"/><path class="cls-2" d="M75.34,150.42a74.74,74.74,0,1,1,74.73-74.73A74.81,74.81,0,0,1,75.34,150.42Zm0-146.19A71.46,71.46,0,1,0,146.8,75.69,71.54,71.54,0,0,0,75.34,4.23Z"/></g><path class="cls-2" d="M83.43,32.71a8.71,8.71,0,0,1,2.59,0q25.41,9,50.78,18.17c1.4.5,1.59,1.07,1,2.74q-7.2,20.09-14.39,40.19l-10.86,30.32c-.8,2.23-1,2.32-3.25,1.52-7.25-2.61-14.51-5.2-21.75-7.83a3.63,3.63,0,0,0-2.69,0q-18.24,6.83-36.51,13.59c-1.67.62-2.2.39-2.82-1.25L14.86,48.55c-.71-1.89-.54-2.27,1.33-3L77.08,22.83c2-.72,2.42-.5,3.16,1.46ZM85.75,36,61,105.25l48.86,17.48q12.38-34.65,24.72-69.23Zm-6.33-5.68-.29,0c-.32,2.27-.69,4.54-.94,6.82A2.89,2.89,0,0,1,76.06,40c-15.14,5.61-30.25,11.31-45.37,17-4.85,1.82-3.49,1.87-7.22-1.25-1.18-1-2.34-2-3.51-3l-.2.19q14.15,37.77,28.33,75.61l33.49-12.59c-.49-.2-.8-.33-1.12-.44L60.06,108c-2.32-.84-2.52-1.26-1.69-3.57L81.84,38.69A2.45,2.45,0,0,0,82,37.25C81.2,34.93,80.29,32.64,79.42,30.34ZM19,47.86c2.62,2.24,5.08,4.32,7.51,6.44a1.53,1.53,0,0,0,1.81.3c4.36-1.68,8.75-3.3,13.13-4.93q16.17-6,32.34-12.08a1.76,1.76,0,0,0,1.42-1.78c.08-1.61.43-3.21.64-4.81s.39-3.09.61-4.83Z"/><path class="cls-2" d="M96.65,53.6l-2,5.39c1,1.41,2.11,2.54,2.61,3.91a6.3,6.3,0,0,1-5.75,8.22,1.5,1.5,0,0,0-1.41.78c-.29.42-1.37.85-1.62.66a2.44,2.44,0,0,1-.89-1.81,1.59,1.59,0,0,0-.51-1.52,5.93,5.93,0,0,1-1.75-6.17c.26-1,1.35-1.8,2-1.52.93.39,1,1.15.92,2.12a14.61,14.61,0,0,0,.16,2.79l.48,0c.59-1.76,1.21-3.51,1.74-5.28.07-.24-.25-.68-.49-.9a6.08,6.08,0,0,1-1.89-6.72,6.34,6.34,0,0,1,5.82-4.46,1.37,1.37,0,0,0,.94-.59c.48-.9,1.17-1.31,2.09-.91a1.52,1.52,0,0,1,.84,2A1.75,1.75,0,0,0,98.58,51a6.12,6.12,0,0,1,1.88,6.27c-.29,1.15-1,1.66-2.06,1.37s-1.18-1.18-.92-2.06A2.66,2.66,0,0,0,96.65,53.6Zm-5,14.22a2.94,2.94,0,0,0,2.82-2,2.89,2.89,0,0,0-.91-3.42Zm2-15.31c-2.7.81-3.39,3-1.76,5.3Z"/><path class="cls-2" d="M77.71,96.39c.64-1.93,1.24-3.65,1.75-5.38a1.14,1.14,0,0,0-.39-.91,6.11,6.11,0,0,1-2-6.69c.83-2.72,2.91-4.06,5.65-4.53a2,2,0,0,0,1.21-.76,1.59,1.59,0,0,1,2-.74,1.36,1.36,0,0,1,.88,1.86c-.32.76.06,1,.52,1.48a6.07,6.07,0,0,1,1.88,6.14C88.94,88,88,88.8,87.14,88.51c-1.08-.36-1-1.24-.94-2.21a15.8,15.8,0,0,0-.33-2.89h-.48c-.68,1.89-1.36,3.78-2.06,5.71,1.92,1.41,3.16,3.13,3.07,5.6a6.44,6.44,0,0,1-6.12,6.18,1.69,1.69,0,0,0-1.2.61c-.46.76-1,1.23-1.85.82a1.49,1.49,0,0,1-.85-2c.06-.2.11-.4.19-.66a6.51,6.51,0,0,1-2.72-5.48,6.12,6.12,0,0,1,.35-1.74,1.48,1.48,0,0,1,2-1,1.38,1.38,0,0,1,.94,1.84A3,3,0,0,0,77.71,96.39Zm2.75,1.22a3,3,0,0,0,2.87-2.23,3.06,3.06,0,0,0-1-3.25Zm2.09-15.43c-2.71.82-3.49,3.31-1.75,5.22Z"/><path class="cls-2" d="M99.21,78.21c.68.2,1.05.28,1.41.41L114.3,83.5c1.37.49,1.8,1.21,1.38,2.25a1.39,1.39,0,0,1-1.93,1c-4.91-1.78-9.82-3.55-14.69-5.44a2.28,2.28,0,0,1-1-1.78C98.07,79,98.86,78.58,99.21,78.21Z"/><path class="cls-2" d="M106.41,110.22c0,1.7-1,2.36-2.15,1.93Q97.14,109.57,90,107c-1-.36-1.67-.92-1.36-2.08.26-1,1.16-1.28,2.43-.81,4.71,1.71,9.42,3.43,14.11,5.2A4.42,4.42,0,0,1,106.41,110.22Z"/><path class="cls-2" d="M93.29,93c0-1.6,1-2.21,2.31-1.75,2,.7,4,1.46,6,2.19,2.75,1,5.51,2,8.26,3,1.24.46,1.65,1.44.9,2.35a1.84,1.84,0,0,1-1.57.6q-7.39-2.6-14.74-5.38C93.91,93.86,93.53,93.24,93.29,93Z"/><path class="cls-2" d="M103.77,65.29c.68.2,1.06.29,1.41.42,4.59,1.66,9.19,3.32,13.77,5a2.34,2.34,0,0,1,1.3,1.08,1.9,1.9,0,0,1-.25,1.61,1.58,1.58,0,0,1-1.41.33c-4.93-1.74-9.84-3.52-14.71-5.41a2.62,2.62,0,0,1-1.22-1.81C102.59,66.18,103.42,65.66,103.77,65.29Z"/><path class="cls-2" d="M125.12,59.11c0,1.59-.94,2.14-2.2,1.69-3.51-1.27-7-2.56-10.52-3.84-1.32-.48-2.64-1-4-1.45a1.54,1.54,0,0,1-1-2.1,1.45,1.45,0,0,1,2-.74c4.82,1.77,9.66,3.5,14.46,5.31C124.46,58.2,124.86,58.86,125.12,59.11Z"/><path class="cls-2" d="M37.74,73.3a.9.9,0,0,1,0,1.8A.9.9,0,0,1,37.74,73.3Z"/><path class="cls-2" d="M32.82,73a.89.89,0,0,0,0,1.23L44.7,86.08c.74.82,2-.41,1.23-1.23L34.62,73.54l1.23-1.23,5.41-5.41c6.31,6.31,12.62,12.62,19,18.93-1.06,1.07-2.21,2.22-3.28,3.28-.82.74.41,2,1.23,1.23,1-1,2-2,3-3l1.23,3.2c-.74.73-1.47,1.47-2.21,2.21l-4.26-1.72c-5.25-5.16-10.41-10.41-15.57-15.49-.74-.82-2,.41-1.23,1.23L54.86,92.55a1.53,1.53,0,0,0,.41.25c3.36,1.23,6.64,2.62,10,3.93a.85.85,0,0,0,1.07-1.06c-1.23-3.36-2.63-6.64-3.94-10v-.08a1.64,1.64,0,0,0-.24-.41L41.92,64.94a.89.89,0,0,0-1.23,0L34.62,71C34,71.66,33.39,72.31,32.82,73Zm30.24,19.5c.24.58.49,1.15.73,1.8-.57-.24-1.14-.49-1.8-.73Z"/><path class="cls-2" d="M65.53,97a.8.8,0,0,1-.34-.07L61.5,95.45c-2-.83-4.18-1.68-6.3-2.46a2,2,0,0,1-.48-.29L39,77a1,1,0,0,1-.28-1,1.21,1.21,0,0,1,.86-.82,1,1,0,0,1,.95.31c2.57,2.53,5.2,5.16,7.74,7.71S53.43,88.33,56,90.9l2.09.85,2,.81,2-2-1.07-2.78-2.72,2.73a1,1,0,0,1-1,.28,1.22,1.22,0,0,1-.82-.86,1,1,0,0,1,.32-1L60,85.84C53.69,79.62,47.37,73.3,41.26,67.19l-6.35,6.35L46.08,84.71a1,1,0,0,1,.28,1,1.21,1.21,0,0,1-.86.82,1,1,0,0,1-1-.31L32.67,74.34a1.11,1.11,0,0,1,0-1.52l.15.15-.15-.14.15.14-.14-.15c.56-.64,1.14-1.31,1.8-2l6.06-6.07a1.11,1.11,0,0,1,1.52,0L62.3,85a1.72,1.72,0,0,1,.28.47l0,.13c.48,1.23,1,2.45,1.46,3.66.82,2.06,1.68,4.18,2.46,6.31a1,1,0,0,1-.28,1.09A1.1,1.1,0,0,1,65.53,97ZM39.78,75.53h-.13a.79.79,0,0,0-.55.53.59.59,0,0,0,.17.61L55,92.41a2,2,0,0,0,.35.21c2.11.76,4.24,1.62,6.29,2.45,1.23.49,2.46,1,3.69,1.47a.57.57,0,0,0,.63-.15.6.6,0,0,0,.17-.65c-.77-2.12-1.63-4.24-2.45-6.3-.5-1.22-1-2.45-1.48-3.7v-.1a2.44,2.44,0,0,0-.19-.32L41.77,65.08a.7.7,0,0,0-.94,0l-6.06,6.07c-.65.64-1.23,1.3-1.78,1.94l0,0a.7.7,0,0,0,0,.94L44.85,85.94a.56.56,0,0,0,.56.19A.79.79,0,0,0,46,85.6a.57.57,0,0,0-.17-.6L34.33,73.54l6.93-6.93.28.29c6.16,6.16,12.53,12.53,18.88,18.79l.14.14-3.42,3.43a.57.57,0,0,0-.2.56.79.79,0,0,0,.53.55.59.59,0,0,0,.61-.17L61.25,87l1.39,3.62L60.24,93,60.11,93c-.69-.29-1.41-.57-2.13-.86l-2.13-.86-.07,0C53.16,88.64,50.52,86,48,83.45s-5.17-5.17-7.75-7.71A.53.53,0,0,0,39.78,75.53ZM64.15,94.65l-.44-.19c-.56-.24-1.14-.49-1.79-.73l-.3-.11,1.51-1.51.12.28-.19.08.2-.06c.24.56.48,1.14.73,1.79Zm-1.79-1.19c.38.14.73.29,1.07.44-.15-.38-.3-.73-.44-1.07Z"/><path class="cls-2" d="M29.13,65.51l6.07-6.06a.88.88,0,0,1,1.22,0L40,63c.82.82-.49,2-1.23,1.23-1-1-1.89-1.88-2.87-2.87L31.1,66.09,34,69c.82.82-.5,2-1.23,1.23l-3.53-3.52A.73.73,0,0,1,29.13,65.51Z"/><path class="cls-2" d="M33.31,70.66a1,1,0,0,1-.73-.34L29.07,66.8a.77.77,0,0,1-.37-.6,1,1,0,0,1,.29-.83l6.06-6.07a1.13,1.13,0,0,1,1.52,0l3.52,3.53a1,1,0,0,1,.28,1,1.18,1.18,0,0,1-.85.82,1,1,0,0,1-1-.31l-2.72-2.72-4.46,4.47,2.72,2.72a1,1,0,0,1,.28,1,1.19,1.19,0,0,1-.86.81A.78.78,0,0,1,33.31,70.66Zm2.5-11.25a.66.66,0,0,0-.47.18l-6.06,6.07a.59.59,0,0,0-.18.49.45.45,0,0,0,.22.33L32.88,70a.54.54,0,0,0,.56.19A.77.77,0,0,0,34,69.7a.58.58,0,0,0-.18-.6l-3-3,5-5.05,3,3a.57.57,0,0,0,.56.19.79.79,0,0,0,.56-.53.58.58,0,0,0-.18-.6l-3.52-3.53A.66.66,0,0,0,35.81,59.41Z"/></svg>