<svg id="Layer_1" data-name="Layer 1" xmlns="http://www.w3.org/2000/svg" viewBox="0 0 150 150"><defs><style>.cls-1{fill:none;}.cls-2{fill:#ffffff;}</style></defs><g id="Ellipse_184" data-name="Ellipse 184"><circle class="cls-1" cx="74.87" cy="74.85" r="74.73"/><path class="cls-2" d="M74.87,149.59A74.74,74.74,0,1,1,149.6,74.85,74.82,74.82,0,0,1,74.87,149.59Zm0-146.2a71.46,71.46,0,1,0,71.46,71.46A71.55,71.55,0,0,0,74.87,3.39Z"/></g><path class="cls-2" d="M54.34,101.09q-16.8,0-33.59,0a7.08,7.08,0,0,1-3-.6c-1.62-.77-2-2.3-2-4,0-6,0-12.1,0-18.15q0-12.52,0-25c0-2.6.67-3.79,2.55-4.4a7.46,7.46,0,0,1,2.26-.29q33.72,0,67.45,0c3.39,0,4.85,1.5,4.86,4.89q0,21.41,0,42.8c0,3.46-1.36,4.82-4.86,4.82ZM90.27,69.94H18.33c0,9,0,17.9,0,26.79,0,1.48.35,1.8,1.88,1.81,3.79,0,7.58,0,11.37,0H87.92c2,0,2.44-.37,2.44-2q0-13.06,0-26.14A2.85,2.85,0,0,0,90.27,69.94ZM18.35,58.2h72V53.72c0-2.27-.27-2.54-2.57-2.54H20.93a3.07,3.07,0,0,0-1.33.06c-.49.27-1.16.77-1.19,1.2C18.28,54.36,18.35,56.29,18.35,58.2Zm35.79,9.14H89.35c.72,0,1.06-.32,1-1.08,0-1.17,0-2.35,0-3.52,0-1.9,0-1.9-1.94-1.9H20.18c-.14,0-.28,0-.41,0-1.08-.16-1.57.22-1.46,1.4s0,2.17,0,3.25c0,1.85,0,1.86,1.82,1.86Z"/><path class="cls-2" d="M40,101.6q-9.62,0-19.21,0a7.68,7.68,0,0,1-3.21-.65c-2-1-2.25-3-2.25-4.44q0-6.54,0-13.08V71.17q0-8.94,0-17.89c0-2.83.81-4.2,2.89-4.87a7.75,7.75,0,0,1,2.42-.32q33.72,0,67.45,0c3.65,0,5.35,1.72,5.36,5.39q0,21.41,0,42.8c0,3.73-1.6,5.32-5.36,5.32H40ZM59.74,49.08H20.62a7,7,0,0,0-2.11.27c-1.64.53-2.2,1.52-2.2,3.92q0,8.94,0,17.89V83.4q0,6.54,0,13.08c0,1.92.5,3,1.68,3.54a6.68,6.68,0,0,0,2.78.55q13.34,0,26.68,0H88.06c3.22,0,4.36-1.13,4.36-4.32q0-21.4,0-42.8c0-3.12-1.27-4.39-4.36-4.39Zm-34.42,50H20.21c-1.8,0-2.38-.57-2.38-2.3,0-6.67,0-13.33,0-20V69.44H90.67l.13.54a1.59,1.59,0,0,1,.07.4v3.45c0,7.57,0,15.13,0,22.69,0,2.15-1,2.53-2.94,2.53H25.32ZM18.83,70.44v6.25c0,6.72,0,13.38,0,20,0,1.16.08,1.31,1.38,1.31H87.92c1.79,0,1.94-.24,1.94-1.53,0-7.56,0-15.12,0-22.69V70.44Zm28.51-2.6H20.15c-1,0-1.58,0-1.95-.39s-.37-.91-.37-2c0-.33,0-.66,0-1a20.19,20.19,0,0,0,0-2.21,1.87,1.87,0,0,1,.42-1.6,1.85,1.85,0,0,1,1.61-.35,1.2,1.2,0,0,0,.19,0h68.4c1.11,0,1.66,0,2,.38s.39.93.39,2v1c0,.84,0,1.67,0,2.51a1.38,1.38,0,0,1-1.53,1.6h-42Zm-28-6.55a.69.69,0,0,0-.44.11,1.14,1.14,0,0,0-.12.79,18,18,0,0,1,0,2.32c0,.32,0,.65,0,1a4.55,4.55,0,0,0,.08,1.27,4,4,0,0,0,1.24.09h69.2a.63.63,0,0,0,.44-.11.64.64,0,0,0,.09-.45c0-.86,0-1.71,0-2.56v-1a4.37,4.37,0,0,0-.09-1.31,4.65,4.65,0,0,0-1.35-.09H20.07a1.53,1.53,0,0,1-.37,0ZM90.87,58.7h-73v-.5c0-.5,0-1,0-1.52,0-1.4,0-2.84.07-4.27.05-.73.93-1.32,1.45-1.6a2,2,0,0,1,1.21-.15l.36,0H87.8c2.58,0,3.07.48,3.07,3v5Zm-72-1h71v-4c0-2,0-2-2.07-2H20.93a3.11,3.11,0,0,1-.43,0,1.69,1.69,0,0,0-.66,0,2.19,2.19,0,0,0-.94.8c-.09,1.39-.07,2.81-.06,4.19C18.84,57,18.85,57.36,18.85,57.7Z"/><path class="cls-2" d="M57.93,43.49V41.21H86.28v2.28Z"/><path class="cls-2" d="M86.78,44H57.43V40.71H86.78ZM58.43,43H85.78V41.71H58.43Z"/><path class="cls-2" d="M57.93,108.5v-2.29H86.28v2.29Z"/><path class="cls-2" d="M86.78,109H57.43v-3.29H86.78Zm-28.35-1H85.78v-1.29H58.43Z"/><path class="cls-2" d="M105.61,73.66H134V76H105.61Z"/><path class="cls-2" d="M134.45,76.5H105.11V73.16h29.34Zm-28.34-1h27.34V74.16H106.11Z"/><path class="cls-2" d="M101,59.21V56.94h25.61v2.27Z"/><path class="cls-2" d="M127.14,59.71H100.53V56.44h26.61Zm-25.61-1h24.61V57.44H101.53Z"/><path class="cls-2" d="M101.05,92.8V90.44h25.63V92.8Z"/><path class="cls-2" d="M127.18,93.3H100.55V89.94h26.63Zm-25.63-1h24.63V90.94H101.55Z"/><path class="cls-2" d="M94.52,43.49V41.2h11.85v2.29Z"/><path class="cls-2" d="M106.87,44H94V40.7h12.85ZM95,43h10.85V41.7H95Z"/><path class="cls-2" d="M106.42,106.2v2.3H94.57v-2.3Z"/><path class="cls-2" d="M106.92,109H94.07v-3.3h12.85Zm-11.85-1h10.85v-1.3H95.07Z"/><path class="cls-2" d="M36.82,94.78c-4.16,2.75-8.37,2.4-11.31-.87a8.33,8.33,0,0,1-.3-10.69c2.88-3.54,6.95-4,11.63-1.22,4.26-2.68,8.45-2.35,11.35.9a8.08,8.08,0,0,1,.31,10.64C46.14,96.36,41.63,98.15,36.82,94.78Zm5.38-.68a5.76,5.76,0,0,0,5.66-5.71,5.73,5.73,0,1,0-11.45,0A5.73,5.73,0,0,0,42.2,94.1ZM35.13,84a5.55,5.55,0,0,0-7.74.55,5.76,5.76,0,0,0,.24,7.92c2,2,5.77,2.07,7.49.24A8.26,8.26,0,0,1,35.13,84Z"/><path class="cls-2" d="M31.29,97.13a8.12,8.12,0,0,1-6.15-2.89,8.78,8.78,0,0,1-.31-11.34c3-3.65,7.23-4.17,12-1.48,4.37-2.63,8.74-2.21,11.73,1.15a8.59,8.59,0,0,1,.32,11.29c-2.56,3.08-7.26,4.7-12.07,1.52A10.42,10.42,0,0,1,31.29,97.13Zm5.53-3,.28.2c4.69,3.28,8.86,1.43,11-1.15a7.59,7.59,0,0,0-.3-10c-2.74-3.08-6.64-3.37-10.7-.82l-.26.16-.26-.15c-4.47-2.62-8.27-2.23-11,1.1a7.78,7.78,0,0,0,.28,10c2.77,3.09,6.75,3.38,10.66.79Zm5.33.43a6.2,6.2,0,0,1-6.24-6.21,6.31,6.31,0,0,1,6.28-6.26,5.94,5.94,0,0,1,4.2,1.76,6.43,6.43,0,0,1,2,4.5A6.29,6.29,0,0,1,42.2,94.6h-.05Zm.13-11.47h-.07a5.31,5.31,0,0,0-5.3,5.25,5.21,5.21,0,0,0,5.24,5.22h0a5.28,5.28,0,0,0,5.17-5.21,5.43,5.43,0,0,0-1.67-3.78A4.92,4.92,0,0,0,42.28,83.13ZM31.62,94.55a6.07,6.07,0,0,1-4.35-1.72A6.27,6.27,0,0,1,27,84.22a6,6,0,0,1,8.41-.6l.34.26-.21.37a7.72,7.72,0,0,0,0,8.22l.19.32-.25.27a5.32,5.32,0,0,1-3.81,1.49ZM31.49,83.2a5,5,0,0,0-3.73,1.69A5.29,5.29,0,0,0,28,92.13a5.15,5.15,0,0,0,3.68,1.42,4.51,4.51,0,0,0,2.83-.93,8.61,8.61,0,0,1,0-8.46A5.36,5.36,0,0,0,31.49,83.2Z"/><path class="cls-2" d="M61.18,95.31V93H82.76v2.3Z"/><path class="cls-2" d="M83.26,95.81H60.68v-3.3H83.26Zm-21.58-1H82.26v-1.3H61.68Z"/><path class="cls-2" d="M61.18,90.7V88.4H82.76v2.3Z"/><path class="cls-2" d="M83.26,91.2H60.68V87.9H83.26Zm-21.58-1H82.26V88.9H61.68Z"/><path class="cls-2" d="M82.8,83.77v2.34H61.21V83.77Z"/><path class="cls-2" d="M83.3,86.61H60.71V83.27H83.3Zm-21.59-1H82.3V84.27H61.71Z"/><path class="cls-2" d="M82.8,79.16V81.5H61.21V79.16Z"/><path class="cls-2" d="M83.3,82H60.71V78.66H83.3ZM61.71,81H82.3V79.66H61.71Z"/><path class="cls-2" d="M82.8,74.55v2.33H61.21V74.55Z"/><path class="cls-2" d="M83.3,77.38H60.71V74.05H83.3Zm-21.59-1H82.3V75.05H61.71Z"/></svg>