<svg id="Layer_1" data-name="Layer 1" xmlns="http://www.w3.org/2000/svg" viewBox="0 0 150 150"><defs><style>.cls-1{fill:none;}.cls-2{fill:#aa4269;}</style></defs><title>Kapitus_Icons_NormalState</title><g id="Ellipse_184" data-name="Ellipse 184"><circle class="cls-1" cx="74.59" cy="75.06" r="74.73"/><path class="cls-2" d="M74.59,149.79a74.74,74.74,0,1,1,74.73-74.73A74.82,74.82,0,0,1,74.59,149.79Zm0-146.19a71.46,71.46,0,1,0,71.46,71.46A71.54,71.54,0,0,0,74.59,3.6Z"/></g><path class="cls-2" d="M121,34.26H47.39a1.6,1.6,0,0,0-1.6,1.6v38.4H28.19a1.6,1.6,0,0,0-1.6,1.6,14.42,14.42,0,0,0,11.25,14,13.75,13.75,0,0,0,8,11.4.76.76,0,0,0,0,.15c0,8.34,6.73,14.4,16,14.4H65.5l2.82-.09A20.89,20.89,0,0,0,87.39,95.06,20.54,20.54,0,0,0,85,85.46h36a1.6,1.6,0,0,0,1.6-1.6v-48A1.6,1.6,0,0,0,121,34.26Zm-72,16h6.24A8,8,0,0,1,49,56.49Zm0-3.2v-3.2h70.4v3.2Zm70.4,3.2v6.23a8,8,0,0,1-6.24-6.23ZM49,37.46h70.4v3.2H49Zm19.15,75.12-6.35.08c-6.91,0-11.91-3.88-12.69-9.6H61.79a1.6,1.6,0,1,0,0-3.2h-8c-6.91,0-11.91-3.88-12.69-9.6h9.49a1.6,1.6,0,0,0,0-3.2H41a11.22,11.22,0,0,1-11.09-9.6H66.59a16.48,16.48,0,0,1,2,.12c.15,0,.29,0,.43.06.53.08,1,.17,1.56.29l.4.1c.54.14,1.06.3,1.58.49l.28.1a17.85,17.85,0,0,1,1.73.77l0,0A17.39,17.39,0,0,1,78,81.7l0,0a15.85,15.85,0,0,1,1.39,1.33c.06.08.13.15.19.22a17,17,0,0,1,1.14,1.4,17.45,17.45,0,0,1,3.42,10.38A17.68,17.68,0,0,1,68.14,112.58Zm9.65-35-.19-.12c-.57-.36-1.17-.69-1.77-1l-.31-.15q-.87-.42-1.77-.75l-.37-.13c-.59-.21-1.19-.38-1.79-.53l-.44-.11a18,18,0,0,0-1.81-.32l-.46-.07a21.66,21.66,0,0,0-2.29-.13H49V59.73a11.21,11.21,0,0,0,9.47-9.47h51.46a11.21,11.21,0,0,0,9.47,9.47V72.78a11.21,11.21,0,0,0-9.47,9.48H83l-.07-.09A21,21,0,0,0,77.79,77.56Zm41.6,4.7h-6.24A8,8,0,0,1,119.39,76Z"/><path class="cls-2" d="M92.19,66.26a8,8,0,1,0-8,8A8,8,0,0,0,92.19,66.26Zm-12.8,0a4.8,4.8,0,1,1,4.8,4.8A4.8,4.8,0,0,1,79.39,66.26Z"/><rect class="cls-2" x="92.19" y="96.66" width="3.2" height="3.2"/><rect class="cls-2" x="98.59" y="96.66" width="11.2" height="3.2"/><rect class="cls-2" x="104.99" y="107.86" width="3.2" height="3.2"/><rect class="cls-2" x="111.39" y="107.86" width="11.2" height="3.2"/><rect class="cls-2" x="26.59" y="63.06" width="3.2" height="3.2"/><rect class="cls-2" x="32.99" y="63.06" width="8" height="3.2"/></svg>