<svg id="Layer_1" data-name="Layer 1" xmlns="http://www.w3.org/2000/svg" viewBox="0 0 150 150"><defs><style>.cls-1{fill:none;}.cls-2{fill:#aa4269;}</style></defs><title>Kapitus_Icons_NormalState</title><g id="Ellipse_184" data-name="Ellipse 184"><circle class="cls-1" cx="74.63" cy="75.19" r="74.73"/><path class="cls-2" d="M74.63,149.92a74.73,74.73,0,1,1,74.73-74.73A74.81,74.81,0,0,1,74.63,149.92Zm0-146.19a71.46,71.46,0,1,0,71.46,71.46A71.55,71.55,0,0,0,74.63,3.73Z"/></g><path class="cls-2" d="M91.05,51.45a37.16,37.16,0,0,1,3.15-2.68,11.88,11.88,0,0,1,3.08-1.5,2.91,2.91,0,0,1,3.71,2,10.16,10.16,0,0,1-.11,5.47c-.25,1.15-.58,2.27-.88,3.39,1.52-.71,3-1.44,4.49-2.1a7.61,7.61,0,0,1,2.13-.6c3-.33,4.62,1.58,3.9,4.58a22.86,22.86,0,0,1-3.93,7.76c-1,1.4-2,2.73-3.23,4.29l.94-.36a25.49,25.49,0,0,1,9.35-2.21,7,7,0,0,1,2.48.49,2.86,2.86,0,0,1,1.67,3.4,11,11,0,0,1-3.12,5c-1,1.09-2.15,2.07-3.31,3.17H113a15.35,15.35,0,0,1,6.34.88c2.48,1.08,3.06,3.2,1.43,5.35a15.64,15.64,0,0,1-4.7,3.73c-.57.33-1.15.63-1.89,1,.89.24,1.66.38,2.37.65,1.32.48,2.61,1,3.9,1.56a3.45,3.45,0,0,1,.71.43c2.44,1.71,2.44,4.26,0,6A19.36,19.36,0,0,1,114,103.8a67.34,67.34,0,0,1-17.87,1,42.83,42.83,0,0,1-12.4-2.21A15.07,15.07,0,0,1,80.51,101a3.54,3.54,0,0,1-1.46-4c.19-1.15-.23-2.38.31-3.58.15-.33-.34-.9-.41-1.38a5.52,5.52,0,0,1,1.17-3.69A3.36,3.36,0,0,1,77.75,86c-.06-.23-.49-.4-.78-.52-.64-.28-1.3-.52-1.91-.76-.62.23-1.31.46-2,.75-.28.12-.66.31-.74.55a3.1,3.1,0,0,1-2.14,2.27,12.62,12.62,0,0,1,.9,3.51,22.15,22.15,0,0,0,0,3.55c.12.92,0,1.9,0,2.87.12,1.43-.84,2.34-1.92,3.07a17.84,17.84,0,0,1-6.39,2.38,68.91,68.91,0,0,1-18.52,1.2,43.91,43.91,0,0,1-12.4-2.2,9.42,9.42,0,0,1-3.9-2.26A3,3,0,0,1,28,96a9.55,9.55,0,0,1,2.73-1.81c1.58-.68,3.26-1.13,5-1.7l-.66-.41c-1.67-1.15-3.36-2.28-5-3.48a4.41,4.41,0,0,1-1-1.26,3,3,0,0,1,1.2-4.67,15,15,0,0,1,4.21-1,36.89,36.89,0,0,1,4.37,0l-1.24-1.13a21.77,21.77,0,0,1-4.62-5.37,4.07,4.07,0,0,1-.58-3.32c.51-1.6,1.93-2.41,4.12-2.33a26,26,0,0,1,8.11,1.81l2.08.78c-1.27-1.72-2.5-3.3-3.64-5a21.62,21.62,0,0,1-3.41-6.84A4,4,0,0,1,40,56.69a3.42,3.42,0,0,1,4.09-1.13c2,.71,4,1.64,6,2.46a21.66,21.66,0,0,1-.65-2.46,31.3,31.3,0,0,1-.56-4.9c0-2.93,2.41-4.39,5-3.1A23.43,23.43,0,0,1,59,51.46c.1-1.42.09-2.71.31-4a11.58,11.58,0,0,1,1-3.27,2.94,2.94,0,0,1,4.26-1.12,11.52,11.52,0,0,1,3.79,4.09c.18.27.36.54.54.83a37.16,37.16,0,0,1,1.47-4,10.65,10.65,0,0,1,2.07-2.93,2.89,2.89,0,0,1,4,.21,10.68,10.68,0,0,1,2.68,4.95c.36,1.18.63,2.39,1,3.74.2-.36.36-.63.5-.9a17,17,0,0,1,4.08-5.46c2.23-1.78,4.59-1.22,5.52,1.47A25.15,25.15,0,0,1,91,49.75,11.88,11.88,0,0,1,91.05,51.45ZM68.15,90.83c-.65-1.28-1.31-2.66-2.59-3.28a47.15,47.15,0,0,1-10.11-6.83,26.93,26.93,0,0,0-3.56-3.06A43.92,43.92,0,0,0,38.6,72.39a13,13,0,0,0-2.79-.19c-.85,0-1,.35-.7,1.12A7.64,7.64,0,0,0,36,74.81a34.69,34.69,0,0,0,8,7.25,1.61,1.61,0,0,0,.69.23,74.41,74.41,0,0,1,13.6,3.65A44.42,44.42,0,0,1,68.15,90.83Zm-.27,8a25.64,25.64,0,0,1-8.24.32,69.83,69.83,0,0,1-18-4.18,3.85,3.85,0,0,0-2.17-.2c-1.13.22-2.27.4-3.4.64a16.28,16.28,0,0,0-5.49,2c-1,.62-1,1.08,0,1.59a22.08,22.08,0,0,0,4.09,1.7,49.36,49.36,0,0,0,11.86,1.57A62.71,62.71,0,0,0,63,100.8,12.35,12.35,0,0,0,67.88,98.79Zm14-8.05c.14.06.16.08.17.07,6.44-4.29,13.67-6.51,21.16-8.06,1.53-.31,3.06-.52,4.3-1.66,1.47-1.34,3.08-2.52,4.5-3.9a21.14,21.14,0,0,0,2.7-3.33c.81-1.2.51-1.69-.92-1.68a9,9,0,0,0-2.38.21c-6,1.61-11.82,3.59-16.49,8a38.38,38.38,0,0,1-10,6.89C83.44,88.05,82.74,89.44,81.87,90.74Zm.54,8.33c.63.29,1.34.65,2.07.94a32.06,32.06,0,0,0,8.37,1.78,70.08,70.08,0,0,0,18.47-.3,24.62,24.62,0,0,0,7.29-2,9.36,9.36,0,0,0,1.6-1.31c-.54-.44-1-1.08-1.63-1.29-2-.71-4.14-1.26-6.22-1.87a7,7,0,0,0-5.27.42,11.63,11.63,0,0,1-2.11.71A69.26,69.26,0,0,1,90,99.1C87.5,99.26,84.94,99.09,82.41,99.07Zm-1-13.6.13.24A5.46,5.46,0,0,0,83.07,85a48.69,48.69,0,0,1,10.19-7.59A24,24,0,0,0,99.7,72c.38-.43.77-.86,1.15-1.3a41.16,41.16,0,0,0,6.17-9,13.7,13.7,0,0,0,.9-2.64c.2-.88-.11-1.16-1-.93a13,13,0,0,0-2.94,1c-1.79,1-3.51,2.16-5.22,3.32a3.43,3.43,0,0,0-1.11,1.36,73.74,73.74,0,0,1-9.47,15.27A24.41,24.41,0,0,1,81.39,85.47Zm-12.82.26v-.12c-1.47-1.28-3.06-2.45-4.39-3.86A66.23,66.23,0,0,1,52.61,64.24a4.62,4.62,0,0,0-1.69-2.06A44.29,44.29,0,0,0,47,59.68,28.29,28.29,0,0,0,43,58.14c-.57-.2-1,.1-.8.72a17.91,17.91,0,0,0,1.08,3.27c2.18,4.33,5.33,7.94,8.6,11.47a15.62,15.62,0,0,0,3.8,3A58.77,58.77,0,0,1,67,84.94,6.58,6.58,0,0,0,68.57,85.73ZM54.71,91.57A102.56,102.56,0,0,1,43.46,85a1.23,1.23,0,0,0-.6-.25c-2.55-.18-5.1-.43-7.66-.47a14.43,14.43,0,0,0-3.46.64c-.62.15-.78.61-.32,1.1a13.29,13.29,0,0,0,1.71,1.65,32.17,32.17,0,0,0,7.43,3.91,2.38,2.38,0,0,0,1,.13c3.39-.11,6.78-.24,10.17-.32C52.69,91.38,53.7,91.51,54.71,91.57Zm40.51,0c.29,0,.43,0,.56,0a74.41,74.41,0,0,1,12.4.16,2.64,2.64,0,0,0,1.29-.09c2.07-1,4.16-1.91,6.14-3a13.88,13.88,0,0,0,2.91-2.4c.68-.67.53-1-.41-1.33a10.49,10.49,0,0,0-1.76-.42,29.62,29.62,0,0,0-8.25.2,6.38,6.38,0,0,0-2.1.82c-1.38.79-2.68,1.73-4.07,2.51C99.77,89.18,97.57,90.3,95.22,91.55ZM81.09,65.73l.17.09a2,2,0,0,1,.08-.22q3.27-5.1,6.52-10.22a1.4,1.4,0,0,0,.22-.6,23.76,23.76,0,0,0,0-7.48,9.27,9.27,0,0,0-.86-1.91,9.77,9.77,0,0,0-1.61,1.2c-2.21,2.49-3.46,5.52-4.73,8.55a1.77,1.77,0,0,0,0,.73c.09,3,.19,6,.28,9C81.1,65.16,81.09,65.45,81.09,65.73ZM75,64.23c.77-2.54,1.49-5.08,2.35-7.57a6.18,6.18,0,0,0,.42-3.52c-.09-.35-.11-.7-.17-1.06a25.7,25.7,0,0,0-2-7.2,15.9,15.9,0,0,0-1.18-1.8l-.33,0a9.42,9.42,0,0,0-1.23,2c-.67,2.09-1.23,4.21-1.77,6.33a2.5,2.5,0,0,0,.11,1.35c.68,1.94,1.46,3.85,2.11,5.8S74.47,62.34,75,64.23ZM88.32,68c1.86-1.72,3.87-3.64,6-5.46a6.11,6.11,0,0,0,2.2-2.87c.27-.93.67-1.81,1-2.73a16.5,16.5,0,0,0,1.08-6.14c-.09-1.09-.3-1.23-1.29-.76-2.14,1-3.65,2.8-5.24,4.49a6,6,0,0,0-1.59,3.16C89.82,61.25,89,64.73,88.32,68Zm-26.41.12a4,4,0,0,0,0-.47Q60.69,62.34,59.51,57a2.67,2.67,0,0,0-.36-1.06,23.42,23.42,0,0,0-5.39-5.31,9.59,9.59,0,0,0-1.87-.74A7,7,0,0,0,51.55,52a31.74,31.74,0,0,0,1,4.74c.72,2.35,1.4,4.65,3.63,6.25A66.49,66.49,0,0,1,61.91,68.16Zm5.46-5.1.14,0c0-.18,0-.36,0-.53.19-3.19.39-6.38.58-9.57a1.13,1.13,0,0,0-.07-.55,21.14,21.14,0,0,0-3.6-5.88,7.94,7.94,0,0,0-1.57-1.08,9.3,9.3,0,0,0-.79,1.77A23.47,23.47,0,0,0,62,54.66a2.46,2.46,0,0,0,.44,1l4.45,6.65C67,62.53,67.19,62.8,67.37,63.06ZM78.61,81c1.35-2.09,2.69-4.13,4-6.19a5.76,5.76,0,0,0,.66-1.22c1-2.88,2-5.76,2.91-8.66.32-1,.51-2.08.75-3.12C83,67.69,79.86,73.93,78.61,81Zm-5.38-5h.12a24.73,24.73,0,0,0,.23-4.28,65.83,65.83,0,0,0-2.75-12.14c-.11-.33-.23-.65-.35-1l-.26.05c0,1.79,0,3.58,0,5.37,0,2.88.18,5.71,1.61,8.33A27.31,27.31,0,0,1,73.23,76ZM63.49,61.73l-.26.08a1.78,1.78,0,0,0,0,.4A65.22,65.22,0,0,0,67,74a17.56,17.56,0,0,0,1.71,2.56,25.52,25.52,0,0,0-.38-3c-.2-1.28-.09-2.69-.61-3.81C66.47,67.05,64.93,64.41,63.49,61.73Zm38.2,32.41a50,50,0,0,0-17,2.18C90.51,96.83,96.12,95.66,101.69,94.14ZM65.32,96.35c-5.47-2-11.18-2.17-16.9-2.21C53.94,95.68,59.53,96.77,65.32,96.35Zm-7.6-28.28a56.8,56.8,0,0,0,9.59,13C65.38,75.81,61.76,71.78,57.72,68.07ZM82.8,81a55.24,55.24,0,0,0,9.53-12.92C88.33,71.84,84.66,75.8,82.8,81Zm-4.5-18c-1,4.22-2.43,8.38-1.41,12.81A46.13,46.13,0,0,0,78.3,63.08ZM64.37,91.83c-2.1-1.56-10.7-5-12.61-5A48.88,48.88,0,0,0,64.37,91.83Zm21.35,0a46,46,0,0,0,12.5-5A49.3,49.3,0,0,0,85.72,91.81Z"/></svg>