<svg id="Layer_1" data-name="Layer 1" xmlns="http://www.w3.org/2000/svg" viewBox="0 0 149.47 149.47"><defs><style>.cls-1{fill:none;}.cls-2{fill:#aa4269;}</style></defs><title>Kapitus_Icons_NormalState</title><g id="Ellipse_184" data-name="Ellipse 184"><circle class="cls-1" cx="74.66" cy="74.6" r="74.73"/><path class="cls-2" d="M74.66,149.34A74.74,74.74,0,1,1,149.39,74.6,74.82,74.82,0,0,1,74.66,149.34Zm0-146.2A71.46,71.46,0,1,0,146.12,74.6,71.55,71.55,0,0,0,74.66,3.14Z"/></g><path class="cls-2" d="M109.13,110.23V114c0,1.9-.41,2.31-2.31,2.31H98.24c-1.51,0-2.06-.54-2.07-2,0-1.27,0-2.53,0-3.79a1,1,0,0,0-.07-.21H55.61v1.38c0,4.91.46,4.68-4.69,4.65H44.74c-1.54,0-2.09-.56-2.1-2.09v-4c-.31,0-.58,0-.85,0-1.45,0-2.89,0-4.33,0s-1.83-.56-1.83-1.84c0-13.43-.08-26.85.06-40.28a35.7,35.7,0,0,1,4.49-16.68A40.33,40.33,0,0,1,66.94,30.59c.37-.09.75-.15,1.13-.22l1.27-.26L68.23,29c-.58-.59-1.17-1.16-1.72-1.77a1.36,1.36,0,0,1-.29-1.57,1.54,1.54,0,0,1,1.45-1h.54c5.18,0,10.36,0,15.54,0a1.71,1.71,0,0,1,1.83,1c.37.84-.06,1.41-.63,2-.83.79-1.62,1.61-2.39,2.39,2.4.69,4.78,1.24,7.06,2.07a39.47,39.47,0,0,1,16.24,11A40.44,40.44,0,0,1,115,60.22a34.91,34.91,0,0,1,1.18,8.62c0,13.16,0,26.33,0,39.5,0,1.32-.53,1.86-1.87,1.88s-2.84,0-4.26,0Zm4-3.13c0-.27,0-.5,0-.72,0-12.22,0-24.43,0-36.64a35.55,35.55,0,0,0-.67-6.9A36.83,36.83,0,0,0,99.9,41.56,35.89,35.89,0,0,0,80.26,33a1.58,1.58,0,0,0-1.05.38c-.72.62-1.36,1.34-2,2a1.59,1.59,0,0,1-2.55,0c-.72-.7-1.4-1.44-2.14-2.12a1.3,1.3,0,0,0-.87-.28c-1.22.15-2.45.31-3.65.58a36.87,36.87,0,0,0-23.43,16.5,35.17,35.17,0,0,0-5.79,19.32c0,12.36,0,24.73,0,37.1,0,.2,0,.4.05.63ZM71.65,27.78l4.24,4.32,4.31-4.32ZM52.49,110.23c-2.16,0-4.24,0-6.32,0a.58.58,0,0,0-.42.38c0,.84,0,1.68,0,2.53h6.76Zm46.76,2.94H106v-2.94c-2.14,0-4.23,0-6.31,0a.59.59,0,0,0-.41.4C99.23,111.46,99.25,112.28,99.25,113.17Z"/><path class="cls-2" d="M43,69.9a32.85,32.85,0,1,1,32.44,32.85A32.83,32.83,0,0,1,43,69.9Zm62.56,1.59h-3.09c-1.15,0-1.91-.66-1.88-1.6s.73-1.49,1.86-1.49h3.11a29.62,29.62,0,0,0-3.19-12c-1,.56-1.81,1.12-2.73,1.57a2.63,2.63,0,0,1-1.45.28,1.27,1.27,0,0,1-1-1.18,1.54,1.54,0,0,1,.77-1.64c.94-.57,1.89-1.12,2.88-1.71a29.44,29.44,0,0,0-8.72-8.78c-.59,1-1.12,2-1.7,2.93a1.49,1.49,0,0,1-2.42.4,1.52,1.52,0,0,1-.2-2c.52-.95,1.06-1.9,1.63-2.9a27.93,27.93,0,0,0-12-3.16c0,1.19,0,2.26,0,3.34a1.52,1.52,0,0,1-1.48,1.64,1.57,1.57,0,0,1-1.58-1.57c0-.56,0-1.13,0-1.7V40.22A27.93,27.93,0,0,0,62.4,43.4l.83,1.47c.28.49.58,1,.84,1.48A1.53,1.53,0,0,1,63,48.69a1.43,1.43,0,0,1-1.57-.86c-.56-.95-1.1-1.9-1.68-2.91A30.22,30.22,0,0,0,51,53.71c1,.59,2,1.14,2.94,1.75a1.54,1.54,0,1,1-1.61,2.62c-.95-.54-1.9-1.1-2.84-1.65-1.58,2.11-3.49,9.2-3.22,12,1.12,0,2.25,0,3.37,0a1.47,1.47,0,0,1,1.55,1.4,1.53,1.53,0,0,1-1.67,1.68c-1.1,0-2.2,0-3.3,0,0,3.49,1.75,9.91,3.26,11.89a29.33,29.33,0,0,1,2.95-1.63,2.36,2.36,0,0,1,1.65.1,1.15,1.15,0,0,1,.58,1.46,2.78,2.78,0,0,1-1,1.21c-.85.59-1.79,1.06-2.69,1.58,1.71,3,6.05,7.32,8.76,8.72.52-.91,1-1.83,1.57-2.73A1.56,1.56,0,1,1,64,93.63c-.51.92-1,1.82-1.55,2.73a28.79,28.79,0,0,0,15.47,3.25,29.3,29.3,0,0,0,11.52-3.2l-1.71-3a1.29,1.29,0,0,1,.13-1.65,2.16,2.16,0,0,1,1.48-.53,2,2,0,0,1,1.15.88c.6.88,1.09,1.83,1.63,2.77a29.48,29.48,0,0,0,8.74-8.74c-1-.56-1.91-1-2.78-1.62a2.22,2.22,0,0,1-.84-1,1.38,1.38,0,0,1,.49-1.59,1.48,1.48,0,0,1,1.73-.14c1,.54,2,1.11,3,1.69A29.4,29.4,0,0,0,105.58,71.49Z"/><path class="cls-2" d="M48.05,103.36c-1.13,0-2.27,0-3.4,0a1.47,1.47,0,0,1-1.6-1.5,1.51,1.51,0,0,1,1.54-1.58c2.29,0,4.59,0,6.88,0a1.54,1.54,0,1,1-.1,3.07C50.26,103.37,49.16,103.36,48.05,103.36Z"/><path class="cls-2" d="M103.73,103.36c-1.11,0-2.22,0-3.32,0a1.54,1.54,0,0,1-1.63-1.5,1.56,1.56,0,0,1,1.57-1.58c2.27,0,4.53,0,6.8,0a1.54,1.54,0,1,1,0,3.08C106,103.37,104.86,103.36,103.73,103.36Z"/><path class="cls-2" d="M87,60.91a32,32,0,0,1-1.26,4.25A37.67,37.67,0,0,1,73.12,80.9a12.15,12.15,0,0,1-3.74,1.73c-2.74.75-4.75-1.18-4.44-4a18.56,18.56,0,0,1,2.69-7.32,39.87,39.87,0,0,1,7.81-9.81A37.28,37.28,0,0,1,80.15,58a7.89,7.89,0,0,1,2.73-1c2.35-.46,4,1.13,3.94,3.8Zm-6.4.55-.19-.2c-1.12,1-2.3,1.86-3.36,2.89A34.66,34.66,0,0,0,68.66,76.3,14.24,14.24,0,0,0,68,79.06c-.1.57.25.84.8.63a8.51,8.51,0,0,0,1.81-.84,34.94,34.94,0,0,0,12.3-14.74,3.73,3.73,0,0,0,.2-.56,18.16,18.16,0,0,0-1.77,2c-1.39,1.76-2.77,3.52-4.17,5.27a1.56,1.56,0,0,1-2.19.36A1.51,1.51,0,0,1,74.72,69c.14-.22.31-.41.47-.62Z"/><path class="cls-2" d="M76,89.36c1,0,2.11,0,3.17,0a1.53,1.53,0,1,1,0,3.06q-3.28,0-6.57,0A1.52,1.52,0,0,1,71,90.94a1.54,1.54,0,0,1,1.64-1.57C73.73,89.34,74.86,89.36,76,89.36Z"/></svg>