<svg id="Layer_1" data-name="Layer 1" xmlns="http://www.w3.org/2000/svg" viewBox="0 0 150 150"><defs><style>.cls-1{fill:none;}.cls-2{fill:#aa4269;}</style></defs><title>Kapitus_Icons_NormalState</title><g id="Ellipse_184" data-name="Ellipse 184"><circle class="cls-1" cx="74.6" cy="75.02" r="74.73"/><path class="cls-2" d="M74.6,149.75A74.74,74.74,0,1,1,149.34,75,74.82,74.82,0,0,1,74.6,149.75Zm0-146.19A71.46,71.46,0,1,0,146.06,75,71.54,71.54,0,0,0,74.6,3.56Z"/></g><path class="cls-2" d="M118,111.14h-5v-50A1.06,1.06,0,0,0,111.94,60h-10a1.07,1.07,0,0,0-1.07,1.06V111H96.36V74.33a1.07,1.07,0,0,0-1.07-1.06h-10a1.06,1.06,0,0,0-1.07,1.06v36.81H79.72V84.79a1.07,1.07,0,0,0-1.07-1.07h-10a1.08,1.08,0,0,0-1.07,1.07V111H63.07V97.16c0-1.81-2.45-.64-11.09-1.06a1.06,1.06,0,0,0-1.07,1.06V111H31.28a1.08,1.08,0,0,0-1.07,1.07,1,1,0,0,0,1.07,1.07H117.7a1.08,1.08,0,0,0,1.07-1.07C118.77,111.46,118.55,111.14,118,111.14Zm-64.76,0V98.34h8v12.8Zm16.54,0V85.86h8V111l-8,.11Zm16.53,0V75.4h8v35.74Zm16.65,0v-49h8v49Z"/><path class="cls-2" d="M117.7,113.7H31.28a1.54,1.54,0,0,1-1.6-1.6,1.6,1.6,0,0,1,1.6-1.6h19.1V97.16a1.6,1.6,0,0,1,1.6-1.6c3.27.16,5.62.1,7.34,0,2.27-.06,3.3-.09,3.89.48a1.4,1.4,0,0,1,.4,1.07V110.5H67V84.79a1.6,1.6,0,0,1,1.6-1.6h10a1.6,1.6,0,0,1,1.6,1.6v25.82h3.41V74.33a1.61,1.61,0,0,1,1.61-1.6h10a1.6,1.6,0,0,1,1.6,1.6V110.5h3.42V61.1a1.6,1.6,0,0,1,1.6-1.6h10a1.6,1.6,0,0,1,1.6,1.6v49.51H118c.38,0,1.28.14,1.28,1.49A1.6,1.6,0,0,1,117.7,113.7Zm-86.42-2.13a.53.53,0,0,0-.53.53.48.48,0,0,0,.53.53H117.7a.53.53,0,0,0,.53-.53c0-.43-.07-.43-.21-.43h-5.55V61.1a.53.53,0,0,0-.53-.53h-10a.53.53,0,0,0-.53.53v50.47H95.83V74.33a.54.54,0,0,0-.54-.53h-10a.53.53,0,0,0-.54.53v37.34H79.18V84.79a.53.53,0,0,0-.53-.54h-10a.54.54,0,0,0-.53.54v26.78H62.54V97.16a.47.47,0,0,0-.07-.31c-.27-.25-1.53-.22-3.12-.17-1.74,0-4.11.11-7.4-.05a.53.53,0,0,0-.51.53v14.41Zm38,.11V85.32h9.07v26.24Zm1.07-25.29V110.6l6.93-.09V86.39Zm41.18,25.28h-9.07v-50h9.07Zm-8-1.06h6.93V62.7h-6.93Zm-8.64,1.06H85.8V74.87h9.07Zm-8-1.06H93.8V75.93H86.87Zm-25.08,1.06H52.72V97.8h9.07Zm-8-1.06h6.94V98.87H53.79Z"/><path class="cls-2" d="M35.33,99.51a5,5,0,0,0,5.55-7c0-.11-.1-.21-.21-.32l8.64-7.79a5,5,0,0,0,5.44.32l.43.43a5,5,0,0,0-.43,3.31,5.12,5.12,0,0,0,3.74,3.73A4.9,4.9,0,0,0,63.71,90a5.31,5.31,0,0,0,.43-4.59l52.49-44.38-.53,6a1.14,1.14,0,0,0,1,1.17h.11a1.12,1.12,0,0,0,1.06-1L119,38.8a1.06,1.06,0,0,0-1-1.17l-8.54-.75a1.06,1.06,0,0,0-1.17,1,1.15,1.15,0,0,0,1,1.18l6.08.53L63,83.83a5,5,0,0,0-6.51-.11l-.21-.21.21-.22A4.94,4.94,0,1,0,48,83.08l-8.64,7.79-.64-.32a4.85,4.85,0,1,0-3.42,9ZM59.66,84.36a2.9,2.9,0,0,1,2.45,4.48A2.94,2.94,0,0,1,59,90.12,2.71,2.71,0,0,1,56.89,88a2.84,2.84,0,0,1,.53-2.45A2.4,2.4,0,0,1,59.66,84.36Zm-9.6-5.87a2.9,2.9,0,0,1,3.62-.74,2.93,2.93,0,0,1-2,5.44A3,3,0,0,1,50.06,78.49ZM37.79,92.15A2.1,2.1,0,0,1,39,93.32a2.87,2.87,0,0,1-3.2,4.16,2.71,2.71,0,0,1-2.13-2.13A2.85,2.85,0,0,1,37.79,92.15Z"/><path class="cls-2" d="M36.41,100.16a5.42,5.42,0,0,1-1.19-.13h0A5.27,5.27,0,0,1,33,90.75a5.63,5.63,0,0,1,6-.69l.33.17L47.37,83a5.51,5.51,0,0,1,7.38-7.3A5.23,5.23,0,0,1,57.55,79a5.65,5.65,0,0,1-.1,3.5,5.58,5.58,0,0,1,5.51.64L114,40l-4.81-.42a1.68,1.68,0,0,1-1.44-1.71,1.72,1.72,0,0,1,.72-1.24,1.43,1.43,0,0,1,1.09-.24l8.48.74a1.78,1.78,0,0,1,1.2.72,1.42,1.42,0,0,1,.23,1.09l-.74,8.37a1.69,1.69,0,0,1-1.59,1.45h-.11a1.7,1.7,0,0,1-1.5-1.71l.43-4.73L64.75,85.61a5.79,5.79,0,0,1-.58,4.69,5.46,5.46,0,0,1-5.79,2.37,5.65,5.65,0,0,1-4.15-4.13,5.79,5.79,0,0,1,.22-3.13,5.51,5.51,0,0,1-5.1-.37l-8,7.19,0,.09a5.5,5.5,0,0,1-5,7.84Zm-1-1.17a4.44,4.44,0,0,0,4.95-6.3l0-.11-.06,0-.4-.4,9.4-8.47.35.28a4.48,4.48,0,0,0,4.86.27l.35-.18,1,1-.19.35a4.35,4.35,0,0,0-.37,2.95,4.55,4.55,0,0,0,3.33,3.31,4.39,4.39,0,0,0,4.65-1.9,4.77,4.77,0,0,0,.37-4.13l-.11-.35L117.28,39.8l-.65,7.27a.62.62,0,0,0,.52.6h0a.62.62,0,0,0,.54-.53l.74-8.37a.42.42,0,0,0-.06-.33.68.68,0,0,0-.46-.27l-8.49-.74a.38.38,0,0,0-.33,0,.7.7,0,0,0-.27.46.61.61,0,0,0,.52.56l7.31.64L63,84.53l-.35-.3a4.5,4.5,0,0,0-5.81-.1l-.37.31-.94-.93L56,83a4.49,4.49,0,0,0,.48-3.66,4.13,4.13,0,0,0-2.2-2.67,4.45,4.45,0,0,0-5.82,6.19l.2.37-9.22,8.32-1-.48a4.47,4.47,0,0,0-4.83.55A4.27,4.27,0,0,0,32.23,96,4.39,4.39,0,0,0,35.45,99Zm1-.89a3.34,3.34,0,0,1-.82-.1,3.28,3.28,0,0,1-2.54-2.54,3.39,3.39,0,0,1,4.9-3.8,2.67,2.67,0,0,1,1.46,1.47A3.55,3.55,0,0,1,39,96.9,3.26,3.26,0,0,1,36.46,98.1Zm-.12-5.76a2.19,2.19,0,0,0-1.4.49,2.36,2.36,0,0,0-.79,2.4A2.2,2.2,0,0,0,35.87,97a2.28,2.28,0,0,0,2.33-.74,2.54,2.54,0,0,0,.27-2.68,1.52,1.52,0,0,0-.88-.89l0,0A2.9,2.9,0,0,0,36.34,92.34Zm23.27-1.63a4,4,0,0,1-.69-.06,3.3,3.3,0,0,1-2.56-2.56,3.42,3.42,0,0,1,.65-2.9,2.9,2.9,0,0,1,2.65-1.36,3.28,3.28,0,0,1,3,1.64,3.67,3.67,0,0,1,0,3.64A3.43,3.43,0,0,1,59.61,90.71Zm0-5.82a1.88,1.88,0,0,0-1.79.93,2.37,2.37,0,0,0-.47,2,2.23,2.23,0,0,0,1.72,1.74,2.44,2.44,0,0,0,2.54-1,2.62,2.62,0,0,0,0-2.57A2.24,2.24,0,0,0,59.66,84.89Zm-7.41-1.12a4,4,0,0,1-.69-.06,3.48,3.48,0,0,1-2.44-2.24,3.55,3.55,0,0,1,.51-3.3h0a3.45,3.45,0,0,1,4.27-.9,3,3,0,0,1,1.63,1.9,3.72,3.72,0,0,1-.33,3A3.44,3.44,0,0,1,52.25,83.77Zm-1.77-5a2.46,2.46,0,0,0-.36,2.3,2.31,2.31,0,0,0,4.17.51,2.63,2.63,0,0,0,.24-2.15,1.94,1.94,0,0,0-1.05-1.24A2.39,2.39,0,0,0,50.48,78.82Z"/><path class="cls-2" d="M40.35,73.91a1.07,1.07,0,1,1,0,2.13A1,1,0,0,1,39.28,75,1,1,0,0,1,40.35,73.91Z"/><path class="cls-2" d="M40.35,76.11A1.08,1.08,0,0,1,39.21,75a1.22,1.22,0,0,1,.44-.94.89.89,0,0,1,.71-.2,1.14,1.14,0,0,1,0,2.28ZM40.21,74a.74.74,0,0,0-.47.19,1.06,1.06,0,0,0-.39.82.93.93,0,0,0,1,1,1,1,0,0,0,0-2h0Z"/><path class="cls-2" d="M40.46,71.13a.93.93,0,0,1,1,1.07,1.06,1.06,0,0,1-1.07,1,1.15,1.15,0,0,1-1.07-1.07A1.26,1.26,0,0,1,40.46,71.13Z"/><path class="cls-2" d="M40.35,73.23a1.21,1.21,0,0,1-1.14-1.14,1.32,1.32,0,0,1,1.25-1,1.07,1.07,0,0,1,.83.38.94.94,0,0,1,.2.77A1.11,1.11,0,0,1,40.35,73.23Zm.11-2a1.18,1.18,0,0,0-1.11.91,1.09,1.09,0,0,0,1,1,1,1,0,0,0,1-.89.81.81,0,0,0-.16-.67A.93.93,0,0,0,40.46,71.2Z"/><path class="cls-2" d="M40.67,68.46a1.08,1.08,0,0,1-.21,2.14,1,1,0,0,1-1-1.18A1.07,1.07,0,0,1,40.67,68.46Z"/><path class="cls-2" d="M40.46,70.67a1,1,0,0,1-.81-.36,1.12,1.12,0,0,1-.23-.9,1.26,1.26,0,0,1,.53-.85.93.93,0,0,1,.73-.17,1.15,1.15,0,0,1-.22,2.28Zm0-2.15a.84.84,0,0,0-.47.15,1.16,1.16,0,0,0-.46.77,1,1,0,0,0,.19.78.9.9,0,0,0,.7.31,1,1,0,1,0,.19-2h0Z"/><path class="cls-2" d="M41.1,65.8a1.25,1.25,0,0,1,1,1.17,1.06,1.06,0,0,1-1.18.85,1.25,1.25,0,0,1-1-1.17A1,1,0,0,1,41.1,65.8Z"/><path class="cls-2" d="M41,67.91a.52.52,0,0,1-.17,0,1.32,1.32,0,0,1-1-1.24.91.91,0,0,1,.33-.69,1.15,1.15,0,0,1,.93-.23h0a1.32,1.32,0,0,1,1,1.24A1.16,1.16,0,0,1,41,67.91Zm-.14-2.06a1,1,0,0,0-.63.22.77.77,0,0,0-.28.58,1.17,1.17,0,0,0,.91,1.1A1,1,0,0,0,42,67a1.16,1.16,0,0,0-.9-1.09Z"/><path class="cls-2" d="M41.52,63.13a1.06,1.06,0,0,1,.86,1.17,1.11,1.11,0,0,1-1.28.86A1.07,1.07,0,0,1,40.24,64,1,1,0,0,1,41.52,63.13Z"/><path class="cls-2" d="M41.3,65.25l-.22,0A1.14,1.14,0,0,1,40.17,64a1.21,1.21,0,0,1,.58-.84.92.92,0,0,1,.79-.07,1.23,1.23,0,0,1,.71.45,1,1,0,0,1,.2.81A1.18,1.18,0,0,1,41.3,65.25Zm-.07-2.1a.82.82,0,0,0-.41.11,1,1,0,0,0-.51.74,1,1,0,0,0,.8,1.09,1,1,0,0,0,1.19-.8.84.84,0,0,0-.17-.69,1,1,0,0,0-.62-.4h0A.65.65,0,0,0,41.23,63.15Z"/><path class="cls-2" d="M42.16,60.46a1.16,1.16,0,0,1,.75,1.28,1.09,1.09,0,0,1-1.28.75,1,1,0,1,1,.53-2Z"/><path class="cls-2" d="M41.83,62.58l-.22,0a1.11,1.11,0,0,1-.73-.57,1,1,0,0,1-.07-.81,1.15,1.15,0,0,1,.57-.72,1,1,0,0,1,.81-.06h0A1.23,1.23,0,0,1,43,61.76,1.15,1.15,0,0,1,41.83,62.58Zm0-2.1a.91.91,0,0,0-.42.11,1,1,0,0,0-.5.63.81.81,0,0,0,.06.71,1,1,0,0,0,.63.49,1,1,0,0,0,1.2-.69,1.09,1.09,0,0,0-.7-1.2h0A.86.86,0,0,0,41.87,60.48Z"/><path class="cls-2" d="M43,57.9a1,1,0,0,1,.64,1.28,1,1,0,0,1-1.28.64,1.2,1.2,0,0,1-.75-1.38A1.06,1.06,0,0,1,43,57.9Z"/><path class="cls-2" d="M42.71,60a.92.92,0,0,1-.36-.07,1.29,1.29,0,0,1-.79-1.47,1,1,0,0,1,.62-.6,1.23,1.23,0,0,1,1.55.72.82.82,0,0,1,0,.67A1.11,1.11,0,0,1,42.71,60Zm-.12-2.07a.89.89,0,0,0-.36.07.88.88,0,0,0-.53.5,1.15,1.15,0,0,0,.7,1.3.94.94,0,0,0,1.19-.6.71.71,0,0,0,0-.57A1.08,1.08,0,0,0,43,58h0A1.1,1.1,0,0,0,42.59,57.89Z"/><path class="cls-2" d="M44.08,55.45a1.1,1.1,0,0,1,.54,1.39,1.07,1.07,0,0,1-1.39.53A1,1,0,0,1,42.7,56,.91.91,0,0,1,44.08,55.45Z"/><path class="cls-2" d="M43.66,57.52a1.24,1.24,0,0,1-.46-.08,1.16,1.16,0,0,1-.65-.69,1,1,0,0,1,.08-.81,1,1,0,0,1,.61-.65,1,1,0,0,1,.88.1h0a1.16,1.16,0,0,1,.56,1.47A1.07,1.07,0,0,1,43.66,57.52Zm-.09-2.15a.92.92,0,0,0-.28.05.93.93,0,0,0-.53.58.83.83,0,0,0-.07.7,1,1,0,0,0,1.86.11,1,1,0,0,0-.5-1.3h0A1,1,0,0,0,43.57,55.37Z"/><path class="cls-2" d="M45.58,53.1a1,1,0,0,1,.21,1.39,1.18,1.18,0,0,1-1.39.32,1.06,1.06,0,0,1-.32-1.5A1.16,1.16,0,0,1,45.58,53.1Z"/><path class="cls-2" d="M44.88,55a1.16,1.16,0,0,1-.51-.12A1.11,1.11,0,0,1,44,53.28a1.22,1.22,0,0,1,1.6-.24h0a1.09,1.09,0,0,1,.22,1.48A1.24,1.24,0,0,1,44.88,55ZM45,53a1,1,0,0,0-.83.37,1,1,0,0,0,.3,1.39,1.09,1.09,0,0,0,1.29-.31.94.94,0,0,0-.2-1.28A.93.93,0,0,0,45,53Z"/><path class="cls-2" d="M47.5,51.29a1.29,1.29,0,0,1-.11,1.49,1.14,1.14,0,0,1-1.49-.11,1,1,0,0,1,0-1.49C46.54,50.65,47.18,50.75,47.5,51.29Z"/><path class="cls-2" d="M46.74,53.08a1.46,1.46,0,0,1-.89-.35,1.1,1.1,0,0,1,0-1.6,1.32,1.32,0,0,1,1-.36,1,1,0,0,1,.67.48,1.35,1.35,0,0,1-.11,1.57l0,0A1.13,1.13,0,0,1,46.74,53.08Zm0-2.18a1.27,1.27,0,0,0-.79.34,1,1,0,0,0,0,1.38,1.07,1.07,0,0,0,1.39.11,1.22,1.22,0,0,0,.1-1.4h0a.86.86,0,0,0-.57-.41Z"/><path class="cls-2" d="M50,50.11c.11.54-.11,1.18-.53,1.28A1.13,1.13,0,0,1,48,50.86a1,1,0,0,1,.53-1.49A1.16,1.16,0,0,1,50,50.11Z"/><path class="cls-2" d="M49.05,51.55A1.32,1.32,0,0,1,48,50.9a1,1,0,0,1-.12-.84,1.32,1.32,0,0,1,.68-.76h0a1.22,1.22,0,0,1,1.47.8h0c.11.55-.1,1.24-.59,1.36A.79.79,0,0,1,49.05,51.55Zm-.46-2.11a1.1,1.1,0,0,0-.6.66.91.91,0,0,0,.1.72,1.06,1.06,0,0,0,1.29.51c.41-.1.6-.72.5-1.2h0A1.08,1.08,0,0,0,48.59,49.44Z"/><path class="cls-2" d="M52.62,49.79a1,1,0,0,1-1,1.07,1,1,0,0,1-1.07-1,1,1,0,1,1,2-.11Z"/><path class="cls-2" d="M51.66,50.93a1.11,1.11,0,0,1-1.14-1,1.05,1.05,0,0,1,.24-.87,1,1,0,0,1,.79-.39,1.24,1.24,0,0,1,.94.44.83.83,0,0,1,.2.71A1,1,0,0,1,51.66,50.93Zm-.11-2.13a.88.88,0,0,0-.68.33.94.94,0,0,0-.21.76,1,1,0,0,0,1,.9.92.92,0,0,0,.89-1h0a.72.72,0,0,0-.17-.6A1.09,1.09,0,0,0,51.55,48.8Z"/><path class="cls-2" d="M55.29,50.22a1.37,1.37,0,0,1-1.18.85,1.07,1.07,0,0,1-.85-1.17,1,1,0,0,1,1.17-1A1,1,0,0,1,55.29,50.22Z"/><path class="cls-2" d="M54.11,51.15a1.16,1.16,0,0,1-.92-1.25,1.07,1.07,0,0,1,1.25-1,1.12,1.12,0,0,1,.85.53,1,1,0,0,1,.06.85A1.43,1.43,0,0,1,54.11,51.15ZM54.27,49a1,1,0,0,0-.61.22.94.94,0,0,0-.33.68,1,1,0,0,0,.8,1.1,1.28,1.28,0,0,0,1.09-.81.84.84,0,0,0,0-.71,1,1,0,0,0-.75-.47Z"/><path class="cls-2" d="M57.74,51.39a1.08,1.08,0,0,1-1.39.43,1.12,1.12,0,0,1-.42-1.39,1,1,0,1,1,1.81,1Z"/><path class="cls-2" d="M56.81,52a1.14,1.14,0,0,1-.49-.11,1.21,1.21,0,0,1-.46-1.48,1.15,1.15,0,0,1,.64-.64,1.18,1.18,0,0,1,1,.07,1.1,1.1,0,0,1,.52.75,1.06,1.06,0,0,1-.17.84A1.15,1.15,0,0,1,56.81,52Zm.09-2.16a1.09,1.09,0,0,0-.35.07,1,1,0,0,0-.56.55,1.07,1.07,0,0,0,.39,1.3,1,1,0,0,0,1.3-.4h0a.94.94,0,0,0,.15-.74,1,1,0,0,0-.45-.65A1,1,0,0,0,56.9,49.84Z"/><path class="cls-2" d="M59.77,53.21a1.29,1.29,0,0,1-1.5,0,1.14,1.14,0,0,1,0-1.5,1,1,0,0,1,1.5-.1A1.08,1.08,0,0,1,59.77,53.21Z"/><path class="cls-2" d="M59,53.52a1.37,1.37,0,0,1-.79-.25,1.2,1.2,0,0,1,0-1.6,1.05,1.05,0,0,1,.78-.4,1,1,0,0,1,.82.29,1.2,1.2,0,0,1,.38.89,1.28,1.28,0,0,1-.38.81h0A1.4,1.4,0,0,1,59,53.52Zm.07-2.11H59a.93.93,0,0,0-.68.35,1.07,1.07,0,0,0,0,1.4,1.22,1.22,0,0,0,1.4,0,1.07,1.07,0,0,0,.33-.71,1,1,0,0,0-.33-.78A.91.91,0,0,0,59.09,51.41Z"/><path class="cls-2" d="M61.26,55.45a1,1,0,0,1-1.39-.32,1,1,0,0,1,.32-1.39,1.08,1.08,0,0,1,1.5.32A1,1,0,0,1,61.26,55.45Z"/><path class="cls-2" d="M60.71,55.68a1.12,1.12,0,0,1-.31,0,1,1,0,0,1-.59-.47,1,1,0,0,1-.17-.77,1.06,1.06,0,0,1,.52-.71,1.08,1.08,0,0,1,.84-.17,1.12,1.12,0,0,1,.75.51.85.85,0,0,1,.14.68,1.25,1.25,0,0,1-.59.81h0A1.18,1.18,0,0,1,60.71,55.68Zm.06-2a.86.86,0,0,0-.53.17.94.94,0,0,0-.46.62.88.88,0,0,0,.15.67.8.8,0,0,0,.51.4,1,1,0,0,0,.78-.1h0a1.12,1.12,0,0,0,.53-.71.73.73,0,0,0-.12-.58,1,1,0,0,0-.66-.45Z"/><path class="cls-2" d="M62.43,57.9a1,1,0,0,1-1.38-.53A1.1,1.1,0,0,1,61.58,56a1,1,0,0,1,1.39.54A1,1,0,0,1,62.43,57.9Z"/><path class="cls-2" d="M62,58.06a1.09,1.09,0,0,1-1-.66,1.18,1.18,0,0,1,.56-1.48,1,1,0,0,1,.81-.09,1.14,1.14,0,0,1,.68.66.88.88,0,0,1,.08.79,1.11,1.11,0,0,1-.65.69h0A1.25,1.25,0,0,1,62,58.06Zm0-2.13a.87.87,0,0,0-.41.11,1,1,0,0,0-.51,1.3,1,1,0,0,0,1.3.5h0a1.05,1.05,0,0,0,.57-.6.83.83,0,0,0-.07-.69A1,1,0,0,0,62.3,56,.84.84,0,0,0,62,55.93Z"/><path class="cls-2" d="M63.18,60.46a1.1,1.1,0,0,1-1.28-.74,1.05,1.05,0,0,1,.75-1.28,1.09,1.09,0,0,1,1.38.64A1.12,1.12,0,0,1,63.18,60.46Z"/><path class="cls-2" d="M63,60.55a1.11,1.11,0,0,1-.35-2.18,1.06,1.06,0,0,1,.87,0,1.19,1.19,0,0,1,.61.64A1.41,1.41,0,0,1,64,60a1.06,1.06,0,0,1-.76.52A.78.78,0,0,1,63,60.55Zm0-2.11a1,1,0,0,0-.33.06,1,1,0,0,0-.7,1.2,1,1,0,0,0,1.2.69h0a.88.88,0,0,0,.65-.46,1.26,1.26,0,0,0,.14-.84,1.09,1.09,0,0,0-.53-.55A1,1,0,0,0,63,58.44Z"/><path class="cls-2" d="M63.61,61a1,1,0,0,1,1.06,1,1,1,0,0,1-1,1.06,1.15,1.15,0,0,1-1.17-1A1.36,1.36,0,0,1,63.61,61Z"/><path class="cls-2" d="M63.71,63.1a1.22,1.22,0,0,1-1.24-1v0h0a1.43,1.43,0,0,1,1.12-1.12h0a1.06,1.06,0,0,1,1.14,1A1.13,1.13,0,0,1,63.71,63.1Zm-1.1-1a1.1,1.1,0,0,0,1.1.89,1,1,0,0,0,.89-1,.91.91,0,0,0-1-.89A1.31,1.31,0,0,0,62.61,62.06Z"/><path class="cls-2" d="M63.61,58.33a1,1,0,0,1,1.06,1.07,1.06,1.06,0,0,1-1.06,1.06,1.07,1.07,0,1,1,0-2.13Z"/><path class="cls-2" d="M63.61,60.53a1.14,1.14,0,1,1,1.14-1.13A1.14,1.14,0,0,1,63.61,60.53Zm0-2.13a1,1,0,1,0,0,2,1,1,0,0,0,1-1A.93.93,0,0,0,63.61,58.4Z"/><path class="cls-2" d="M63.61,55.55a1.07,1.07,0,0,1,0,2.14,1.07,1.07,0,0,1,0-2.14Z"/><path class="cls-2" d="M63.61,57.76a1.14,1.14,0,0,1,0-2.28,1.14,1.14,0,1,1,0,2.28Zm0-2.13a1,1,0,1,0,0,2,1,1,0,0,0,0-2Z"/><path class="cls-2" d="M63.82,52.89a1,1,0,0,1,1,1.17,1.08,1.08,0,0,1-1.17,1,1,1,0,0,1-1-1.17A1.05,1.05,0,0,1,63.82,52.89Z"/><path class="cls-2" d="M63.61,55.09a1,1,0,0,1-.81-.35,1.1,1.1,0,0,1-.22-.9A1.31,1.31,0,0,1,63.1,53a.92.92,0,0,1,.73-.16,1.07,1.07,0,0,1,1,1.25A1.15,1.15,0,0,1,63.61,55.09Zm0-2.15a.86.86,0,0,0-.48.16,1.12,1.12,0,0,0-.46.76,1,1,0,0,0,.19.78.9.9,0,0,0,.7.31,1,1,0,0,0,1.1-.89.94.94,0,0,0-.9-1.1h0Z"/><path class="cls-2" d="M64.14,50.11a1,1,0,0,1-.32,2c-.53-.11-1.07-.64-1-1.17A1.25,1.25,0,0,1,64.14,50.11Z"/><path class="cls-2" d="M64,52.23l-.17,0a1.33,1.33,0,0,1-.76-.45,1,1,0,0,1-.26-.81A1.32,1.32,0,0,1,64.15,50h0a1.13,1.13,0,0,1,.91,1.26A1.15,1.15,0,0,1,64,52.23Zm0-2.06a1.24,1.24,0,0,0-1,.82.85.85,0,0,0,.22.68,1.33,1.33,0,0,0,.68.4,1,1,0,0,0,.3-1.89Z"/><path class="cls-2" d="M64.78,47.45a1,1,0,0,1,.75,1.28,1,1,0,0,1-1.28.74,1.11,1.11,0,0,1-.86-1.28A1.23,1.23,0,0,1,64.78,47.45Z"/><path class="cls-2" d="M64.49,49.57a1.07,1.07,0,0,1-.25,0,1.16,1.16,0,0,1-.92-1.36,1.29,1.29,0,0,1,1.47-.8h0a1.09,1.09,0,0,1,.74.56,1,1,0,0,1,.06.81A1,1,0,0,1,64.49,49.57Zm.05-2.07a1.13,1.13,0,0,0-1.08.72,1,1,0,0,0,.8,1.18,1,1,0,0,0,1.2-.69.83.83,0,0,0-.06-.7,1,1,0,0,0-.63-.49A.93.93,0,0,0,64.54,47.5Z"/><path class="cls-2" d="M65.63,44.89a1.2,1.2,0,0,1,.64,1.38,1.14,1.14,0,0,1-1.38.64,1,1,0,0,1-.64-1.38A1,1,0,0,1,65.63,44.89Z"/><path class="cls-2" d="M65.2,47a1.73,1.73,0,0,1-.32,0,1.13,1.13,0,0,1-.7-1.48,1.15,1.15,0,0,1,.69-.75.9.9,0,0,1,.8.07,1.32,1.32,0,0,1,.68,1.47A1.16,1.16,0,0,1,65.2,47Zm0-2.18a.86.86,0,0,0-.27.05,1,1,0,0,0-.6.67,1,1,0,0,0,.59,1.3,1.11,1.11,0,0,0,1.3-.6,1.17,1.17,0,0,0-.6-1.3h0A.78.78,0,0,0,65.19,44.83Z"/><path class="cls-2" d="M67.23,42.65a1.1,1.1,0,0,1,.32.74c0,.22,0,.54-.21.64a1,1,0,0,1-1.39.22,1.06,1.06,0,0,1-.32-1.5,1.4,1.4,0,0,1,.75-.42A1.17,1.17,0,0,1,67.23,42.65Z"/><path class="cls-2" d="M66.57,44.5a1.27,1.27,0,0,1-.65-.19,1.11,1.11,0,0,1-.52-.72,1.29,1.29,0,0,1,.17-.87,1.43,1.43,0,0,1,.81-.47,1.32,1.32,0,0,1,.91.34,1.26,1.26,0,0,1,.34.8c0,.23,0,.57-.24.7A1,1,0,0,1,66.57,44.5Zm-.19-2.1a1.28,1.28,0,0,0-.69.4,1.1,1.1,0,0,0-.15.76,1,1,0,0,0,.45.62A.91.91,0,0,0,67.28,44l0,0c.17-.09.17-.38.17-.58a1.06,1.06,0,0,0-.3-.69A1.13,1.13,0,0,0,66.38,42.4Z"/><path class="cls-2" d="M69.58,41.37a1.21,1.21,0,0,1-.64,1.28,1.23,1.23,0,0,1-1.28-.43,1,1,0,0,1,.53-1.49A.93.93,0,0,1,69.58,41.37Z"/><path class="cls-2" d="M68.62,42.75a1.24,1.24,0,0,1-1-.49,1,1,0,0,1-.15-.83,1.19,1.19,0,0,1,.72-.77,1.1,1.1,0,0,1,1.07.05.77.77,0,0,1,.41.65A1.28,1.28,0,0,1,69,42.71,1.25,1.25,0,0,1,68.62,42.75Zm0-2.06a.91.91,0,0,0-.43.1,1,1,0,0,0-.64.68.85.85,0,0,0,.13.71,1.18,1.18,0,0,0,1.2.4,1.14,1.14,0,0,0,.59-1.2h0a.66.66,0,0,0-.34-.54A1,1,0,0,0,68.66,40.69Z"/></svg>