<?xml version="1.0" encoding="utf-8"?>
<svg id="Layer_1" data-name="Layer 1" xmlns="http://www.w3.org/2000/svg" viewBox="0 0 149.47 149.47"><defs><style>.cls-1{fill:none;}.cls-2,.cls-3{fill:#aa4269;}.cls-3{stroke:#aa4269;stroke-width:1.11px;}</style></defs><title>Kapitus_Icons_NormalState</title><g id="Ellipse_184" data-name="Ellipse 184"><path class="cls-1" d="M73.47.71c41.28,0,76,32.71,76,74A74.74,74.74,0,0,1,0,74.69C0,33.42,32.2.71,73.47.71Z"/><path class="cls-2" d="M74.72,149.42a74.73,74.73,0,1,1,74.74-74.73A74.82,74.82,0,0,1,74.72,149.42Zm0-146.19a71.46,71.46,0,1,0,71.46,71.46A71.55,71.55,0,0,0,74.72,3.23Z"/></g><g id="Group_369" data-name="Group 369"><path id="Path_496" data-name="Path 496" class="cls-3" d="M66.43,51.83a1.13,1.13,0,0,0,.95,0L79,43.93a1,1,0,0,0,.32-1.29l0,0L79,42.31,67.38,34.5a.94.94,0,0,0-1.3.24l0,0a.65.65,0,0,0-.09.47v7.15H48.82A6.63,6.63,0,0,0,42.15,49V60h1.91v-11a4.71,4.71,0,0,1,4.66-4.76.17.17,0,0,1,.1,0H66V51A.72.72,0,0,0,66.43,51.83Zm1.43-14.76,8.85,6.1-8.95,6Z"/><path id="Path_497" data-name="Path 497" class="cls-3" d="M108.13,79.62,116,68.1a.92.92,0,0,0-.24-1.3l0,0a.68.68,0,0,0-.48-.09h-7.14V49.55a6.62,6.62,0,0,0-6.58-6.67h-.09l-10.85-.09v1.9h11a4.71,4.71,0,0,1,4.76,4.67V66.59H99.66a.9.9,0,0,0-1,.84v.11a1.43,1.43,0,0,0,.19.57l7.71,11.62a.89.89,0,0,0,.77.38h0A1,1,0,0,0,108.13,79.62Zm-6.76-11.14h12.09l-6.09,9Z"/><path id="Path_498" data-name="Path 498" class="cls-3" d="M35.49,84.58h7.14v17.14a6.63,6.63,0,0,0,6.58,6.67h11v-1.91h-11a4.71,4.71,0,0,1-4.76-4.66V84.58h6.67a.9.9,0,0,0,.95-.84v-.11a1.29,1.29,0,0,0-.19-.57L44.15,71.54a.86.86,0,0,0-.76-.38h0a1.14,1.14,0,0,0-.76.38l-7.9,11.52a.92.92,0,0,0,.24,1.3l0,0A.71.71,0,0,0,35.49,84.58Zm7.9-10.76,6,8.86H37.3Z"/><path id="Path_499" data-name="Path 499" class="cls-3" d="M82.9,117a.9.9,0,0,0,.95-.84.2.2,0,0,0,0-.11v-7.15H101a6.62,6.62,0,0,0,6.67-6.57v-11h-1.82v11a4.71,4.71,0,0,1-4.66,4.76H84V100.3a.91.91,0,0,0-.84-1H83a1.47,1.47,0,0,0-.58.19l-11.61,7.81a1,1,0,0,0-.32,1.29l0,0,.29.29,11.52,7.9C82.52,116.85,82.71,117,82.9,117Zm-1-2.76-8.86-6.09,8.86-6Z"/><path id="Path_500" data-name="Path 500" class="cls-3" d="M69.2,88H80.63a6.63,6.63,0,0,0,6.67-6.58V69.92a6.64,6.64,0,0,0-6.58-6.67H69.2a6.62,6.62,0,0,0-6.67,6.58V81.36A6.68,6.68,0,0,0,69.2,88ZM64.43,69.92a4.72,4.72,0,0,1,4.67-4.76H80.63a4.71,4.71,0,0,1,4.76,4.66V81.36a4.71,4.71,0,0,1-4.66,4.76H69.2a4.72,4.72,0,0,1-4.77-4.67V69.92Z"/><path id="Path_501" data-name="Path 501" class="cls-3" d="M72.34,70.2h5.14A2.8,2.8,0,0,1,80.33,73a.17.17,0,0,1,0,.1V78.2a2.8,2.8,0,0,1-2.75,2.86H72.34a2.8,2.8,0,0,1-2.86-2.75V73.06a2.8,2.8,0,0,1,2.75-2.86Z"/></g></svg>