<?xml version="1.0" encoding="utf-8"?>
<!-- Generator: Adobe Illustrator 24.1.3, SVG Export Plug-In . SVG Version: 6.00 Build 0)  -->
<svg version="1.1" id="Layer_1" xmlns="http://www.w3.org/2000/svg" xmlns:xlink="http://www.w3.org/1999/xlink" x="0px" y="0px"
	 viewBox="0 0 150 150" style="enable-background:new 0 0 150 150;" xml:space="preserve">
<style type="text/css">
	.st0{fill:none;stroke:#AA4269;stroke-miterlimit:10;}
	.st1{fill:#AA4269;}
</style>
<g id="Ellipse_184">
	<circle class="st0" cx="75.3" cy="75.7" r="74.7"/>
	<path class="st1" d="M75.3,150.4c-41.3,0-74.7-33.5-74.7-74.7C0.6,34.4,34,0.9,75.3,0.9c41.3,0,74.7,33.5,74.7,74.7c0,0,0,0,0,0
		C150,116.9,116.6,150.4,75.3,150.4z M75.3,4.2c-39.5,0-71.5,32-71.5,71.5s32,71.5,71.5,71.5s71.5-32,71.5-71.5
		C146.8,36.2,114.8,4.3,75.3,4.2z"/>
</g>
<path class="st1" d="M83.4,32.7c0.9-0.1,1.7-0.1,2.6,0c16.9,6,33.9,12.1,50.8,18.2c1.4,0.5,1.6,1.1,1,2.7
	c-4.8,13.4-9.6,26.8-14.4,40.2l-10.9,30.3c-0.8,2.2-1,2.3-3.2,1.5c-7.2-2.6-14.5-5.2-21.8-7.8c-0.9-0.3-1.8-0.3-2.7,0
	c-12.2,4.6-24.3,9.1-36.5,13.6c-1.7,0.6-2.2,0.4-2.8-1.2L14.9,48.5c-0.7-1.9-0.5-2.3,1.3-3l60.9-22.7c2-0.7,2.4-0.5,3.2,1.5
	L83.4,32.7z M85.8,36L61,105.2l48.9,17.5c8.3-23.1,16.5-46.2,24.7-69.2L85.8,36z M79.4,30.3h-0.3c-0.3,2.3-0.7,4.5-0.9,6.8
	c0,1.3-0.8,2.5-2.1,2.9c-15.1,5.6-30.2,11.3-45.4,17c-4.9,1.8-3.5,1.9-7.2-1.2c-1.2-1-2.3-2-3.5-3l-0.2,0.2
	c9.4,25.2,18.9,50.4,28.3,75.6L81.6,116c-0.5-0.2-0.8-0.3-1.1-0.4L60.1,108c-2.3-0.8-2.5-1.3-1.7-3.6l23.5-65.7
	c0.2-0.5,0.3-1,0.2-1.4C81.2,34.9,80.3,32.6,79.4,30.3L79.4,30.3z M19,47.9c2.6,2.2,5.1,4.3,7.5,6.4c0.5,0.5,1.2,0.6,1.8,0.3
	c4.4-1.7,8.8-3.3,13.1-4.9c10.8-4,21.6-8,32.3-12.1c0.8-0.2,1.4-0.9,1.4-1.8c0.1-1.6,0.4-3.2,0.6-4.8s0.4-3.1,0.6-4.8L19,47.9z"/>
<path class="st1" d="M96.7,53.6l-2,5.4c1,1.4,2.1,2.5,2.6,3.9c1.1,3.3-0.8,6.9-4.1,7.9c-0.5,0.2-1.1,0.3-1.7,0.3
	c-0.6,0-1.1,0.3-1.4,0.8c-0.3,0.4-1.4,0.8-1.6,0.7c-0.5-0.4-0.9-1.1-0.9-1.8c0.1-0.6-0.1-1.1-0.5-1.5c-1.7-1.5-2.4-3.9-1.8-6.2
	c0.3-1,1.3-1.8,2-1.5c0.9,0.4,1,1.2,0.9,2.1c0,0.9,0,1.9,0.2,2.8h0.5c0.6-1.8,1.2-3.5,1.7-5.3c0.1-0.2-0.2-0.7-0.5-0.9
	c-2-1.6-2.7-4.3-1.9-6.7c0.8-2.6,3.1-4.4,5.8-4.5c0.4-0.1,0.7-0.3,0.9-0.6c0.5-0.9,1.2-1.3,2.1-0.9c0.8,0.3,1.2,1.2,0.9,2
	c0,0,0,0,0,0c0,0.5,0.2,1.1,0.6,1.4c1.8,1.6,2.5,4,1.9,6.3c-0.3,1.2-1,1.7-2.1,1.4s-1.2-1.2-0.9-2.1C97.9,55.5,97.5,54.3,96.7,53.6z
	 M91.7,67.8c1.3,0,2.4-0.8,2.8-2c0.5-1.2,0.1-2.6-0.9-3.4L91.7,67.8z M93.7,52.5c-2.7,0.8-3.4,3-1.8,5.3L93.7,52.5z"/>
<path class="st1" d="M77.7,96.4c0.6-1.9,1.2-3.7,1.8-5.4c0-0.3-0.1-0.7-0.4-0.9c-2-1.6-2.8-4.3-2-6.7c0.8-2.7,2.9-4.1,5.7-4.5
	c0.5-0.1,0.9-0.4,1.2-0.8c0.4-0.7,1.2-1,2-0.7c0.7,0.2,1.1,1,0.9,1.7c0,0.1,0,0.1-0.1,0.2c-0.3,0.8,0.1,1,0.5,1.5
	c1.7,1.5,2.5,3.9,1.9,6.1c-0.3,1.1-1.2,1.9-2.1,1.7c-1.1-0.4-1-1.2-0.9-2.2c0-1-0.1-1.9-0.3-2.9h-0.5c-0.7,1.9-1.4,3.8-2.1,5.7
	c1.9,1.4,3.2,3.1,3.1,5.6c-0.1,3.3-2.8,6-6.1,6.2c-0.5,0-0.9,0.2-1.2,0.6c-0.5,0.8-1,1.2-1.8,0.8c-0.8-0.3-1.2-1.1-0.9-1.9
	c0,0,0-0.1,0-0.1c0.1-0.2,0.1-0.4,0.2-0.7c-1.8-1.3-2.8-3.3-2.7-5.5c0-0.6,0.1-1.2,0.3-1.7c0.2-0.8,1-1.3,1.8-1.1
	c0.1,0,0.1,0,0.2,0.1c0.7,0.2,1.2,0.9,1,1.7c0,0.1,0,0.1-0.1,0.2C76.7,94.3,76.9,95.5,77.7,96.4z M80.5,97.6c1.3,0,2.5-0.9,2.9-2.2
	c0.4-1.2,0-2.5-1-3.2L80.5,97.6z M82.5,82.2c-2.7,0.8-3.5,3.3-1.8,5.2L82.5,82.2z"/>
<path class="st1" d="M99.2,78.2c0.7,0.2,1.1,0.3,1.4,0.4l13.7,4.9c1.4,0.5,1.8,1.2,1.4,2.2c-0.1,0.8-0.9,1.2-1.6,1.1
	c-0.1,0-0.2-0.1-0.3-0.1c-4.9-1.8-9.8-3.6-14.7-5.4c-0.6-0.4-1-1.1-1-1.8C98.1,79,98.9,78.6,99.2,78.2z"/>
<path class="st1" d="M106.4,110.2c0,1.7-1,2.4-2.2,1.9c-4.7-1.7-9.5-3.4-14.3-5.2c-1-0.4-1.7-0.9-1.4-2.1c0.3-1,1.2-1.3,2.4-0.8
	c4.7,1.7,9.4,3.4,14.1,5.2C105.6,109.5,106.1,109.8,106.4,110.2z"/>
<path class="st1" d="M93.3,93c0-1.6,1-2.2,2.3-1.8c2,0.7,4,1.5,6,2.2c2.8,1,5.5,2,8.3,3c1.2,0.5,1.7,1.4,0.9,2.3
	c-0.4,0.4-1,0.7-1.6,0.6c-4.9-1.7-9.8-3.5-14.7-5.4C93.9,93.9,93.5,93.2,93.3,93z"/>
<path class="st1" d="M103.8,65.3c0.7,0.2,1.1,0.3,1.4,0.4c4.6,1.7,9.2,3.3,13.8,5c0.6,0.2,1,0.6,1.3,1.1c0.2,0.5,0.1,1.1-0.2,1.6
	c-0.4,0.3-0.9,0.5-1.4,0.3c-4.9-1.7-9.8-3.5-14.7-5.4c-0.7-0.4-1.1-1.1-1.2-1.8C102.6,66.2,103.4,65.7,103.8,65.3z"/>
<path class="st1" d="M125.1,59.1c0,1.6-0.9,2.1-2.2,1.7c-3.5-1.3-7-2.6-10.5-3.8c-1.3-0.5-2.6-1-4-1.5c-0.8-0.2-1.3-1.1-1.1-1.9
	c0-0.1,0-0.1,0.1-0.2c0.3-0.7,1.2-1.1,1.9-0.8c0,0,0.1,0,0.1,0c4.8,1.8,9.7,3.5,14.5,5.3C124.5,58.2,124.9,58.9,125.1,59.1z"/>
<path class="st1" d="M37.7,73.3c0.5,0,0.9,0.4,0.9,0.9s-0.4,0.9-0.9,0.9s-0.9-0.4-0.9-0.9S37.2,73.3,37.7,73.3z"/>
<path class="st1" d="M32.8,73c-0.3,0.3-0.3,0.9,0,1.2l11.9,11.8c0.7,0.8,2-0.4,1.2-1.2L34.6,73.5l1.2-1.2l5.4-5.4
	c6.3,6.3,12.6,12.6,19,18.9C59.2,86.9,58,88,57,89.1c-0.8,0.7,0.4,2,1.2,1.2c1-1,2-2,3-3l1.2,3.2c-0.7,0.7-1.5,1.5-2.2,2.2L56,91
	c-5.2-5.2-10.4-10.4-15.6-15.5c-0.7-0.8-2,0.4-1.2,1.2l15.7,15.8c0.1,0.1,0.3,0.2,0.4,0.2c3.4,1.2,6.6,2.6,10,3.9
	c0.4,0.1,0.9-0.1,1.1-0.6c0.1-0.2,0.1-0.3,0-0.5c-1.2-3.4-2.6-6.6-3.9-10v-0.1c-0.1-0.1-0.1-0.3-0.2-0.4L41.9,64.9
	c-0.3-0.3-0.9-0.3-1.2,0L34.6,71C34,71.7,33.4,72.3,32.8,73z M63.1,92.5c0.2,0.6,0.5,1.2,0.7,1.8c-0.6-0.2-1.1-0.5-1.8-0.7
	L63.1,92.5z"/>
<path class="st1" d="M65.5,97c-0.1,0-0.2,0-0.3-0.1l-3.7-1.5c-2-0.8-4.2-1.7-6.3-2.5c-0.2-0.1-0.3-0.2-0.5-0.3L39,77
	c-0.3-0.3-0.4-0.6-0.3-1c0.1-0.4,0.4-0.7,0.9-0.8c0.3-0.1,0.7,0,1,0.3c2.6,2.5,5.2,5.2,7.7,7.7s5.2,5.1,7.7,7.7l2.1,0.8l2,0.8l2-2
	L61,87.8l-2.7,2.7c-0.3,0.3-0.6,0.4-1,0.3c-0.4-0.1-0.7-0.5-0.8-0.9c-0.1-0.4,0-0.8,0.3-1l3.2-3.1c-6.3-6.2-12.6-12.5-18.7-18.6
	l-6.3,6.3l11.2,11.2c0.3,0.3,0.4,0.6,0.3,1c-0.1,0.4-0.4,0.7-0.9,0.8c-0.4,0.1-0.8,0-1-0.3L32.7,74.3c-0.4-0.4-0.4-1.1,0-1.5
	l0.2,0.2l-0.2-0.1l0.2,0.1l-0.1-0.2c0.6-0.6,1.1-1.3,1.8-2l6.1-6.1c0.4-0.4,1.1-0.4,1.5,0L62.3,85c0.1,0.1,0.2,0.3,0.3,0.5v0.1
	c0.5,1.2,1,2.4,1.5,3.7c0.8,2.1,1.7,4.2,2.5,6.3c0.1,0.4,0,0.8-0.3,1.1C66,96.9,65.8,97,65.5,97z M39.8,75.5h-0.1
	c-0.3,0.1-0.5,0.3-0.5,0.5c-0.1,0.2,0,0.5,0.2,0.6L55,92.4c0.1,0.1,0.2,0.2,0.3,0.2c2.1,0.8,4.2,1.6,6.3,2.4c1.2,0.5,2.5,1,3.7,1.5
	c0.2,0.1,0.5,0,0.6-0.2c0.2-0.2,0.3-0.4,0.2-0.7c-0.8-2.1-1.6-4.2-2.5-6.3c-0.5-1.2-1-2.4-1.5-3.7v-0.1c-0.1-0.1-0.1-0.2-0.2-0.3
	L41.8,65.1c-0.3-0.2-0.7-0.2-0.9,0l-6.1,6.1c-0.7,0.6-1.2,1.3-1.8,1.9l0,0c-0.2,0.3-0.2,0.7,0,0.9l11.9,11.9
	c0.1,0.2,0.4,0.2,0.6,0.2c0.3-0.1,0.5-0.3,0.6-0.5c0.1-0.2,0-0.5-0.2-0.6L34.3,73.5l6.9-6.9l0.3,0.3c6.2,6.2,12.5,12.5,18.9,18.8
	l0.1,0.1l-3.4,3.4c-0.2,0.1-0.2,0.4-0.2,0.6c0.1,0.3,0.3,0.5,0.5,0.6c0.2,0.1,0.5,0,0.6-0.2l3.2-3.2l1.4,3.6L60.2,93h-0.1
	c-0.7-0.3-1.4-0.6-2.1-0.9l-2.1-0.9h-0.1c-2.6-2.6-5.3-5.3-7.8-7.8s-5.2-5.2-7.8-7.7C40.1,75.6,40,75.5,39.8,75.5z M64.2,94.7
	l-0.4-0.2c-0.6-0.2-1.1-0.5-1.8-0.7l-0.3-0.1l1.5-1.5l0.1,0.3l-0.2,0.1l0.2-0.1c0.2,0.6,0.5,1.1,0.7,1.8L64.2,94.7z M62.4,93.5
	c0.4,0.1,0.7,0.3,1.1,0.4c-0.2-0.4-0.3-0.7-0.4-1.1L62.4,93.5z"/>
<path class="st1" d="M29.1,65.5l6.1-6.1c0.3-0.3,0.9-0.3,1.2,0L40,63c0.8,0.8-0.5,2-1.2,1.2c-1-1-1.9-1.9-2.9-2.9l-4.8,4.7L34,69
	c0.8,0.8-0.5,2-1.2,1.2l-3.5-3.5c-0.4-0.2-0.5-0.6-0.3-1C29,65.6,29.1,65.6,29.1,65.5z"/>
<path class="st1" d="M33.3,70.7c-0.3,0-0.5-0.1-0.7-0.3l-3.5-3.5c-0.2-0.1-0.4-0.4-0.4-0.6c0-0.3,0.1-0.6,0.3-0.8l6.1-6.1
	c0.4-0.4,1.1-0.4,1.5,0l3.5,3.5c0.3,0.3,0.4,0.6,0.3,1c-0.1,0.4-0.4,0.7-0.8,0.8c-0.4,0.1-0.8,0-1-0.3l-2.7-2.7l-4.5,4.5l2.7,2.7
	c0.3,0.3,0.4,0.6,0.3,1c-0.1,0.4-0.5,0.7-0.9,0.8C33.4,70.6,33.4,70.7,33.3,70.7z M35.8,59.4c-0.2,0-0.3,0.1-0.5,0.2l-6.1,6.1
	c-0.1,0.1-0.2,0.3-0.2,0.5c0,0.1,0.1,0.3,0.2,0.3l3.6,3.5c0.1,0.2,0.4,0.2,0.6,0.2c0.3-0.1,0.5-0.2,0.6-0.5c0.1-0.2,0-0.5-0.2-0.6
	l-3-3l5-5l3,3c0.1,0.2,0.4,0.2,0.6,0.2c0.3-0.1,0.5-0.3,0.6-0.5c0.1-0.2,0-0.5-0.2-0.6l-3.5-3.5C36.1,59.5,36,59.4,35.8,59.4z"/>
</svg>
