<?xml version="1.0" encoding="utf-8"?>
<!-- Generator: Adobe Illustrator 24.0.2, SVG Export Plug-In . SVG Version: 6.00 Build 0)  -->
<svg version="1.1" id="Group_991" xmlns="http://www.w3.org/2000/svg" xmlns:xlink="http://www.w3.org/1999/xlink" x="0px" y="0px"
	 viewBox="0 0 186.4 186.4" style="enable-background:new 0 0 186.4 186.4;" xml:space="preserve">
<style type="text/css">
	.st0{fill:#A94068;}
</style>
<path id="Path_75" class="st0" d="M109.9,74.7l6.6-5.3l2.5,3.1c-2.9,2.3-5.8,4.6-8.6,6.9c-0.4,0.3-0.6,0.8-0.6,1.3c0,4.3,0,8.7,0,13
	c0,0.3,0.1,0.6,0.1,0.9l6.6-5.3l2.5,3.1c-3.1,2.5-6,4.9-9,7.3c0.4,0.8,1.3,1.3,2.2,1.2c3.6,0,7.3,0,10.9,0c1.9,0,2.7-0.8,2.7-2.7
	c0-2.3-0.1-4.7,0-7c0.1-0.9-0.4-1.8-1.2-2.3c-2.7-2.1-5.4-4.3-8.1-6.5l2.5-3.1l6.7,5.3c0-5.4,0-10.6,0-15.8c0-1.2-0.9-1.9-2.2-1.9
	c-3.8,0-7.7,0-11.5,0c-1,0-2,0.4-2.1,1.5C109.8,70.5,109.9,72.5,109.9,74.7z M71.1,72.5c-2.9,2.3-5.7,4.6-8.5,6.9
	c-0.4,0.4-0.7,0.9-0.7,1.4c-0.1,4.3,0,8.6,0,12.8v1.2l6.8-5.4l2.5,3.1l-9.3,7.5c0.8,0.4,1.4,0.9,2.1,0.9c4,0.1,7.9,0.1,11.9,0
	c1.4,0,2.1-0.8,2.1-2.3c-0.1-1.7-0.1-3.3,0-5c0.4-2.9-0.6-4.7-3-6.3c-2.1-1.5-4.2-3.2-6.2-4.9l2.5-3.1l6.6,5.2
	c0.1-0.1,0.1-0.3,0.1-0.4c0-5.1,0-10.1,0-15.2c0.1-1.1-0.8-2-1.8-2.1c-0.1,0-0.2,0-0.3,0c-3.8,0-7.7,0-11.5,0
	c-1.2-0.1-2.2,0.8-2.3,2c0,0.1,0,0.2,0,0.4c0,0.7,0,1.4,0,2.2v3.4c1.3-1,2.4-1.9,3.4-2.7c1.1-0.9,2.2-1.7,3.3-2.6
	c0.1,0.1,0.2,0.2,0.4,0.3C69.6,70.7,70.3,71.5,71.1,72.5z M100.8,49c0.8,0,1.4,0,2.1,0c2.3,0,2.9,0.6,2.9,2.8c0,3.3,0,6.6,0,9.9v1.1
	h5.7c0-0.6-0.1-1.1-0.1-1.6c-0.5-4.3-1.1-8.7-1.6-13c-0.5-3.8-0.9-7.6-1.5-11.4c0-1.1-0.9-2-2-1.9c-0.1,0-0.2,0-0.3,0
	c-8.1,0-16.2,0-24.3,0c-1.1-0.2-2.2,0.6-2.4,1.8c0,0.1,0,0.2,0,0.3c-0.2,1.3-0.3,2.6-0.5,3.8c-0.6,4.9-1.2,9.9-1.9,14.8
	c-0.3,2.4-0.6,4.7-0.9,7.2h5.7v-1.3c0-3.4,0-6.8,0-10.2c0-1.7,0.7-2.4,2.4-2.4c0.8,0,1.6,0,2.4,0c-0.4-1.3-0.7-2.6-0.8-3.9
	c0-1.3,0.3-2.5,0.9-3.7c0.6-1.2,1.5-2.2,2.6-3c2.8-2,6.6-1.9,9.3,0.2C101.8,41.2,102.5,44.4,100.8,49L100.8,49z M105.8,90.9V75H81.9
	v15.9L105.8,90.9z M73,55.3l0.3-2.3c-1.6,0-3.1,0-4.6,0c-2.2,0-2.8-0.6-2.8-2.8c0-2.4,0-4.7,0-7.2h3.9v5.9h4.1
	c0.5-3.7,0.9-7.3,1.3-11c0.3-2.3,0.7-4.5,2.8-5.9c1.2-0.7,2.5-1.1,3.9-1c7.9,0,15.9,0,23.8,0c3.9,0,6.1,2.1,6.6,6.1
	c0.5,4,1,7.9,1.5,11.9h3.9V43h4v4.1c0,1.2,0,2.3,0,3.5c0,1.6-0.7,2.3-2.3,2.4c-1.6,0-3.3,0-5.1,0c0,0,1.2,10,1.2,10h1.2
	c2.4,0,4.8,0,7.2,0c2.9,0.1,5.3,2.3,5.7,5.2c0,0.2,0,4.7,0,4.7v1.4c0,8-0.1,16,0,24c0.1,3.5-2.6,6.4-6.1,6.6c-0.2,0-0.4,0-0.5,0
	c-3.6-0.2-7.2,0-10.8,0c-4.2,0-6.6-2.4-6.6-6.6c0-1.1,0-2.1,0-3.3h-24c0,1,0,2,0,3.1c0,4.4-2.4,6.8-6.8,6.8c-3.6,0-7.1-0.1-10.7,0
	c-3.4,0.2-6.4-2.5-6.5-5.9c0-0.2,0-0.4,0-0.6c0.1-8,0-16,0-24v-1.4l0.1-4.6c0.7-3.7,2.7-5.4,6.4-5.4c2.3,0,4.5,0,6.8,0
	c0.7,0,1-0.2,1-1c0-0.9,0.2-1.7,0.3-2.7C72.6,59.4,73,55.3,73,55.3z M85.8,62.9h15.9V53H87.8c-2,0-2,0-2,2V62.9z M82,70.9h23.8
	L106,67H81.6L82,70.9z M89.9,44.9c-0.1,2.2,1.6,4,3.8,4.1c2.2,0,4-1.7,4.1-3.9c0-2.2-1.7-4-3.9-4C91.7,41,89.9,42.7,89.9,44.9
	L89.9,44.9z"/>
<path id="Path_76" class="st0" d="M91.9,98.7h3.9v51.8h-3.9V98.7z"/>
<path id="Path_77" class="st0" d="M133.6,150l-3.8,1.3c-4.7-14-9.3-27.9-14-41.9l3.8-1.3C124.3,122,128.9,136,133.6,150z"/>
<path id="Path_78" class="st0" d="M68.1,108l3.8,1.3l-14,41.9l-3.8-1.3C58.7,136,63.4,122.1,68.1,108z"/>
<path id="Path_79" class="st0" d="M68.6,136l2.8-2.9l2.1,2.6l0.3-0.2v-4.8h4v4.8l0.3,0.1l2.1-2.5l2.8,2.8c-2,2.1-3.9,4.2-5.9,6.2
	c-0.6,0.7-1.7,0.7-2.4,0.1c-0.1-0.1-0.1-0.1-0.2-0.2C72.5,140.1,70.6,138,68.6,136z"/>
<path id="Path_80" class="st0" d="M44.1,130.7v4.7l0.2,0.1l2-2.5l2.9,2.9c-1.9,2-3.9,4.2-6,6.2c-0.7,0.6-1.8,0.6-2.4-0.1
	c0,0-0.1-0.1-0.1-0.1c-2-1.9-3.9-3.9-5.9-5.9l3-2.6l2,2.2l0.2-0.1v-4.8L44.1,130.7z"/>
<path id="Path_81" class="st0" d="M104.4,136l2.9-2.8l2.1,2.4l0.3-0.2v-4.8h4v4.9l2.3-2.5l2.8,2.9c-1.9,2-3.9,4.1-6,6.2
	c-0.7,0.6-1.9,0.6-2.5-0.2c0,0-0.1-0.1-0.1-0.1C108.3,140,106.4,138.1,104.4,136z"/>
<path id="Path_82" class="st0" d="M147.8,135.6l2.1-2.5l3.1,3.4c-0.4,0.1-0.7,0.3-1.1,0.6c-1.6,1.5-3.1,3.1-4.7,4.6
	c-1.3,1.3-2.2,1.3-3.5,0c-1.9-1.9-3.8-3.7-5.6-5.6l2.8-2.9l2.5,2.6v-5.1h4v4.8L147.8,135.6z"/>
<path id="Path_83" class="st0" d="M40.7,114.1l2.7-2.8l2.2,2.5l0.3-0.2v-4.8H50v5l2.4-2.6l2.6,2.8c-1.9,2-3.8,4.2-5.9,6.2
	c-0.6,0.6-1.6,0.6-2.2,0c0,0-0.1-0.1-0.1-0.1C44.7,118.2,42.7,116.1,40.7,114.1z"/>
<path id="Path_84" class="st0" d="M132.3,114.2l2.7-2.9l2.3,2.4l0.3-0.1v-4.8h4.1v5l2.4-2.6l3.1,3.3c-0.5,0.3-1,0.7-1.5,1.1
	c-1.5,1.4-2.9,2.9-4.4,4.3c-1.2,1.2-2.1,1.2-3.3,0C136.1,118,134.2,116.1,132.3,114.2z"/>
<path id="Path_85" class="st0" d="M103.8,113.6v-4.8h3.9v5l2.3-2.8l2.9,3.2c-1.1,1.1-2.4,2.4-3.6,3.7c-0.6,0.6-1.3,1.3-1.9,1.9
	c-1.1,1.1-2.1,1.1-3.2,0c-1.9-1.9-3.8-3.8-5.7-5.7l3.1-2.9l1.9,2.5L103.8,113.6z"/>
<path id="Path_86" class="st0" d="M86.1,111l3.1,3c-2,2-4,4.1-6,6.1c-0.7,0.7-1.8,0.8-2.5,0.2c-0.1-0.1-0.1-0.1-0.2-0.2
	c-2-1.9-3.9-4-5.9-6l3-2.8l2.3,2.5v-5h4v4.7l0.2,0.1L86.1,111z"/>
<path id="Path_87" class="st0" d="M93.2,186.4C41.7,186.4,0,144.7,0,93.2C0,41.7,41.7,0,93.2,0c51.5,0,93.2,41.7,93.2,93.2v0
	C186.3,144.6,144.6,186.3,93.2,186.4z M93.2,3.7c-49.4,0-89.5,40-89.5,89.5s40,89.5,89.5,89.5s89.5-40,89.5-89.5c0,0,0,0,0,0
	C182.6,43.8,142.6,3.8,93.2,3.7z"/>
</svg>
