<?xml version="1.0" encoding="utf-8"?>
<!-- Generator: Adobe Illustrator 24.1.3, SVG Export Plug-In . SVG Version: 6.00 Build 0)  -->
<svg version="1.1" id="Layer_1" xmlns="http://www.w3.org/2000/svg" xmlns:xlink="http://www.w3.org/1999/xlink" x="0px" y="0px"
	 viewBox="0 0 150 150" style="enable-background:new 0 0 150 150;" xml:space="preserve">
<style type="text/css">
	.st0{fill:none;stroke:#AA4269;stroke-miterlimit:10;}
	.st1{fill:#AA4269;}
</style>
<g id="Ellipse_184">
	<circle class="st0" cx="74.6" cy="74.3" r="74.7"/>
	<path class="st1" d="M74.6,149.1c-41.3,0-74.7-33.5-74.7-74.7c0-41.3,33.5-74.7,74.7-74.7s74.7,33.5,74.7,74.7c0,0,0,0,0,0
		C149.3,115.6,115.9,149,74.6,149.1z M74.6,2.9c-39.5,0-71.5,32-71.5,71.5s32,71.5,71.5,71.5s71.5-32,71.5-71.5
		C146,34.9,114.1,2.9,74.6,2.9z"/>
</g>
<circle class="st1" cx="59.5" cy="28.5" r="2.6"/>
<path class="st1" d="M59.5,31.7c-1.8,0-3.2-1.4-3.2-3.2s1.4-3.2,3.2-3.2s3.2,1.4,3.2,3.2c0,0,0,0,0,0C62.8,30.3,61.3,31.7,59.5,31.7
	z M59.5,26.4c-1.1,0-2,0.9-2,2s0.9,2,2,2s2-0.9,2-2C61.5,27.3,60.6,26.4,59.5,26.4z"/>
<circle class="st1" cx="62.9" cy="36.3" r="2.6"/>
<path class="st1" d="M62.9,39.5c-1.8,0-3.2-1.5-3.2-3.2c0-1.8,1.5-3.2,3.2-3.2c1.8,0,3.2,1.5,3.2,3.2c0,0,0,0,0,0
	C66.2,38.1,64.7,39.5,62.9,39.5C62.9,39.5,62.9,39.5,62.9,39.5z M62.9,34.2c-1.1,0-2,0.9-2,2s0.9,2,2,2c1.1,0,2-0.9,2-2
	S64,34.2,62.9,34.2C62.9,34.2,62.9,34.2,62.9,34.2z"/>
<circle class="st1" cx="67.6" cy="43.4" r="2.6"/>
<path class="st1" d="M67.6,46.6c-1.8,0-3.2-1.5-3.2-3.2c0-1.8,1.5-3.2,3.2-3.2c1.8,0,3.2,1.5,3.2,3.2c0,0,0,0,0,0
	C70.9,45.2,69.4,46.6,67.6,46.6C67.6,46.6,67.6,46.6,67.6,46.6z M67.6,41.4c-1.1,0-2,0.9-2,2s0.9,2,2,2s2-0.9,2-2
	S68.7,41.4,67.6,41.4z"/>
<circle class="st1" cx="75.4" cy="49.3" r="2.6"/>
<path class="st1" d="M75.4,52.6c-1.8,0-3.2-1.4-3.2-3.2c0-1.8,1.4-3.2,3.2-3.2c1.8,0,3.2,1.4,3.2,3.2c0,0,0,0,0,0
	C78.6,51.1,77.2,52.6,75.4,52.6z M75.4,47.3c-1.1,0-2,0.9-2,2s0.9,2,2,2s2-0.9,2-2S76.5,47.3,75.4,47.3z"/>
<circle class="st1" cx="79" cy="55.2" r="2.6"/>
<path class="st1" d="M79,58.5c-1.8,0-3.2-1.5-3.2-3.2c0-1.8,1.5-3.2,3.2-3.2c1.8,0,3.2,1.5,3.2,3.2c0,0,0,0,0,0
	C82.2,57,80.8,58.5,79,58.5C79,58.5,79,58.5,79,58.5z M79,53.2c-1.1,0-2,0.9-2,2s0.9,2,2,2s2-0.9,2-2S80.1,53.2,79,53.2z"/>
<circle class="st1" cx="83.6" cy="62.5" r="2.6"/>
<path class="st1" d="M83.6,65.7c-1.8,0-3.2-1.4-3.2-3.2c0-1.8,1.4-3.2,3.2-3.2c1.8,0,3.2,1.4,3.2,3.2C86.8,64.3,85.3,65.7,83.6,65.7
	z M83.6,60.4c-1.1,0-2,0.9-2,2s0.9,2,2,2s2-0.9,2-2S84.7,60.5,83.6,60.4z"/>
<circle class="st1" cx="86.2" cy="70.1" r="2.6"/>
<path class="st1" d="M86.2,73.3c-1.8,0-3.2-1.4-3.2-3.2c0-1.8,1.4-3.2,3.2-3.2c1.8,0,3.2,1.4,3.2,3.2c0,0,0,0,0,0
	C89.4,71.9,88,73.3,86.2,73.3z M86.2,68c-1.1,0-2,0.9-2,2s0.9,2,2,2s2-0.9,2-2C88.2,68.9,87.3,68.1,86.2,68z"/>
<circle class="st1" cx="86.2" cy="78.7" r="2.6"/>
<path class="st1" d="M86.2,81.9c-1.8,0-3.2-1.4-3.2-3.2c0-1.8,1.4-3.2,3.2-3.2c1.8,0,3.2,1.4,3.2,3.2c0,0,0,0,0,0
	C89.4,80.5,88,81.9,86.2,81.9z M86.2,76.7c-1.1,0-2,0.9-2,2s0.9,2,2,2s2-0.9,2-2S87.3,76.7,86.2,76.7z"/>
<circle class="st1" cx="83.3" cy="86.8" r="2.6"/>
<path class="st1" d="M83.3,90c-1.8,0-3.2-1.5-3.2-3.2c0-1.8,1.5-3.2,3.2-3.2c1.8,0,3.2,1.5,3.2,3.2c0,0,0,0,0,0
	C86.5,88.6,85.1,90,83.3,90C83.3,90,83.3,90,83.3,90z M83.3,84.7c-1.1,0-2,0.9-2,2s0.9,2,2,2s2-0.9,2-2
	C85.3,85.6,84.4,84.7,83.3,84.7C83.3,84.7,83.3,84.7,83.3,84.7L83.3,84.7z"/>
<circle class="st1" cx="78.9" cy="93.5" r="2.6"/>
<path class="st1" d="M78.9,96.8c-1.8,0-3.2-1.5-3.2-3.2s1.5-3.2,3.2-3.2c1.8,0,3.2,1.4,3.2,3.2C82.2,95.3,80.7,96.8,78.9,96.8
	C78.9,96.8,78.9,96.8,78.9,96.8z M78.9,91.5c-1.1,0-2,0.9-2,2s0.9,2,2,2s2-0.9,2-2S80,91.5,78.9,91.5z"/>
<circle class="st1" cx="75.4" cy="99.6" r="2.6"/>
<path class="st1" d="M75.4,102.8c-1.8,0-3.2-1.4-3.2-3.2c0-1.8,1.4-3.2,3.2-3.2c1.8,0,3.2,1.4,3.2,3.2c0,0,0,0,0,0
	C78.6,101.3,77.2,102.8,75.4,102.8z M75.4,97.5c-1.1,0-2,0.9-2,2s0.9,2,2,2s2-0.9,2-2S76.5,97.5,75.4,97.5z"/>
<circle class="st1" cx="67.4" cy="105.3" r="2.6"/>
<path class="st1" d="M67.4,108.5c-1.8,0-3.2-1.4-3.2-3.2c0-1.8,1.4-3.2,3.2-3.2c1.8,0,3.2,1.4,3.2,3.2c0,0,0,0,0,0
	C70.6,107.1,69.2,108.5,67.4,108.5z M67.4,103.3c-1.1,0-2,0.9-2,2s0.9,2,2,2s2-0.9,2-2C69.4,104.2,68.5,103.3,67.4,103.3z"/>
<circle class="st1" cx="62.9" cy="112.3" r="2.6"/>
<path class="st1" d="M62.9,115.5c-1.8,0-3.2-1.4-3.2-3.2s1.4-3.2,3.2-3.2c1.8,0,3.2,1.4,3.2,3.2c0,0,0,0,0,0
	C66.1,114.1,64.6,115.5,62.9,115.5z M62.9,110.3c-1.1,0-2,0.9-2,2s0.9,2,2,2s2-0.9,2-2S64,110.3,62.9,110.3z"/>
<circle class="st1" cx="59.9" cy="120.2" r="2.6"/>
<path class="st1" d="M59.9,123.4c-1.8,0-3.2-1.4-3.2-3.2c0-1.8,1.4-3.2,3.2-3.2c1.8,0,3.2,1.4,3.2,3.2c0,0,0,0,0,0
	C63.1,122,61.7,123.4,59.9,123.4z M59.9,118.2c-1.1,0-2,0.9-2,2s0.9,2,2,2s2-0.9,2-2S61,118.2,59.9,118.2z"/>
<circle class="st1" cx="89.7" cy="28.5" r="2.6"/>
<path class="st1" d="M89.7,31.7c-1.8,0-3.2-1.5-3.2-3.3c0-1.8,1.5-3.2,3.3-3.2c1.8,0,3.2,1.5,3.2,3.2C93,30.3,91.5,31.7,89.7,31.7
	C89.7,31.7,89.7,31.7,89.7,31.7z M89.7,26.4c-1.1,0-2,0.9-2,2s0.9,2,2,2s2-0.9,2-2C91.7,27.3,90.8,26.4,89.7,26.4z"/>
<circle class="st1" cx="86.3" cy="36.3" r="2.6"/>
<path class="st1" d="M86.3,39.5c-1.8,0-3.2-1.5-3.2-3.2c0-1.8,1.5-3.2,3.2-3.2c1.8,0,3.2,1.5,3.2,3.2c0,0,0,0,0,0
	C89.6,38.1,88.1,39.5,86.3,39.5C86.3,39.5,86.3,39.5,86.3,39.5z M86.3,34.2c-1.1,0-2,0.9-2,2s0.9,2,2,2s2-0.9,2-2
	S87.4,34.2,86.3,34.2z"/>
<circle class="st1" cx="81.6" cy="43.4" r="2.6"/>
<path class="st1" d="M81.6,46.6c-1.8,0-3.2-1.5-3.2-3.2c0-1.8,1.5-3.2,3.2-3.2c1.8,0,3.2,1.5,3.2,3.2c0,0,0,0,0,0
	C84.9,45.2,83.4,46.6,81.6,46.6C81.6,46.6,81.6,46.6,81.6,46.6z M81.6,41.4c-1.1,0-2,0.9-2,2s0.9,2,2,2s2-0.9,2-2
	S82.7,41.4,81.6,41.4z"/>
<circle class="st1" cx="70.3" cy="55.2" r="2.6"/>
<path class="st1" d="M70.3,58.5c-1.8,0-3.2-1.4-3.2-3.2c0-1.8,1.4-3.2,3.2-3.2c1.8,0,3.2,1.4,3.2,3.2c0,0,0,0,0,0
	C73.5,57,72.1,58.5,70.3,58.5z M70.3,53.2c-1.1,0-2,0.9-2,2s0.9,2,2,2s2-0.9,2-2S71.4,53.2,70.3,53.2z"/>
<circle class="st1" cx="65.7" cy="62.5" r="2.6"/>
<path class="st1" d="M65.7,65.7c-1.8,0-3.2-1.5-3.2-3.2c0-1.8,1.5-3.2,3.2-3.2c1.8,0,3.2,1.4,3.2,3.2C68.9,64.3,67.5,65.7,65.7,65.7
	C65.7,65.7,65.7,65.7,65.7,65.7z M65.7,60.4c-1.1,0-2,0.9-2,2s0.9,2,2,2s2-0.9,2-2S66.8,60.5,65.7,60.4z"/>
<circle class="st1" cx="63.1" cy="70.1" r="2.6"/>
<path class="st1" d="M63.1,73.3c-1.8,0-3.2-1.4-3.2-3.2s1.4-3.2,3.2-3.2c1.8,0,3.2,1.4,3.2,3.2c0,0,0,0,0,0
	C66.3,71.9,64.9,73.3,63.1,73.3z M63.1,68c-1.1,0-2,0.9-2,2s0.9,2,2,2s2-0.9,2-2C65.1,68.9,64.2,68.1,63.1,68z"/>
<circle class="st1" cx="63.1" cy="78.7" r="2.6"/>
<path class="st1" d="M63.1,81.9c-1.8,0-3.2-1.4-3.2-3.2s1.4-3.2,3.2-3.2c1.8,0,3.2,1.4,3.2,3.2c0,0,0,0,0,0
	C66.3,80.5,64.9,81.9,63.1,81.9z M63.1,76.7c-1.1,0-2,0.9-2,2s0.9,2,2,2s2-0.9,2-2S64.2,76.7,63.1,76.7z"/>
<circle class="st1" cx="65.9" cy="86.8" r="2.6"/>
<path class="st1" d="M66,90c-1.8,0-3.2-1.5-3.2-3.2s1.5-3.2,3.2-3.2c1.8,0,3.2,1.5,3.2,3.2c0,0,0,0,0,0C69.2,88.6,67.8,90,66,90
	C66,90,66,90,66,90z M66,84.7c-1.1,0-2,0.9-2,2s0.9,2,2,2s2-0.9,2-2C68,85.6,67.1,84.7,66,84.7C66,84.7,66,84.7,66,84.7L66,84.7z"/>
<circle class="st1" cx="70.3" cy="93.5" r="2.6"/>
<path class="st1" d="M70.3,96.8c-1.8,0-3.2-1.4-3.2-3.2s1.4-3.2,3.2-3.2c1.8,0,3.2,1.4,3.2,3.2C73.6,95.3,72.1,96.8,70.3,96.8z
	 M70.3,91.5c-1.1,0-2,0.9-2,2s0.9,2,2,2s2-0.9,2-2S71.4,91.5,70.3,91.5z"/>
<circle class="st1" cx="81.9" cy="105.3" r="2.6"/>
<path class="st1" d="M81.9,108.5c-1.8,0-3.2-1.4-3.2-3.2c0-1.8,1.4-3.2,3.2-3.2c1.8,0,3.2,1.4,3.2,3.2c0,0,0,0,0,0
	C85.1,107.1,83.7,108.5,81.9,108.5z M81.9,103.3c-1.1,0-2,0.9-2,2s0.9,2,2,2s2-0.9,2-2C83.9,104.2,83,103.3,81.9,103.3z"/>
<circle class="st1" cx="86.4" cy="112.3" r="2.6"/>
<path class="st1" d="M86.4,115.5c-1.8,0-3.2-1.4-3.2-3.2c0-1.8,1.4-3.2,3.2-3.2c1.8,0,3.2,1.4,3.2,3.2c0,0,0,0,0,0
	C89.6,114.1,88.2,115.5,86.4,115.5z M86.4,110.3c-1.1,0-2,0.9-2,2s0.9,2,2,2s2-0.9,2-2S87.5,110.3,86.4,110.3z"/>
<circle class="st1" cx="89.3" cy="120.2" r="2.6"/>
<path class="st1" d="M89.3,123.4c-1.8,0-3.2-1.4-3.2-3.2c0-1.8,1.4-3.2,3.2-3.2c1.8,0,3.2,1.4,3.2,3.2c0,0,0,0,0,0
	C92.6,122,91.1,123.4,89.3,123.4z M89.3,118.2c-1.1,0-2,0.9-2,2s0.9,2,2,2s2-0.9,2-2S90.4,118.2,89.3,118.2z"/>
</svg>
