<?xml version="1.0" encoding="utf-8"?>
<!-- Generator: Adobe Illustrator 24.1.3, SVG Export Plug-In . SVG Version: 6.00 Build 0)  -->
<svg version="1.1" id="Layer_1" xmlns="http://www.w3.org/2000/svg" xmlns:xlink="http://www.w3.org/1999/xlink" x="0px" y="0px"
	 viewBox="0 0 150 150" style="enable-background:new 0 0 150 150;" xml:space="preserve">
<style type="text/css">
	.st0{fill:none;stroke:#AA4269;stroke-miterlimit:10;}
	.st1{fill:#AA4269;}
</style>
<g id="Ellipse_184">
	<circle class="st0" cx="74.9" cy="74.8" r="74.7"/>
	<path class="st1" d="M74.9,149.6c-41.3,0-74.7-33.5-74.7-74.7S33.6,0.1,74.9,0.1c41.3,0,74.7,33.5,74.7,74.7c0,0,0,0,0,0
		C149.6,116.1,116.1,149.5,74.9,149.6z M74.9,3.4c-39.5,0-71.5,32-71.5,71.5s32,71.5,71.5,71.5s71.5-32,71.5-71.5
		C146.3,35.4,114.3,3.4,74.9,3.4z"/>
</g>
<path class="st1" d="M54.3,101.1c-11.2,0-22.4,0-33.6,0c-1,0-2.1-0.2-3-0.6c-1.6-0.8-2-2.3-2-4c0-6,0-12.1,0-18.2c0-8.3,0-16.7,0-25
	c0-2.6,0.7-3.8,2.5-4.4c0.7-0.2,1.5-0.3,2.3-0.3c22.5,0,45,0,67.4,0c3.4,0,4.8,1.5,4.9,4.9c0,14.3,0,28.5,0,42.8
	c0,3.5-1.4,4.8-4.9,4.8L54.3,101.1z M90.3,69.9H18.3c0,9,0,17.9,0,26.8c0,1.5,0.4,1.8,1.9,1.8c3.8,0,7.6,0,11.4,0h56.3
	c2,0,2.4-0.4,2.4-2c0-8.7,0-17.4,0-26.1C90.3,70.2,90.3,70.1,90.3,69.9z M18.4,58.2h72v-4.5c0-2.3-0.3-2.5-2.6-2.5H20.9
	c-0.4-0.1-0.9-0.1-1.3,0.1c-0.5,0.3-1.2,0.8-1.2,1.2C18.3,54.4,18.4,56.3,18.4,58.2z M54.1,67.3h35.2c0.7,0,1.1-0.3,1-1.1
	c0-1.2,0-2.3,0-3.5c0-1.9,0-1.9-1.9-1.9H20.2c-0.1,0-0.3,0-0.4,0c-1.1-0.2-1.6,0.2-1.5,1.4s0,2.2,0,3.3c0,1.8,0,1.9,1.8,1.9
	L54.1,67.3z"/>
<path class="st1" d="M40,101.6c-6.4,0-12.8,0-19.2,0c-1.1,0-2.2-0.2-3.2-0.7c-2-1-2.2-3-2.2-4.4c0-4.4,0-8.7,0-13.1V71.2
	c0-6,0-11.9,0-17.9c0-2.8,0.8-4.2,2.9-4.9c0.8-0.2,1.6-0.3,2.4-0.3c22.5,0,45,0,67.4,0c3.7,0,5.3,1.7,5.4,5.4c0,14.3,0,28.5,0,42.8
	c0,3.7-1.6,5.3-5.4,5.3H40z M59.7,49.1H20.6c-0.7,0-1.4,0.1-2.1,0.3c-1.6,0.5-2.2,1.5-2.2,3.9c0,6,0,11.9,0,17.9v12.2
	c0,4.4,0,8.7,0,13.1c0,1.9,0.5,3,1.7,3.5c0.9,0.4,1.8,0.6,2.8,0.6c8.9,0,17.8,0,26.7,0h40.6c3.2,0,4.4-1.1,4.4-4.3
	c0-14.3,0-28.5,0-42.8c0-3.1-1.3-4.4-4.4-4.4L59.7,49.1z M25.3,99.1h-5.1c-1.8,0-2.4-0.6-2.4-2.3c0-6.7,0-13.3,0-20v-7.3h72.8
	l0.1,0.5c0,0.1,0.1,0.3,0.1,0.4v3.4c0,7.6,0,15.1,0,22.7c0,2.2-1,2.5-2.9,2.5L25.3,99.1L25.3,99.1z M18.8,70.4v6.2
	c0,6.7,0,13.4,0,20c0,1.2,0.1,1.3,1.4,1.3h67.7c1.8,0,1.9-0.2,1.9-1.5c0-7.6,0-15.1,0-22.7v-3.3H18.8z M47.3,67.8H20.1
	c-1,0-1.6,0-2-0.4s-0.4-0.9-0.4-2c0-0.3,0-0.7,0-1c0-0.7,0-1.5,0-2.2c-0.1-0.6,0-1.2,0.4-1.6c0.5-0.4,1-0.5,1.6-0.3
	c0.1,0,0.1,0,0.2,0h68.4c1.1,0,1.7,0,2,0.4s0.4,0.9,0.4,2v1c0,0.8,0,1.7,0,2.5c0.1,0.8-0.4,1.5-1.1,1.6c-0.1,0-0.3,0-0.4,0
	L47.3,67.8L47.3,67.8z M19.3,61.3c-0.2,0-0.3,0-0.4,0.1c-0.1,0.2-0.2,0.5-0.1,0.8c0,0.8,0,1.5,0,2.3c0,0.3,0,0.7,0,1
	c0,0.4,0,0.9,0.1,1.3c0.4,0.1,0.8,0.1,1.2,0.1h69.2c0.2,0,0.3,0,0.4-0.1c0.1-0.1,0.1-0.3,0.1-0.4c0-0.9,0-1.7,0-2.6v-1
	c0-0.4,0-0.9-0.1-1.3c-0.4-0.1-0.9-0.1-1.3-0.1H20.1c-0.1,0-0.2,0-0.4,0L19.3,61.3z M90.9,58.7h-73v-0.5c0-0.5,0-1,0-1.5
	c0-1.4,0-2.8,0.1-4.3c0-0.7,0.9-1.3,1.5-1.6c0.4-0.2,0.8-0.2,1.2-0.2H21h66.8c2.6,0,3.1,0.5,3.1,3V58.7L90.9,58.7z M18.9,57.7h71v-4
	c0-2,0-2-2.1-2H20.9c-0.1,0-0.3,0-0.4,0c-0.2,0-0.4,0-0.7,0c-0.4,0.2-0.7,0.4-0.9,0.8c-0.1,1.4-0.1,2.8-0.1,4.2
	C18.8,57,18.9,57.4,18.9,57.7L18.9,57.7z"/>
<path class="st1" d="M57.9,43.5v-2.3h28.3v2.3L57.9,43.5z"/>
<path class="st1" d="M86.8,44H57.4v-3.3h29.3V44z M58.4,43h27.3v-1.3H58.4V43z"/>
<path class="st1" d="M57.9,108.5v-2.3h28.3v2.3H57.9z"/>
<path class="st1" d="M86.8,109H57.4v-3.3h29.3V109z M58.4,108h27.3v-1.3H58.4V108z"/>
<path class="st1" d="M105.6,73.7H134V76h-28.4V73.7z"/>
<path class="st1" d="M134.4,76.5h-29.3v-3.3h29.3V76.5z M106.1,75.5h27.3v-1.3h-27.3V75.5z"/>
<path class="st1" d="M101,59.2v-2.3h25.6v2.3H101z"/>
<path class="st1" d="M127.1,59.7h-26.6v-3.3h26.6V59.7z M101.5,58.7h24.6v-1.3h-24.6V58.7z"/>
<path class="st1" d="M101.1,92.8v-2.4h25.6v2.4H101.1z"/>
<path class="st1" d="M127.2,93.3h-26.6v-3.4h26.6V93.3z M101.6,92.3h24.6v-1.4h-24.6V92.3z"/>
<path class="st1" d="M94.5,43.5v-2.3h11.8v2.3H94.5z"/>
<path class="st1" d="M106.9,44H94v-3.3h12.8L106.9,44z M95,43h10.8v-1.3H95V43z"/>
<path class="st1" d="M106.4,106.2v2.3H94.6v-2.3H106.4z"/>
<path class="st1" d="M106.9,109H94.1v-3.3h12.8V109z M95.1,108h10.8v-1.3H95.1V108z"/>
<path class="st1" d="M36.8,94.8c-4.2,2.8-8.4,2.4-11.3-0.9c-2.7-3-2.8-7.5-0.3-10.7c2.9-3.5,7-4,11.6-1.2c4.3-2.7,8.5-2.3,11.4,0.9
	c2.8,3,2.9,7.5,0.3,10.6C46.1,96.4,41.6,98.2,36.8,94.8z M42.2,94.1c3.1-0.1,5.6-2.6,5.7-5.7c0.1-3.2-2.3-5.8-5.5-6
	c-3.2-0.1-5.8,2.3-6,5.5c0,0.2,0,0.3,0,0.5C36.4,91.6,39,94.1,42.2,94.1C42.2,94.1,42.2,94.1,42.2,94.1z M35.1,84
	c-2.3-2-5.7-1.7-7.7,0.6c-2,2.3-1.9,5.8,0.2,7.9c2,2,5.8,2.1,7.5,0.2C33.5,90,33.5,86.7,35.1,84z"/>
<path class="st1" d="M31.3,97.1c-2.4,0-4.6-1.1-6.1-2.9c-2.9-3.2-3-8-0.3-11.3c3-3.7,7.2-4.2,12-1.5c4.4-2.6,8.7-2.2,11.7,1.2
	c2.9,3.2,3.1,8,0.3,11.3c-2.6,3.1-7.3,4.7-12.1,1.5C35.2,96.5,33.3,97.1,31.3,97.1z M36.8,94.1l0.3,0.2c4.7,3.3,8.9,1.4,11-1.2
	c2.4-2.9,2.3-7.2-0.3-10c-2.7-3.1-6.6-3.4-10.7-0.8l-0.3,0.2l-0.3-0.2c-4.5-2.6-8.3-2.2-11,1.1c-2.3,3-2.2,7.2,0.3,10
	c2.8,3.1,6.7,3.4,10.7,0.8L36.8,94.1z M42.2,94.6c-3.4,0-6.2-2.7-6.2-6.2c0,0,0,0,0-0.1c0-3.5,2.8-6.2,6.3-6.3
	c1.6,0,3.1,0.6,4.2,1.8c1.2,1.2,2,2.8,2,4.5C48.4,91.8,45.6,94.5,42.2,94.6L42.2,94.6L42.2,94.6z M42.3,83.1L42.3,83.1
	c-3,0-5.3,2.3-5.4,5.2c0,2.9,2.3,5.2,5.2,5.2c0,0,0,0,0,0l0,0c2.8-0.1,5.1-2.4,5.2-5.2c0-1.4-0.6-2.8-1.7-3.8
	C44.8,83.7,43.5,83.2,42.3,83.1L42.3,83.1z M31.6,94.6c-1.6,0-3.2-0.6-4.4-1.7c-2.4-2.3-2.5-6.1-0.3-8.6c2.2-2.5,5.9-2.7,8.4-0.6
	l0.3,0.3l-0.2,0.4c-1.6,2.5-1.6,5.7,0,8.2l0.2,0.3l-0.2,0.3C34.5,94,33.1,94.6,31.6,94.6L31.6,94.6z M31.5,83.2
	c-1.4,0-2.8,0.6-3.7,1.7C25.9,87,26,90.2,28,92.1c1,0.9,2.3,1.5,3.7,1.4c1,0,2-0.3,2.8-0.9c-1.5-2.6-1.5-5.8,0-8.5
	C33.6,83.5,32.6,83.2,31.5,83.2z"/>
<path class="st1" d="M61.2,95.3V93h21.6v2.3L61.2,95.3z"/>
<path class="st1" d="M83.3,95.8H60.7v-3.3h22.6V95.8z M61.7,94.8h20.6v-1.3H61.7V94.8z"/>
<path class="st1" d="M61.2,90.7v-2.3h21.6v2.3L61.2,90.7z"/>
<path class="st1" d="M83.3,91.2H60.7v-3.3h22.6V91.2z M61.7,90.2h20.6v-1.3H61.7V90.2z"/>
<path class="st1" d="M82.8,83.8v2.3H61.2v-2.3H82.8z"/>
<path class="st1" d="M83.3,86.6H60.7v-3.3h22.6V86.6z M61.7,85.6h20.6v-1.3H61.7L61.7,85.6z"/>
<path class="st1" d="M82.8,79.2v2.3H61.2v-2.3H82.8z"/>
<path class="st1" d="M83.3,82H60.7v-3.3h22.6V82z M61.7,81h20.6v-1.3H61.7V81z"/>
<path class="st1" d="M82.8,74.6v2.3H61.2v-2.3H82.8z"/>
<path class="st1" d="M83.3,77.4H60.7v-3.3h22.6V77.4z M61.7,76.4h20.6v-1.3H61.7L61.7,76.4z"/>
</svg>
