<?xml version="1.0" encoding="utf-8"?>
<!-- Generator: Adobe Illustrator 24.1.3, SVG Export Plug-In . SVG Version: 6.00 Build 0)  -->
<svg version="1.1" id="Layer_1" xmlns="http://www.w3.org/2000/svg" xmlns:xlink="http://www.w3.org/1999/xlink" x="0px" y="0px"
	 viewBox="0 0 149.5 149.5" style="enable-background:new 0 0 149.5 149.5;" xml:space="preserve">
<style type="text/css">
	.st0{fill:#AA4269;}
	.st1{fill:none;stroke:#AA4269;stroke-miterlimit:10;}
</style>
<path class="st0" d="M117.9,96.7c0,1.5-1,2.9-2.4,3.5l-23.3,9.7l-16.5,6.8c-2.6,1.1-4.6,0.4-5.7-2.3c-4.8-11.6-9.7-23.2-14.5-34.8
	c-0.8-2,0.2-4.4,2.2-5.2c0,0,0.1,0,0.1,0c5.5-2.1,11-4.5,16.5-6.8l22.3-9.2c0.7-0.4,1.4-0.6,2.2-0.8c1.8-0.3,3.6,0.8,4.1,2.6
	c1.6,3.9,3.2,7.8,4.8,11.7c3.2,7.8,6.5,15.7,9.7,23.5C117.7,95.9,117.8,96.3,117.9,96.7z M114.2,97c0-0.2,0-0.3,0-0.4
	c-4.8-11.6-9.6-23.2-14.3-34.8c-0.3-0.7-0.6-0.6-1.2-0.4c-4,1.6-8,3.3-12,4.9c-0.8,0.3-1,0.6-0.6,1.4c1.9,4.3,3.7,8.7,5.5,13.1
	c0.6,1.5,0.3,2.2-1.2,2.9c-2.5,1-4.9,2.1-7.4,3.1c-0.4,0.2-0.9,0.3-1.3,0.5c-1.5,0.7-2.3,0.4-3-1.2c-1.8-4.3-3.6-8.6-5.4-12.9
	c-0.3-0.8-0.7-1-1.5-0.6c-3.9,1.6-7.8,3.2-11.7,4.8c-1,0.4-1,0.8-0.7,1.6c4.7,11.1,9.3,22.3,13.9,33.4c0.3,0.8,0.7,1,1.5,0.6
	c10.3-4.3,20.7-8.5,31-12.7L114.2,97z M82.2,68.6c-0.2,0-0.3,0-0.5,0.1l-4.9,2.1c-0.5,0.2-0.5,0.6-0.3,1.1c1.6,3.8,3.1,7.5,4.7,11.3
	c0.2,0.5,0.4,0.7,1,0.4c1.6-0.7,3.2-1.3,4.8-2c0.6-0.2,0.6-0.6,0.4-1.1c-1.6-3.8-3.1-7.6-4.7-11.3C82.5,68.9,82.4,68.7,82.2,68.6
	L82.2,68.6z"/>
<path class="st0" d="M48.9,76.3c-1.7,0.1-3.3-1-3.9-2.6c-1.4-3.3-2.7-6.6-4-9.8c-2.3-5.5-4.6-11-6.8-16.6c-0.3-0.8-0.5-1.6-0.5-2.4
	c0.1-1.3,0.9-2.5,2.2-2.9c5.8-2.4,11.6-4.8,17.4-7.2c4.6-1.9,9.1-3.8,13.7-5.7c2.7-1.1,4.6-0.3,5.7,2.4c3.6,8.8,7.2,17.5,10.8,26.2
	c1,2.5,0.2,4.5-2.3,5.5c-10.3,4.3-20.7,8.5-31,12.8C49.8,76.1,49.4,76.2,48.9,76.3z M37.2,45.2c3.8,9.2,7.6,18.3,11.3,27.4
	l31.7-13.1c-0.1-0.2-0.1-0.5-0.2-0.7c-3.6-8.7-7.1-17.3-10.7-26c-0.3-0.8-0.7-0.7-1.2-0.4c-2.9,1.2-5.8,2.3-8.7,3.4
	c-0.8,0.3-0.9,0.7-0.6,1.4c1.3,3.1,2.6,6.3,3.9,9.5c0.8,1.8,0.4,2.7-1.4,3.4c-2.1,0.9-4.2,1.7-6.4,2.6c-1.5,0.6-2.3,0.3-2.9-1.2
	c-1.2-2.9-2.3-5.8-3.5-8.7c-1-2.3-0.5-2.1-2.8-1.2C42.8,42.8,40.1,44,37.2,45.2z M58.9,47.2c-1.1-2.8-2.2-5.4-3.2-8
	c-0.1-0.3-0.2-0.6-0.4-0.9C55,38.1,54.7,38,54.5,38c-0.9,0.3-1.8,0.7-2.7,1.2c-0.3,0.2-0.4,0.5-0.4,0.9c1,2.7,2.1,5.4,3.1,8.1
	c0.2,0.5,0.5,0.6,0.9,0.4C56.5,48.1,57.6,47.6,58.9,47.2L58.9,47.2z"/>
<path class="st0" d="M60.1,114.5c4.9-0.9,8.6,0.8,11.5,4.8c1.5-0.6,3.1-1.2,4.6-1.9l30-12.4c0.9-0.4,1.8-0.6,2.5,0.2
	c1.1,1.1,0.7,2.5-0.8,3.2c-2.6,1.1-5.3,2.2-8,3.3c-8.6,3.6-17.2,7.2-25.8,10.7c-0.7,0.2-1.2,0.9-1,1.6c0,0,0,0.1,0,0.1
	c0.6,3.9-1.2,7.8-4.4,10c-3.4,2.4-7.2,2.9-11,0.9c-6.5-3.4-8.6-13.5-1.5-18.5c0.7-0.5,0.4-0.9,0.2-1.3c-3.6-8.7-7.2-17.4-10.8-26.1
	c-3.6-8.6-7.1-17.2-10.7-25.8c-0.2-0.7-0.8-1.2-1.5-1.3c-2-0.5-4-1-6-1.5c-0.4-0.1-0.8-0.2-1.1-0.4c-0.7-0.3-1.1-1.1-0.9-1.9
	c0.1-0.8,0.8-1.4,1.5-1.4c0.3,0,0.7,0,1,0.1c2.6,0.7,5.2,1.3,7.9,2c0.9,0.2,1.6,0.8,1.8,1.7c7.3,17.6,14.6,35.2,21.9,52.8
	C59.7,113.7,59.9,114.1,60.1,114.5z M62.6,118.1c-3.9-0.1-7.2,3-7.3,6.9c0,0,0,0.1,0,0.1c0,3.9,3.2,7.2,7.1,7.2
	c3.9-0.1,7-3.3,7.1-7.2C69.6,121.3,66.5,118.1,62.6,118.1C62.6,118.1,62.6,118.1,62.6,118.1z"/>
<path class="st0" d="M86.6,104.3c-0.2,0.2-0.5,0.9-1.1,1.2c-2.6,1.2-5.2,2.2-7.8,3.3c-0.9,0.4-1.7-0.1-2.1-1.2
	c-0.4-0.8,0-1.8,0.8-2.2c0.1,0,0.1,0,0.2-0.1c1.7-0.8,3.4-1.4,5.1-2.1c0.7-0.3,1.5-0.7,2.2-0.9c1-0.4,2.2,0.2,2.6,1.2
	C86.6,103.8,86.6,104,86.6,104.3z"/>
<path class="st0" d="M84,97.6c-0.4,0.4-0.7,1.1-1.2,1.3c-2.5,1.1-5.1,2.2-7.6,3.2c-1,0.3-2-0.1-2.4-1.1c-0.4-0.8,0-1.7,0.8-2.1
	c0,0,0,0,0.1,0c2.6-1.2,5.3-2.3,7.9-3.3C82.7,95.1,83.8,96.1,84,97.6z"/>
<path class="st0" d="M65.2,124.9c-0.1,1.4-1.6,1.5-2.6,2.1c-0.7,0.4-1.6,0.3-2.1-0.3c-0.7-0.7-0.8-1.8-0.1-2.5
	c0.2-0.2,0.4-0.3,0.6-0.4c0.5-0.3,1.1-0.5,1.7-0.7c1.1-0.3,2.2,0.3,2.5,1.3C65.2,124.5,65.2,124.7,65.2,124.9z"/>
<g id="Ellipse_184">
	<circle class="st1" cx="74.8" cy="74.7" r="74.7"/>
	<path class="st0" d="M74.8,149.5c-41.3,0-74.7-33.5-74.7-74.7S33.5,0,74.8,0s74.7,33.5,74.7,74.7C149.5,116,116,149.4,74.8,149.5z
		 M74.8,3.3c-39.5,0-71.5,32-71.5,71.5s32,71.5,71.5,71.5s71.5-32,71.5-71.5C146.2,35.3,114.2,3.3,74.8,3.3z"/>
</g>
</svg>
