<?xml version="1.0" encoding="utf-8"?>
<!-- Generator: Adobe Illustrator 24.1.3, SVG Export Plug-In . SVG Version: 6.00 Build 0)  -->
<svg version="1.1" id="Layer_1" xmlns="http://www.w3.org/2000/svg" xmlns:xlink="http://www.w3.org/1999/xlink" x="0px" y="0px"
	 viewBox="0 0 149.5 149.5" style="enable-background:new 0 0 149.5 149.5;" xml:space="preserve">
<style type="text/css">
	.st0{fill:none;stroke:#AA4269;stroke-miterlimit:10;}
	.st1{fill:#AA4269;}
</style>
<g id="Ellipse_184">
	<circle class="st0" cx="74.8" cy="74.6" r="74.7"/>
	<path class="st1" d="M74.8,149.3c-41.3,0-74.7-33.5-74.8-74.7S33.5-0.1,74.8-0.1s74.7,33.5,74.8,74.7c0,0,0,0,0,0
		C149.5,115.9,116.1,149.3,74.8,149.3z M74.8,3.1c-39.5,0-71.5,32-71.5,71.5s32,71.5,71.5,71.5s71.5-32,71.5-71.5
		C146.2,35.2,114.3,3.2,74.8,3.1z"/>
</g>
<rect x="50.2" y="26.4" class="st1" width="17.4" height="3.5"/>
<rect x="50.2" y="33.3" class="st1" width="3.5" height="3.5"/>
<rect x="57.1" y="33.3" class="st1" width="3.5" height="3.5"/>
<path class="st1" d="M43.2,21.1c0-0.9,0.8-1.7,1.7-1.7h43.6v8.8c0,2.9,2.3,5.2,5.1,5.2c0,0,0,0,0,0h4.7v-3.5h-4.7
	c-0.9,0-1.7-0.8-1.7-1.7v-6.2l10.5,10.5v30.3h3.5v-31c0-0.5-0.2-0.9-0.5-1.3l-14-14c-0.3-0.3-0.8-0.5-1.3-0.5H44.9
	c-2.9,0-5.2,2.3-5.2,5.1c0,0,0,0,0,0.1v48.5l3.5-3.3V21.1z"/>
<path class="st1" d="M43.2,94.4V77.7l-3.5-2.9v19.7c0,2.9,2.3,5.2,5.2,5.2c0,0,0,0,0,0h6.9v-3.5h-6.9C43.9,96.2,43.2,95.4,43.2,94.4
	C43.2,94.5,43.2,94.4,43.2,94.4z"/>
<path class="st1" d="M92.1,52.5V40.3c0-0.9-0.8-1.7-1.7-1.7h-14V42h9.7L75.6,52.5h-15c-0.5,0-0.9,0.2-1.3,0.5L40.2,72.1l2.4,2.4
	l18.7-18.7h15c0.5,0,0.9-0.2,1.3-0.5l11-11v8h3.6L92.1,52.5z"/>
<path class="st1" d="M120.8,123.5h-71v-15.8h71V123.5z M52.5,120.8h65.6v-10.3H52.5L52.5,120.8z M121.2,106.6H49.3l1.5-3.2l1.3-2.6
	c0.7-1.5,1.5-3,2.2-4.4c1.8-3.7,3.7-7.4,5.5-11.2c0.5-1.4,1.9-2.3,3.5-2.2l0,0c15.3,0,30.6,0,44.9,0l0,0c1-0.1,1.9,0.5,2.3,1.4
	c2.3,4.7,4.7,9.4,7,14.2l2.7,5.4c0.1,0.2,0.1,0.3,0.2,0.5L121.2,106.6z M53.6,103.9H117l-2-4c-2.3-4.7-4.6-9.4-6.9-14.1
	c-14.3,0-29.6,0-44.8,0c-0.7,0-0.8,0-1,0.6c-1.8,3.8-3.7,7.6-5.5,11.2c-0.7,1.5-1.5,3-2.2,4.4L53.6,103.9z M108.7,82.3H60.6V69.6
	c0-3.2,1.9-5.1,5.1-5.1H68v1.4c0,1.2,0,6.6,0,9.1h13.7c0-2.6,0-8.1,0-9.1v-1.4h1.7c2.3,0,15.2,0,21.9,0l0,0c2.5-0.1,4.7,1.8,4.8,4.4
	c0,0.1,0,0.1,0,0.2c0,3.2,0,6.5,0,9.8v1.9c0,0.2,0,0.4-0.1,0.6l-0.3,0.9L108.7,82.3z M63.3,79.6h44.1v-0.8c0-3.2,0-6.5,0-9.8
	c-0.1-1-0.9-1.8-2-1.8c0,0-0.1,0-0.1,0l0,0c-6,0-17,0-20.9,0c0,3,0,9.1,0,9.1v1.4h-1.4c0,0-10,0-16.4,0h-1.4v-2c0-1.7,0-6.1,0-8.4
	c-1.5,0.1-2,0.7-2,2.3L63.3,79.6L63.3,79.6z"/>
<path class="st1" d="M58.2,102.7c-0.8,0-1.6,0-2.4,0c-0.6,0-0.8-0.2-0.5-0.7c0.8-1.3,1.5-2.6,2.3-3.9c0.2-0.3,0.5-0.4,0.9-0.4
	c1.4,0,2.8,0,4.2,0c0.7,0,0.9,0.2,0.6,0.7c-0.6,1.3-1.2,2.6-1.9,3.9c-0.2,0.2-0.4,0.4-0.7,0.4C59.9,102.8,59,102.7,58.2,102.7z
	 M62.3,98.5c-1.3,0-2.4,0-3.6,0c-0.2,0-0.3,0.1-0.4,0.2c-0.5,0.7-0.9,1.5-1.3,2.2c-0.2,0.3-0.3,0.7-0.5,1h0.2h2.5c1.4,0,1.5,0,2-1
	C61.5,100.2,61.8,99.3,62.3,98.5z"/>
<path class="st1" d="M59.6,103h-3.8c-0.3,0-0.7-0.1-0.9-0.3c-0.1-0.3-0.1-0.5,0.1-0.8v-0.1c0.7-1.3,1.5-2.6,2.3-3.8
	c0.3-0.3,0.7-0.5,1.1-0.6c1.2,0,2.3,0,3.4,0h0.8c0.4,0,0.8,0.1,0.9,0.3c0.1,0.2,0.1,0.6,0,0.8c-0.6,1.2-1.2,2.6-1.9,3.9
	c-0.2,0.3-0.6,0.5-1,0.5C60.3,103,60,103,59.6,103z M58.2,102.4h0.7c0.6,0,1.2,0,1.8,0c0.2,0,0.4-0.1,0.5-0.2
	c0.7-1.3,1.3-2.7,1.9-3.9c0.1-0.1,0.1-0.2,0.1-0.3c-0.1,0-0.3,0-0.5,0h-0.8c-1.1,0-2.3,0-3.4,0c-0.2,0-0.5,0.1-0.7,0.3
	c-0.8,1.3-1.5,2.6-2.3,3.8v0.1c0,0.1-0.1,0.1-0.1,0.2c0.1,0,0.3,0,0.4,0L58.2,102.4L58.2,102.4z M59.2,102.2h-2.6h-0.2l-0.5-0.1
	l0.3-0.6c0.1-0.2,0.2-0.5,0.4-0.7c0.4-0.8,0.9-1.5,1.3-2.2c0.1-0.2,0.4-0.4,0.6-0.4c0.9,0,1.8,0,2.7,0h1.3l-0.6,1.2
	c-0.3,0.6-0.5,1.2-0.8,1.7C60.8,102.2,60.6,102.3,59.2,102.2L59.2,102.2z M56.9,101.7c0.8,0,1.5,0,2.2,0c1.3,0,1.3,0,1.7-0.9
	c0.3-0.5,0.5-1.1,0.8-1.7l0.2-0.4h-3.1c-0.1,0-0.1,0.1-0.2,0.1c-0.5,0.7-0.9,1.5-1.3,2.2C57.1,101.3,57,101.5,56.9,101.7L56.9,101.7
	z"/>
<path class="st1" d="M67.1,102.8h-2.6c-0.6,0-0.8-0.3-0.6-0.7c0.6-1.4,1.1-2.8,1.8-4.2c0.2-0.2,0.4-0.4,0.7-0.4c1.5,0,3.1,0,4.6,0
	c0.6,0,0.8,0.2,0.7,0.6c-0.4,1.4-0.8,2.8-1.2,4.1c-0.1,0.3-0.3,0.5-0.8,0.5C68.7,102.8,67.9,102.8,67.1,102.8z M70.6,98.4h-3.7
	c-0.2,0-0.3,0.1-0.5,0.2c-0.5,1.1-0.9,2.3-1.4,3.5h4.2c0.2,0,0.3-0.1,0.4-0.3C69.9,100.7,70.2,99.6,70.6,98.4z"/>
<path class="st1" d="M69.6,103.1L69.6,103.1c-0.6,0-1.2,0-1.8,0h-3.4c-0.3,0-0.6-0.1-0.8-0.3c-0.1-0.2-0.1-0.5,0-0.7
	c0.5-1.4,1.1-2.8,1.8-4.2c0.2-0.3,0.6-0.5,1-0.5c1.1,0,2.1,0,3.2,0H71c0.3,0,0.6,0.1,0.8,0.3c0.1,0.2,0.2,0.4,0.1,0.7
	c-0.4,1.4-0.8,2.8-1.2,4.1C70.5,102.9,70.1,103.2,69.6,103.1z M68.5,102.6h1c0.4,0,0.5-0.2,0.6-0.3c0.4-1.4,0.8-2.8,1.2-4.1
	c0-0.1,0-0.1,0-0.2c0,0-0.1,0-0.4-0.1h-1.4c-1.1,0-2.1,0-3.2,0c-0.2,0-0.3,0.1-0.5,0.2c-0.6,1.4-1.2,2.8-1.8,4.2c0,0.1,0,0.2,0,0.2
	s0.1,0.1,0.4,0.1L68.5,102.6L68.5,102.6z M66.8,102.3h-2.2l0.5-1.2c0.4-0.9,0.7-1.8,1.1-2.7c0.2-0.2,0.4-0.4,0.7-0.4
	c0.9,0,1.8,0,2.8,0h1.3l-0.3,1.1c-0.3,0.9-0.5,1.8-0.8,2.7c-0.1,0.2-0.3,0.4-0.6,0.4L66.8,102.3z M65.4,101.8h3.8
	c0,0,0.1-0.1,0.1-0.1c0.3-0.8,0.5-1.7,0.8-2.6l0.1-0.4h-3.3c-0.1,0-0.2,0-0.2,0.1c-0.4,0.8-0.7,1.7-1.1,2.6L65.4,101.8z"/>
<path class="st1" d="M112.6,102.8c-0.8,0-1.6,0-2.4,0c-0.3,0.1-0.7-0.1-0.8-0.4c-0.6-1.3-1.3-2.7-1.9-4c-0.3-0.7-0.2-0.8,0.7-0.8
	c1.4,0,2.8,0,4.3,0c0.4,0,0.7,0.1,0.9,0.4c0.9,1.3,1.7,2.7,2.4,4.1c0.3,0.5,0.2,0.7-0.6,0.7S113.5,102.8,112.6,102.8z M114.6,102.1
	c-0.7-1.2-1.4-2.4-2-3.5c-0.1-0.1-0.2-0.2-0.3-0.2h-3.8c0.6,1.2,1.1,2.3,1.6,3.4c0.1,0.1,0.2,0.3,0.4,0.3
	C111.9,102.1,113.2,102.1,114.6,102.1L114.6,102.1z"/>
<path class="st1" d="M110.1,103.1c-0.4,0-0.8-0.2-1-0.6c-0.3-0.6-0.6-1.2-0.8-1.7l-1.1-2.3c-0.1-0.3-0.3-0.7-0.1-0.9
	s0.5-0.3,1.1-0.3h1c1.1,0,2.2,0,3.3,0c0.4,0,0.9,0.2,1.2,0.5c0.9,1.4,1.7,2.8,2.4,4.1c0.2,0.2,0.2,0.5,0.1,0.8
	c-0.2,0.3-0.6,0.4-0.9,0.3h-3.4C111.3,103.1,110.8,103.1,110.1,103.1L110.1,103.1z M107.5,97.9c0,0.1,0.1,0.3,0.1,0.4l1.1,2.3
	l0.8,1.7c0.1,0.2,0.2,0.3,0.6,0.3c0.6,0,1.2,0,1.7,0h3.3c0.2,0,0.3,0,0.5-0.1c0,0,0-0.1-0.1-0.2c-0.7-1.3-1.6-2.7-2.4-4.1
	c-0.2-0.2-0.5-0.3-0.7-0.3c-1.1,0-2.2,0-3.2,0h-1C107.7,97.9,107.6,97.9,107.5,97.9L107.5,97.9z M112.8,102.3c-0.8,0-1.5,0-2.3,0
	c-0.3,0-0.5-0.2-0.6-0.4c-0.4-0.8-0.8-1.7-1.2-2.6l-0.6-1.2h4.2c0.2,0,0.5,0.1,0.6,0.3c0.5,0.9,1,1.8,1.6,2.7l0.7,1.2L112.8,102.3
	L112.8,102.3z M108.9,98.7l0.2,0.4c0.4,0.9,0.8,1.7,1.2,2.6c0,0.1,0.1,0.1,0.2,0.1c1,0,2.1,0,3.2,0h0.5l-0.2-0.4
	c-0.5-0.9-1.1-1.8-1.6-2.7l-0.1-0.1C112.3,98.7,108.9,98.7,108.9,98.7z"/>
<path class="st1" d="M76.2,102.8h-2.6c-0.6,0-0.8-0.2-0.7-0.7c0.3-1.3,0.6-2.7,0.9-4c0.1-0.4,0.3-0.6,0.9-0.6c1.4,0,2.9,0,4.3,0
	c0.8,0,0.9,0.1,0.9,0.7c-0.1,1.3-0.3,2.6-0.5,3.9c0,0.4-0.3,0.6-0.8,0.6L76.2,102.8z M74.8,98.4l-0.8,3.7c1.5,0,2.8,0,4.2,0
	c0.2,0,0.3-0.1,0.3-0.3c0.2-1.1,0.3-2.2,0.4-3.4L74.8,98.4z"/>
<path class="st1" d="M78.7,103.1h-5.1c-0.3,0-0.6-0.1-0.8-0.3c-0.1-0.2-0.2-0.5-0.1-0.7c0.3-1.3,0.6-2.7,0.9-4
	c0.1-0.6,0.5-0.8,1.2-0.8c1,0,1.9,0,2.9,0h1.4c0.5,0,0.8,0,1,0.2c0.2,0.2,0.2,0.5,0.1,0.8c-0.1,0.7-0.2,1.3-0.2,2
	c-0.1,0.6-0.2,1.3-0.2,1.9S79.4,103.1,78.7,103.1z M77.7,102.6h1c0.5,0,0.5-0.1,0.5-0.3c0.1-0.7,0.2-1.3,0.2-1.9s0.2-1.3,0.2-2
	c0-0.3,0-0.4,0-0.4c-0.2,0-0.4,0-0.6,0h-1.4c-1,0-1.9,0-2.9,0c-0.5,0-0.6,0.2-0.7,0.4c-0.3,1.3-0.6,2.7-0.9,4c0,0.1,0,0.2,0,0.2
	c0,0,0.1,0.1,0.4,0.1L77.7,102.6L77.7,102.6z M75.8,102.3h-2.2l1-4.2h4.7l-0.1,1.1c-0.1,0.9-0.2,1.8-0.3,2.6
	c-0.1,0.3-0.3,0.5-0.6,0.5L75.8,102.3z M74.4,101.8h3.9c0,0,0.1-0.1,0.1-0.1c0.1-0.8,0.2-1.7,0.3-2.6l0.1-0.4h-3.6L74.4,101.8z"/>
<path class="st1" d="M103.5,102.8c-0.8,0-1.6,0-2.4,0c-0.6,0-0.8-0.2-0.9-0.6c-0.4-1.3-0.8-2.7-1.2-4c-0.1-0.4,0.1-0.6,0.6-0.6
	c1.6,0,3.1,0,4.7,0c0.3,0,0.6,0.1,0.7,0.4c0.6,1.4,1.2,2.7,1.8,4.1c0.2,0.5,0,0.7-0.7,0.7L103.5,102.8z M100.1,98.4
	c0.3,1.2,0.6,2.2,1,3.3c0,0.1,0.4,0.3,0.6,0.3c1.1,0,2.2,0,3.4,0c0.2,0,0.4,0,0.6-0.1l-1.5-3.6L100.1,98.4z"/>
<path class="st1" d="M101,103.1c-0.5,0.1-1-0.3-1.1-0.8c-0.4-1.2-0.7-2.5-1.1-3.7l-0.1-0.3c-0.1-0.2-0.1-0.5,0.1-0.7
	c0.2-0.2,0.5-0.3,0.8-0.3h1.2c1.2,0,2.3,0,3.5,0c0.4,0,0.8,0.2,1,0.6c0.6,1.4,1.2,2.8,1.8,4.1c0.1,0.2,0.1,0.5,0,0.8
	c-0.2,0.3-0.6,0.3-1,0.3h-3.2C102.2,103.1,101.6,103.1,101,103.1L101,103.1z M101.9,97.9h-2.3c-0.1,0-0.3,0-0.4,0.1
	c0,0.1,0,0.1,0,0.2l0.1,0.3c0.4,1.2,0.8,2.5,1.1,3.7c0.1,0.3,0.2,0.4,0.6,0.4c0.6,0,1.2,0,1.7,0h3.2c0.4,0,0.5-0.1,0.5-0.1l0,0
	c0,0,0-0.1-0.1-0.2c-0.5-1.3-1.1-2.7-1.8-4.1c-0.1-0.1-0.3-0.2-0.5-0.3C103.5,97.9,102.7,97.9,101.9,97.9L101.9,97.9z M103.3,102.4
	h-1.7c-0.3,0-0.7-0.2-0.8-0.5c-0.3-0.8-0.5-1.7-0.8-2.6l-0.3-1.2h4.6l1.7,4.2h-0.6c-0.1,0-0.3,0-0.4,0L103.3,102.4L103.3,102.4z
	 M100.4,98.7l0.1,0.5c0.2,0.9,0.5,1.7,0.8,2.5c0.1,0.1,0.2,0.1,0.3,0.1c0.9,0,1.9,0,2.8,0h0.8l-1.2-3.1H100.4z"/>
<path class="st1" d="M85.3,102.8h-2.6c-0.5,0-0.7-0.2-0.7-0.5c0.1-1.4,0.1-2.8,0.2-4.1c0-0.4,0.3-0.6,0.8-0.6c1.5,0,3,0,4.6,0
	c0.4,0,0.7,0.1,0.7,0.4c0.1,1.4,0.2,2.9,0.3,4.3c0,0.3-0.3,0.4-0.7,0.4L85.3,102.8z M87.5,98.4h-4.3v3.6h4.3V98.4z"/>
<path class="st1" d="M82.7,103.1c-0.3,0-0.5-0.1-0.8-0.2c-0.1-0.2-0.2-0.4-0.2-0.6l0.1-2.4l0.1-1.7c0-0.4,0.2-0.9,1.1-0.8
	c1.5,0,3,0,4.5,0c0.8,0,1,0.4,1,0.7v0.5c0.1,1.3,0.2,2.6,0.3,3.8c0,0.2,0,0.3-0.2,0.5c-0.2,0.2-0.5,0.3-0.8,0.3L82.7,103.1
	L82.7,103.1z M83,97.9c-0.5,0-0.5,0.2-0.5,0.3l-0.1,1.7c0,0.8-0.1,1.6-0.1,2.4c0,0.1,0,0.1,0,0.2c0,0,0.1,0.1,0.3,0.1h5.2
	c0.3,0,0.4-0.1,0.4-0.1c-0.1-1.3-0.2-2.6-0.2-3.9v-0.5c0-0.1,0-0.2-0.4-0.2C86.1,97.9,84.5,97.9,83,97.9L83,97.9z M87.7,102.3h-4.8
	v-4.2h4.8L87.7,102.3z M83.4,101.8h3.7v-3.1h-3.7L83.4,101.8z"/>
<path class="st1" d="M94.4,102.8h-2.5c-0.4,0-0.7-0.1-0.7-0.5c-0.2-1.4-0.3-2.7-0.5-4.1c-0.1-0.5,0.1-0.7,0.8-0.7c1.5,0,3,0,4.5,0
	c0.5,0,0.8,0.1,0.9,0.5c0.3,1.4,0.7,2.8,1,4.2c0.1,0.4-0.2,0.6-0.7,0.6L94.4,102.8z M91.7,98.4c0.1,1.1,0.3,2.1,0.4,3.2
	c0,0.3,0.1,0.5,0.6,0.5s1,0,1.5,0h2.5l-0.9-3.7L91.7,98.4z"/>
<path class="st1" d="M91.9,103.1c-0.4,0.1-0.9-0.2-1-0.6c0,0,0-0.1,0-0.1c-0.1-1.3-0.3-2.6-0.5-4.1c-0.1-0.2,0-0.5,0.2-0.7
	c0.2-0.2,0.6-0.3,0.9-0.3c1.6,0,3.1,0,4.5,0c0.5-0.1,1,0.2,1.1,0.7c0.2,0.9,0.4,1.8,0.6,2.7l0.4,1.5c0.1,0.2,0,0.4-0.1,0.6
	c-0.2,0.2-0.5,0.3-0.8,0.3h-2.7l0,0L91.9,103.1L91.9,103.1z M91.4,97.9c-0.3,0-0.4,0.1-0.4,0.1c0,0.1,0,0.2,0,0.3
	c0.2,1.5,0.4,2.8,0.5,4.1c0,0.2,0,0.3,0.4,0.2h5.2c0.2,0,0.3,0,0.4-0.1s0-0.1,0-0.2l-0.4-1.5c-0.2-0.9-0.4-1.8-0.6-2.7
	c0-0.2-0.1-0.3-0.6-0.3C94.5,97.9,93,97.9,91.4,97.9L91.4,97.9z M92.6,102.4c-0.4,0.1-0.7-0.2-0.8-0.6c0,0,0-0.1,0-0.1
	c-0.1-0.8-0.2-1.5-0.2-2.3l-0.2-1.2H96l1,4.2h-3.3c-0.3,0-0.7,0-1,0L92.6,102.4z M92,98.7l0.1,0.6c0.1,0.8,0.2,1.5,0.2,2.3
	c0,0.2,0,0.2,0.3,0.2s0.7,0,1.1,0h2.6l-0.7-3.1H92z"/>
<path class="st1" d="M61.2,96.3c-0.7,0-1.4,0-2.1,0s-0.8-0.3-0.6-0.9c0.6-1.3,1.2-2.7,1.9-4c0.1-0.2,0.4-0.4,0.7-0.4
	c1.4,0,2.8,0,4.2,0c0.5,0,0.7,0.3,0.5,0.7c-0.5,1.4-1,2.8-1.6,4.2c-0.2,0.3-0.5,0.4-0.8,0.4C62.7,96.3,62,96.3,61.2,96.3z
	 M64.7,91.9c-0.5,0-1,0-1.4,0c-1.2-0.4-2.4,0.2-2.8,1.4c0,0.1-0.1,0.3-0.1,0.4c-0.2,0.6-0.5,1.1-0.7,1.7c1.2,0,2.2,0,3.3,0
	c0.2,0,0.4-0.1,0.5-0.3C63.9,94,64.3,93,64.7,91.9z"/>
<path class="st1" d="M62.5,96.6h-3.4c-0.3,0-0.7-0.1-0.9-0.4c-0.1-0.3-0.1-0.6,0.1-0.9c0.5-1.2,1.2-2.6,1.9-4
	c0.2-0.3,0.5-0.5,0.9-0.6c1.1,0,2.2,0,3.3,0h0.9c0.4-0.1,0.8,0.2,0.9,0.6c0,0.2,0,0.4-0.1,0.5l-0.2,0.5c-0.4,1.2-0.9,2.5-1.4,3.7
	c-0.2,0.3-0.6,0.6-1,0.6C63.2,96.6,62.8,96.6,62.5,96.6z M61.2,96h0.6c0.5,0,1,0,1.6,0c0.2,0,0.4-0.1,0.5-0.2c0.5-1.2,1-2.5,1.4-3.7
	l0.2-0.5c0.1-0.2,0.1-0.2,0-0.3c-0.1-0.1-0.2-0.1-0.3-0.1h-0.9c-1.1,0-2.2,0-3.3,0c-0.2,0-0.3,0.1-0.4,0.3c-0.7,1.4-1.3,2.8-1.9,4
	c-0.1,0.3-0.1,0.4-0.1,0.4s0,0.1,0.4,0.1s1,0,1.4,0L61.2,96z M61.4,95.6h-2.2l0.2-0.4c0.1-0.2,0.2-0.4,0.3-0.6
	c0.2-0.3,0.3-0.7,0.5-1.1c0.2-1.4,1.5-2.3,2.8-2.1c0.1,0,0.3,0.1,0.4,0.1c0.3,0,0.6,0,0.8,0h0.5h0.4l-0.5,1.2
	c-0.3,0.8-0.6,1.6-0.9,2.4c-0.2,0.3-0.5,0.4-0.8,0.4C62.4,95.6,61.9,95.6,61.4,95.6z M60.1,95.1h0.5c0.8,0,1.6,0,2.4,0
	c0.1,0,0.2-0.1,0.3-0.1c0.3-0.8,0.6-1.5,0.9-2.3l0.2-0.4h-0.1c-0.3,0-0.7,0-1,0c-1-0.4-2.1,0.1-2.5,1.2c-0.1,0.1-0.1,0.3-0.1,0.4
	c-0.1,0.4-0.3,0.8-0.5,1.2C60.1,95,60.1,95,60.1,95.1z"/>
<path class="st1" d="M69.3,96.3c-0.7,0-1.4,0-2.1,0s-0.9-0.2-0.7-0.9c0.4-1.3,0.8-2.6,1.2-3.9c0.1-0.5,0.5-0.8,0.9-0.7
	c0,0,0,0,0.1,0c1.3,0,2.5,0,3.8,0c0.8,0,1,0.2,0.8,1c-0.3,1.2-0.6,2.5-0.9,3.7c-0.1,0.4-0.4,0.7-0.8,0.7
	C70.8,96.3,70.1,96.3,69.3,96.3L69.3,96.3z M71.4,95.3l0.8-3.4c-1.1,0-2.2,0-3.2,0c-0.2,0-0.3,0.1-0.4,0.2c-0.4,1-0.7,2.1-1,3.2
	L71.4,95.3z"/>
<path class="st1" d="M68,96.6h-0.8c-0.3,0-0.7-0.1-0.9-0.3c-0.1-0.3-0.1-0.6,0-0.9c0.2-0.6,0.4-1.2,0.6-1.8s0.4-1.3,0.6-2
	c0.1-0.6,0.7-1,1.2-0.9c0.8,0,1.7,0,2.5,0c0.4,0,0.9,0,1.3,0c0.4-0.1,0.7,0.1,1,0.3c0.2,0.3,0.2,0.7,0.1,1c-0.1,0.5-0.2,1-0.4,1.5
	c-0.2,0.7-0.4,1.5-0.5,2.2c-0.1,0.5-0.6,0.9-1.1,0.9L68,96.6L68,96.6z M68.6,91.1c-0.3,0-0.6,0.2-0.6,0.5c0,0,0,0,0,0
	c-0.2,0.7-0.4,1.4-0.7,2s-0.4,1.2-0.6,1.8c-0.1,0.3-0.1,0.4,0,0.4s0.1,0.1,0.5,0.1s1,0,1.4,0h2.9c0.3,0,0.5-0.1,0.6-0.4
	c0.2-0.8,0.4-1.5,0.5-2.2c0.1-0.5,0.2-1,0.4-1.5s0.1-0.5,0-0.6s-0.1-0.1-0.5-0.1h-1.3C70.4,91.1,69.5,91.1,68.6,91.1L68.6,91.1z
	 M71.6,95.6h-4.4l0.3-1.1c0.3-0.9,0.5-1.7,0.8-2.5c0.1-0.3,0.5-0.4,0.7-0.4h3.5L71.6,95.6z M68,95.1h3.2l0.7-2.9h-2.8
	c-0.1,0-0.1,0-0.2,0.1c-0.3,0.8-0.5,1.6-0.8,2.5L68,95.1z"/>
<path class="st1" d="M77.3,96.3c-0.7,0-1.3,0-2,0s-0.9-0.2-0.8-0.9c0.2-1.3,0.5-2.5,0.7-3.8c0-0.4,0.3-0.7,0.7-0.7c0,0,0.1,0,0.1,0
	c1.3,0,2.6,0,3.9,0c0.6,0,0.8,0.2,0.8,0.8c-0.2,1.3-0.3,2.6-0.4,4c0,0.5-0.3,0.6-0.7,0.7L77.3,96.3L77.3,96.3z M79.3,95.3l0.3-3.4
	c-1.1,0-2.2,0-3.2,0c-0.2,0-0.3,0.1-0.4,0.3c-0.2,1-0.4,2-0.6,3.1L79.3,95.3z"/>
<path class="st1" d="M76,96.6h-0.8c-0.3,0-0.7-0.1-0.9-0.3c-0.2-0.3-0.2-0.7-0.1-1l0.2-1.1c0.2-0.9,0.3-1.8,0.5-2.7
	c0.1-0.5,0.5-0.9,1.1-0.9c0,0,0,0,0,0c1.3,0,2.7,0,3.9,0c0.3,0,0.6,0.1,0.8,0.3c0.2,0.2,0.3,0.5,0.2,0.8c-0.2,1.6-0.3,2.8-0.4,3.9
	c0,0.5-0.4,0.9-0.9,0.9c0,0-0.1,0-0.1,0L76,96.6L76,96.6z M76,91.1c-0.3,0-0.4,0.1-0.5,0.5c-0.2,0.9-0.3,1.8-0.5,2.7l-0.2,1.1
	c-0.1,0.4,0,0.5,0,0.5s0.1,0.1,0.5,0.1s0.9,0,1.4,0h2.9c0.3,0,0.4-0.1,0.4-0.4c0.1-1.1,0.2-2.4,0.4-4c0.1-0.2,0-0.4-0.2-0.5
	c-0.1,0-0.2,0-0.3,0C78.7,91.1,77.4,91.1,76,91.1L76,91.1z M79.6,95.6h-4.4l0.2-1.1c0.2-0.8,0.3-1.6,0.5-2.4
	c0.1-0.3,0.3-0.5,0.6-0.5c0.8,0,1.6,0,2.4,0h1.1L79.6,95.6z M75.8,95H79l0.3-2.9h-2.8c0,0-0.1,0.1-0.1,0.1c-0.2,0.8-0.3,1.5-0.4,2.3
	L75.8,95z"/>
<path class="st1" d="M85.3,96.3c-0.7,0-1.4,0-2.2,0c-0.5,0-0.8-0.2-0.7-0.8c0.1-1.3,0.1-2.7,0.2-4c0-0.3,0.2-0.6,0.5-0.6
	c0,0,0.1,0,0.1,0h4.2c0.3-0.1,0.6,0.2,0.7,0.5c0,0,0,0.1,0,0.1c0.1,1.3,0.1,2.7,0.2,4c0,0.5-0.2,0.7-0.7,0.7L85.3,96.3z M87.1,91.9
	c-1.1,0-2.1,0-3.2,0c-0.2,0-0.4,0.2-0.4,0.4c0,1,0,2,0,3h3.8L87.1,91.9z"/>
<path class="st1" d="M83.1,96.6c-0.3,0-0.6-0.1-0.8-0.3c-0.2-0.2-0.3-0.5-0.2-0.8l0.2-4c0-0.4,0.3-0.8,0.8-0.8c0,0,0.1,0,0.1,0l0,0
	c1.4,0,2.8,0,4.2,0c0.5-0.1,0.9,0.2,1,0.7c0,0.1,0,0.1,0,0.2c0,0.7,0.1,1.4,0.1,2s0.1,1.3,0.1,2c0,0.3-0.1,0.5-0.2,0.8
	c-0.2,0.2-0.5,0.3-0.8,0.3L83.1,96.6L83.1,96.6z M83.2,91.2c-0.3,0-0.3,0.1-0.3,0.3l-0.2,4c0,0.1,0,0.3,0.1,0.4
	C82.9,96,83,96,83.1,96h4.4c0.1,0,0.3,0,0.3-0.1c0.1-0.1,0.1-0.2,0.1-0.3c0-0.7-0.1-1.3-0.1-2s0-1.3-0.1-2c0-0.3-0.1-0.3-0.4-0.3
	H83.2z M87.6,95.6h-4.3v-1c0-0.8,0-1.5,0-2.3c0.1-0.3,0.3-0.6,0.7-0.7c0.8,0,1.5,0,2.3,0h1.1L87.6,95.6z M83.8,95H87l-0.2-2.9h-0.5
	c-0.8,0-1.6,0-2.3,0c-0.1,0-0.1,0.1-0.2,0.2c0,0.7,0,1.4,0,2.2L83.8,95z"/>
<path class="st1" d="M99.5,90.2h-1.8c-0.4,0-0.8-0.2-0.9-0.6c-0.2-0.8-0.5-1.6-0.7-2.5c-0.2-0.6,0-0.8,0.8-0.8c1.1,0,2.2,0,3.2,0
	c0.4-0.1,0.9,0.2,1,0.6c0.3,0.8,0.6,1.6,0.9,2.4s0.1,0.9-0.8,0.9C100.7,90.2,100.1,90.2,99.5,90.2L99.5,90.2z M101,89.2
	c-0.3-0.7-0.5-1.3-0.7-1.9c-0.1-0.1-0.2-0.2-0.3-0.2c-0.9,0-1.8,0-2.8,0c0.2,0.7,0.3,1.3,0.5,1.9c0.1,0.2,0.3,0.2,0.4,0.3
	C99.1,89.2,100,89.2,101,89.2L101,89.2z"/>
<path class="st1" d="M100.6,90.4h-2.9c-0.5,0.1-1-0.3-1.2-0.8l-0.2-0.7c-0.2-0.6-0.3-1.2-0.5-1.8c-0.1-0.3-0.1-0.6,0.1-0.9
	c0.3-0.2,0.6-0.4,1-0.3h3.2c0.6-0.1,1.1,0.3,1.3,0.8c0.2,0.4,0.3,0.9,0.5,1.3s0.3,0.7,0.4,1c0.2,0.3,0.2,0.6,0,0.9
	c-0.3,0.3-0.6,0.4-1,0.4L100.6,90.4z M99.8,89.9h1.5c0.5,0,0.6-0.1,0.6-0.1s0.1-0.1-0.1-0.4s-0.3-0.7-0.4-1s-0.3-0.9-0.5-1.3
	s-0.3-0.5-0.8-0.5c-0.7,0-1.4,0-2.1,0h-1.1c-0.4,0-0.5,0.1-0.6,0.1s-0.1,0.1,0,0.4c0.2,0.6,0.3,1.2,0.5,1.7l0.2,0.7
	c0.1,0.2,0.2,0.4,0.6,0.4L99.8,89.9L99.8,89.9z M99.5,89.5h-1.4c-0.3,0-0.6-0.2-0.7-0.4c-0.2-0.4-0.3-0.9-0.4-1.4l-0.2-0.9h3.2
	c0.3,0,0.5,0.2,0.6,0.4c0.2,0.4,0.3,0.9,0.5,1.4l0.3,0.9C101.4,89.5,99.5,89.5,99.5,89.5z M97.5,87.3v0.2c0.1,0.5,0.2,0.9,0.4,1.3
	c0.1,0,0.1,0.1,0.2,0.1h2.5l-0.1-0.2c-0.2-0.5-0.3-0.9-0.5-1.3c0,0-0.1-0.1-0.1-0.1L97.5,87.3L97.5,87.3z"/>
<path class="st1" d="M63.9,90.1c-0.7,0-1.3,0-2,0s-0.8-0.2-0.5-0.7c0.5-0.9,1-1.8,1.5-2.7c0.2-0.2,0.5-0.4,0.7-0.4
	c1.1,0,2.3,0,3.4,0c0.8,0,0.9,0.2,0.6,0.9c-0.4,0.8-0.7,1.6-1.1,2.4c-0.1,0.4-0.5,0.6-0.9,0.5C65.2,90.1,64.6,90.1,63.9,90.1z
	 M62.6,89.2c1.1,0,2,0,2.9,0c0.1,0,0.3-0.1,0.4-0.2c0.3-0.6,0.6-1.3,0.9-2H64c-0.1,0-0.2,0.1-0.3,0.2C63.3,87.8,63,88.5,62.6,89.2z"
	/>
<path class="st1" d="M65.9,90.4L65.9,90.4c-0.5,0-0.9,0-1.4,0h-1.2c-0.5,0-0.9,0-1.3,0c-0.2,0-0.6,0-0.8-0.3
	c-0.1-0.2-0.1-0.5,0.1-0.7c0.5-0.9,1-1.8,1.5-2.7c0.2-0.3,0.6-0.5,1-0.5c1.1,0,2.2,0,3.3,0h0.1c0.4-0.1,0.7,0.1,1,0.3
	c0.1,0.3,0.1,0.6-0.1,0.9c-0.1,0.3-0.3,0.6-0.4,0.9c-0.2,0.5-0.5,1-0.7,1.5C66.9,90.2,66.4,90.4,65.9,90.4z M65.1,89.8h0.8
	c0.4,0,0.5-0.1,0.6-0.3c0.2-0.5,0.4-1,0.7-1.5c0.1-0.3,0.3-0.6,0.4-0.9s0.1-0.4,0.1-0.4s-0.1-0.1-0.5-0.1H67c-1.1,0-2.2,0-3.3,0
	c-0.2,0-0.4,0.1-0.5,0.3c-0.5,0.9-1.1,1.8-1.5,2.7c0,0.1-0.1,0.1-0.1,0.2c0,0,0,0,0.4,0.1L65.1,89.8L65.1,89.8z M64.1,89.5h-1.9
	l0.5-1c0.3-0.5,0.5-1,0.8-1.4c0.1-0.2,0.3-0.3,0.6-0.3h3.2l-0.4,0.9c-0.2,0.5-0.4,1-0.7,1.5c-0.2,0.2-0.4,0.3-0.6,0.3L64.1,89.5z
	 M63.1,88.9h2.4c0.1,0,0.1,0,0.2,0c0.2-0.4,0.4-0.9,0.6-1.4v-0.1H64c0,0-0.1,0-0.1,0c-0.2,0.4-0.5,0.9-0.8,1.4L63.1,88.9z"/>
<path class="st1" d="M71.1,90.1c-0.7,0-1.3,0-2,0s-0.7-0.2-0.6-0.6c0.3-0.9,0.7-1.9,1.1-2.8c0.2-0.2,0.4-0.4,0.7-0.4
	c1.2,0,2.4,0,3.6,0c0.6,0,0.7,0.2,0.6,0.7c-0.2,0.9-0.5,1.7-0.7,2.6c-0.1,0.4-0.4,0.6-0.8,0.6c0,0,0,0,0,0
	C72.3,90.1,71.7,90.1,71.1,90.1z M73.5,87.1c-1,0-1.9,0-2.7,0c-0.2,0-0.3,0.1-0.4,0.2c-0.3,0.6-0.5,1.2-0.7,1.9c1,0,2,0,2.9,0
	c0.2,0,0.4-0.1,0.5-0.2C73.2,88.4,73.3,87.8,73.5,87.1z"/>
<path class="st1" d="M73.1,90.4L73.1,90.4c-0.5,0-0.9,0-1.4,0h-2.6c-0.3,0-0.6-0.1-0.8-0.3c-0.1-0.2-0.1-0.5,0-0.7
	c0.3-0.9,0.7-1.8,1.1-2.8c0.2-0.4,0.6-0.6,1-0.6c0.9,0,1.8,0,2.7,0h1c0.3,0,0.6,0.1,0.8,0.3c0.1,0.2,0.2,0.5,0.1,0.7l-0.3,1
	c-0.2,0.5-0.3,1-0.4,1.6C74.1,90.1,73.6,90.4,73.1,90.4z M72.2,89.8H73c0.4,0,0.5-0.1,0.6-0.3c0.1-0.5,0.3-1,0.4-1.6l0.3-1
	c0-0.1,0-0.2,0-0.3c0,0-0.1-0.1-0.4-0.1h-1c-0.9,0-1.8,0-2.6,0c-0.2,0-0.3,0.1-0.5,0.2c-0.4,0.9-0.8,1.9-1.1,2.7
	c-0.1,0.1,0,0.2,0,0.2s0.1,0.1,0.3,0.1L72.2,89.8L72.2,89.8z M71.1,89.5h-1.9l0.3-0.9c0.2-0.5,0.3-1,0.5-1.4
	c0.1-0.2,0.4-0.4,0.6-0.4c0.7,0,1.3,0,2,0h1.1l-0.2,0.9c-0.1,0.5-0.2,0.9-0.4,1.3c-0.1,0.3-0.4,0.4-0.7,0.4L71.1,89.5z M70,89h0.4
	c0.7,0,1.4,0,2.1,0c0.1,0,0.1,0,0.2-0.1c0.1-0.4,0.2-0.8,0.4-1.3l0.1-0.2h-0.4c-0.7,0-1.3,0-2,0c-0.1,0-0.1,0-0.2,0.1
	c-0.2,0.4-0.3,0.9-0.5,1.4L70,89z"/>
<path class="st1" d="M106.7,90.1c-0.7,0-1.3,0-2,0c-0.3,0-0.5-0.2-0.7-0.4c-0.4-0.8-0.8-1.7-1.2-2.6c-0.3-0.6-0.1-0.8,0.6-0.8
	c1.1,0,2.3,0,3.4,0c0.3,0,0.6,0.2,0.8,0.4c0.6,0.9,1,1.8,1.5,2.7c0.2,0.4,0,0.7-0.6,0.7S107.3,90.1,106.7,90.1z M108.1,89.2
	c-0.4-0.7-0.7-1.3-1-1.9c-0.1-0.1-0.2-0.2-0.4-0.3c-0.9,0-1.8,0-2.8,0c0.3,0.7,0.6,1.3,0.9,1.9c0.1,0.1,0.3,0.2,0.5,0.2
	C106.1,89.2,107.1,89.2,108.1,89.2z"/>
<path class="st1" d="M105.5,90.4c-0.3,0-0.6,0-0.8,0c-0.4,0-0.8-0.2-1-0.6c-0.4-0.8-0.8-1.7-1.1-2.5l-0.1-0.1
	c-0.1-0.3-0.1-0.6,0-0.9c0.2-0.3,0.5-0.3,0.9-0.3h0.5c1,0,1.9,0,2.9,0c0.4,0,0.8,0.2,1,0.5c0.6,0.9,1,1.8,1.5,2.7
	c0.1,0.2,0.1,0.5,0,0.8c-0.2,0.3-0.5,0.4-0.9,0.4c-0.4,0-0.9,0-1.4,0H105.5L105.5,90.4z M103,86.6c0,0.1,0.1,0.2,0.1,0.4v0.1
	c0.3,0.8,0.7,1.7,1.1,2.5c0.1,0.1,0.3,0.2,0.5,0.2c0.5,0,0.9,0,1.4,0h2.5c0.3,0,0.4-0.1,0.4-0.1s0-0.1,0-0.2c-0.5-0.9-1-1.8-1.5-2.7
	c-0.1-0.2-0.4-0.3-0.6-0.3c-0.9,0-1.9,0-2.9,0h-0.6C103.1,86.5,103,86.6,103,86.6L103,86.6z M106.6,89.5h-1.4
	c-0.3,0-0.5-0.1-0.7-0.4c-0.2-0.4-0.4-0.9-0.6-1.4l-0.4-0.9h1.1c0.7,0,1.4,0,2.1,0c0.3,0,0.5,0.2,0.6,0.4c0.2,0.4,0.5,0.9,0.7,1.3
	l0.5,0.9L106.6,89.5L106.6,89.5z M104.3,87.3l0.1,0.2c0.2,0.5,0.4,0.9,0.6,1.4c0.1,0,0.2,0.1,0.2,0.1h2.4l-0.1-0.1
	c-0.2-0.5-0.5-0.9-0.7-1.3c0-0.1-0.1-0.1-0.2-0.1C106.7,87.4,104.3,87.4,104.3,87.3z"/>
<path class="st1" d="M78.2,90.1h-2c-0.5,0-0.7-0.1-0.6-0.6c0.2-0.9,0.4-1.9,0.6-2.8c0.1-0.2,0.4-0.4,0.7-0.4c1.2,0,2.5,0,3.7,0
	c0.5,0,0.7,0.2,0.6,0.6c-0.1,0.9-0.2,1.8-0.3,2.7c0,0.4-0.3,0.6-0.8,0.6S78.8,90.1,78.2,90.1z M76.6,89.2c1,0,2,0,2.9,0
	c0.1,0,0.4-0.1,0.4-0.2c0.1-0.6,0.2-1.2,0.2-1.9c-1,0-1.8,0-2.7,0c-0.2,0-0.4,0.1-0.4,0.3C76.9,88,76.8,88.6,76.6,89.2z"/>
<path class="st1" d="M80.2,90.4L80.2,90.4c-0.5,0-1,0-1.4,0h-2.5c-0.3,0-0.6-0.1-0.8-0.2c-0.1-0.2-0.2-0.4-0.1-0.6
	c0.1-0.3,0.1-0.7,0.2-1c0.1-0.6,0.2-1.2,0.4-1.8c0.2-0.4,0.5-0.6,0.9-0.7c0.8,0,1.5,0,2.3,0h1.4c0.3,0,0.5,0.1,0.7,0.2
	c0.1,0.2,0.2,0.4,0.2,0.7c-0.1,0.4-0.1,0.9-0.2,1.3s-0.1,0.9-0.2,1.3C81.2,90,80.7,90.4,80.2,90.4C80.2,90.4,80.2,90.4,80.2,90.4z
	 M79.3,89.8h0.8c0.5,0,0.5-0.1,0.6-0.3c0-0.4,0.1-0.9,0.2-1.3s0.1-0.9,0.2-1.3c0-0.1,0-0.2,0-0.2s-0.1-0.1-0.3-0.1h-1.4
	c-0.8,0-1.5,0-2.3,0c-0.2,0-0.3,0.1-0.4,0.2c-0.2,0.6-0.3,1.2-0.4,1.8c-0.1,0.3-0.1,0.7-0.2,1c0,0.1,0,0.2,0,0.2s0.1,0,0.3,0
	L79.3,89.8L79.3,89.8z M78.1,89.5h-1.8l0.2-0.9c0.1-0.4,0.2-0.9,0.3-1.3c0.1-0.3,0.4-0.5,0.7-0.5c0.6,0,1.3,0,1.9,0h1l-0.1,0.8
	c0,0.5-0.1,1-0.2,1.4c0,0.3-0.5,0.5-0.7,0.5H78.1z M77,89h2.6c0,0,0.1,0,0.1-0.1c0.1-0.4,0.1-0.9,0.2-1.3v-0.2h-0.4
	c-0.7,0-1.3,0-1.9,0c-0.1,0-0.1,0.1-0.2,0.1c-0.1,0.4-0.2,0.8-0.3,1.3L77,89z"/>
<path class="st1" d="M85.2,90.1h-2c-0.4,0-0.7-0.2-0.6-0.5c0-0.9,0.1-1.9,0.2-2.8c0-0.2,0.4-0.4,0.7-0.5c1.2,0,2.4,0,3.6,0
	c0.5,0,0.8,0.2,0.7,0.7c0,0.8,0.1,1.7,0.1,2.5c0,0.5-0.2,0.7-0.8,0.7S85.9,90.1,85.2,90.1z M83.8,87.1l-0.2,2.1h3.2v-2.1L83.8,87.1z
	"/>
<path class="st1" d="M87.3,90.4L87.3,90.4c-0.5,0-1,0-1.4,0h-2.6c-0.3,0-0.5-0.1-0.7-0.2c-0.1-0.2-0.2-0.4-0.2-0.6v-0.6
	c0-0.7,0.1-1.4,0.2-2.2c0-0.4,0.6-0.7,0.9-0.7c1.1,0,2.2,0,3.2,0h0.4c0.8,0,1,0.5,1,0.9c0,0.7,0.1,1.4,0.1,2.1v0.4
	c0,0.3,0,0.5-0.2,0.7C87.8,90.3,87.5,90.4,87.3,90.4z M86.4,89.8h0.8c0.1,0,0.3,0,0.4-0.1c0.1-0.1,0.1-0.2,0.1-0.3V89
	c-0.1-0.7-0.1-1.4-0.1-2.1c0-0.2,0-0.4-0.5-0.4h-0.4c-1,0-2.1,0-3.2,0c-0.2,0-0.3,0.1-0.4,0.2c-0.1,0.7-0.1,1.4-0.1,2.1v0.6
	c0,0.1,0,0.1,0,0.2c0.1,0.1,0.2,0.1,0.3,0.1L86.4,89.8L86.4,89.8z M87.1,89.5h-3.8l0.2-2.7h3.6V89.5z M83.9,88.9h2.6v-1.5H84
	L83.9,88.9z"/>
<path class="st1" d="M100.9,78.6H89.6c-2,0-3-1-3-3.1v-1c0-1.1,0-2.2,0-3.3c-0.2-1.5,0.9-2.8,2.4-2.9c0.1,0,0.3,0,0.5,0
	c4.8,0,9.6,0,14.4,0c1.9,0,2.9,1,2.9,3.1c0,1.4,0,2.7,0,4.1c0,2.1-1,3.1-3,3.1L100.9,78.6z M96.6,76.6h7.1c0.8,0,1,0,1-1.1
	c0-1.3,0-2.7,0-4c0-1-0.2-1.1-0.9-1.1c-4.8,0-9.6,0-14.4,0c-0.5,0-0.8,0.1-0.8,0.9c0,1.1,0,2.2,0,3.2v1c0,1.1,0.2,1.1,1,1.1
	L96.6,76.6L96.6,76.6z"/>
<path class="st1" d="M75,65.8h2.5c0.2,0,0.4,0,0.4,0.5s-0.2,0.5-0.4,0.5h-5c-0.1,0-0.1,0-0.2,0s-0.2-0.3-0.3-0.5
	c0.1-0.2,0.2-0.5,0.3-0.5c0.6,0,1.2,0,1.8,0L75,65.8z"/>
<path class="st1" d="M72.4,67.2c-0.1,0-0.2,0-0.3-0.1c-0.1-0.1-0.2-0.3-0.3-0.4l-0.2-0.3l0.1-0.2l0.1-0.2c0.1-0.2,0.2-0.4,0.5-0.4
	c0.4,0,0.9,0,1.3,0h3.8c0.2,0,0.4,0,0.5,0.2c0.1,0.2,0.2,0.4,0.2,0.6c0,0.8-0.5,0.8-0.7,0.8L72.4,67.2L72.4,67.2z M74.8,66.6h2.8
	c0-0.1,0-0.1,0-0.2c0-0.2,0-0.2,0-0.2h-3.9c-0.4,0-0.8,0-1.2,0c0,0.1-0.1,0.1-0.1,0.2l0,0l0,0l0.2,0.2L74.8,66.6L74.8,66.6z"/>
<path class="st1" d="M75,63.1h-2.5c-0.2,0-0.4,0-0.4-0.5s0.2-0.5,0.4-0.5h5.1c0.2,0,0.4,0,0.4,0.5s-0.2,0.5-0.4,0.5H75z"/>
<path class="st1" d="M77.6,63.4h-5.1c-0.2,0-0.7,0-0.7-0.8c0-0.2,0.1-0.5,0.2-0.6c0.1-0.1,0.3-0.2,0.5-0.2h5.1
	c0.1,0,0.3,0.1,0.4,0.2c0.2,0.2,0.2,0.4,0.2,0.7C78.2,63.4,77.8,63.4,77.6,63.4z M72.3,62.4c0,0.1,0,0.1,0,0.2c0,0.1,0,0.1,0,0.2
	h5.3c0,0,0-0.1,0-0.2c0-0.1,0-0.2,0-0.2c0,0,0,0-0.1,0H72.3L72.3,62.4z"/>
<path class="st1" d="M75,70.6h-2.5c-0.2,0-0.4,0-0.4-0.5c0-0.2,0.2-0.5,0.4-0.5c1.7,0,3.4,0,5.1,0c0.2,0,0.4,0,0.4,0.5
	s-0.2,0.4-0.4,0.4L75,70.6z"/>
<path class="st1" d="M77.6,70.8h-5.1c-0.2,0-0.4-0.1-0.5-0.2c-0.1-0.2-0.2-0.4-0.2-0.6c0-0.3,0.4-0.7,0.7-0.8c1.3,0,2.6,0,3.9,0h1.2
	c0.2,0,0.3,0.1,0.5,0.2c0.2,0.2,0.2,0.4,0.2,0.7C78.2,70.8,77.9,70.8,77.6,70.8z M75.5,69.8c-1,0-2,0-3,0c0,0-0.1,0.2-0.1,0.2
	c0,0.1,0,0.1,0,0.2h5.3c0-0.1,0-0.1,0-0.2c0-0.2,0-0.2,0-0.3L75.5,69.8L75.5,69.8z"/>
<path class="st1" d="M85.3,119.7L85.3,119.7c-1.1,0-2.1-0.5-2.9-1.2c-1.5-1.6-1.5-4.1,0.1-5.7c0.7-0.7,1.8-1.1,2.8-1.1l0,0
	c1.1,0,2.1,0.5,2.8,1.2c0.7,0.8,1.2,1.8,1.1,2.8l0,0C89.3,117.9,87.5,119.6,85.3,119.7z M85.3,113.7c-1.1,0-2,1-1.9,2.1
	c0,0.5,0.2,0.9,0.5,1.3c0.4,0.4,0.9,0.6,1.4,0.6l0,0c1.1,0,2-0.9,2-2l0,0c0-0.5-0.2-1-0.6-1.4C86.3,113.8,85.8,113.6,85.3,113.7
	L85.3,113.7z"/>
<path class="st1" d="M80.8,74.1H69v-16h11.8V74.1z M71,72.1h7.8v-12H71V72.1z"/>
</svg>
