<?xml version="1.0" encoding="utf-8"?>
<!-- Generator: Adobe Illustrator 24.1.3, SVG Export Plug-In . SVG Version: 6.00 Build 0)  -->
<svg version="1.1" id="Layer_1" xmlns="http://www.w3.org/2000/svg" xmlns:xlink="http://www.w3.org/1999/xlink" x="0px" y="0px"
	 viewBox="0 0 149.5 149.5" style="enable-background:new 0 0 149.5 149.5;" xml:space="preserve">
<style type="text/css">
	.st0{fill:none;stroke:#AA4269;stroke-miterlimit:10;}
	.st1{fill:#AA4269;}
</style>
<g id="Ellipse_184">
	<circle class="st0" cx="74.7" cy="74.7" r="74.7"/>
	<path class="st1" d="M74.7,149.5C33.5,149.5,0,116,0,74.7S33.5,0,74.7,0s74.7,33.5,74.7,74.7l0,0C149.4,116,116,149.4,74.7,149.5z
		 M74.7,3.3c-39.5,0-71.5,32-71.5,71.5s32,71.5,71.5,71.5s71.5-32,71.5-71.5C146.1,35.3,114.2,3.3,74.7,3.3z"/>
</g>
<path class="st1" d="M89,94.1h-7.1c-0.6,0-1,0.4-1,1v1.2c0,0.6,0.4,1,1,1H89c0.6,0,1-0.4,1-1V95C90,94.5,89.5,94,89,94.1z"/>
<path class="st1" d="M127.6,108.2H111l-0.1-0.3c-0.5-0.8-0.7-1.8-0.8-2.7v-0.7c0-4.3-3.1-7.9-7.4-8.5l-0.4-0.1V95
	c0-0.5-0.4-0.9-0.9-0.9c-0.5,0-0.9,0.4-0.9,0.9v0.8l-0.4,0.1c-4.2,0.6-7.4,4.3-7.4,8.5v0.7c0,1-0.3,1.9-0.8,2.8l-0.2,0.2H25.3
	c-0.8-0.1-1.5,0.5-1.6,1.3c-0.1,0.8,0.5,1.5,1.3,1.6c0.1,0,0.2,0,0.2,0h102c0.8,0,1.4-0.6,1.4-1.3c0,0,0-0.1,0-0.1
	C128.8,108.8,128.3,108.2,127.6,108.2z M94.7,103.7c0.4-3.5,3.3-6.3,6.9-6.3c3.6,0,6.6,2.7,6.9,6.3v0.5H94.7L94.7,103.7z
	 M94.1,108.2l0.3-0.9c0.1-0.2,0.2-0.5,0.2-0.7v-0.5h13.9l0.1,0.3c0.1,0.2,0.1,0.4,0.2,0.6c0,0.2,0.1,0.3,0.1,0.5l0.2,0.7H94.1z"/>
<path class="st1" d="M48.6,78.8l0.7-0.4v1.6c0,0.5,0.4,0.9,0.9,0.9c0.5,0,0.8-0.3,0.9-0.7c0,0,0-0.1,0-0.1v-2l1.7-0.7v2.5
	c0,0.5,0.4,0.9,0.9,0.9c0.5,0,0.8-0.3,0.9-0.7c0,0,0-0.1,0-0.1v-3l1.7-0.7v3.5c0,0.5,0.4,0.9,0.9,0.9c0.5,0,0.9-0.4,0.9-0.9v-4
	l2.5-0.7v0.7c-0.2,10.1,1.8,20.1,5.8,29.4h2.8l-0.1-0.2v-0.2c-0.7-6.6-0.7-13.3,0.1-19.8v-0.4h1.3v0.5c0.6,6.6,0.6,13.2,0,19.8v0.2
	c0,0.1-0.1,0.2-0.1,0.2h2.9c4-9.3,5.9-19.3,5.8-29.4v-0.7l2.4,0.7v4c0,0.5,0.4,0.9,0.9,0.9c0.5,0,0.9-0.4,0.9-0.9c0,0,0,0,0,0v-3.5
	l1.7,0.7v3c0,0.5,0.4,0.9,0.9,0.9c0.5,0,0.9-0.4,0.9-0.9c0,0,0,0,0,0v-2.6l1.7,0.7v2c0,0.5,0.4,0.9,0.9,0.9c0.5,0,0.9-0.4,0.9-0.9
	v-1.7l0.7,0.4c2.2,1.2,3.6,3.5,3.6,6v10.7c0.8-0.7,1.8-1.3,2.8-1.7v-9.1c0-4.5-3.1-8.4-7.5-9.4l-11.7-3.3v-4.6l0.2-0.2
	c1.6-1.3,2.8-3.1,3.3-5.2c0.2-0.5,0.3-0.9,0.4-1.2s0.1-0.4,0.2-0.6l0.1-0.3l0.3-0.1c1.3-0.2,2.3-1.2,2.5-2.5l0.7-4.2
	c0.1-1-0.2-2-0.9-2.8l-0.1-0.1c-0.1-0.1-0.2-0.2-0.5-0.3l-0.4-0.2l0.1-0.4c0.3-1.1,0.5-2.3,0.5-3.5c-0.1-4-1.9-7.7-4.8-10.3
	l-0.2-0.2V35c0-0.4-0.2-0.9-0.6-1.2c-2.5-1.9-5.5-2.9-8.5-2.9h-1.4c-2.5,0.1-4.9,1-7,2.6l-0.2,0.1l-0.2-0.1c-0.5-0.1-0.9,0-1.3,0.2
	c-3.1,2.4-5.3,7-5.4,11.8c0,1.1,0.1,2.2,0.5,3.3l0.2,0.4l-0.4,0.2c-0.1,0-0.2,0.1-0.2,0.2c-0.1,0.1-0.2,0.2-0.4,0.3
	c-0.6,0.8-0.9,1.8-0.8,2.8l0.7,4.2c0.2,1.3,1.2,2.3,2.5,2.5h0.3l0.1,0.3c0.1,0.2,0.1,0.4,0.2,0.6c0.1,0.4,0.2,0.8,0.4,1.2
	c0.5,2,1.7,3.9,3.3,5.2l0.2,0.2v4.6L50,74.8c-4.4,1-7.6,4.9-7.5,9.4v20.5h2.8l-0.1-19.9C45.1,82.2,46.4,80,48.6,78.8z M68.1,77
	l-4.9,3.1v-6.4L68.1,77z M64.3,72.1V69l0.7,0.4c1.5,0.8,3.1,1.2,4.8,1.2c1.7,0,3.3-0.4,4.8-1.2l0.7-0.4v3l-5.5,3.7L64.3,72.1z
	 M67.4,83.8c-0.4,3.9-0.7,7.8-0.7,11.8v3.5l-1-3.4c-1.2-4.4-2-8.9-2.4-13.4V82l2.2-1.4l1.9,3.1L67.4,83.8z M70.6,82.6h-1.8l-1.8-3
	l2.8-1.8l2.8,1.8L70.6,82.6z M76.1,82.3c-0.4,4.5-1.2,9-2.4,13.4l-1,3.8v-3.9c0-3.9-0.2-7.8-0.7-11.7v-0.2l1.9-3.1l2.2,1.4
	L76.1,82.3z M76.3,80.1l-5-3.3l4.8-3.3l0.1,0.8c0.1,1.6,0.1,3.1,0.1,4.8L76.3,80.1z M57.8,45.8c0-3,1.1-5.9,3-8.2l0.2-0.2h0.2
	c0.3,0,0.6-0.1,0.9-0.3c2.1-1.5,4.5-3.2,7-3.2h1.4c2.2,0,4.3,0.6,6.1,1.7l0.2,0.2v0.3c0,0.4,0.2,0.8,0.5,1c2.8,2,4.4,5.3,4.4,8.8
	c0,0.6,0,1.3-0.2,1.9L81.2,49l-2.1-3.2c-0.2-0.3-0.6-0.5-1-0.3c-3,0.9-6.2,0.4-8.7-1.3l-2.5-1.8c-0.3-0.2-0.7-0.2-1,0.1l-0.7,0.7
	c-1.2,1.1-2.8,1.5-4.4,1.1c-0.4-0.1-0.8,0.1-0.9,0.4l-2.1,4.4L57.8,45.8z M60.6,61.4c-0.5-2.6-0.7-3-0.7-3v-0.1
	c-0.1-0.6-0.7-1.1-1.3-1.1h-1.1l-0.8-4.9l0.4-0.4h0.6c0.4,0,0.7-0.2,0.8-0.6L61,46h0.3c1.8,0.2,3.6-0.4,4.9-1.7l0.3-0.3l2,1.3
	c2.7,1.9,6,2.5,9.2,1.9l0.3-0.1l2.7,4.3c0.3,0.4,0.6,0.4,0.7,0.3H82c0.3,0,0.6,0.2,0.6,0.5c0,0,0,0.1,0,0.1v0.1l-0.8,4.5h-1.1
	c-0.7-0.1-1.2,0.4-1.3,1.1c0,0,0,0,0,0c-0.1,0.4-0.2,0.8-0.3,1.2l-0.5,1.9c-0.6,2-1.9,3.6-3.7,4.6l-1.8,1c-2.2,1.2-4.8,1.2-7,0
	l-1.8-1C62.5,65,61.2,63.4,60.6,61.4z"/>
</svg>
