<svg id="Layer_1" data-name="Layer 1" xmlns="http://www.w3.org/2000/svg" viewBox="0 0 150 150"><defs><style>.cls-1{fill:none;}.cls-2{fill:#ffffff;}</style></defs><g id="Ellipse_184" data-name="Ellipse 184"><circle class="cls-1" cx="74.23" cy="75.22" r="74.73"/><path class="cls-2" d="M74.23,150A74.74,74.74,0,1,1,149,75.22,74.83,74.83,0,0,1,74.23,150Zm0-146.2a71.46,71.46,0,1,0,71.46,71.46A71.54,71.54,0,0,0,74.23,3.76Z"/></g><path class="cls-2" d="M77.29,84.46H72.46L52.05,101l-1.21-1.57-1.32,6h6.15l-1.2-1.57,18.59-15v11.71H71l3.86,4.83,3.87-4.83h-2V88.93l18.59,15-1.21,1.57h6.16l-1.33-6L97.7,101Z"/><path class="cls-1" d="M74.87,106l-4.49-5.61h2.38V89.56L54.89,104l1.4,1.82H49.14l1.55-7,1.41,1.83L72.35,84.16H77.4l20.25,16.41,1.41-1.83,1.55,7H93.46l1.4-1.82L77,89.56v10.78h2.38Zm19.82-.78h5.17l-1.11-5-1,1.3L77.18,84.76H72.57L52,101.43l-1-1.3-1.11,5h5.17l-1-1.32L73.36,88.3v12.64H71.64l3.23,4,3.24-4H76.38V88.3L95.7,103.85Z"/><path class="cls-2" d="M52.78,75c1.2,1.33,2.41,2.78,3.62,4.11L58,80.84a1,1,0,0,0,.72.36h0a.87.87,0,0,0,.73-.36L64,75.65l4.58,5.19a1.08,1.08,0,0,0,.73.36h0a.86.86,0,0,0,.72-.36l4.71-5.19,4.59,5.19a1,1,0,0,0,.73.36h0a.86.86,0,0,0,.72-.36l4.71-5.19,4.59,5.19a1,1,0,0,0,.72.36h0a.87.87,0,0,0,.73-.36l1-1.09c1.33-1.57,2.78-3,4.11-4.59a2.61,2.61,0,0,0,.6-1.69V24.81a1.08,1.08,0,0,0-1.08-1.09H52.78a1.7,1.7,0,0,0-.73.24,1.08,1.08,0,0,0-.36.73V73.23C52.17,74,52.41,74.56,52.78,75ZM95.52,25.9V73.47c0,.12,0,.24-.12.24-1.36,1.57-2.72,3-4.2,4.59l-.12.12-4.69-5.19a1.06,1.06,0,0,0-.74-.36h0a.89.89,0,0,0-.74.36L80.1,78.42l-4.69-5.19a1.08,1.08,0,0,0-.74-.36h0a.88.88,0,0,0-.74.36l-4.81,5.19-4.69-5.19a1.08,1.08,0,0,0-.74-.36.88.88,0,0,0-.74.36l-4.81,5.19-.74-.84c-1.24-1.33-2.47-2.66-3.7-4.11l-.13-.24V25.66Z"/><path class="cls-2" d="M90.81,81.81a1.61,1.61,0,0,1-1.15-.54l-4.17-4.71-4.2,4.64a1.5,1.5,0,0,1-1.22.61,1.63,1.63,0,0,1-1.16-.54l-4.16-4.71L70.54,81.2a1.5,1.5,0,0,1-1.22.61,1.63,1.63,0,0,1-1.16-.54L64,76.57,59.92,81.2a1.5,1.5,0,0,1-1.23.61,1.63,1.63,0,0,1-1.15-.54L56,79.56c-.61-.67-1.21-1.36-1.82-2.06s-1.2-1.38-1.81-2l0,0a7.5,7.5,0,0,1-.56-.92c-.16-.28-.33-.59-.55-.92l-.1-.15V24.69a1.63,1.63,0,0,1,.54-1.16l.16-.11a2.14,2.14,0,0,1,1-.31H96.13a1.7,1.7,0,0,1,1.69,1.7V73.47A3.21,3.21,0,0,1,97,75.59c-.64.76-1.33,1.52-2,2.28s-1.37,1.5-2,2.28l-.94,1A1.47,1.47,0,0,1,90.81,81.81Zm-5.3-7.08,5,5.7a.4.4,0,0,0,.47.1l.06-.1,1-1.08c.66-.78,1.36-1.55,2.06-2.31s1.37-1.49,2-2.27a2,2,0,0,0,.46-1.3V24.81a.47.47,0,0,0-.47-.48H52.78a1.33,1.33,0,0,0-.36.13.39.39,0,0,0-.12.23V73.05c.2.31.35.59.5.85a6.18,6.18,0,0,0,.45.75c.6.67,1.2,1.36,1.8,2s1.2,1.38,1.8,2l1.57,1.68a.39.39,0,0,0,.48.11l.06-.1L64,74.72l5,5.71a.4.4,0,0,0,.47.1l.07-.1,5.17-5.7,5,5.7a.4.4,0,0,0,.47.1l.07-.1ZM58.12,79.34,56.94,78c-1.23-1.32-2.48-2.66-3.71-4.11l-.08-.12L53,73.38V25l43.17.25V73.47a.78.78,0,0,1-.37.76c-1.33,1.53-2.65,2.94-4.11,4.49l-.6.58-5.11-5.66a.44.44,0,0,0-.51-.09l-.07.1-5.27,5.68L75,73.64a.44.44,0,0,0-.51-.09l-.07.1-5.27,5.68L64,73.64a.44.44,0,0,0-.51-.09l-.07.1Zm27.53-7.08a1.68,1.68,0,0,1,1.17.53l4.28,4.74c1.33-1.42,2.57-2.75,3.81-4.19V26.5l-40.73-.23V73.08l0,0c1.2,1.41,2.42,2.73,3.6,4l.34.38,4.31-4.65a1.52,1.52,0,0,1,1.23-.6,1.7,1.7,0,0,1,1.17.53l4.26,4.73,4.32-4.66a1.52,1.52,0,0,1,1.23-.6,1.68,1.68,0,0,1,1.17.53l4.27,4.73,4.31-4.66A1.52,1.52,0,0,1,85.65,72.26Z"/><path class="cls-2" d="M60.87,45.22a1.71,1.71,0,0,0,.72.24,1.08,1.08,0,0,0,.73-.36l6.52-6.64a1.11,1.11,0,0,0,0-1.45,1.09,1.09,0,0,0-1.45,0l-5.92,5.91-2.66-2.41a1,1,0,0,0-1.45.12,1,1,0,0,0,.13,1.45Z"/><path class="cls-2" d="M61.59,46.06a2.22,2.22,0,0,1-1-.3l-.14-.1-3.38-3.14a1.65,1.65,0,0,1,1-2.87,1.58,1.58,0,0,1,1.21.43l2.21,2L67,36.58a1.69,1.69,0,0,1,2.3,0,1.67,1.67,0,0,1,0,2.3l-6.51,6.64A1.63,1.63,0,0,1,61.59,46.06Zm-.38-1.34c.27.13.42.21.68,0L68.41,38a.42.42,0,0,0-.6-.6l-6.32,6.33L58.41,41a.38.38,0,0,0-.29-.1.38.38,0,0,0-.27.14c-.09.12-.26.41,0,.6Z"/><path class="cls-2" d="M60.87,53.55a1.71,1.71,0,0,0,.72.24,1.08,1.08,0,0,0,.73-.36l6.52-6.64a1,1,0,1,0-1.45-1.45l-5.92,5.91-2.66-2.41a1,1,0,0,0-1.45.12,1,1,0,0,0,.13,1.45Z"/><path class="cls-2" d="M61.59,54.39a2.22,2.22,0,0,1-1-.3l-.14-.1-3.38-3.14A1.65,1.65,0,0,1,58,48a1.54,1.54,0,0,1,1.21.43l2.21,2L67,44.91a1.69,1.69,0,0,1,2.3,0,1.67,1.67,0,0,1,0,2.3l-6.51,6.64A1.63,1.63,0,0,1,61.59,54.39Zm-.38-1.34c.27.13.42.21.68,0l6.52-6.64a.51.51,0,0,0,0-.6.54.54,0,0,0-.6,0l-6.32,6.33-3.08-2.8a.35.35,0,0,0-.29-.1.33.33,0,0,0-.27.13c-.09.12-.26.41,0,.61Z"/><path class="cls-2" d="M60.87,61.88a1.71,1.71,0,0,0,.72.24,1.08,1.08,0,0,0,.73-.36l6.52-6.64a1,1,0,1,0-1.45-1.45l-5.92,5.92-2.66-2.42a1,1,0,0,0-1.45.12,1,1,0,0,0,.13,1.45Z"/><path class="cls-2" d="M61.59,62.73a2.14,2.14,0,0,1-1-.31l-.14-.1-3.38-3.14a1.56,1.56,0,0,1-.2-2.25A1.6,1.6,0,0,1,58,56.31a1.58,1.58,0,0,1,1.21.43l2.21,2L67,53.24a1.63,1.63,0,1,1,2.3,2.31l-6.51,6.63A1.66,1.66,0,0,1,61.59,62.73Zm-.38-1.35c.27.13.42.21.68-.05l6.52-6.63a.54.54,0,0,0,0-.6.51.51,0,0,0-.6,0l-6.32,6.32-3.08-2.8a.35.35,0,0,0-.29-.1.36.36,0,0,0-.27.13c-.09.12-.26.41,0,.61Z"/><path class="cls-2" d="M74.63,40.87h17a1.09,1.09,0,0,0,0-2.17h-17a1.08,1.08,0,0,0-1.08,1.08A1,1,0,0,0,74.63,40.87Z"/><path class="cls-2" d="M91.66,41.47h-17a1.62,1.62,0,0,1-1.69-1.69,1.69,1.69,0,0,1,1.69-1.69h17a1.69,1.69,0,0,1,0,3.38Zm-17-2.17a.47.47,0,0,0-.48.48c0,.23,0,.49.48.49h17a.48.48,0,0,0,.48-.49.47.47,0,0,0-.48-.48Z"/><path class="cls-2" d="M74.63,50.53h17a1.09,1.09,0,0,0,0-2.17h-17a1.09,1.09,0,0,0,0,2.17Z"/><path class="cls-2" d="M91.66,51.13h-17a1.69,1.69,0,1,1,0-3.38h17a1.69,1.69,0,1,1,0,3.38ZM74.63,49a.47.47,0,0,0-.48.48.48.48,0,0,0,.48.49h17a.48.48,0,0,0,.48-.49.47.47,0,0,0-.48-.48Z"/><path class="cls-2" d="M74.63,60.07h17a1.09,1.09,0,0,0,0-2.17h-17a1.09,1.09,0,0,0,0,2.17Z"/><path class="cls-2" d="M91.66,60.67h-17a1.69,1.69,0,1,1,0-3.38h17a1.69,1.69,0,0,1,0,3.38Zm-17-2.17a.47.47,0,0,0-.48.48.48.48,0,0,0,.48.49h17a.48.48,0,0,0,.48-.49.47.47,0,0,0-.48-.48Z"/><path class="cls-2" d="M45.08,109.29v1.89a3.47,3.47,0,0,0-3.21,3.45v.8a3.47,3.47,0,0,0,3.47,3.48H47a1.33,1.33,0,0,1,1.33,1.34v.8A1.33,1.33,0,0,1,47,122.39H45.34A1.34,1.34,0,0,1,44,121.05H41.87a3.47,3.47,0,0,0,3.21,3.45v1.9h2.13v-1.9a3.47,3.47,0,0,0,3.21-3.45v-.8A3.48,3.48,0,0,0,47,116.77H45.34A1.34,1.34,0,0,1,44,115.44v-.81a1.34,1.34,0,0,1,1.33-1.33H47a1.33,1.33,0,0,1,1.33,1.33h2.14a3.47,3.47,0,0,0-3.21-3.45v-1.89Z"/><path class="cls-2" d="M73.86,109.29v1.89a3.47,3.47,0,0,0-3.2,3.45v.8a3.47,3.47,0,0,0,3.47,3.48h1.61a1.34,1.34,0,0,1,1.33,1.34v.8a1.34,1.34,0,0,1-1.33,1.34H74.13a1.33,1.33,0,0,1-1.33-1.34H70.66a3.47,3.47,0,0,0,3.2,3.45v1.9H76v-1.9a3.47,3.47,0,0,0,3.21-3.45v-.8a3.49,3.49,0,0,0-3.47-3.48H74.13a1.33,1.33,0,0,1-1.33-1.33v-.81a1.33,1.33,0,0,1,1.33-1.33h1.61a1.34,1.34,0,0,1,1.33,1.33h2.14A3.47,3.47,0,0,0,76,111.18v-1.89Z"/><path class="cls-2" d="M103.22,109.29v1.89a3.47,3.47,0,0,0-3.2,3.45v.8a3.47,3.47,0,0,0,3.47,3.48h1.61a1.34,1.34,0,0,1,1.33,1.34v.8a1.34,1.34,0,0,1-1.33,1.34h-1.61a1.35,1.35,0,0,1-1.34-1.34H100a3.47,3.47,0,0,0,3.2,3.45v1.9h2.14v-1.9a3.47,3.47,0,0,0,3.21-3.45v-.8a3.49,3.49,0,0,0-3.47-3.48h-1.61a1.34,1.34,0,0,1-1.34-1.33v-.81a1.34,1.34,0,0,1,1.34-1.33h1.61a1.34,1.34,0,0,1,1.33,1.33h2.14a3.47,3.47,0,0,0-3.21-3.45v-1.89Z"/></svg>