<?xml version="1.0" encoding="utf-8"?>
<!-- Generator: Adobe Illustrator 24.1.3, SVG Export Plug-In . SVG Version: 6.00 Build 0)  -->
<svg version="1.1" id="Layer_1" xmlns="http://www.w3.org/2000/svg" xmlns:xlink="http://www.w3.org/1999/xlink" x="0px" y="0px"
	 viewBox="0 0 150 150" style="enable-background:new 0 0 150 150;" xml:space="preserve">
<style type="text/css">
	.st0{fill:none;}
	.st1{fill:#AA4269;}
	.st2{fill:#FFFFFF;}
	.st3{fill:#AA4269;stroke:#AA4269;stroke-miterlimit:10;}
	.st4{fill:none;stroke:#AA4269;stroke-miterlimit:10;}
</style>
<g id="Ellipse_184">
	<circle class="st0" cx="74.2" cy="75.2" r="74.7"/>
	<path class="st1" d="M74.2,150C33,150-0.5,116.5-0.5,75.2C-0.5,34,33,0.5,74.3,0.5C115.5,0.5,149,34,149,75.2
		C149,116.5,115.5,150,74.2,150z M74.2,3.8c-39.5,0-71.5,32-71.5,71.5s32,71.5,71.5,71.5s71.5-32,71.5-71.5
		C145.7,35.8,113.7,3.8,74.2,3.8L74.2,3.8z"/>
</g>
<path class="st1" d="M77.3,84.5h-4.8L52,101l-1.2-1.6l-1.3,6h6.2l-1.2-1.6l18.6-15v11.7H71l3.9,4.8l3.9-4.8h-2V88.9l18.6,15
	l-1.2,1.6h6.2l-1.3-6l-1.2,1.5L77.3,84.5z"/>
<path class="st1" d="M74.9,106l-4.5-5.6h2.4V89.6L54.9,104l1.4,1.8h-7.2l1.5-7l1.4,1.8l20.2-16.5h5.1l20.2,16.4l1.4-1.8l1.6,7h-7.2
	l1.4-1.8L77,89.6v10.8h2.4L74.9,106z M94.7,105.2h5.2l-1.1-5l-1,1.3L77.2,84.8h-4.6L52,101.4l-1-1.3l-1.1,5h5.2l-1-1.3l19.3-15.5
	v12.6h-1.7l3.2,4l3.2-4h-1.7V88.3l19.3,15.5L94.7,105.2z"/>
<path class="st2" d="M52.8,75c1.2,1.3,2.4,2.8,3.6,4.1l1.6,1.7c0.2,0.2,0.4,0.3,0.7,0.4l0,0c0.3,0,0.6-0.1,0.7-0.4l4.5-5.2l4.6,5.2
	c0.2,0.2,0.4,0.3,0.7,0.4l0,0c0.3,0,0.6-0.1,0.7-0.4l4.7-5.2l4.6,5.2c0.2,0.2,0.4,0.3,0.7,0.4l0,0c0.3,0,0.6-0.1,0.7-0.4l4.7-5.2
	l4.6,5.2c0.2,0.2,0.4,0.3,0.7,0.4l0,0c0.3,0,0.6-0.1,0.7-0.4l1-1.1c1.3-1.6,2.8-3,4.1-4.6c0.4-0.5,0.6-1.1,0.6-1.7V24.8
	c0-0.6-0.5-1.1-1.1-1.1c0,0,0,0,0,0H52.8c-0.3,0-0.5,0.1-0.7,0.2c-0.2,0.2-0.3,0.4-0.4,0.7v48.5C52.2,74,52.4,74.6,52.8,75z
	 M95.5,25.9v47.6c0,0.1,0,0.2-0.1,0.2c-1.4,1.6-2.7,3-4.2,4.6l-0.1,0.1l-4.7-5.2c-0.2-0.2-0.5-0.3-0.7-0.4l0,0
	c-0.3,0-0.6,0.1-0.7,0.4l-4.8,5.2l-4.7-5.2c-0.2-0.2-0.5-0.3-0.7-0.4l0,0c-0.3,0-0.6,0.1-0.7,0.4l-4.8,5.2l-4.7-5.2
	c-0.2-0.2-0.5-0.3-0.7-0.4c-0.3,0-0.6,0.1-0.7,0.4l-4.8,5.2l-0.7-0.8c-1.2-1.3-2.5-2.7-3.7-4.1l-0.1-0.2V25.7L95.5,25.9z"/>
<path class="st3" d="M90.8,81.8c-0.4,0-0.9-0.2-1.2-0.5l-4.2-4.7l-4.2,4.6c-0.3,0.4-0.7,0.6-1.2,0.6c-0.4,0-0.9-0.2-1.2-0.5
	l-4.2-4.7l-4.2,4.6c-0.3,0.4-0.7,0.6-1.2,0.6c-0.4,0-0.9-0.2-1.2-0.5L64,76.6l-4.1,4.6c-0.3,0.4-0.7,0.6-1.2,0.6
	c-0.4,0-0.9-0.2-1.2-0.5L56,79.6c-0.6-0.7-1.2-1.4-1.8-2.1s-1.2-1.4-1.8-2l0,0c-0.2-0.3-0.4-0.6-0.6-0.9c-0.2-0.3-0.3-0.6-0.5-0.9
	l-0.1-0.2V24.7c0-0.4,0.2-0.9,0.5-1.2l0.2-0.1c0.3-0.2,0.6-0.3,1-0.3h43.3c0.9,0,1.7,0.8,1.7,1.7v48.7c0,0.8-0.3,1.5-0.8,2.1
	c-0.6,0.8-1.3,1.5-2,2.3s-1.4,1.5-2,2.3l-0.9,1C91.8,81.6,91.3,81.8,90.8,81.8z M85.5,74.7l5,5.7c0.1,0.1,0.3,0.2,0.5,0.1l0.1-0.1
	l1-1.1c0.7-0.8,1.4-1.6,2.1-2.3s1.4-1.5,2-2.3c0.3-0.4,0.5-0.8,0.5-1.3V24.8c0-0.3-0.2-0.5-0.5-0.5c0,0,0,0,0,0H52.8
	c-0.1,0-0.2,0.1-0.4,0.1c-0.1,0.1-0.1,0.1-0.1,0.2v48.4c0.2,0.3,0.3,0.6,0.5,0.8c0.1,0.3,0.3,0.5,0.5,0.8c0.6,0.7,1.2,1.4,1.8,2
	s1.2,1.4,1.8,2l1.6,1.7c0.1,0.1,0.3,0.2,0.5,0.1l0.1-0.1l5-5.6l5,5.7c0.1,0.1,0.3,0.2,0.5,0.1l0.1-0.1l5.2-5.7l5,5.7
	c0.1,0.1,0.3,0.2,0.5,0.1l0.1-0.1L85.5,74.7z M58.1,79.3L56.9,78c-1.2-1.3-2.5-2.7-3.7-4.1l-0.1-0.1L53,73.4V25l43.2,0.2v48.2
	c0,0.3-0.1,0.6-0.4,0.8c-1.3,1.5-2.7,2.9-4.1,4.5l-0.6,0.6L86,73.6c-0.1-0.1-0.3-0.2-0.5-0.1l-0.1,0.1l-5.3,5.7L75,73.6
	c-0.1-0.1-0.3-0.2-0.5-0.1l-0.1,0.1l-5.3,5.7L64,73.6c-0.1-0.1-0.3-0.2-0.5-0.1l-0.1,0.1L58.1,79.3z M85.7,72.3
	c0.4,0,0.9,0.2,1.2,0.5l4.3,4.7c1.3-1.4,2.6-2.8,3.8-4.2V26.5l-40.7-0.2v46.8l0,0c1.2,1.4,2.4,2.7,3.6,4l0.3,0.4l4.3-4.7
	c0.3-0.4,0.7-0.6,1.2-0.6c0.4,0,0.9,0.2,1.2,0.5l4.3,4.7l4.3-4.7c0.3-0.4,0.7-0.6,1.2-0.6c0.4,0,0.9,0.2,1.2,0.5l4.3,4.7l4.3-4.7
	C84.7,72.4,85.2,72.2,85.7,72.3z"/>
<path class="st2" d="M60.9,45.2c0.2,0.1,0.5,0.2,0.7,0.2c0.3,0,0.5-0.1,0.7-0.4l6.5-6.6c0.4-0.4,0.4-1,0-1.5c-0.4-0.4-1-0.4-1.4,0
	l-5.9,5.9l-2.7-2.4c-0.4-0.4-1-0.3-1.4,0.1c0,0,0,0,0,0C57,41,57,41.7,57.4,42c0,0,0,0,0,0L60.9,45.2z"/>
<path class="st2" d="M61.6,46.1c-0.4,0-0.7-0.1-1-0.3l-0.1-0.1l-3.4-3.1c-0.7-0.6-0.7-1.7-0.1-2.3c0.3-0.3,0.7-0.5,1.1-0.5
	c0.4,0,0.9,0.1,1.2,0.4l2.2,2l5.5-5.5c0.6-0.6,1.7-0.6,2.3,0c0.6,0.6,0.6,1.7,0,2.3l-6.5,6.6C62.5,45.9,62,46.1,61.6,46.1z
	 M61.2,44.7c0.3,0.1,0.4,0.2,0.7,0l6.5-6.7c0.2-0.2,0.2-0.4,0-0.6s-0.4-0.2-0.6,0l-6.3,6.3L58.4,41c-0.1-0.1-0.2-0.1-0.3-0.1
	c-0.1,0-0.2,0.1-0.3,0.1c-0.1,0.1-0.3,0.4,0,0.6L61.2,44.7z"/>
<path class="st2" d="M60.9,53.5c0.2,0.1,0.5,0.2,0.7,0.2c0.3,0,0.5-0.1,0.7-0.4l6.5-6.6c0.4-0.4,0.4-1,0-1.5c-0.4-0.4-1-0.4-1.4,0
	l-5.9,5.9l-2.7-2.4c-0.4-0.4-1-0.3-1.4,0.1c0,0,0,0,0,0c-0.4,0.4-0.3,1,0.1,1.4c0,0,0,0,0,0L60.9,53.5z"/>
<path class="st4" d="M61.6,54.4c-0.4,0-0.7-0.1-1-0.3L60.5,54l-3.4-3.1c-0.7-0.6-0.7-1.7-0.1-2.3c0.3-0.3,0.6-0.5,1-0.5
	c0.4,0,0.9,0.1,1.2,0.4l2.2,2l5.6-5.5c0.6-0.6,1.7-0.6,2.3,0c0.6,0.6,0.6,1.7,0,2.3l-6.5,6.6C62.5,54.2,62,54.4,61.6,54.4z M61.2,53
	c0.3,0.1,0.4,0.2,0.7,0l6.5-6.6c0.1-0.2,0.1-0.4,0-0.6c-0.2-0.1-0.4-0.1-0.6,0l-6.3,6.3l-3.1-2.8c-0.1-0.1-0.2-0.1-0.3-0.1
	c-0.1,0-0.2,0-0.3,0.1c-0.1,0.1-0.3,0.4,0,0.6L61.2,53z"/>
<path class="st2" d="M60.9,61.9c0.2,0.1,0.5,0.2,0.7,0.2c0.3,0,0.5-0.1,0.7-0.4l6.5-6.6c0.4-0.4,0.4-1,0-1.5c-0.4-0.4-1-0.4-1.4,0
	l-5.9,5.9l-2.7-2.4c-0.4-0.4-1-0.3-1.4,0.1c0,0,0,0,0,0c-0.4,0.4-0.3,1,0.1,1.4c0,0,0,0,0,0L60.9,61.9z"/>
<path class="st4" d="M61.6,62.7c-0.4,0-0.7-0.1-1-0.3l-0.1-0.1l-3.4-3.1c-0.7-0.5-0.8-1.5-0.2-2.2c0,0,0,0,0-0.1
	c0.3-0.4,0.7-0.6,1.1-0.6c0.4,0,0.9,0.1,1.2,0.4l2.2,2l5.6-5.5c0.6-0.6,1.7-0.7,2.3,0s0.7,1.7,0,2.3c0,0,0,0,0,0l-6.5,6.6
	C62.5,62.5,62,62.7,61.6,62.7z M61.2,61.4c0.3,0.1,0.4,0.2,0.7,0l6.5-6.6c0.1-0.2,0.1-0.4,0-0.6c-0.2-0.1-0.4-0.1-0.6,0l-6.3,6.3
	l-3.1-2.8c-0.1-0.1-0.2-0.1-0.3-0.1c-0.1,0-0.2,0-0.3,0.1c-0.1,0.1-0.3,0.4,0,0.6L61.2,61.4z"/>
<path class="st2" d="M74.6,40.9h17c0.6-0.1,1-0.6,1-1.2c0-0.5-0.5-0.9-1-1h-17c-0.6,0-1.1,0.5-1.1,1.1v0c-0.1,0.5,0.4,1,0.9,1.1
	C74.5,40.9,74.6,40.9,74.6,40.9z"/>
<path class="st4" d="M91.7,41.5h-17c-0.9,0-1.7-0.7-1.7-1.5c0,0,0-0.1,0-0.1c0-0.9,0.8-1.7,1.7-1.7l0,0h17c0.9,0,1.7,0.8,1.7,1.7
	C93.4,40.7,92.6,41.5,91.7,41.5z M74.7,39.3c-0.3,0-0.5,0.2-0.5,0.5c0,0,0,0,0,0c0,0.2,0,0.5,0.5,0.5h17c0.3,0,0.5-0.2,0.5-0.5
	c0,0,0,0,0,0c0-0.3-0.2-0.5-0.5-0.5c0,0,0,0,0,0H74.7z"/>
<path class="st2" d="M74.6,50.5h17c0.6-0.1,1-0.6,1-1.2c0-0.5-0.5-0.9-1-1h-17c-0.6,0.1-1,0.6-1,1.2C73.7,50.1,74.1,50.5,74.6,50.5z
	"/>
<path class="st4" d="M91.7,51.1h-17c-0.9,0-1.7-0.8-1.7-1.7c0-0.9,0.8-1.7,1.7-1.7h17c0.9,0,1.7,0.8,1.7,1.7
	C93.4,50.4,92.6,51.1,91.7,51.1z M74.6,49c-0.3,0-0.5,0.2-0.5,0.5c0,0,0,0,0,0c0,0.3,0.2,0.5,0.5,0.5c0,0,0,0,0,0h17
	c0.3,0,0.5-0.2,0.5-0.5c0,0,0,0,0,0c0-0.3-0.2-0.5-0.5-0.5c0,0,0,0,0,0H74.6z"/>
<path class="st2" d="M74.6,60.1h17c0.6-0.1,1-0.6,1-1.2c0-0.5-0.5-0.9-1-1h-17c-0.6,0.1-1,0.6-1,1.2C73.7,59.6,74.1,60,74.6,60.1z"
	/>
<path class="st4" d="M91.7,60.7h-17c-0.9,0-1.7-0.8-1.7-1.7c0-0.9,0.8-1.7,1.7-1.7h17c0.9,0,1.7,0.8,1.7,1.7
	C93.4,59.9,92.6,60.7,91.7,60.7z M74.7,58.5c-0.3,0-0.5,0.2-0.5,0.5c0,0,0,0,0,0c0,0.3,0.2,0.5,0.5,0.5c0,0,0,0,0,0h17
	c0.3,0,0.5-0.2,0.5-0.5c0,0,0,0,0,0c0-0.3-0.2-0.5-0.5-0.5c0,0,0,0,0,0H74.7z"/>
<path class="st1" d="M45.1,109.3v1.9c-1.8,0.1-3.2,1.6-3.2,3.4v0.8c0,1.9,1.5,3.5,3.5,3.5c0,0,0,0,0,0H47c0.7,0,1.3,0.6,1.3,1.3
	c0,0,0,0,0,0v0.8c0,0.7-0.6,1.3-1.3,1.3c0,0,0,0,0,0h-1.7c-0.7,0-1.3-0.6-1.3-1.3h-2.1c0,1.8,1.4,3.3,3.2,3.4v1.9h2.1v-1.9
	c1.8-0.1,3.2-1.6,3.2-3.4v-0.8c0-1.9-1.5-3.4-3.4-3.5h-1.7c-0.7,0-1.3-0.6-1.3-1.3v-0.8c0-0.7,0.6-1.3,1.3-1.3H47
	c0.7,0,1.3,0.6,1.3,1.3l0,0h2.1c0-1.8-1.4-3.3-3.2-3.4v-1.9L45.1,109.3z"/>
<path class="st1" d="M73.9,109.3v1.9c-1.8,0.1-3.2,1.6-3.2,3.4v0.8c0,1.9,1.5,3.5,3.5,3.5c0,0,0,0,0,0h1.6c0.7,0,1.3,0.6,1.3,1.3
	v0.8c0,0.7-0.6,1.3-1.3,1.3h-1.6c-0.7,0-1.3-0.6-1.3-1.3c0,0,0,0,0,0h-2.1c0,1.8,1.4,3.3,3.2,3.4v1.9H76v-1.9
	c1.8-0.1,3.2-1.6,3.2-3.4v-0.8c0-1.9-1.6-3.5-3.5-3.5h-1.6c-0.7,0-1.3-0.6-1.3-1.3l0,0v-0.8c0-0.7,0.6-1.3,1.3-1.3l0,0h1.6
	c0.7,0,1.3,0.6,1.3,1.3h2.1c0-1.8-1.4-3.3-3.2-3.4v-1.9H73.9z"/>
<path class="st1" d="M103.2,109.3v1.9c-1.8,0.1-3.2,1.6-3.2,3.4v0.8c0,1.9,1.5,3.5,3.5,3.5c0,0,0,0,0,0h1.6c0.7,0,1.3,0.6,1.3,1.3
	v0.8c0,0.7-0.6,1.3-1.3,1.3h-1.6c-0.7,0-1.3-0.6-1.3-1.3H100c0,1.8,1.4,3.3,3.2,3.4v1.9h2.1v-1.9c1.8-0.1,3.2-1.6,3.2-3.4v-0.8
	c0-1.9-1.6-3.5-3.5-3.5h-1.6c-0.7,0-1.3-0.6-1.3-1.3v-0.8c0-0.7,0.6-1.3,1.3-1.3h1.6c0.7,0,1.3,0.6,1.3,1.3h2.1
	c0-1.8-1.4-3.3-3.2-3.4v-1.9H103.2z"/>
</svg>
