<svg id="white_logo" data-name="white logo" xmlns="http://www.w3.org/2000/svg" viewBox="0 0 792 452.57"><defs><style>.cls-1{fill:#fff;}</style></defs><polygon class="cls-1" points="270.7 203.51 279.3 203.51 246.82 225.96 280.25 249.37 271.66 249.37 241.11 228.35 233.44 228.35 233.44 249.37 227.71 249.37 227.71 203.51 233.44 203.51 233.44 223.57 241.1 223.57 270.7 203.51"/><path class="cls-1" d="M347,234.09l-15.2-26.79-15.25,26.79Zm2.71,4.77H313.82l-6,10.51H301.2l26.17-45.86h8.23l26.07,45.86h-6Z"/><path class="cls-1" d="M392.85,226.44h24.81c2.54,0,4.69,0,6.43-.13a28.67,28.67,0,0,0,4.32-.5,6.85,6.85,0,0,0,2.62-1,3.9,3.9,0,0,0,1.37-1.73,8.27,8.27,0,0,0,.5-2.58c.05-1,.08-2.21.08-3.6s0-2.41-.08-3.35a6.82,6.82,0,0,0-.5-2.36,3.52,3.52,0,0,0-1.37-1.52,7.75,7.75,0,0,0-2.62-.88,30.38,30.38,0,0,0-4.32-.4c-1.74-.06-3.89-.09-6.43-.09H392.85Zm-5.74-22.93h34.46a58.41,58.41,0,0,1,7.21.37,21.12,21.12,0,0,1,4.85,1.12,7.87,7.87,0,0,1,2.94,1.85,6.85,6.85,0,0,1,1.51,2.6,12.62,12.62,0,0,1,.55,3.35c.05,1.23.08,2.59.08,4.09s0,3-.11,4.3a12.17,12.17,0,0,1-.68,3.56,7.21,7.21,0,0,1-1.86,2.81,9.75,9.75,0,0,1-3.61,2,28.75,28.75,0,0,1-5.94,1.22,78.25,78.25,0,0,1-8.85.42H392.85v18.15h-5.74Z"/><rect class="cls-1" x="468.56" y="203.51" width="5.73" height="45.86"/><polygon class="cls-1" points="552.56 203.51 552.56 208.29 529.63 208.29 529.63 249.37 523.9 249.37 523.9 208.29 500.97 208.29 500.97 203.51 552.56 203.51"/><path class="cls-1" d="M632.77,203.51v22.93q0,4.06-.1,7.41a32.8,32.8,0,0,1-.69,6,14.09,14.09,0,0,1-1.83,4.62,9.67,9.67,0,0,1-3.59,3.27,18.94,18.94,0,0,1-5.92,1.95,52.38,52.38,0,0,1-8.86.64H598.35a52.38,52.38,0,0,1-8.86-.64,18.94,18.94,0,0,1-5.92-1.95,9.7,9.7,0,0,1-3.6-3.27,13.9,13.9,0,0,1-1.85-4.62,32,32,0,0,1-.67-6q-.09-3.34-.09-7.41V203.51h5.73v22.93q0,4.31.07,7.39a31.18,31.18,0,0,0,.5,5.21,8.63,8.63,0,0,0,1.33,3.41,5.71,5.71,0,0,0,2.61,2,15.37,15.37,0,0,0,4.31.91c1.74.14,3.89.22,6.44.22h13.43c2.53,0,4.67-.08,6.42-.22a15.37,15.37,0,0,0,4.32-.91,5.93,5.93,0,0,0,2.61-2,8.78,8.78,0,0,0,1.36-3.41,29.29,29.29,0,0,0,.49-5.21q.06-3.09.06-7.39l0-22.93Z"/><path class="cls-1" d="M688.35,223.58a74.44,74.44,0,0,1,8.09.38,29.68,29.68,0,0,1,5.69,1.16,11.18,11.18,0,0,1,3.69,1.91,8.26,8.26,0,0,1,2.12,2.59,9.63,9.63,0,0,1,1,3.25,31.57,31.57,0,0,1,.22,3.9,19.44,19.44,0,0,1-.37,3.91,10,10,0,0,1-1.33,3.35,9.76,9.76,0,0,1-2.6,2.7,14.8,14.8,0,0,1-4.18,2,31.85,31.85,0,0,1-6.1,1.27,70,70,0,0,1-8.35.43h-7.64a75,75,0,0,1-7.53-.33,31.75,31.75,0,0,1-5.55-1,13.79,13.79,0,0,1-3.85-1.7,8.79,8.79,0,0,1-2.44-2.42,9.1,9.1,0,0,1-1.27-3.17,20.55,20.55,0,0,1-.35-3.92h5.73a9.6,9.6,0,0,0,.78,4.27,4.9,4.9,0,0,0,2.57,2.32,14.34,14.34,0,0,0,4.7,1c1.94.14,4.34.2,7.21.2h7.64a59.73,59.73,0,0,0,8.33-.48,16.45,16.45,0,0,0,5.29-1.53,6.11,6.11,0,0,0,2.77-2.76,9.5,9.5,0,0,0,.81-4.13,13,13,0,0,0-.55-4.06,4.75,4.75,0,0,0-2.18-2.58,12.56,12.56,0,0,0-4.59-1.37,59,59,0,0,0-7.73-.41h-7.88a88.79,88.79,0,0,1-9-.39,35.8,35.8,0,0,1-6.28-1.12,13.14,13.14,0,0,1-4.06-1.82,7.75,7.75,0,0,1-2.31-2.49,8.91,8.91,0,0,1-1-3.12,28.67,28.67,0,0,1-.23-3.72,19,19,0,0,1,.37-3.88,8.69,8.69,0,0,1,1.39-3.24,9.88,9.88,0,0,1,2.77-2.58,16.55,16.55,0,0,1,4.53-1.9,42.64,42.64,0,0,1,6.65-1.15c2.58-.25,5.63-.38,9.13-.38h5.73q4.3,0,7.53.31a31.07,31.07,0,0,1,5.55,1,14.21,14.21,0,0,1,3.87,1.67,8.23,8.23,0,0,1,2.45,2.39,8.8,8.8,0,0,1,1.26,3.15,19.49,19.49,0,0,1,.36,3.91H703.4a9.47,9.47,0,0,0-.77-4.21,4.93,4.93,0,0,0-2.57-2.29,14.79,14.79,0,0,0-4.72-.95q-2.93-.19-7.23-.2h-5.73a89.34,89.34,0,0,0-9.43.41,19.86,19.86,0,0,0-5.86,1.36,5.85,5.85,0,0,0-3,2.56,8.66,8.66,0,0,0-.84,4,15.11,15.11,0,0,0,.21,2.66,4.88,4.88,0,0,0,.85,2.05,5.15,5.15,0,0,0,1.8,1.48,12.66,12.66,0,0,0,3.09,1,33.79,33.79,0,0,0,4.66.55c1.85.11,4,.17,6.59.17Z"/><path class="cls-1" d="M114.88,249.15l20.84-20.83,20.83,20.83Zm-4.06,0V203.42h45.73l-11.36,11.36-11.5,11.51-22.87,22.86ZM83,277H184.37V175.6H83Z"/><path class="cls-1" d="M739.89,203.61a5.25,5.25,0,0,1,1.38.4,2.87,2.87,0,0,1,.93.68,3.15,3.15,0,0,1,.58.95,5,5,0,0,1,.28,1.24,14.5,14.5,0,0,1,.08,1.54,14.31,14.31,0,0,1-.08,1.53,5,5,0,0,1-.28,1.24,3.15,3.15,0,0,1-.58.95,2.74,2.74,0,0,1-.93.68,5.25,5.25,0,0,1-1.38.4,11.41,11.41,0,0,1-1.89.14,11.58,11.58,0,0,1-1.89-.14,5.29,5.29,0,0,1-1.37-.4,2.88,2.88,0,0,1-.94-.68,3.12,3.12,0,0,1-.57-.95,5,5,0,0,1-.29-1.24,14.45,14.45,0,0,1-.07-1.53,14.64,14.64,0,0,1,.07-1.54,5,5,0,0,1,.29-1.24,3.12,3.12,0,0,1,.57-.95,3,3,0,0,1,.94-.68,5.29,5.29,0,0,1,1.37-.4,11.68,11.68,0,0,1,1.89-.13A11.51,11.51,0,0,1,739.89,203.61Zm-.5,8.71a4.2,4.2,0,0,0,1-.19,1.81,1.81,0,0,0,1.2-1.11,4.1,4.1,0,0,0,.25-1.08,16.65,16.65,0,0,0,0-3.05,4.1,4.1,0,0,0-.25-1.08,1.81,1.81,0,0,0-1.2-1.11,4.2,4.2,0,0,0-1-.19c-.4,0-.86,0-1.39,0s-1,0-1.39,0a4.29,4.29,0,0,0-1,.19,1.93,1.93,0,0,0-.73.41,1.78,1.78,0,0,0-.46.7,4.1,4.1,0,0,0-.25,1.08,14.58,14.58,0,0,0,0,3.05,4.1,4.1,0,0,0,.25,1.08,1.78,1.78,0,0,0,.46.7,1.93,1.93,0,0,0,.73.41,4.29,4.29,0,0,0,1,.19c.4,0,.87.05,1.39.05S739,212.35,739.39,212.32Zm1.36-.94h-1v-.94a5.21,5.21,0,0,0,0-.6,1.34,1.34,0,0,0-.12-.44.75.75,0,0,0-.26-.3,1.37,1.37,0,0,0-.45-.17,4,4,0,0,0-.71-.1l-1,0h-.59v2.57h-1v-6.12h1.78a9.65,9.65,0,0,1,1.68.11,3.1,3.1,0,0,1,1,.34,1.17,1.17,0,0,1,.5.56,2,2,0,0,1,.14.76,1.67,1.67,0,0,1,0,.43,1,1,0,0,1-.21.44,1.19,1.19,0,0,1-.45.36,2,2,0,0,1-.79.18,2.19,2.19,0,0,1,.79.22,1.06,1.06,0,0,1,.45.41,1.48,1.48,0,0,1,.22.59,6,6,0,0,1,0,.78ZM736.6,208h.79c.49,0,.89,0,1.2-.05a2.58,2.58,0,0,0,.72-.16.71.71,0,0,0,.35-.3,1,1,0,0,0,.1-.48,1,1,0,0,0-.1-.46.71.71,0,0,0-.35-.3,2.24,2.24,0,0,0-.72-.17,9.72,9.72,0,0,0-1.2-.06h-.79Z"/></svg>