<svg id="white_logo" data-name="white logo" xmlns="http://www.w3.org/2000/svg" viewBox="0 0 259.78 216"><defs><style>.cls-1{fill:#fff;}</style></defs><path class="cls-1" d="M67.94,156.73l44.39-44.4,44.4,44.4Zm-8.67,0V59.27h97.45l-24.2,24.21L108,108,59.29,156.73ZM0,216H216V0H0Z"/><path class="cls-1" d="M253,.57a11,11,0,0,1,2.89.84,6.08,6.08,0,0,1,2,1.42,6.53,6.53,0,0,1,1.21,2,10.88,10.88,0,0,1,.6,2.61,28.45,28.45,0,0,1,.16,3.21,28.58,28.58,0,0,1-.16,3.21,10.88,10.88,0,0,1-.6,2.61,6.53,6.53,0,0,1-1.21,2,6.08,6.08,0,0,1-2,1.42,11,11,0,0,1-2.89.84,24,24,0,0,1-4,.28,24.25,24.25,0,0,1-4-.28,11,11,0,0,1-2.88-.84,6,6,0,0,1-2-1.42,6.34,6.34,0,0,1-1.21-2,10.42,10.42,0,0,1-.6-2.61,28.58,28.58,0,0,1-.16-3.21,28.45,28.45,0,0,1,.16-3.21,10.42,10.42,0,0,1,.6-2.61,6.34,6.34,0,0,1,1.21-2,6,6,0,0,1,2-1.42A11,11,0,0,1,245,.57a28.21,28.21,0,0,1,7.93,0Zm-1.05,18.29a9.86,9.86,0,0,0,2.19-.4,4,4,0,0,0,1.53-.85,3.87,3.87,0,0,0,1-1.48,8.54,8.54,0,0,0,.53-2.26,29.45,29.45,0,0,0,.15-3.21,29.58,29.58,0,0,0-.15-3.21,8.64,8.64,0,0,0-.53-2.26,4,4,0,0,0-1-1.48,3.91,3.91,0,0,0-1.53-.85,9.86,9.86,0,0,0-2.19-.4q-1.24-.09-2.91-.09c-1.11,0-2.08,0-2.92.09a9.76,9.76,0,0,0-2.18.4,4,4,0,0,0-1.54.85,4.21,4.21,0,0,0-1,1.48,9.09,9.09,0,0,0-.52,2.26,27,27,0,0,0-.16,3.21,26.9,26.9,0,0,0,.16,3.21,9,9,0,0,0,.52,2.26,4.12,4.12,0,0,0,1,1.48,4.16,4.16,0,0,0,1.54.85,9.76,9.76,0,0,0,2.18.4c.84.06,1.81.1,2.92.1S251.08,18.92,251.91,18.86Zm2.86-2h-2.09v-2a11.57,11.57,0,0,0-.06-1.26,2.87,2.87,0,0,0-.24-.92,1.5,1.5,0,0,0-.55-.62,2.62,2.62,0,0,0-1-.38,8.81,8.81,0,0,0-1.48-.19c-.59,0-1.29,0-2.11,0h-1.23v5.39H244V4h3.72a21.45,21.45,0,0,1,3.55.23,6.14,6.14,0,0,1,2.14.72,2.44,2.44,0,0,1,1.07,1.17,4.24,4.24,0,0,1,.29,1.61,4.34,4.34,0,0,1-.1.9,2.36,2.36,0,0,1-.44.92,2.77,2.77,0,0,1-1,.75,4.28,4.28,0,0,1-1.66.38,5,5,0,0,1,1.66.46,2.52,2.52,0,0,1,1,.86,3.31,3.31,0,0,1,.45,1.25,11.4,11.4,0,0,1,.11,1.63Zm-8.71-7h1.64c1,0,1.88,0,2.53-.1a5.34,5.34,0,0,0,1.52-.35,1.43,1.43,0,0,0,.74-.63,2.24,2.24,0,0,0,.19-1,2.18,2.18,0,0,0-.19-1,1.44,1.44,0,0,0-.74-.64,5.66,5.66,0,0,0-1.52-.36,24.3,24.3,0,0,0-2.53-.11h-1.64Z"/></svg>