<svg viewBox="0 0 149.47 149.47" xmlns="http://www.w3.org/2000/svg"><path d="m73.47.71c41.28 0 76 32.71 76 74a74.74 74.74 0 0 1 -149.47-.02c0-41.27 32.2-73.98 73.47-73.98z" fill="none"/><g fill="#aa4269"><path d="m74.72 149.42a74.73 74.73 0 1 1 74.74-74.73 74.82 74.82 0 0 1 -74.74 74.73zm0-146.19a71.46 71.46 0 1 0 71.46 71.46 71.55 71.55 0 0 0 -71.46-71.46z"/><path d="m67.81 102.91a1.52 1.52 0 0 0 -.55.1 1.65 1.65 0 0 0 -1 .86 1.75 1.75 0 0 0 0 1.5 11.23 11.23 0 0 0 8.22 6.72l.49.09v3.91a1.65 1.65 0 0 0 .43 1.26 1.69 1.69 0 0 0 3-1 .54.54 0 0 0 0-.18v-3.88l.52-.07a10.4 10.4 0 0 0 9-10.26c0-3.59-1.87-8.3-10.72-10.38h-.15c-8.24-1.87-8.24-5.81-8.24-7.1 0-4.14 3.23-7 7.86-7a7.83 7.83 0 0 1 7.24 4.82 1.74 1.74 0 0 0 .89 1 1.68 1.68 0 0 0 1.3 0 1.7 1.7 0 0 0 1-2.18l-.06-.15a11.22 11.22 0 0 0 -8.21-6.71l-.48-.09v-1.83a15.72 15.72 0 0 1 1.75-7.34l.35-.68.58.49a15.58 15.58 0 0 0 2.51 1.77 14.28 14.28 0 0 0 3.95 1.56c8.65 1.89 15.32-6.24 19.3-23.51a2.73 2.73 0 0 0 -2.05-3.28v-.28l-.06.27c-12.2-2.51-20.48-2-25.31 1.46a10.51 10.51 0 0 0 -4.37 7.46 13.18 13.18 0 0 0 .88 6.15 2.75 2.75 0 0 0 1.44 1.52 2.7 2.7 0 0 0 2.07 0 2.48 2.48 0 0 0 .37-.17 32.42 32.42 0 0 1 9.59-3.37 1.72 1.72 0 0 0 1.65-1.78 1.69 1.69 0 0 0 -1.64-1.61 3 3 0 0 0 -.51 0 38.72 38.72 0 0 0 -9.38 3.06l-.67.32-.17-.72a8.93 8.93 0 0 1 -.2-3 7 7 0 0 1 2.93-5.15c2.62-1.89 8.46-3.62 21.35-1.13l.62.12-.15.61c-3.49 14.25-8.67 21-15 19.68a10.81 10.81 0 0 1 -3-1.19 13.57 13.57 0 0 1 -2.18-1.6 3.62 3.62 0 0 0 -5.12.24 3.77 3.77 0 0 0 -.47.64l-.26.47a19.3 19.3 0 0 0 -2.12 9v1.73l-.52.07a10.38 10.38 0 0 0 -9 10.26c0 3.59 1.86 8.3 10.71 10.38h.16c8.24 1.88 8.24 5.81 8.24 7.1 0 4.15-3.23 7-7.87 7a7.81 7.81 0 0 1 -7.24-4.82 1.74 1.74 0 0 0 -1.7-1.16zm28.24-2.1a1.76 1.76 0 0 0 -.74.16 1.7 1.7 0 0 0 -.86 2.12 9.31 9.31 0 0 0 6.43 5.44l.47.11v2.76a1.68 1.68 0 0 0 .43 1.26 1.65 1.65 0 0 0 1.17.56 1.69 1.69 0 0 0 1.23-.43 1.65 1.65 0 0 0 .56-1.17v-2.94l.5-.09a8.57 8.57 0 0 0 7.12-8.45c0-2.45-1.15-6.83-8.79-8.58h-.15c-6.3-1.43-6.3-4.37-6.3-5.33 0-3.67 3.12-5.33 6-5.33a5.91 5.91 0 0 1 5.43 3.64 1.71 1.71 0 0 0 .88 1 1.7 1.7 0 0 0 2.35-2.09 1.63 1.63 0 0 0 -.09-.19 9.34 9.34 0 0 0 -6.45-5.5l-.46-.11v-2.79a1.7 1.7 0 1 0 -3.39-.22.61.61 0 0 0 0 .19v2.79l-.5.09a8.58 8.58 0 0 0 -7.13 8.45c0 2.45 1.14 6.83 8.79 8.58h.14c6.3 1.44 6.3 4.37 6.3 5.33 0 3.64-3.07 5.29-5.93 5.29a5.88 5.88 0 0 1 -5.46-3.64 1.7 1.7 0 0 0 -1.55-.91zm-52.8-.2a1.87 1.87 0 0 0 -.56.09 1.7 1.7 0 0 0 -1 .87 1.68 1.68 0 0 0 -.07 1.3 1.08 1.08 0 0 0 .08.19 9.33 9.33 0 0 0 6.46 5.5l.46.11v2.76a1.71 1.71 0 0 0 1.69 1.72 1.7 1.7 0 0 0 1.7-1.7v-2.77l.5-.09a8.57 8.57 0 0 0 7.12-8.45c0-2.45-1.14-6.83-8.78-8.58h-.15c-6.3-1.43-6.3-4.37-6.3-5.33 0-3.63 3.07-5.29 5.93-5.29a5.9 5.9 0 0 1 5.46 3.64 1.73 1.73 0 0 0 2.21 1.07 1.7 1.7 0 0 0 1-2.17 1.54 1.54 0 0 0 -.08-.19 9.35 9.35 0 0 0 -6.46-5.5l-.46-.11v-2.77a1.65 1.65 0 0 0 -.43-1.26 1.69 1.69 0 0 0 -2.4-.14 1.68 1.68 0 0 0 -.56 1.18.54.54 0 0 0 0 .18v2.8l-.5.09a8.58 8.58 0 0 0 -7.11 8.45c0 2.45 1.15 6.83 8.79 8.58h.15c6.3 1.44 6.3 4.37 6.3 5.33 0 3.63-3.08 5.29-5.93 5.29a5.91 5.91 0 0 1 -5.46-3.64 1.71 1.71 0 0 0 -1.62-1.18zm23.27-45.5.35.67a17.24 17.24 0 0 1 1.85 5.45 1.7 1.7 0 1 0 3.35-.5 20.79 20.79 0 0 0 -2.48-7 3.58 3.58 0 0 0 -2.59-1.79 3.73 3.73 0 0 0 -3.1.92 13.37 13.37 0 0 1 -2.33 1.7 11.43 11.43 0 0 1 -3.1 1.24c-6.59 1.43-12-5.66-15.59-20.5l-.15-.61.62-.12c13.25-2.57 19.34-.81 22.12 1.11a7.21 7.21 0 0 1 3.13 5.09 9.4 9.4 0 0 1 -.18 3.62l-.18.72-.67-.32a39.09 39.09 0 0 0 -9.86-3.31h-.37a1.7 1.7 0 0 0 -.14 3.4 33.61 33.61 0 0 1 10 3.5 3.39 3.39 0 0 0 .39.18 2.71 2.71 0 0 0 2.11-.06 2.76 2.76 0 0 0 1.45-1.5 13.49 13.49 0 0 0 .85-6.76 10.75 10.75 0 0 0 -4.55-7.36c-5-3.49-13.56-3.94-26-1.37a2.76 2.76 0 0 0 -1.75 1.23 2.7 2.7 0 0 0 -.35 2.09c4.11 17.83 11 26.23 19.92 24.27a14.32 14.32 0 0 0 4.06-1.6 16.63 16.63 0 0 0 2.67-1.89z"/></g></svg>