<?xml version="1.0" encoding="utf-8"?>
<svg id="Layer_1" data-name="Layer 1" xmlns="http://www.w3.org/2000/svg" viewBox="0 0 149.47 149.47"><defs><style>.cls-1{fill:none;}.cls-2{fill:#aa4269;}</style></defs><title>Kapitus_Icons_NormalState</title><g id="Ellipse_184" data-name="Ellipse 184"><path class="cls-1" d="M73.47.71c41.28,0,76,32.71,76,74A74.74,74.74,0,0,1,0,74.69C0,33.42,32.2.71,73.47.71Z"/><path class="cls-2" d="M74.72,149.42a74.73,74.73,0,1,1,74.74-74.73A74.82,74.82,0,0,1,74.72,149.42Zm0-146.19a71.46,71.46,0,1,0,71.46,71.46A71.55,71.55,0,0,0,74.72,3.23Z"/></g><path class="cls-2" d="M74,116.92h0a41.61,41.61,0,0,1-29.42-71,2.4,2.4,0,0,0,.21-.23l.94-1.27v7.66a2,2,0,0,0,2,2h0a2,2,0,0,0,2-2V39.87a2,2,0,0,0-2-2H35.55a2,2,0,0,0,0,4H43.2L42,42.83a1.94,1.94,0,0,0-.27.23A45.6,45.6,0,0,0,28.34,75.32h0A45.7,45.7,0,0,0,74,121a2,2,0,1,0,0-4Z"/><path class="cls-2" d="M112.37,108.73H104.6l1.39-1,.26-.2A45.64,45.64,0,0,0,74,29.68a2,2,0,0,0,0,4,41.61,41.61,0,0,1,29.39,71L102.22,106v-7.4a2,2,0,1,0-4,0v12.17a2,2,0,0,0,2,2h12.16a2,2,0,1,0,0-4Z"/><path class="cls-2" d="M82.85,83.7a11.86,11.86,0,1,1,0-16.77A11.88,11.88,0,0,1,82.85,83.7ZM80,69.78a7.83,7.83,0,1,0,0,11.06,7.84,7.84,0,0,0,0-11.06Zm14.69,4.38L92.6,66.29A20,20,0,0,1,94.68,74.16Zm7.25,0-3.31-1.53,0-.29a23.72,23.72,0,0,0-1.77-6.51l-.11-.27,2.08-3a6,6,0,0,0-.67-7.76L95,51.66A6,6,0,0,0,87.19,51l-3,2.08L83.94,53a23.69,23.69,0,0,0-6.56-1.76l-.29,0-1.53-3.31a6,6,0,0,0-7-3.29l-4.28,1.16a6,6,0,0,0-4.47,6.37l.31,3.62-.23.18A24.68,24.68,0,0,0,55,60.71l-.17.23-3.62-.32a6,6,0,0,0-6.37,4.43L43.7,69.36A6,6,0,0,0,47,76.48L50.28,78l0,.28a24.15,24.15,0,0,0,1.77,6.52l.11.26-2.08,3a6,6,0,0,0,.67,7.77L54,99a6,6,0,0,0,7.76.68l3-2.1.26.12a24.19,24.19,0,0,0,6.57,1.75l.29,0,1.53,3.31a6,6,0,0,0,7.06,3.29l4.28-1.15a6,6,0,0,0,4.47-6.38l-.32-3.61.23-.18a23.75,23.75,0,0,0,2.57-2.23h0a25.2,25.2,0,0,0,2.25-2.58l.18-.23,3.61.32a6,6,0,0,0,6.38-4.43l1.15-4.31A6,6,0,0,0,101.93,74.16Zm-18.4-17a2,2,0,0,0,2-.15l3.89-2.77a2,2,0,0,1,2.6.23l3.21,3.2a2,2,0,0,1,.23,2.59l-2.76,3.94a2,2,0,0,0-.15,2.06,20,20,0,0,1,2.08,7.87,2,2,0,0,0,1.16,1.7l4.36,2a2,2,0,0,1,1.13,2.31l-1.19,4.33A2,2,0,0,1,98,86l-4.78-.43a2,2,0,0,0-1.88.9,20.26,20.26,0,0,1-5.76,5.76,2,2,0,0,0-.89,1.86l.42,4.78A2,2,0,0,1,83.73,101l-4.34,1.16a1.88,1.88,0,0,1-.53.07A2,2,0,0,1,77,101.08l-2-4.36a2,2,0,0,0-1.71-1.18,20.14,20.14,0,0,1-7.86-2.09,2,2,0,0,0-2.06.16l-3.94,2.76a2,2,0,0,1-2.6-.24l-3.21-3.2a2,2,0,0,1-.24-2.59l2.76-3.94a2,2,0,0,0,.16-2.06,19.91,19.91,0,0,1-2.08-7.86,2,2,0,0,0-1.16-1.71l-4.37-2a2,2,0,0,1-1.12-2.31l1.18-4.3a2,2,0,0,1,2.13-1.49l4.85.34a2,2,0,0,0,1.87-.89l5.72-5.71a2.05,2.05,0,0,0,.9-1.87l-.43-4.78a2,2,0,0,1,1.45-2.14l4.33-1.16a2,2,0,0,1,2.32,1.11l2,4.37a2,2,0,0,0,1.75,1.19"/></svg>