<svg id="Layer_1" data-name="Layer 1" xmlns="http://www.w3.org/2000/svg" viewBox="0 0 149.47 149.47"><defs><style>.cls-1{fill:none;}.cls-2{fill:#ffffff;}</style></defs><g id="Ellipse_184" data-name="Ellipse 184"><circle class="cls-1" cx="74.81" cy="74.6" r="74.73"/><path class="cls-2" d="M74.81,149.33A74.74,74.74,0,1,1,149.54,74.6,74.82,74.82,0,0,1,74.81,149.33Zm0-146.19A71.46,71.46,0,1,0,146.27,74.6,71.54,71.54,0,0,0,74.81,3.14Z"/></g><rect class="cls-2" x="50.2" y="26.43" width="17.43" height="3.46"/><rect class="cls-2" x="50.2" y="33.35" width="3.46" height="3.46"/><rect class="cls-2" x="57.13" y="33.35" width="3.46" height="3.46"/><path class="cls-2" d="M43.16,21.12a1.77,1.77,0,0,1,1.73-1.73H88.53v8.77a5.17,5.17,0,0,0,5.19,5.19h4.66V29.89H93.72A1.78,1.78,0,0,1,92,28.16V21.93l10.51,10.5v30.3H106v-31a2.41,2.41,0,0,0-.46-1.27l-14-14A1.73,1.73,0,0,0,90.26,16H44.89a5.17,5.17,0,0,0-5.2,5.19V69.65l3.47-3.34Z"/><path class="cls-2" d="M43.16,94.42V77.65l-3.47-2.92V94.42a5.18,5.18,0,0,0,5.2,5.2h6.93V96.16H44.89A1.71,1.71,0,0,1,43.16,94.42Z"/><path class="cls-2" d="M92.11,52.52V40.28a1.78,1.78,0,0,0-1.74-1.73h-14V42H86.1L75.6,52.52h-15a2.44,2.44,0,0,0-1.27.46L40.16,72.14l2.42,2.43,18.7-18.7h15a2.37,2.37,0,0,0,1.27-.47l11-11v8h3.58Z"/><path class="cls-2" d="M120.83,123.49h-71V107.68h71Zm-68.31-2.73h65.57V110.41H52.52Zm68.64-14.13H49.28l1.54-3.2,1.27-2.6q1.09-2.23,2.21-4.45c1.82-3.66,3.71-7.45,5.49-11.2A3.36,3.36,0,0,1,63.25,83h0c15.27,0,30.61,0,44.91,0h0a2.37,2.37,0,0,1,2.33,1.45q3.48,7.08,7,14.16l2.65,5.38a4.9,4.9,0,0,1,.21.51Zm-67.52-2.74H117l-2-4q-3.48-7-6.93-14.08c-14.34,0-29.62,0-44.84,0-.68,0-.75,0-1,.57-1.79,3.78-3.69,7.58-5.51,11.25q-1.11,2.22-2.21,4.44ZM108.71,82.3H60.56V69.64c0-3.24,1.87-5.09,5.12-5.09H68v1.36c0,1.16,0,6.56,0,9.13H81.71c0-2.6,0-8.08,0-9.13V64.55h1.72c2.29,0,15.18,0,21.89,0h0a4.57,4.57,0,0,1,4.78,4.52c0,3.25,0,6.5,0,9.75v1.88a1.78,1.78,0,0,1-.13.64l-.31.94ZM63.3,79.56h44.11v-.75q0-4.87,0-9.75a1.89,1.89,0,0,0-2.06-1.79h0c-6,0-17,0-20.88,0,0,3,0,9.13,0,9.13v1.37H83.08s-10,0-16.39,0H65.32v-2c0-1.67,0-6.06,0-8.45-1.47.09-2,.74-2,2.35v9.92Z"/><path class="cls-2" d="M58.22,102.73c-.8,0-1.61,0-2.41,0-.63,0-.79-.2-.52-.66.75-1.31,1.51-2.61,2.33-3.89a1.25,1.25,0,0,1,.87-.42c1.4,0,2.8,0,4.21,0,.71,0,.87.18.61.72-.6,1.3-1.22,2.59-1.88,3.87a1,1,0,0,1-.74.39C59.87,102.77,59,102.73,58.22,102.73Zm4.05-4.27c-1.26,0-2.41,0-3.56,0a.59.59,0,0,0-.4.25c-.47.74-.91,1.48-1.35,2.23-.19.32-.35.65-.53,1l.21,0h2.47c1.44,0,1.46,0,2-1C61.49,100.17,61.85,99.35,62.27,98.46Z"/><path class="cls-2" d="M59.59,103H55.81c-.32,0-.7-.05-.86-.33a.76.76,0,0,1,.1-.75l0-.08c.73-1.26,1.49-2.56,2.29-3.82a1.55,1.55,0,0,1,1.1-.55c1.15,0,2.31,0,3.44,0h.78c.38,0,.75.05.92.32a.82.82,0,0,1,0,.8c-.57,1.2-1.21,2.56-1.89,3.88a1.3,1.3,0,0,1-1,.53C60.34,103,60,103,59.59,103Zm-1.37-.56h.69c.58,0,1.18,0,1.76,0a.87.87,0,0,0,.52-.24c.68-1.31,1.31-2.66,1.87-3.86a.56.56,0,0,0,.09-.28,2.15,2.15,0,0,0-.45,0h-.78c-1.12,0-2.29,0-3.42,0a1,1,0,0,0-.65.28c-.8,1.26-1.55,2.55-2.28,3.81l0,.08a.42.42,0,0,0-.09.2,2.5,2.5,0,0,0,.38,0h2.4Zm1-.19H56.64l-.16,0-.47-.11.34-.63c.12-.23.24-.46.37-.68.44-.75.88-1.5,1.35-2.24a.88.88,0,0,1,.63-.38c.88,0,1.76,0,2.68,0H62.7l-.56,1.21c-.27.59-.53,1.15-.81,1.7C60.77,102.23,60.63,102.27,59.22,102.27Zm-2.35-.57c.76,0,1.5,0,2.24,0,1.3,0,1.29,0,1.73-.87.27-.54.53-1.1.79-1.68l.2-.43H58.71a.48.48,0,0,0-.17.13c-.46.73-.91,1.47-1.34,2.22Q57,101.4,56.87,101.7Z"/><path class="cls-2" d="M67.06,102.85H64.47c-.59,0-.75-.26-.59-.65.57-1.41,1.15-2.82,1.78-4.22a.94.94,0,0,1,.71-.37c1.54,0,3.08,0,4.62,0,.56,0,.77.21.65.63-.4,1.37-.81,2.75-1.22,4.13-.1.34-.35.52-.84.5C68.74,102.83,67.9,102.85,67.06,102.85Zm3.51-4.48H66.86a.66.66,0,0,0-.46.23c-.48,1.12-.93,2.26-1.42,3.46h4.17a.5.5,0,0,0,.36-.26C69.87,100.69,70.2,99.57,70.57,98.37Z"/><path class="cls-2" d="M69.63,103.13h-.06c-.58,0-1.16,0-1.75,0H64.46a.9.9,0,0,1-.81-.32.7.7,0,0,1,0-.7c.55-1.36,1.14-2.81,1.79-4.24a1.22,1.22,0,0,1,1-.53c1.07,0,2.14,0,3.22,0H71a.94.94,0,0,1,.82.31.73.73,0,0,1,.08.67c-.4,1.38-.8,2.76-1.21,4.13A1,1,0,0,1,69.63,103.13Zm-1.08-.57,1,0c.42,0,.52-.15.57-.31.41-1.38.81-2.75,1.21-4.13a.31.31,0,0,0,0-.19s-.07,0-.39-.09h-1.4c-1.07,0-2.14,0-3.21,0a.77.77,0,0,0-.47.22c-.64,1.41-1.23,2.85-1.78,4.21,0,.11,0,.17,0,.18s.11.07.36.08h4.08Zm-1.77-.21H64.57l.47-1.18c.38-.92.73-1.8,1.11-2.67a.84.84,0,0,1,.71-.39c.89,0,1.79,0,2.75,0h1.33l-.34,1.12c-.28.91-.54,1.79-.82,2.67a.76.76,0,0,1-.62.44Zm-1.39-.56h3.76a.44.44,0,0,0,.11-.09c.27-.85.53-1.72.81-2.63l.12-.41H66.86a.49.49,0,0,0-.22.09c-.36.84-.71,1.72-1.08,2.63Z"/><path class="cls-2" d="M112.63,102.85c-.82,0-1.64,0-2.45,0a.79.79,0,0,1-.85-.43c-.63-1.33-1.28-2.66-1.9-4-.32-.69-.19-.84.71-.84,1.42,0,2.84,0,4.26,0a1.39,1.39,0,0,1,.95.39c.86,1.35,1.65,2.74,2.44,4.12.31.53.15.71-.58.72S113.49,102.85,112.63,102.85Zm2-.78c-.72-1.24-1.37-2.36-2-3.48a.51.51,0,0,0-.35-.21h-3.8c.57,1.18,1.09,2.29,1.64,3.39a.6.6,0,0,0,.39.29C111.86,102.08,113.2,102.07,114.67,102.07Z"/><path class="cls-2" d="M110.12,103.13a1,1,0,0,1-1-.59c-.27-.58-.55-1.15-.82-1.72l-1.08-2.27c-.14-.31-.28-.65-.1-.92s.51-.32,1.06-.32h1c1.07,0,2.18,0,3.27,0a1.63,1.63,0,0,1,1.18.52c.88,1.39,1.71,2.85,2.44,4.13a.82.82,0,0,1,.12.81,1,1,0,0,1-.93.33H111.9c-.57,0-1.14,0-1.71,0Zm-2.58-5.2a2.94,2.94,0,0,0,.14.38l1.08,2.27.82,1.72c.09.18.22.29.59.28.58,0,1.16,0,1.74,0h3.3a1,1,0,0,0,.46-.07s0-.08-.12-.24c-.73-1.28-1.56-2.74-2.43-4.11a1.2,1.2,0,0,0-.73-.27c-1.08,0-2.18,0-3.25,0h-1c-.47,0-.58,0-.6.06Zm5.27,4.42c-.78,0-1.54,0-2.3,0a.83.83,0,0,1-.64-.44c-.42-.84-.82-1.69-1.24-2.57L108,98.1h4.24a.78.78,0,0,1,.59.33c.53.89,1,1.77,1.59,2.71l.69,1.2h-2.34Zm-3.89-3.7.21.43c.42.88.82,1.72,1.24,2.56a.36.36,0,0,0,.16.14c1,0,2.08,0,3.18,0h.48l-.21-.36c-.54-.94-1.06-1.82-1.58-2.7l-.13-.07h-3.35Z"/><path class="cls-2" d="M76.19,102.85H73.61c-.57,0-.8-.2-.69-.67.33-1.33.64-2.66.94-4,.09-.43.33-.63.93-.61,1.44,0,2.89,0,4.33,0,.84,0,.94.07.87.74-.14,1.32-.33,2.63-.48,3.94,0,.42-.29.58-.8.58Zm-1.35-4.46L74,102.07c1.48,0,2.85,0,4.22,0a.47.47,0,0,0,.34-.27c.15-1.12.27-2.25.4-3.39Z"/><path class="cls-2" d="M78.73,103.13H73.61a1,1,0,0,1-.85-.3.78.78,0,0,1-.11-.7c.33-1.33.63-2.66.94-4,.12-.57.5-.82,1.21-.82,1,0,1.92,0,2.88,0h1.45c.49,0,.8,0,1,.24a1,1,0,0,1,.13.81q-.11,1-.24,2c-.08.64-.16,1.29-.23,1.93S79.37,103.13,78.73,103.13Zm-1.06-.56h1c.46,0,.51-.13.53-.33.07-.65.15-1.3.23-1.94s.17-1.33.24-2c0-.28,0-.36,0-.39a2.51,2.51,0,0,0-.59,0H77.68c-1,0-1.93,0-2.9,0-.52,0-.6.15-.65.4-.31,1.33-.61,2.67-.94,4a.43.43,0,0,0,0,.23s.09.09.42.09h4.06Zm-1.86-.22H73.65l1-4.23h4.65l-.12,1.07c-.1.89-.2,1.76-.32,2.64a.69.69,0,0,1-.6.51Zm-1.46-.56h3.87s.06-.06.08-.08c.1-.83.2-1.7.3-2.58l.05-.45H75.06Z"/><path class="cls-2" d="M103.54,102.85c-.82,0-1.64,0-2.45,0-.55,0-.79-.18-.91-.58-.39-1.35-.81-2.69-1.22-4-.13-.42.06-.64.62-.64,1.56,0,3.12,0,4.68,0A1,1,0,0,1,105,98c.62,1.36,1.19,2.72,1.75,4.09.22.53,0,.71-.69.71Zm-3.45-4.46c.34,1.15.64,2.25,1,3.35,0,.14.37.31.58.32,1.12,0,2.24,0,3.36,0a5.15,5.15,0,0,0,.62-.06l-1.51-3.62Z"/><path class="cls-2" d="M101,103.13a1,1,0,0,1-1.1-.78c-.36-1.24-.74-2.47-1.12-3.7l-.1-.34a.73.73,0,0,1,.07-.7.94.94,0,0,1,.81-.3h1.17c1.15,0,2.35,0,3.52,0a1.27,1.27,0,0,1,1,.6c.63,1.37,1.22,2.78,1.76,4.1a.81.81,0,0,1,0,.77c-.18.28-.59.32-1,.32h-3.25c-.57,0-1.14,0-1.71,0Zm.89-5.27H99.58a.63.63,0,0,0-.37.07.33.33,0,0,0,0,.21l.1.33c.38,1.24.76,2.48,1.12,3.72.08.27.2.39.63.38.58,0,1.16,0,1.73,0h3.24c.42,0,.5-.08.5-.08h0s0-.06-.06-.25c-.54-1.31-1.12-2.72-1.75-4.08a.76.76,0,0,0-.48-.27C103.48,97.87,102.69,97.86,101.91,97.86Zm1.43,4.5-1.68,0a1,1,0,0,1-.84-.51c-.27-.84-.51-1.68-.76-2.56l-.34-1.16h4.61l1.72,4.15-.6,0a3.13,3.13,0,0,1-.42,0h-1.69Zm-2.88-3.7.13.46c.25.88.49,1.7.76,2.54a.89.89,0,0,0,.32.12c.94,0,1.9,0,2.82,0h.77L104,98.66Z"/><path class="cls-2" d="M85.34,102.85H82.75c-.47,0-.69-.15-.67-.53.07-1.38.12-2.75.19-4.13,0-.39.26-.59.8-.58,1.51,0,3,0,4.55,0,.41,0,.69.1.71.45.12,1.45.23,2.89.31,4.34,0,.35-.32.45-.72.45Zm2.12-4.44H83.18V102h4.28Z"/><path class="cls-2" d="M82.73,103.12a1,1,0,0,1-.75-.24.77.77,0,0,1-.18-.57l.12-2.45L82,98.18c0-.39.23-.87,1.08-.85,1.51,0,3,0,4.54,0,.78,0,1,.38,1,.7l0,.52c.1,1.28.2,2.55.27,3.82a.65.65,0,0,1-.16.48,1.09,1.09,0,0,1-.83.26h-5.2ZM83,97.89c-.48,0-.49.17-.49.32l-.08,1.68c0,.81-.07,1.63-.12,2.44a.24.24,0,0,0,0,.17s.11.09.35.07h5.19c.29,0,.41-.07.42-.09-.06-1.33-.15-2.6-.25-3.87l0-.53c0-.08,0-.18-.44-.19q-2.28,0-4.56,0Zm4.7,4.43H82.91V98.14h4.83Zm-4.28-.56h3.72V98.69H83.46Z"/><path class="cls-2" d="M94.42,102.85H91.9c-.45,0-.67-.11-.71-.5-.15-1.37-.34-2.73-.53-4.1-.06-.46.11-.68.75-.67,1.49,0,3,0,4.48,0,.49,0,.77.12.87.53.31,1.39.65,2.77,1,4.15.09.4-.17.58-.66.58ZM91.67,98.4c.13,1.09.27,2.14.37,3.2,0,.34.14.5.61.48s1,0,1.53,0h2.47l-.86-3.67Z"/><path class="cls-2" d="M91.87,103.13a.83.83,0,0,1-1-.75c-.14-1.32-.32-2.63-.52-4.09a.84.84,0,0,1,.16-.71,1.15,1.15,0,0,1,.87-.28c1.55,0,3.12,0,4.47,0a1,1,0,0,1,1.14.74c.2.89.41,1.78.62,2.66L98,102.2a.7.7,0,0,1-.11.62,1,1,0,0,1-.82.3H94.42v0H91.87Zm-.5-5.27c-.31,0-.39.06-.41.08a.42.42,0,0,0,0,.27c.2,1.47.38,2.79.53,4.11,0,.16,0,.27.43.25h5.18c.23,0,.35,0,.38-.09s0-.12,0-.16l-.36-1.48c-.21-.89-.42-1.78-.62-2.67,0-.19-.09-.31-.6-.31-1.35,0-2.92,0-4.48,0Zm1.2,4.5a.71.71,0,0,1-.81-.74c-.07-.75-.16-1.51-.25-2.28l-.15-1.21H96l1,4.22H93.71c-.35,0-.7,0-1,0ZM92,98.68l.07.6c.09.77.19,1.53.25,2.29,0,.21,0,.25.32.23s.73,0,1.09,0H96.3l-.73-3.12Z"/><path class="cls-2" d="M61.22,96.28c-.7,0-1.4,0-2.1,0s-.85-.28-.57-.89c.61-1.33,1.23-2.66,1.89-4a.93.93,0,0,1,.68-.44c1.4,0,2.8,0,4.19,0,.51,0,.69.27.51.73-.51,1.39-1,2.79-1.6,4.16a1,1,0,0,1-.77.42C62.71,96.31,62,96.28,61.22,96.28Zm3.51-4.4a8.4,8.4,0,0,1-1.43,0,2.21,2.21,0,0,0-2.91,1.8,12.53,12.53,0,0,1-.74,1.68c1.19,0,2.24,0,3.29,0a.71.71,0,0,0,.54-.29C63.92,94,64.3,93,64.73,91.88Z"/><path class="cls-2" d="M62.49,96.56H59.11a1,1,0,0,1-.87-.36,1,1,0,0,1,.06-.92c.54-1.19,1.19-2.58,1.89-4a1.25,1.25,0,0,1,.92-.59c1.1,0,2.22,0,3.3,0h.9a.74.74,0,0,1,.77,1.1l-.18.48c-.45,1.21-.91,2.47-1.42,3.69a1.26,1.26,0,0,1-1,.58C63.15,96.56,62.81,96.56,62.49,96.56ZM61.22,96h.64c.52,0,1,0,1.57,0a.91.91,0,0,0,.54-.25c.5-1.2,1-2.46,1.41-3.67l.18-.48c.06-.16.06-.25,0-.28a.42.42,0,0,0-.29-.07h-.9c-1.08,0-2.19,0-3.28,0a.71.71,0,0,0-.44.29c-.7,1.39-1.35,2.78-1.89,4-.14.31-.1.39-.09.4s0,.08.42.09,1,0,1.44,0Zm.15-.37H59.22l.17-.4c.09-.2.19-.38.28-.57a5.26,5.26,0,0,0,.45-1.06,2.48,2.48,0,0,1,3.23-2,4.66,4.66,0,0,0,.85,0l.53,0h.4l-.46,1.2c-.31.81-.61,1.59-.93,2.36a1,1,0,0,1-.79.45C62.43,95.63,61.91,95.63,61.37,95.63Zm-1.28-.56h.46c.84,0,1.61,0,2.38,0a.52.52,0,0,0,.31-.13c.31-.75.61-1.52.91-2.32l.17-.44h-.1a4,4,0,0,1-1,0,1.93,1.93,0,0,0-2.58,1.6,6.92,6.92,0,0,1-.49,1.17A1.19,1.19,0,0,0,60.09,95.07Z"/><path class="cls-2" d="M69.27,96.28c-.7,0-1.4,0-2.1,0s-.86-.23-.66-.86c.4-1.29.83-2.57,1.23-3.86a.83.83,0,0,1,1-.68c1.26,0,2.52,0,3.78,0,.78,0,1,.22.77,1-.29,1.25-.63,2.49-.9,3.74a.76.76,0,0,1-.84.66c-.74,0-1.49,0-2.24,0Zm2.15-1,.8-3.44c-1.14,0-2.16,0-3.18,0a.52.52,0,0,0-.39.2c-.36,1-.69,2.12-1,3.23Z"/><path class="cls-2" d="M68,96.56h-.82a1.12,1.12,0,0,1-.9-.32,1,1,0,0,1,0-.9c.19-.61.39-1.22.59-1.83s.43-1.35.64-2a1.12,1.12,0,0,1,1.24-.88c.83,0,1.66,0,2.49,0,.43,0,.86,0,1.29,0a1.16,1.16,0,0,1,1,.31,1.2,1.2,0,0,1,.08,1c-.12.5-.24,1-.37,1.5-.18.74-.37,1.48-.53,2.23a1,1,0,0,1-1.1.88H68Zm.64-5.41a.56.56,0,0,0-.63.48c-.21.68-.43,1.36-.65,2s-.39,1.21-.58,1.82c-.1.32-.06.4,0,.41s.08.09.46.1,1,0,1.45,0h2.88c.35,0,.49-.12.56-.45.17-.75.36-1.5.54-2.24.13-.5.25-1,.37-1.5s.06-.51,0-.55-.14-.1-.53-.1H71.2c-.82,0-1.67,0-2.51,0Zm3,4.45H67.23l.34-1.06c.27-.87.54-1.71.82-2.54.09-.27.47-.38.65-.39h3.52ZM68,95.05H71.2l.67-2.89H69.05a.26.26,0,0,0-.16.06c-.26.78-.52,1.61-.79,2.47Z"/><path class="cls-2" d="M77.26,96.28c-.67,0-1.35,0-2,0s-.92-.22-.78-.94c.25-1.26.5-2.51.73-3.77a.72.72,0,0,1,.84-.7c1.3,0,2.61,0,3.91,0,.56,0,.83.19.76.78-.15,1.32-.29,2.64-.4,4,0,.48-.31.64-.73.65H77.26Zm2-1,.33-3.43c-1.14,0-2.16,0-3.18,0a.48.48,0,0,0-.36.3c-.22,1-.4,2-.61,3.11Z"/><path class="cls-2" d="M76,96.56h-.78a1.14,1.14,0,0,1-.93-.3,1.18,1.18,0,0,1-.11-1l.22-1.12c.17-.88.34-1.76.5-2.65A1,1,0,0,1,76,90.6c1.33,0,2.66,0,3.9,0a1.1,1.1,0,0,1,.84.28,1,1,0,0,1,.2.82c-.18,1.58-.31,2.8-.41,3.94a.89.89,0,0,1-1,.9H76Zm0-5.41c-.34,0-.45.11-.52.47-.16.89-.33,1.77-.51,2.65l-.21,1.12c-.07.36,0,.47,0,.51s.13.09.51.1.93,0,1.4,0h2.93c.32,0,.42-.1.45-.4.1-1.14.22-2.37.4-4a.35.35,0,0,0-.47-.47c-1.25,0-2.59,0-3.93,0Zm3.55,4.44h-4.4l.2-1.09c.15-.8.3-1.58.47-2.36a.76.76,0,0,1,.63-.52c.77,0,1.55,0,2.38,0h1.11ZM75.8,95H79l.28-2.87H76.44a.38.38,0,0,0-.11.11c-.16.75-.3,1.53-.45,2.32Z"/><path class="cls-2" d="M85.32,96.28c-.73,0-1.45,0-2.18,0-.52,0-.77-.25-.74-.77.06-1.33.13-2.66.19-4a.55.55,0,0,1,.63-.58h4.21a.58.58,0,0,1,.67.62c.06,1.32.11,2.65.17,4,0,.51-.23.73-.71.73Zm1.79-4.4c-1.1,0-2.13,0-3.15,0a.59.59,0,0,0-.42.39c0,1,0,2,0,3h3.77Z"/><path class="cls-2" d="M83.13,96.56a1,1,0,0,1-.77-.28,1,1,0,0,1-.24-.79l.2-4a.81.81,0,0,1,.9-.84h0c1.4,0,2.79,0,4.19,0a.86.86,0,0,1,1,.88c0,.68.06,1.36.08,2s.05,1.3.08,2a1,1,0,0,1-.23.75,1,1,0,0,1-.75.26H83.13Zm.09-5.33c-.28,0-.34.1-.35.31l-.2,4a.5.5,0,0,0,.09.38.52.52,0,0,0,.38.1h4.42a.5.5,0,0,0,.35-.1.43.43,0,0,0,.08-.34c0-.65-.06-1.3-.08-2s0-1.35-.09-2c0-.27-.11-.35-.39-.35Zm4.36,4.36H83.24v-1c0-.78,0-1.53,0-2.28a.84.84,0,0,1,.69-.66c.77,0,1.54,0,2.35,0h1.08ZM83.8,95H87l-.15-2.87H86.3c-.8,0-1.56,0-2.33,0a.56.56,0,0,0-.16.15c0,.71,0,1.45,0,2.23Z"/><path class="cls-2" d="M99.53,90.16H97.71a.82.82,0,0,1-.89-.61c-.23-.82-.48-1.64-.69-2.47-.17-.63,0-.82.8-.83,1.07,0,2.15,0,3.22,0a.9.9,0,0,1,1,.63c.29.79.62,1.57.91,2.36s.06.91-.79.92c-.58,0-1.16,0-1.75,0Zm1.5-.94c-.26-.69-.48-1.29-.73-1.88a.46.46,0,0,0-.31-.25c-.92,0-1.84,0-2.83,0,.19.68.33,1.28.53,1.87a.58.58,0,0,0,.44.26C99.06,89.24,100,89.22,101,89.22Z"/><path class="cls-2" d="M100.6,90.44H97.71a1.07,1.07,0,0,1-1.15-.81l-.21-.72c-.17-.59-.34-1.17-.49-1.76a1,1,0,0,1,.08-.86,1.21,1.21,0,0,1,1-.31h3.21a1.19,1.19,0,0,1,1.28.82c.16.43.33.86.5,1.3s.28.7.41,1a1,1,0,0,1,0,.94,1.25,1.25,0,0,1-1,.36Zm-.79-.55h1.47c.49,0,.59-.1.6-.12s.06-.1-.07-.44-.27-.69-.4-1-.35-.87-.51-1.31-.27-.47-.75-.46c-.69,0-1.39,0-2.09,0H96.93c-.43,0-.53.07-.56.1s-.05.1,0,.39c.15.58.31,1.15.48,1.73l.21.73c.06.2.18.41.62.41h2.1Zm-.27-.39H98.12a.85.85,0,0,1-.69-.45c-.15-.44-.27-.89-.4-1.36l-.24-.88H100a.74.74,0,0,1,.57.43c.18.43.35.88.53,1.36l.34.9H99.54Zm-2-2.15,0,.19c.12.46.24.9.38,1.32a1.21,1.21,0,0,0,.19.08h2.49l-.06-.15c-.18-.48-.34-.92-.52-1.35a.28.28,0,0,0-.1-.09H97.52Z"/><path class="cls-2" d="M63.94,90.07c-.66,0-1.31,0-2,0s-.78-.23-.54-.68c.5-.92,1-1.84,1.55-2.73a1.08,1.08,0,0,1,.74-.39c1.14,0,2.29,0,3.43,0,.77,0,.93.23.64.86-.36.82-.74,1.63-1.09,2.45a.79.79,0,0,1-.89.51C65.2,90.05,64.57,90.07,63.94,90.07Zm-1.32-.85c1.06,0,2,0,2.87,0a.55.55,0,0,0,.4-.16c.3-.63.58-1.27.9-2H64a.47.47,0,0,0-.33.15C63.34,87.85,63,88.48,62.62,89.22Z"/><path class="cls-2" d="M65.9,90.36h-.09c-.43,0-.86,0-1.29,0H63.31c-.45,0-.89,0-1.34,0-.16,0-.64,0-.83-.35a.72.72,0,0,1,.06-.74c.48-.89,1-1.83,1.55-2.74a1.37,1.37,0,0,1,1-.53c1.11,0,2.24,0,3.33,0h.11a1.1,1.1,0,0,1,1,.34,1,1,0,0,1-.06.92c-.14.3-.28.61-.41.91-.23.51-.46,1-.68,1.53A1.05,1.05,0,0,1,65.9,90.36Zm-.83-.57h.77c.39,0,.52-.1.62-.34.22-.51.45-1,.68-1.54.14-.3.28-.6.41-.91s.1-.39.1-.39-.06-.08-.49-.09H67c-1.08,0-2.2,0-3.3,0a.79.79,0,0,0-.52.26c-.55.89-1.06,1.83-1.53,2.71a.36.36,0,0,0-.07.21s0,0,.36.06h3.09Zm-1-.29h-1.9l.51-1c.27-.52.52-1,.78-1.45a.74.74,0,0,1,.57-.3h3.19l-.39.89c-.23.52-.45,1-.68,1.49a.79.79,0,0,1-.64.31Zm-1-.55h2.41a.39.39,0,0,0,.18,0c.2-.43.41-.91.64-1.42l0-.12H64a.25.25,0,0,0-.12,0c-.24.43-.48.9-.75,1.41Z"/><path class="cls-2" d="M71.09,90.07c-.67,0-1.35,0-2,0s-.72-.24-.57-.64c.33-.93.67-1.86,1.08-2.76a1,1,0,0,1,.71-.42c1.21,0,2.42,0,3.63,0,.57,0,.74.25.62.69-.24.87-.5,1.73-.74,2.6a.69.69,0,0,1-.82.55C72.35,90.05,71.72,90.07,71.09,90.07Zm2.39-3c-1,0-1.86,0-2.74,0a.53.53,0,0,0-.39.24c-.26.61-.48,1.23-.74,1.9,1,0,2,0,2.91,0A.56.56,0,0,0,73,89C73.15,88.36,73.29,87.76,73.48,87.07Z"/><path class="cls-2" d="M73.05,90.36H73c-.43,0-.86,0-1.3,0H69.07a.87.87,0,0,1-.79-.29.76.76,0,0,1,0-.72c.31-.86.66-1.83,1.08-2.77a1.23,1.23,0,0,1,1-.59c.89,0,1.79,0,2.66,0h1a.92.92,0,0,1,.8.31.83.83,0,0,1,.09.74l-.3,1c-.15.52-.29,1-.44,1.56A1,1,0,0,1,73.05,90.36Zm-.82-.57H73c.37,0,.48-.1.55-.34.14-.52.29-1,.44-1.57l.29-1a.33.33,0,0,0,0-.26s-.14-.08-.36-.08h-1c-.86,0-1.75,0-2.63,0a.76.76,0,0,0-.47.25c-.42.93-.76,1.89-1.07,2.74-.05.13,0,.2,0,.21s.1.07.33.06h3.17Zm-1.15-.29H69.21l.34-.89c.18-.48.35-1,.54-1.4a.81.81,0,0,1,.64-.4c.66,0,1.32,0,2,0h1.08l-.24.89c-.12.47-.24.91-.39,1.35a.83.83,0,0,1-.68.45ZM70,89h.36c.73,0,1.44,0,2.14,0a.35.35,0,0,0,.19-.1c.13-.39.24-.82.37-1.28l.05-.2h-.37c-.69,0-1.35,0-2,0a.35.35,0,0,0-.16.08c-.18.43-.35.89-.52,1.37Z"/><path class="cls-2" d="M106.67,90.07c-.66,0-1.31,0-2,0a1.08,1.08,0,0,1-.72-.4c-.43-.85-.8-1.73-1.16-2.6-.27-.64-.13-.81.63-.82,1.14,0,2.29,0,3.43,0a1.16,1.16,0,0,1,.81.41c.55.87,1,1.77,1.51,2.67.24.45,0,.72-.58.73S107.32,90.07,106.67,90.07Zm1.4-.85c-.37-.68-.67-1.27-1-1.86a.57.57,0,0,0-.38-.27c-.9,0-1.8,0-2.78,0,.31.7.56,1.32.86,1.91a.6.6,0,0,0,.47.23C106.14,89.24,107.05,89.22,108.07,89.22Z"/><path class="cls-2" d="M105.54,90.36a8,8,0,0,1-.85,0,1.31,1.31,0,0,1-1-.55c-.42-.82-.78-1.68-1.12-2.51l-.05-.11a.92.92,0,0,1,0-.88c.16-.26.49-.31.94-.32H104c1,0,1.93,0,2.9,0a1.48,1.48,0,0,1,1,.54c.56.88,1,1.78,1.53,2.69a.76.76,0,0,1,0,.76,1,1,0,0,1-.87.38c-.45,0-.91,0-1.37,0h-1.72ZM103,86.59a1.31,1.31,0,0,0,.11.36l0,.11c.34.82.7,1.66,1.11,2.47a.8.8,0,0,0,.49.25,12.53,12.53,0,0,0,1.37,0h2.52c.27,0,.38-.07.4-.1s0-.09,0-.22c-.48-.9-1-1.79-1.51-2.65a.84.84,0,0,0-.58-.28c-.95,0-1.93,0-2.87,0h-.55c-.39,0-.47.06-.49.07Zm3.61,2.91h-1.36a.88.88,0,0,1-.71-.38c-.22-.45-.42-.9-.63-1.39l-.4-.92h1.14c.71,0,1.39,0,2.06,0a.86.86,0,0,1,.62.42c.25.42.48.86.73,1.33l.5.94h-2Zm-2.26-2.15.07.15c.2.48.4.92.61,1.36a1.1,1.1,0,0,0,.24.08h2.37l-.07-.13c-.25-.47-.48-.9-.72-1.32a.42.42,0,0,0-.16-.14h-2.34Z"/><path class="cls-2" d="M78.19,90.07h-2c-.47,0-.72-.12-.62-.56.21-.94.37-1.88.63-2.81a.88.88,0,0,1,.65-.45c1.23,0,2.47,0,3.7,0,.51,0,.67.21.63.59-.1.89-.22,1.77-.32,2.66,0,.44-.31.61-.83.59S78.82,90.07,78.19,90.07Zm-1.57-.85c1,0,2,0,2.94,0,.14,0,.38-.13.39-.22.1-.62.15-1.24.21-1.92-1,0-1.8,0-2.66,0a.57.57,0,0,0-.44.32C76.89,88,76.77,88.57,76.62,89.22Z"/><path class="cls-2" d="M80.17,90.36h-.1c-.43,0-.87,0-1.3,0H76.24a1,1,0,0,1-.78-.25.72.72,0,0,1-.11-.64c.08-.33.14-.65.21-1,.12-.61.25-1.24.42-1.85a1.15,1.15,0,0,1,.91-.66c.77,0,1.54,0,2.31,0h1.4a.89.89,0,0,1,.74.25.81.81,0,0,1,.17.65c-.05.44-.11.89-.16,1.33s-.11.89-.16,1.33A.9.9,0,0,1,80.17,90.36Zm-.84-.57h.76c.47,0,.52-.13.55-.34,0-.45.1-.89.16-1.33s.11-.89.16-1.33c0-.06,0-.17,0-.22s-.09-.08-.32-.07H79.2c-.76,0-1.53,0-2.29,0a.69.69,0,0,0-.4.25c-.16.59-.28,1.21-.41,1.81-.06.33-.13.65-.2,1,0,.11,0,.16,0,.17s.06,0,.34,0h3.1Zm-1.24-.29H76.27l.2-.87c.1-.45.2-.88.33-1.3a.86.86,0,0,1,.69-.52c.64,0,1.27,0,1.94,0h1l-.08.8c0,.49-.09,1-.16,1.43,0,.29-.46.46-.66.46ZM77,89h2.59a.49.49,0,0,0,.13-.06c.06-.43.11-.87.15-1.33l0-.2h-.43c-.66,0-1.29,0-1.92,0a.43.43,0,0,0-.19.14c-.12.39-.21.81-.31,1.26Z"/><path class="cls-2" d="M85.25,90.07h-2c-.43,0-.65-.17-.63-.54,0-.93.06-1.87.17-2.79,0-.18.42-.45.65-.46,1.21,0,2.42,0,3.63,0,.49,0,.75.18.74.66,0,.83.08,1.66.13,2.49,0,.48-.2.69-.77.67S85.9,90.07,85.25,90.07Zm-1.49-3-.15,2.09h3.21V87.1Z"/><path class="cls-2" d="M87.28,90.36H87.2c-.44,0-.89,0-1.33,0H83.3a1,1,0,0,1-.72-.24.75.75,0,0,1-.19-.6l0-.63c0-.71.06-1.45.15-2.17,0-.36.6-.7.91-.71,1.06,0,2.15,0,3.2,0h.44c.85,0,1,.51,1,.94,0,.69.05,1.39.1,2.07l0,.4a.91.91,0,0,1-.21.71A1,1,0,0,1,87.28,90.36Zm-.85-.57h.79a.58.58,0,0,0,.43-.09.43.43,0,0,0,.06-.28l0-.4c-.05-.69-.1-1.4-.1-2.11,0-.24,0-.38-.47-.38h-.45c-1,0-2.12,0-3.17,0a.76.76,0,0,0-.39.25c-.08.68-.11,1.4-.13,2.1l0,.64a.26.26,0,0,0,0,.18.58.58,0,0,0,.31.08h3.14Zm.67-.32H83.31l.19-2.65h3.6Zm-3.19-.56h2.64V87.37H84Z"/><path class="cls-2" d="M100.89,78.55H89.55c-2,0-3-1-3-3.14v-1c0-1.09,0-2.17,0-3.26a2.65,2.65,0,0,1,2.81-2.92q7.19,0,14.37,0c1.94,0,2.93,1,2.93,3.07,0,1.36,0,2.71,0,4.07,0,2.1-1,3.12-3,3.13Zm-4.32-2h7.08c.85,0,1,0,1-1.14q0-2,0-4c0-1-.21-1.08-.93-1.08q-7.19,0-14.37,0c-.5,0-.8.06-.81.94,0,1.08,0,2.15,0,3.23v1c0,1.1.17,1.13,1,1.14h7Z"/><path class="cls-2" d="M75,65.84h2.53c.21,0,.45,0,.44.52s-.23.52-.45.52h-5c-.05,0-.12,0-.15,0s-.23-.35-.34-.52c.11-.17.22-.47.34-.48a17.28,17.28,0,0,1,1.76,0Z"/><path class="cls-2" d="M72.43,67.17a.32.32,0,0,1-.27-.13c-.09-.12-.17-.26-.26-.39l-.2-.3.11-.16L71.9,66c.12-.21.23-.43.47-.45.45,0,.9,0,1.34,0h3.81a.7.7,0,0,1,.53.18.82.82,0,0,1,.19.63c0,.8-.53.8-.73.8H72.43Zm2.41-.58h2.8a.56.56,0,0,0,0-.22c0-.19,0-.23,0-.23H73.7c-.4,0-.81,0-1.21,0a1.29,1.29,0,0,1-.09.16l0,0h0l.16.24h2.3Zm-2.42-.44Z"/><path class="cls-2" d="M75,63.1H72.47c-.2,0-.42,0-.43-.48s.21-.5.42-.5h5.09c.21,0,.41,0,.4.52s-.2.46-.39.46Z"/><path class="cls-2" d="M77.59,63.39H72.47c-.2,0-.7,0-.71-.76A.87.87,0,0,1,72,62a.68.68,0,0,1,.51-.17h5.09A.68.68,0,0,1,78,62a.83.83,0,0,1,.19.65C78.22,63.36,77.77,63.39,77.59,63.39Zm-5.24-1a.75.75,0,0,0,0,.21.44.44,0,0,0,0,.2h5.29s0-.06,0-.17a.43.43,0,0,0,0-.24s0,0-.08,0h-5.2Z"/><path class="cls-2" d="M75,70.55H72.47c-.2,0-.44,0-.4-.48,0-.2.25-.49.39-.49,1.7,0,3.4,0,5.1,0,.21,0,.4,0,.39.54s-.2.45-.39.45Z"/><path class="cls-2" d="M77.59,70.84H72.47a.68.68,0,0,1-.53-.19.75.75,0,0,1-.16-.61c0-.31.36-.74.68-.75,1.3,0,2.6,0,3.91,0h1.19a.67.67,0,0,1,.48.17.89.89,0,0,1,.2.66C78.23,70.76,77.87,70.84,77.59,70.84Zm-2.11-1c-1,0-2,0-3,0,0,0-.12.17-.12.23a.41.41,0,0,0,0,.18h5.3a1.6,1.6,0,0,1,0-.17c0-.19,0-.25,0-.26H75.48Z"/><path class="cls-2" d="M85.31,119.65h-.06a4,4,0,0,1-2.8-1.25,4,4,0,0,1,2.87-6.79h0a4,4,0,0,1,2.83,1.22,4,4,0,0,1,1.14,2.85h0A4,4,0,0,1,85.31,119.65Zm0-6A2,2,0,0,0,83.89,117a2,2,0,0,0,1.39.63h0a2.06,2.06,0,0,0,2-2h0a2,2,0,0,0-.57-1.43,2.05,2.05,0,0,0-1.42-.61Z"/><path class="cls-2" d="M80.81,74.1H69v-16H80.81ZM71,72.1h7.83v-12H71Z"/></svg>