<?xml version="1.0" encoding="utf-8"?>
<svg id="Layer_1" data-name="Layer 1" xmlns="http://www.w3.org/2000/svg" viewBox="0 0 149.47 149.47"><defs><style>.cls-1{fill:none;}.cls-2,.cls-3{fill:#aa4269;}.cls-3{stroke:#aa4269;stroke-miterlimit:10;}</style></defs><title>Kapitus_Icons_NormalState</title><path class="cls-1" d="M53.68,146.4l-.48-.14Z"/><path class="cls-1" d="M50.12,145.26l-.21-.07Z"/><path class="cls-1" d="M70.88,149.33c-1.24-.07-2.47-.16-3.69-.28,1.22.12,2.45.21,3.69.28Z"/><path class="cls-1" d="M57.36,147.37l-.78-.18Z"/><path class="cls-1" d="M65.28,148.81c-.57-.07-1.14-.13-1.7-.22C64.14,148.68,64.71,148.74,65.28,148.81Z"/><path class="cls-1" d="M85.44,148.65c-.69.1-1.38.18-2.08.26C84.06,148.83,84.75,148.75,85.44,148.65Z"/><path class="cls-1" d="M61.19,148.18c-.38-.07-.77-.13-1.15-.21C60.42,148.05,60.81,148.11,61.19,148.18Z"/><path class="cls-1" d="M88.72,148.1l-1.65.29Z"/><path class="cls-1" d="M78.57,149.33h0c1.17-.06,2.32-.16,3.48-.27C80.89,149.17,79.74,149.27,78.57,149.33Z"/><path class="cls-1" d="M91.77,147.45c-.4.09-.79.19-1.19.27C91,147.64,91.37,147.54,91.77,147.45Z"/><path class="cls-1" d="M132.14,122.46c-.27.33-.53.66-.8,1,.79-.92,1.56-1.85,2.31-2.81l-1,1.22Z"/><path class="cls-1" d="M41.29,141.5c-.49-.25-1-.49-1.45-.75C40.32,141,40.8,141.25,41.29,141.5Z"/><path class="cls-1" d="M143.5,103.91c-.14.33-.3.66-.45,1-.35.79-.7,1.58-1.07,2.35-.3.61-.61,1.2-.92,1.79s-.5,1-.76,1.46c-.38.7-.79,1.38-1.19,2.07-.21.36-.42.72-.64,1.08-.45.74-.92,1.46-1.4,2.18l-.57.87c-.17.25-.33.51-.51.76A74.28,74.28,0,0,0,149.4,76.93h0A74.06,74.06,0,0,1,143.5,103.91Z"/><path class="cls-1" d="M123.09,131.64c-.71.6-1.43,1.19-2.16,1.76C121.66,132.83,122.38,132.24,123.09,131.64Z"/><path class="cls-1" d="M44.53,143l-1.55-.7Z"/><path class="cls-1" d="M134.39,119.63c-.22.29-.42.59-.65.88.77-1,1.52-2,2.24-3-.34.49-.71,1-1.06,1.43C134.74,119.15,134.57,119.4,134.39,119.63Z"/><path class="cls-1" d="M29.25,133.94l-1-.78Z"/><polygon class="cls-1" points="123.11 131.57 123.12 131.57 123.11 131.57 123.11 131.57"/><path class="cls-1" d="M35.08,138l-1.24-.8Z"/><path class="cls-1" d="M32.11,136,31,135.24Z"/><path class="cls-1" d="M52.3,146l-1-.34c.54.18,1.09.37,1.63.53l-.29-.09Z"/><path class="cls-1" d="M48.94,144.84l-1.09-.42c.55.21,1.09.43,1.65.63l-.4-.15Z"/><path class="cls-1" d="M53.2,146.26l.48.14,1.09.3c-.62-.17-1.24-.34-1.85-.53Z"/><path class="cls-1" d="M124.64,130.25c-.5.45-1,.92-1.52,1.36,1-.81,1.89-1.65,2.81-2.51l-.83.74Z"/><path class="cls-1" d="M45.64,143.53,44.52,143l1.66.73-.51-.22Z"/><path class="cls-1" d="M56.58,147.19l.78.18,1,.23c-.66-.15-1.32-.29-2-.46Z"/><path class="cls-1" d="M5.13,101.87c-.16-.41-.34-.82-.49-1.24q-.51-1.38-1-2.79c-.06-.17-.12-.34-.17-.51-.34-1-.64-2.09-.93-3.15,0-.07,0-.14-.05-.21-.3-1.11-.57-2.24-.82-3.37v0A74.27,74.27,0,0,1,0,76.22,74.3,74.3,0,0,0,16.49,121.5,74.74,74.74,0,0,1,5.92,103.86C5.64,103.2,5.39,102.53,5.13,101.87Z"/><path class="cls-1" d="M31,135.25,29.23,134Z"/><path class="cls-1" d="M38.25,9.5C15.29,21.9,0,46.21,0,74.58A74.76,74.76,0,0,1,38.25,9.5Z"/><path class="cls-1" d="M47.86,144.41c-.55-.21-1.1-.42-1.65-.65C46.76,144,47.31,144.2,47.86,144.41Z"/><path class="cls-1" d="M49.91,145.19l.21.07,1.16.37c-.59-.19-1.18-.38-1.75-.59Z"/><path class="cls-1" d="M38.14,139.82c-.45-.26-.9-.51-1.35-.78C37.24,139.31,37.68,139.56,38.14,139.82Z"/><path class="cls-1" d="M98.2,46.5a36.9,36.9,0,1,0,3.53,53.15l-9.47-7.94a24.61,24.61,0,1,1,2-2.36l9.46,7.94A36.88,36.88,0,0,0,98.2,46.5Z"/><path class="cls-1" d="M113.06,109.17l-7.25-6.09,1,10.84,5.33,4.48L114,120h0l-.27-3.08Z"/><polygon class="cls-1" points="123.06 131.62 123.07 131.61 123.07 131.61 123.06 131.62"/><path class="cls-1" d="M33.81,137.22c-.58-.38-1.15-.77-1.72-1.16C32.66,136.45,33.23,136.84,33.81,137.22Z"/><path class="cls-1" d="M78.43,70.07l0,0a6.15,6.15,0,1,0,.79,8.69A6.12,6.12,0,0,0,78.39,70Z"/><path class="cls-1" d="M91.92,87.41a21.58,21.58,0,1,0-2,2.35l-9.5-8a9.21,9.21,0,1,1,2-2.35Z"/><path class="cls-1" d="M43,142.34l-1.68-.83Z"/><path class="cls-1" d="M39.81,140.76c-.57-.3-1.13-.61-1.69-.92C38.68,140.15,39.24,140.46,39.81,140.76Z"/><path class="cls-1" d="M36.76,139.05c-.58-.33-1.14-.68-1.7-1C35.62,138.37,36.18,138.72,36.76,139.05Z"/><polygon class="cls-1" points="107.79 100.72 115.01 106.78 122.91 106.09 125.84 105.83 124.05 104.33 118.63 99.78 107.79 100.72"/><path class="cls-1" d="M103.7,114.8l-1-11.72a40,40,0,1,1,4.58-5.45l11.71-1,.65,0,6,5A56.95,56.95,0,1,0,75.23,132a56.15,56.15,0,0,0,27.66-7.16,58.28,58.28,0,0,0,6.76-4.49l-5.86-4.91Z"/><path class="cls-1" d="M98.3,145.6c-.78.26-1.56.51-2.36.75C96.74,146.11,97.52,145.86,98.3,145.6Z"/><path class="cls-1" d="M118.23,135.43a74.71,74.71,0,0,1-9.55,5.83A74.71,74.71,0,0,0,118.23,135.43Z"/><path class="cls-1" d="M23.85,129.37l-.71-.68Z"/><path class="cls-1" d="M26.5,131.72l-.86-.75Z"/><path class="cls-1" d="M120.65,133.63c-.72.55-1.44,1.1-2.18,1.63C119.21,134.73,119.93,134.18,120.65,133.63Z"/><path class="cls-1" d="M104.1,127h0A57.17,57.17,0,0,1,92,132.05l-.43.12c-.41.12-.83.24-1.24.34l-1.34.34-.35.08a59.05,59.05,0,0,1-13.33,1.52h-.11a59.39,59.39,0,0,1,0-118.78h.11A59.39,59.39,0,0,1,134.55,72v.22c0,.94.07,1.87.07,2.82h0c0,.68,0,1.36,0,2s-.05,1.11-.09,1.66c0,.12,0,.23,0,.34a58.92,58.92,0,0,1-3.14,15.43v0L130.82,96c-.07.17-.13.34-.19.51l-.36.88c-.14.35-.28.7-.43,1,0,.1-.09.19-.13.29-.67,1.54-1.4,3-2.19,4.52l8.9,7.46h0a71.63,71.63,0,1,0-15.89,18.79L111.62,122A58.24,58.24,0,0,1,104.1,127Z"/><path class="cls-1" d="M120.58,109.39l-2.23.2,1.26,1,1.29,1.08,1.08-.09H122c.64-.82,1.26-1.66,1.85-2.52h0Z"/><path class="cls-1" d="M21.32,126.9l-.54-.57Z"/><path class="cls-1" d="M16.63,121.63l-.12-.15Z"/><path class="cls-1" d="M18.92,124.32l-.36-.41Z"/><path class="cls-1" d="M118.92,114.08l-1.3-1.08-1.21-1,.19,2.1.28,3.25v.07c.73-.72,1.43-1.46,2.12-2.21v-.07Z"/><path class="cls-1" d="M120.9,133.38l-.28.23Z"/><path class="cls-1" d="M118.44,135.25l-.24.17Z"/><path class="cls-1" d="M108.65,141.24l-.75.39Z"/><path class="cls-1" d="M131.32,123.41l-.12.14Z"/><path class="cls-1" d="M82.11,149.06h0l1.14-.13-.15,0Z"/><path class="cls-1" d="M85.64,148.62h-.09c.44-.06.89-.13,1.33-.21l-.18,0Z"/><path class="cls-1" d="M133.73,120.47l-.08.1Z"/><path class="cls-1" d="M28.22,133.17c-.59-.47-1.17-.94-1.74-1.43C27.05,132.23,27.63,132.7,28.22,133.17Z"/><path class="cls-1" d="M99.94,145c-.55.2-1.1.38-1.66.57C98.84,145.41,99.39,145.23,99.94,145Z"/><path class="cls-1" d="M95.91,146.35c-.73.21-1.45.43-2.19.62C94.46,146.78,95.18,146.56,95.91,146.35Z"/><path class="cls-1" d="M125.73,124.67c-.29.3-.58.6-.88.89C125.15,125.27,125.44,125,125.73,124.67Z"/><path class="cls-1" d="M103,143.85l-1.28.51Z"/><path class="cls-1" d="M105.93,142.57c-.35.16-.71.33-1.07.48C105.22,142.9,105.58,142.73,105.93,142.57Z"/><path class="cls-1" d="M128.56,121.6c-.54.63-1.1,1.24-1.66,1.84C127.47,122.84,128,122.23,128.56,121.6Z"/><path class="cls-1" d="M103.61,143.61l-.59.25c.63-.25,1.25-.52,1.87-.8l-.88.38Z"/><path class="cls-1" d="M18.53,123.93c-.65-.74-1.29-1.5-1.92-2.27C17.24,122.43,17.88,123.19,18.53,123.93Z"/><path class="cls-1" d="M106.93,142.12l-1,.46c.66-.3,1.31-.61,2-.93l-.71.34Z"/><path class="cls-1" d="M100.35,144.9,100,145c.6-.21,1.18-.45,1.78-.67l-1.23.46Z"/><path class="cls-1" d="M20.75,126.35c-.63-.66-1.25-1.32-1.85-2C19.5,125,20.12,125.69,20.75,126.35Z"/><path class="cls-1" d="M126,129l-.1.09Z"/><path class="cls-1" d="M89.22,148l-.25.05,1.39-.28-.22,0Z"/><path class="cls-1" d="M25.61,131c-.6-.52-1.2-1.05-1.78-1.59C24.41,129.94,25,130.47,25.61,131Z"/><path class="cls-1" d="M128.76,126.23l-.14.15Z"/><path class="cls-1" d="M130.59,119.17c-.4.51-.81,1-1.23,1.51C129.78,120.18,130.19,119.68,130.59,119.17Z"/><path class="cls-1" d="M93,147.15l-.64.16,1.37-.34-.24.06Z"/><path class="cls-1" d="M23.11,128.71c-.61-.59-1.21-1.17-1.8-1.78C21.9,127.54,22.5,128.12,23.11,128.71Z"/><path class="cls-1" d="M90.58,147.72c.4-.08.79-.18,1.19-.27l.58-.14-2,.46Z"/><path class="cls-1" d="M134.82,113.29c-1.2,1.86-2.48,3.65-3.84,5.39C132.34,116.94,133.62,115.15,134.82,113.29Z"/><path class="cls-1" d="M59.2,147.79l-.85-.19,1.55.35-.13,0Z"/><path class="cls-1" d="M83.36,148.91c.7-.08,1.39-.16,2.08-.26l.09,0c-.77.11-1.54.21-2.32.3Z"/><path class="cls-1" d="M82.05,149.06h0c-1.16.11-2.33.21-3.5.27C79.74,149.27,80.89,149.17,82.05,149.06Z"/><path class="cls-1" d="M60,148c.38.08.77.14,1.15.21l.87.15c-.72-.12-1.43-.24-2.14-.39Z"/><path class="cls-1" d="M127.26,127.78c-.41.4-.8.82-1.22,1.21.88-.83,1.74-1.69,2.58-2.56-.28.3-.59.58-.88.88Z"/><path class="cls-1" d="M55.72,147l-1-.26c.53.14,1.06.3,1.6.43l-.2,0Z"/><path class="cls-1" d="M63.58,148.59c.56.09,1.13.15,1.7.22l.69.08c-.82-.09-1.64-.19-2.45-.31Z"/><path class="cls-1" d="M67.19,149.05c1.22.12,2.45.21,3.69.28-1.25-.07-2.48-.16-3.71-.29Z"/><path class="cls-1" d="M130.25,124.64l-.49.54c-.33.36-.65.74-1,1.09.83-.87,1.64-1.75,2.43-2.66C130.89,124,130.57,124.3,130.25,124.64Z"/><path class="cls-1" d="M66.5,149,66,148.9l1.19.14h0Z"/><path class="cls-1" d="M62.76,148.46l-.71-.13c.48.08,1,.18,1.45.25h-.06Z"/><path class="cls-1" d="M122.87,127.45l0,0,0,0Z"/><path class="cls-1" d="M87.07,148.39l1.65-.29.23,0c-.69.13-1.38.26-2.08.37Z"/><path class="cls-2" d="M0,74.79c0,.48,0,.95,0,1.43,0-.07,0-.14,0-.21Z"/><path class="cls-2" d="M149.46,74.69c0,.75,0,1.49-.06,2.24,0-.75.06-1.49.06-2.24A74.69,74.69,0,0,0,38.25,9.5,73.75,73.75,0,0,1,73.47.71C114.75.71,149.46,33.42,149.46,74.69Z"/><path class="cls-2" d="M78.57,149.33c-.7,0-1.4,0-2.1,0C77.17,149.36,77.87,149.36,78.57,149.33Z"/><path class="cls-2" d="M70.88,149.33h0c1.27.06,2.56.09,3.84.09s2.57,0,3.85-.09h0c-1.28.06-2.56.09-3.85.09S72.15,149.39,70.88,149.33Z"/><path class="cls-2" d="M73,149.38c-.7,0-1.4,0-2.1,0C71.58,149.36,72.28,149.36,73,149.38Z"/><path class="cls-2" d="M137.07,115.83l-.57.87Z"/><path class="cls-2" d="M139.11,112.57c-.21.36-.42.72-.64,1.08C138.69,113.29,138.9,112.93,139.11,112.57Z"/><path class="cls-2" d="M132.65,121.85l-.51.61Z"/><path class="cls-2" d="M134.92,118.91c-.18.24-.35.49-.53.72C134.57,119.4,134.74,119.15,134.92,118.91Z"/><path class="cls-2" d="M141.06,109c-.25.49-.5,1-.76,1.46C140.56,110,140.81,109.53,141.06,109Z"/><path class="cls-2" d="M143.05,104.9c-.35.79-.7,1.58-1.07,2.35C142.35,106.48,142.7,105.69,143.05,104.9Z"/><path class="cls-2" d="M149.4,76.93a74.43,74.43,0,0,1-5.9,27A74.06,74.06,0,0,0,149.4,76.93Z"/><path class="cls-2" d="M67.14,149,66.5,149Z"/><path class="cls-2" d="M93.5,147l-.49.12Z"/><path class="cls-2" d="M100.52,144.83l-.17.07Z"/><path class="cls-2" d="M104,143.44l-.4.17Z"/><path class="cls-2" d="M90.14,147.82l-.92.18Z"/><path class="cls-2" d="M86.7,148.45l-1.06.17Z"/><path class="cls-2" d="M127.74,127.31l-.48.47Z"/><path class="cls-2" d="M130.25,124.64l-.49.54Z"/><path class="cls-2" d="M125.1,129.84l-.46.41Z"/><path class="cls-2" d="M107.21,142l-.28.13Z"/><path class="cls-2" d="M3.51,97.33Q3,95.77,2.58,94.18C2.87,95.24,3.17,96.29,3.51,97.33Z"/><path class="cls-2" d="M45.67,143.55l0,0Z"/><path class="cls-2" d="M5.92,103.86c-.28-.66-.53-1.33-.79-2C5.39,102.53,5.64,103.2,5.92,103.86Z"/><path class="cls-2" d="M4.64,100.63q-.51-1.38-1-2.79Q4.13,99.25,4.64,100.63Z"/><path class="cls-2" d="M2.53,94c-.3-1.11-.57-2.24-.82-3.37C2,91.73,2.23,92.86,2.53,94Z"/><path class="cls-2" d="M52.6,146.08l-.3-.1Z"/><path class="cls-2" d="M56.16,147.09l-.44-.12Z"/><path class="cls-2" d="M59.77,147.92l-.57-.13Z"/><path class="cls-2" d="M63.44,148.57l-.68-.11Z"/><path class="cls-2" d="M49.1,144.9l-.16-.06Z"/><path class="cls-2" d="M83.07,149l-1,.11Z"/><path class="cls-2" d="M0,76.22A1.48,1.48,0,0,0,0,76c0,.07,0,.14,0,.21A74.27,74.27,0,0,0,1.7,90.55,75.06,75.06,0,0,1,0,76.22Z"/><path class="cls-2" d="M0,74.58v.1H0c0,.51,0,1,0,1.53a74.45,74.45,0,0,0,16.48,45.26l.12.15c.63.78,1.27,1.53,1.93,2.28l.36.41c.6.68,1.23,1.35,1.86,2l.54.57c.6.61,1.21,1.2,1.82,1.79l.71.68c.59.54,1.19,1.07,1.79,1.6l.86.75c.58.49,1.16,1,1.76,1.44l1,.78,1.74,1.3,1.12.79c.57.4,1.15.79,1.73,1.17l1.24.8c.56.35,1.13.7,1.71,1s.9.52,1.35.78,1.13.63,1.7.93,1,.5,1.45.75l1.69.83,1.55.7,1.68.73c.55.23,1.1.44,1.65.65s1.11.43,1.67.63,1.16.4,1.75.59,1.09.37,1.64.54,1.23.36,1.85.53l1.62.44c.65.17,1.31.31,2,.46s1,.24,1.56.34c.71.15,1.42.27,2.14.39.48.08,1,.18,1.46.25.81.12,1.63.22,2.45.31.4.05.8.11,1.2.15,1.23.13,2.46.22,3.71.29s2.55.09,3.84.09,2.57,0,3.85-.09,2.34-.16,3.5-.27l1.14-.13c.78-.09,1.55-.19,2.32-.3.45-.06.9-.14,1.34-.21.7-.11,1.39-.24,2.08-.37l1.4-.28,2-.46,1.37-.34c.74-.19,1.46-.41,2.19-.62s1.59-.49,2.37-.75c.56-.19,1.11-.37,1.66-.57s1.19-.44,1.78-.67l1.28-.51c.62-.25,1.24-.52,1.86-.8.36-.15.72-.32,1.07-.48.66-.31,1.32-.61,2-.94l.75-.39a74.64,74.64,0,0,0,9.55-5.82l.24-.17c.74-.54,1.46-1.08,2.18-1.64l.28-.23c.73-.57,1.46-1.16,2.16-1.76h0l-2.54-2.13h0a71.44,71.44,0,1,1,15.89-18.79l2.52,2.11A74.24,74.24,0,0,0,149.4,76.93h0c0-.75.06-1.49.06-2.24,0-41.27-34.71-74-76-74A73.75,73.75,0,0,0,38.25,9.5,74.76,74.76,0,0,0,0,74.58v0Z"/><path class="cls-1" d="M131.73,110.77l-2.54-2.13-5.3.46c-.59.86-1.21,1.7-1.85,2.52Z"/><path class="cls-1" d="M56.58,147.19l-.22-.05c.66.17,1.33.31,2,.46l-1-.23Z"/><path class="cls-1" d="M35.06,138l-1.25-.8Z"/><path class="cls-1" d="M38.12,139.84l-1.36-.79Z"/><path class="cls-1" d="M32.09,136.06,31,135.25Z"/><path class="cls-1" d="M44.52,143l-1.57-.7Z"/><path class="cls-1" d="M47.85,144.42l-1.67-.65Z"/><path class="cls-1" d="M53.2,146.26l-.31-.09c.62.19,1.25.36,1.87.54l-1.08-.31Z"/><path class="cls-1" d="M49.91,145.19l-.41-.14c.58.21,1.17.4,1.76.59l-1.14-.38Z"/><path class="cls-1" d="M23.83,129.4l-.72-.69Z"/><path class="cls-1" d="M41.27,141.51c-.49-.24-1-.49-1.46-.75C40.29,141,40.78,141.27,41.27,141.51Z"/><path class="cls-1" d="M29.23,134l-1-.8Z"/><path class="cls-1" d="M21.31,126.93l-.56-.58Z"/><path class="cls-1" d="M26.48,131.74l-.87-.75Z"/><path class="cls-1" d="M18.9,124.35l-.37-.42Z"/><path class="cls-1" d="M63.58,148.59H63.5c.82.13,1.64.22,2.47.32l-.69-.09C64.71,148.74,64.14,148.68,63.58,148.59Z"/><path class="cls-1" d="M16.61,121.66l-.12-.16Z"/><path class="cls-1" d="M67.16,149c1.23.13,2.47.22,3.72.29-1.24-.07-2.47-.16-3.69-.28Z"/><path class="cls-1" d="M60,148l-.14,0c.71.14,1.43.26,2.15.38l-.86-.15C60.81,148.11,60.42,148.05,60,148Z"/><path class="cls-1" d="M49.53,145l-.43-.14.4.15.41.14Z"/><path class="cls-1" d="M5.13,101.87c-.16-.41-.34-.82-.49-1.24C4.79,101.05,5,101.46,5.13,101.87Z"/><path class="cls-1" d="M54.77,146.7l-1.09-.3,1.08.31,1,.26C55.4,146.88,55.09,146.78,54.77,146.7Z"/><path class="cls-1" d="M47.86,144.41c-.55-.21-1.1-.42-1.65-.65l-.54-.21.51.22,1.67.65,1.09.42Z"/><path class="cls-1" d="M51.28,145.63l-1.16-.37,1.14.38,1,.34C52,145.87,51.62,145.75,51.28,145.63Z"/><path class="cls-1" d="M52.92,146.17l-.32-.09.29.09.31.09Z"/><path class="cls-1" d="M44.53,143l-1.55-.7-1.69-.83c-.49-.25-1-.49-1.45-.75s-1.14-.61-1.7-.93-.9-.51-1.35-.78-1.15-.69-1.71-1l-1.24-.8c-.58-.38-1.16-.77-1.73-1.17L31,135.24l-1.74-1.3-1-.78c-.6-.47-1.18-.95-1.76-1.44l-.86-.75c-.6-.53-1.2-1.06-1.79-1.6l-.71-.68c-.61-.59-1.22-1.18-1.82-1.79l-.54-.57c-.63-.66-1.26-1.33-1.86-2l-.36-.41c-.66-.75-1.3-1.5-1.93-2.28l-.12-.15A74.89,74.89,0,0,1,5.92,103.86,74.74,74.74,0,0,0,16.49,121.5l.12.16c.63.77,1.27,1.53,1.92,2.27l.37.42c.6.68,1.22,1.34,1.85,2l.56.58c.59.61,1.19,1.19,1.8,1.78l.72.69c.58.54,1.18,1.07,1.78,1.59l.87.75c.57.49,1.15,1,1.74,1.43l1,.8L31,135.25l1.13.81c.57.39,1.14.78,1.72,1.16l1.25.8c.56.35,1.12.7,1.7,1l1.36.79c.56.31,1.12.62,1.69.92s1,.51,1.46.75l1.68.83,1.57.7,1.12.49C45.26,143.37,44.9,143.19,44.53,143Z"/><path class="cls-1" d="M3.68,97.84c-.06-.17-.12-.34-.17-.51C3.56,97.5,3.62,97.67,3.68,97.84Z"/><path class="cls-1" d="M58.36,147.6l-1-.23,1,.23.85.19Z"/><path class="cls-1" d="M59.92,147.94l-.15,0,.13,0,.14,0Z"/><path class="cls-1" d="M63.52,148.58h0Z"/><path class="cls-1" d="M67.17,149h0Z"/><path class="cls-1" d="M66,148.89l-.69-.08.69.09.53.06Z"/><path class="cls-1" d="M62.06,148.33l-.87-.15.86.15.71.13Z"/><path class="cls-1" d="M56.39,147.14l-.23,0,.2,0,.22.05Z"/><path class="cls-1" d="M1.71,90.6v0Z"/><path class="cls-1" d="M2.58,94.18c0-.07,0-.14-.05-.21S2.57,94.11,2.58,94.18Z"/><path class="cls-2" d="M48.94,144.84l.16.06.43.14c-.56-.2-1.12-.42-1.67-.63Z"/><path class="cls-2" d="M66.5,149l.64.08h0c-.4,0-.8-.1-1.2-.15Z"/><path class="cls-2" d="M45.64,143.53l0,0,.54.21L44.53,143C44.9,143.19,45.26,143.37,45.64,143.53Z"/><path class="cls-2" d="M62.76,148.46l.68.11h.08c-.49-.07-1-.17-1.46-.25Z"/><path class="cls-2" d="M43,142.33l-1.69-.83Z"/><path class="cls-2" d="M59.2,147.79l.57.13.15,0c-.53-.1-1-.23-1.56-.34Z"/><path class="cls-2" d="M39.84,140.75c-.57-.3-1.14-.61-1.7-.93C38.7,140.14,39.27,140.45,39.84,140.75Z"/><path class="cls-2" d="M55.72,147l.44.12.23,0-1.62-.44C55.09,146.78,55.4,146.88,55.72,147Z"/><path class="cls-2" d="M52.3,146l.3.1.32.09c-.55-.17-1.1-.35-1.64-.54C51.62,145.75,52,145.87,52.3,146Z"/><path class="cls-2" d="M31,135.24l-1.74-1.3Z"/><path class="cls-2" d="M25.64,131c-.6-.53-1.2-1.06-1.79-1.6C24.44,129.91,25,130.44,25.64,131Z"/><path class="cls-2" d="M23.14,128.69c-.61-.59-1.22-1.18-1.82-1.79C21.92,127.51,22.53,128.1,23.14,128.69Z"/><path class="cls-2" d="M28.26,133.16c-.6-.47-1.18-.95-1.76-1.44C27.08,132.21,27.66,132.69,28.26,133.16Z"/><path class="cls-2" d="M1.7,90.55v0c.25,1.13.52,2.26.82,3.37,0,.07,0,.14.05.21q.44,1.59.93,3.15c.05.17.11.34.17.51q.45,1.41,1,2.79c.15.42.33.83.49,1.24.26.66.51,1.33.79,2a74.89,74.89,0,0,0,10.59,17.62A74.45,74.45,0,0,1,0,76.22,75.06,75.06,0,0,0,1.7,90.55Z"/><path class="cls-2" d="M18.56,123.91c-.66-.75-1.3-1.5-1.93-2.28C17.26,122.41,17.9,123.16,18.56,123.91Z"/><path class="cls-2" d="M20.78,126.33c-.63-.66-1.26-1.33-1.86-2C19.52,125,20.15,125.67,20.78,126.33Z"/><path class="cls-2" d="M33.84,137.2c-.58-.38-1.16-.77-1.73-1.17C32.68,136.43,33.26,136.82,33.84,137.2Z"/><path class="cls-2" d="M36.79,139c-.58-.34-1.15-.69-1.71-1C35.64,138.35,36.21,138.7,36.79,139Z"/><path class="cls-1" d="M117.36,122.82l2.51,2.1-.86-9.73c-.69.75-1.39,1.49-2.12,2.21Z"/><path class="cls-1" d="M122.12,114.75l.75,12.7,0,0c.67-.6,1.32-1.23,2-1.86.3-.29.59-.59.88-.89s.79-.81,1.17-1.23c.56-.6,1.12-1.21,1.66-1.84.27-.3.54-.61.8-.92.42-.5.83-1,1.23-1.51l.39-.49c1.36-1.74,2.64-3.53,3.84-5.39h0Z"/><polygon class="cls-2" points="134.81 113.29 134.82 113.28 134.82 113.28 134.81 113.29"/><path class="cls-2" d="M129.36,120.68c-.26.31-.53.62-.8.92C128.83,121.3,129.1,121,129.36,120.68Z"/><path class="cls-2" d="M131,118.68l-.39.49Z"/><path class="cls-1" d="M131.34,123.44a2.09,2.09,0,0,0-.14.17A2.09,2.09,0,0,1,131.34,123.44Z"/><path class="cls-1" d="M136,117.46v0Z"/><path class="cls-1" d="M128.77,126.27l-.15.16Z"/><path class="cls-1" d="M133.74,120.51l-.09.12Z"/><path class="cls-1" d="M126,129l-.11.11Z"/><polygon class="cls-1" points="123.12 131.62 123.12 131.61 123.12 131.62 123.12 131.62"/><path class="cls-1" d="M123.12,131.57h0v.05h0c.52-.44,1-.91,1.52-1.36C124.15,130.7,123.63,131.13,123.12,131.57Z"/><path class="cls-1" d="M133.73,120.47l-.08.1c-.33.43-.66.86-1,1.28l1-1.22.09-.12c.23-.29.43-.59.65-.88C134.17,119.92,134,120.19,133.73,120.47Z"/><path class="cls-1" d="M131.32,123.41l-.12.14c-.32.37-.63.74-.95,1.09.32-.34.64-.68.95-1a2.09,2.09,0,0,1,.14-.17c.27-.32.53-.65.8-1C131.88,122.78,131.6,123.09,131.32,123.41Z"/><path class="cls-1" d="M138.47,113.65c-.45.74-.92,1.46-1.4,2.18C137.55,115.11,138,114.39,138.47,113.65Z"/><path class="cls-1" d="M134.92,118.91c.35-.47.72-.94,1.06-1.43v0c.18-.25.34-.51.51-.76C136,117.45,135.46,118.18,134.92,118.91Z"/><path class="cls-1" d="M143.5,103.91c-.14.33-.3.66-.45,1C143.2,104.57,143.36,104.24,143.5,103.91Z"/><path class="cls-1" d="M142,107.25c-.3.61-.61,1.2-.92,1.79C141.37,108.45,141.68,107.86,142,107.25Z"/><path class="cls-1" d="M140.3,110.5c-.38.7-.79,1.38-1.19,2.07C139.51,111.88,139.92,111.2,140.3,110.5Z"/><path class="cls-1" d="M87.07,148.39l-.19,0c.7-.11,1.4-.24,2.09-.37l-.25,0Z"/><path class="cls-1" d="M90.58,147.72l-.22.05c.68-.14,1.34-.3,2-.46l-.6.14C91.37,147.54,91,147.64,90.58,147.72Z"/><path class="cls-1" d="M83.36,148.91l-.14,0c.78-.09,1.55-.18,2.33-.3l-.11,0C84.75,148.75,84.06,148.83,83.36,148.91Z"/><polygon class="cls-1" points="123.09 131.64 123.09 131.63 123.09 131.63 123.09 131.64"/><path class="cls-1" d="M78.57,149.33c1.18-.06,2.35-.16,3.51-.27h0C80.89,149.17,79.74,149.27,78.57,149.33Z"/><path class="cls-1" d="M100,145c-.55.2-1.11.38-1.67.56C98.86,145.42,99.42,145.24,100,145Z"/><path class="cls-1" d="M108.68,141.26l-.76.39Z"/><path class="cls-1" d="M106,142.58c-.36.16-.71.33-1.07.48C105.25,142.91,105.6,142.74,106,142.58Z"/><path class="cls-1" d="M103,143.86c-.42.18-.85.34-1.27.51C102.17,144.2,102.6,144,103,143.86Z"/><path class="cls-1" d="M118.47,135.26l-.24.17Z"/><path class="cls-1" d="M120.93,133.4l-.28.23Z"/><path class="cls-1" d="M95.94,146.35c-.73.21-1.46.43-2.2.62C94.48,146.78,95.21,146.56,95.94,146.35Z"/><path class="cls-1" d="M99.94,145c-.55.2-1.1.38-1.66.57q-1.17.39-2.37.75c-.73.21-1.45.43-2.19.62l-.22.06.24-.06c.74-.19,1.47-.41,2.2-.62s1.58-.49,2.36-.75c.56-.18,1.12-.36,1.67-.56l.38-.14Z"/><path class="cls-1" d="M92.35,147.31l-.58.14.6-.14.64-.16Z"/><path class="cls-1" d="M89,148.05l-.23,0,.25,0,.25-.05Z"/><path class="cls-1" d="M90.35,147.77l-.21,0,.22,0,.22-.05Z"/><path class="cls-1" d="M86.87,148.42l-.17,0,.18,0,.19,0Z"/><path class="cls-1" d="M105.93,142.57c-.35.16-.71.33-1.07.48s-.56.27-.85.39l.88-.38c.36-.15.71-.32,1.07-.48l1-.46C106.6,142.28,106.26,142.42,105.93,142.57Z"/><path class="cls-1" d="M103,143.85l-1.28.51c-.4.15-.79.32-1.2.47l1.23-.46c.42-.17.85-.33,1.27-.51l.59-.25C103.41,143.7,103.2,143.77,103,143.85Z"/><path class="cls-1" d="M82.07,149.06h0Z"/><path class="cls-1" d="M83.21,148.93l-.14,0,.15,0,.14,0Z"/><path class="cls-1" d="M123.07,131.61h0c-.7.6-1.42,1.19-2.16,1.76l-.28.23c-.72.56-1.44,1.1-2.18,1.64l-.24.17a73.52,73.52,0,0,1-9.55,5.82l-.75.39-.69.36.71-.34.76-.39a74.71,74.71,0,0,0,9.55-5.83l.24-.17c.74-.53,1.46-1.08,2.18-1.63l.28-.23c.73-.57,1.45-1.16,2.16-1.76h0Z"/><path class="cls-1" d="M85.53,148.63l-.09,0,.11,0h0Z"/><path class="cls-2" d="M98.28,145.6q-1.17.39-2.37.75Q97.11,146,98.28,145.6Z"/><path class="cls-2" d="M120.62,133.61c-.72.56-1.44,1.1-2.18,1.64C119.18,134.71,119.9,134.17,120.62,133.61Z"/><path class="cls-2" d="M93,147.15l.49-.12.22-.06-1.37.34Z"/><path class="cls-2" d="M85.64,148.62l1.06-.17.17,0c-.44.07-.89.15-1.34.21Z"/><path class="cls-2" d="M82.11,149.06l1-.11.14,0-1.14.13Z"/><path class="cls-2" d="M123.06,131.62c-.7.6-1.43,1.19-2.16,1.76C121.64,132.81,122.36,132.22,123.06,131.62Z"/><path class="cls-2" d="M106.93,142.12l.28-.13.69-.36c-.65.33-1.31.63-2,.94C106.26,142.42,106.6,142.28,106.93,142.12Z"/><path class="cls-2" d="M118.2,135.42a74.64,74.64,0,0,1-9.55,5.82A73.52,73.52,0,0,0,118.2,135.42Z"/><path class="cls-2" d="M100.35,144.9l.17-.07c.41-.15.8-.32,1.2-.47-.59.23-1.18.46-1.78.67Z"/><path class="cls-2" d="M103.61,143.61l.4-.17c.29-.12.57-.26.85-.39-.62.28-1.24.55-1.86.8C103.2,143.77,103.41,143.7,103.61,143.61Z"/><path class="cls-2" d="M89.22,148l.92-.18.21,0-1.4.28Z"/><path class="cls-2" d="M73,149.38c.58,0,1.16,0,1.74,0s1.17,0,1.75,0c-.58,0-1.16,0-1.75,0S73.56,149.39,73,149.38Z"/><path class="cls-2" d="M74.72,149.42c-1.28,0-2.57,0-3.84-.09h0c.7,0,1.4,0,2.1,0s1.16,0,1.74,0,1.17,0,1.75,0,1.4,0,2.1,0h0C77.29,149.39,76,149.42,74.72,149.42Z"/><path class="cls-2" d="M0,74.69H0v.11L0,76C0,75.57,0,75.13,0,74.69Z"/><path class="cls-2" d="M0,74.69c0,.44,0,.88,0,1.32a1.48,1.48,0,0,1,0,.21c0-.51,0-1,0-1.53Z"/><path class="cls-2" d="M114,120v0h0Z"/><path class="cls-2" d="M88.67,132.93a60.18,60.18,0,0,1-13.33,1.52A59.05,59.05,0,0,0,88.67,132.93Z"/><path class="cls-2" d="M75.24,15.67Z"/><path class="cls-2" d="M134.62,75.07h0c0,.68,0,1.36,0,2C134.61,76.43,134.62,75.75,134.62,75.07Z"/><path class="cls-2" d="M127.51,103.21v0c.79-1.48,1.52-3,2.19-4.52C129,100.25,128.3,101.75,127.51,103.21Z"/><path class="cls-2" d="M104.1,127h0a58.24,58.24,0,0,0,7.52-5l0,0A61.27,61.27,0,0,1,104.1,127Z"/><path class="cls-2" d="M134.55,72A59.39,59.39,0,0,0,75.34,15.67,59.41,59.41,0,0,1,134.55,72Z"/><path class="cls-2" d="M134.49,79.1a59.27,59.27,0,0,1-3.14,15.43A58.92,58.92,0,0,0,134.49,79.1Z"/><path class="cls-2" d="M16.14,74.77a59.38,59.38,0,0,1,59.1-59.1h0a59.39,59.39,0,0,0,0,118.78h0A59.39,59.39,0,0,1,16.14,74.77Z"/><path class="cls-2" d="M104.1,127h0A58.29,58.29,0,0,1,92,132.05,57.17,57.17,0,0,0,104.1,127Z"/><path class="cls-2" d="M134.62,75.06c0-1,0-1.88-.07-2.82,0,.94.07,1.88.07,2.83Z"/><path class="cls-3" d="M109.65,120.35a58.28,58.28,0,0,1-6.76,4.49,57,57,0,0,1-49.82,2.68,57.08,57.08,0,1,1,72.52-25.92l1.92,1.61c.79-1.46,1.53-3,2.2-4.5,0-.1.09-.19.13-.29.15-.35.29-.7.43-1l.36-.88c.06-.17.12-.34.19-.51l.52-1.42v0a59.27,59.27,0,0,0,3.14-15.43c0-.11,0-.22,0-.34,0-.55.07-1.1.09-1.66s0-1.35,0-2c0-.95,0-1.89-.07-2.83V72A59.41,59.41,0,0,0,75.34,15.67h-.1a59.39,59.39,0,0,0,0,118.78h.1a60.18,60.18,0,0,0,13.33-1.52l.35-.08,1.34-.34c.41-.1.83-.22,1.24-.34l.43-.12A58.29,58.29,0,0,0,104.1,127a61.27,61.27,0,0,0,7.48-5Z"/><path class="cls-2" d="M123.12,131.66v0l0,0Z"/><path class="cls-2" d="M123.1,131.64h0l0,0h0Z"/><path class="cls-2" d="M123.1,131.64l0,0v-.05l-.05,0Z"/><path class="cls-2" d="M122.87,127.45l-.75-12.7,12.7-1.47h0c.55-.85,1.08-1.72,1.6-2.59l-8.9-7.46a58.32,58.32,0,0,1-3.63,5.87l5.3-.46,2.54,2.13-9.69.85q-1.44,1.84-3,3.57l.86,9.73-2.51-2.1-.47-5.42a59.23,59.23,0,0,1-5.27,4.6l8.91,7.48h0C121.34,128.81,122.11,128.14,122.87,127.45Z"/><path class="cls-2" d="M120.53,129.48Z"/><polygon class="cls-2" points="134.82 113.28 134.82 113.28 134.82 113.28 134.82 113.28"/><path class="cls-2" d="M134.82,113.28c.55-.85,1.08-1.72,1.6-2.59h0C135.9,111.56,135.37,112.43,134.82,113.28Z"/><path class="cls-2" d="M134.82,113.28l4.12-.47h0l-2.52-2.11c-.52.87-1,1.74-1.6,2.59Z"/><polygon class="cls-2" points="138.94 112.81 138.94 112.81 138.94 112.81 138.94 112.81"/><path class="cls-2" d="M123.07,131.61h0l.05,0h0Z"/><path class="cls-2" d="M120.55,129.47c.79-.66,1.56-1.33,2.32-2h0C122.11,128.14,121.34,128.81,120.55,129.47Z"/><path class="cls-2" d="M122.87,127.45c-.76.69-1.53,1.36-2.32,2h0l2.54,2.13.05,0Z"/><path class="cls-2" d="M119,115.12v.07q1.59-1.72,3-3.57H122C121,112.83,120,114,119,115.12Z"/><path class="cls-2" d="M114,120v0c-.79.68-1.6,1.34-2.42,2l0,0a59.23,59.23,0,0,0,5.27-4.6v-.07C116,118.24,115,119.13,114,120Z"/><path class="cls-2" d="M123.85,109.11h0a58.32,58.32,0,0,0,3.63-5.87v0A60.45,60.45,0,0,1,123.85,109.11Z"/><path class="cls-2" d="M115,106.78l-7.22-6.06,10.84-.94,5.42,4.55c0-.06.07-.11.1-.16.5-.84,1-1.7,1.44-2.57l-6-5-.65,0-11.71,1a40,40,0,1,0-4.58,5.45l1,11.72.09.64,5.86,4.91c.83-.63,1.65-1.28,2.44-1.95l-5.33-4.48-1-10.84,7.25,6.09.68,7.73c1-.91,1.94-1.85,2.86-2.82l-.19-2.1,1.21,1c.69-.77,1.35-1.56,2-2.36l-1.26-1,2.23-.2c.82-1.07,1.59-2.17,2.33-3.3ZM103.7,97.29l-9.46-7.94a24.61,24.61,0,1,0-2,2.36l9.47,7.94a37,37,0,1,1,2-2.36ZM79.13,66.81a9.23,9.23,0,1,0,1.31,15l9.5,8a21.49,21.49,0,1,1,2-2.35l-9.5-8A9.22,9.22,0,0,0,79.13,66.81Zm.05,11.92A6.15,6.15,0,1,1,78.39,70l0,0A6.14,6.14,0,0,1,79.18,78.73Z"/><path class="cls-2" d="M124.15,104.17s-.07.1-.1.16l1.79,1.5-2.93.26c-.74,1.13-1.51,2.23-2.33,3.3l3.27-.28a60.45,60.45,0,0,0,3.66-5.9l-1.92-1.61C125.13,102.47,124.65,103.33,124.15,104.17Z"/><path class="cls-2" d="M109.65,120.35l1.93,1.62c.82-.64,1.63-1.3,2.42-2l-1.91-1.59C111.3,119.07,110.48,119.72,109.65,120.35Z"/><path class="cls-2" d="M118.92,114.08l.09,1c1-1.13,2-2.29,3-3.49l-1.08.09-1.29-1.08c-.64.8-1.3,1.59-2,2.36Z"/><path class="cls-2" d="M114,120c1-.85,1.94-1.74,2.87-2.65l-.28-3.25c-.92,1-1.88,1.91-2.86,2.82Z"/></svg>