<?xml version="1.0" encoding="utf-8"?>
<svg id="Layer_1" data-name="Layer 1" xmlns="http://www.w3.org/2000/svg" viewBox="0 0 149.47 149.47"><defs><style>.cls-1{fill:none;}.cls-2{fill:#aa4269;}</style></defs><title>Kapitus_Icons_NormalState</title><g id="Ellipse_184" data-name="Ellipse 184"><path class="cls-1" d="M73.47.71c41.28,0,76,32.71,76,74A74.74,74.74,0,0,1,0,74.69C0,33.42,32.2.71,73.47.71Z"/><path class="cls-2" d="M74.72,149.42a74.73,74.73,0,1,1,74.74-74.73A74.82,74.82,0,0,1,74.72,149.42Zm0-146.19a71.46,71.46,0,1,0,71.46,71.46A71.55,71.55,0,0,0,74.72,3.23Z"/></g><path id="noun_protected_485533_000000" data-name="noun protected 485533 000000" class="cls-2" d="M74,121a38.1,38.1,0,0,0,38-38V49.15a1.54,1.54,0,0,0-1-1.44L74.67,32.48a1.34,1.34,0,0,0-1.17,0L36.91,47.71a1.53,1.53,0,0,0-1,1.44V82.94A38.23,38.23,0,0,0,74,121ZM39.17,50.14,74,35.63l34.88,14.6V82.94a34.88,34.88,0,1,1-69.75-.09ZM63.32,94.75H84.67a4.23,4.23,0,0,0,4.24-4.23h0v-12a4.23,4.23,0,0,0-4.23-4.24h-.09V68.88a10.55,10.55,0,0,0-21.09,0v5.41h-.1a4.23,4.23,0,0,0-4.23,4.23h0v12a4.09,4.09,0,0,0,4,4.23Zm3.32-25.87a7.39,7.39,0,0,1,14.78,0v5.41H66.65Zm-4.41,9.65a1.09,1.09,0,0,1,1.08-1.09H84.66a1.11,1.11,0,0,1,1.09,1.09v12a1.09,1.09,0,0,1-1.09,1.08H63.32a1.08,1.08,0,0,1-1.08-1.08v-12Z"/></svg>