<?xml version="1.0" encoding="utf-8"?>
<!-- Generator: Adobe Illustrator 24.1.3, SVG Export Plug-In . SVG Version: 6.00 Build 0)  -->
<svg version="1.1" id="Layer_1" xmlns="http://www.w3.org/2000/svg" xmlns:xlink="http://www.w3.org/1999/xlink" x="0px" y="0px"
	 viewBox="0 0 149.5 149.5" style="enable-background:new 0 0 149.5 149.5;" xml:space="preserve">
<style type="text/css">
	.st0{fill:none;stroke:#AA4269;stroke-miterlimit:10;}
	.st1{fill:#AA4269;}
</style>
<g id="Ellipse_184">
	<circle class="st0" cx="74" cy="74.6" r="74.7"/>
	<path class="st1" d="M74,149.4c-41.3,0-74.7-33.5-74.7-74.7C-0.7,33.4,32.7-0.1,74-0.1c41.3,0,74.7,33.5,74.7,74.7
		C148.7,115.9,115.3,149.3,74,149.4z M74,3.2c-39.5,0-71.5,32-71.5,71.5s32,71.5,71.5,71.5s71.5-32,71.5-71.5l0,0
		C145.4,35.2,113.4,3.2,74,3.2z"/>
</g>
<path class="st1" d="M39.8,95.6v4.2H104v-4.2H39.8z"/>
<path class="st1" d="M34.6,104.9v4.2h74.6v-4.2H34.6z"/>
<path class="st1" d="M39.8,56.2H104l-32.1-16L39.8,56.2z"/>
<path class="st1" d="M43.2,62.2v26.9h4.2V62.2H43.2z"/>
<path class="st1" d="M96.4,62.2v26.9h4.2V62.2H96.4z"/>
<path class="st1" d="M83.1,62.2v26.9h4.2V62.2H83.1z"/>
<path class="st1" d="M56.5,62.2v26.9h4.2V62.2H56.5z"/>
<path class="st1" d="M70.2,61.8v4.8l-3.4,2v5.9c2.3,1.4,4.7,2.9,6.8,4.1v2l-1.6,1l-2.3-1.4l-3.5,2l4.1,2.4v4.8h3.5v-4.8l3.4-2v-6
	l-6.8-4v-2l1.6-1l2.3,1.3c1.2-0.7,2.3-1.3,3.5-2l-1-0.6l-3-1.8v-4.7H70.2z"/>
</svg>
