<svg viewBox="0 0 149.47 149.47" xmlns="http://www.w3.org/2000/svg"><path d="m73.47.71c41.28 0 76 32.71 76 74a74.74 74.74 0 0 1 -149.47-.02c0-41.27 32.2-73.98 73.47-73.98z" fill="none"/><g fill="#aa4269"><path d="m74.72 149.42a74.73 74.73 0 1 1 74.74-74.73 74.82 74.82 0 0 1 -74.74 74.73zm0-146.19a71.46 71.46 0 1 0 71.46 71.46 71.55 71.55 0 0 0 -71.46-71.46z"/><path d="m74 57.53a8.08 8.08 0 0 0 6.8-12.44l1.27-8.92a1.34 1.34 0 0 0 -1.14-1.52 1.31 1.31 0 0 0 -.94.21l-2.77 1.85-2-4a1.41 1.41 0 0 0 -2.41 0l-2 4-2.81-1.85a1.33 1.33 0 0 0 -1.86.37 1.36 1.36 0 0 0 -.22.94l1.28 8.92a8.06 8.06 0 0 0 6.8 12.43zm0-2.7a5.39 5.39 0 1 1 5.39-5.38 5.38 5.38 0 0 1 -5.39 5.38zm-3.44-15a1.34 1.34 0 0 0 1.87-.37l.09-.14 1.48-3 1.49 3a1.36 1.36 0 0 0 1.82.59l.13-.08 1.54-1-.56 3.92a8 8 0 0 0 -8.84 0l-.58-3.98z"/><path d="m91.51 110.05a1.4 1.4 0 0 0 -1.35-1.41h-4.16l-1.15-12.64a4.43 4.43 0 0 1 1.36-.06 7.55 7.55 0 0 1 1.74.51l.41.15a25 25 0 0 0 5.54 1.27 7 7 0 0 0 .8 0 3.34 3.34 0 0 0 2.41-.85 3.81 3.81 0 0 0 .82-1.4 9 9 0 0 0 .47-3.37 26.87 26.87 0 0 0 -5.61-15c-.94-1.23-2-2.38-3-3.49a29.86 29.86 0 0 1 -4.36-5.66l8-4a1.28 1.28 0 0 0 .35-.26l9.43-9.42a1.34 1.34 0 0 0 0-1.9l-5.39-5.38a1.34 1.34 0 0 0 -1.9 0l-9.22 9.19-10.25 3.83h-4.89l-10.28-3.82-9.22-9.21a1.35 1.35 0 0 0 -1.9 0l-5.39 5.39a1.33 1.33 0 0 0 0 1.9l9.43 9.43a1.28 1.28 0 0 0 .35.26l7.31 3.65c-.1 4.2-2.61 8.75-4.86 12.79l-.56 1a67.11 67.11 0 0 0 -6.16 15.45 1.34 1.34 0 0 0 1 1.64 1.36 1.36 0 0 0 1.43-.5 14.72 14.72 0 0 1 3.77-3.57 2.56 2.56 0 0 1 1.3-.57 3.48 3.48 0 0 1 1.72 1c.27.23.54.47.81.68a4.17 4.17 0 0 0 2.79 1l-1.1 12h-2.81a1.41 1.41 0 0 0 -1.35 1.41v5.32h-26.93v2.69h28.28a1.3 1.3 0 0 0 1.35-1.24v-5.49h28.28v5.45a1.3 1.3 0 0 0 1.3 1.29h27v-2.69h-25.61zm-.86-31.12a24.22 24.22 0 0 1 5.07 13.52 6.08 6.08 0 0 1 -.33 2.32 1 1 0 0 1 -.17.37s-.16.15-1 0a21.5 21.5 0 0 1 -4.93-1.13l-.38-.14a10.26 10.26 0 0 0 -2.37-.64 7.19 7.19 0 0 0 -1.91 0l-1.2-12.81v-10.31a36.09 36.09 0 0 0 4.36 5.5c.98 1.07 1.98 2.18 2.86 3.32zm-14.55-16.08-2.1 5.59-2.09-5.59zm-14.16 30.69c-.23-.17-.45-.37-.67-.56a5.45 5.45 0 0 0 -3.42-1.72 4.92 4.92 0 0 0 -2.9 1l-.53.36a64.67 64.67 0 0 1 4.38-9.76l.55-1c2.1-3.76 4.63-8.31 5.14-12.79h.09v11.23l-1.25 13.7a1.67 1.67 0 0 1 -1.39-.46zm10.87 15.1 1.19-11.38 1.2 11.38zm5.1 0-2.57-24.34a1.35 1.35 0 0 0 -2.68 0l-2.57 24.36h-5.38l2.57-28.22v-12.13a1.36 1.36 0 0 0 -.75-1.22l-10.59-5.29-8.32-8.32 3.49-3.48 8.47 8.47a1.37 1.37 0 0 0 .48.31l8.66 3.22 4 10.78a1.35 1.35 0 0 0 1.74.79 1.37 1.37 0 0 0 .79-.79l4-10.77 8.65-3.24a1.42 1.42 0 0 0 .48-.31l8.52-8.46 3.48 3.49-8.32 8.32-10.58 5.28a1.35 1.35 0 0 0 -.74 1.2v12.22l2.56 28.13z"/><path d="m110.37 65.61v-2.7a12 12 0 0 0 -12.12 12 .25.25 0 0 0 0 .08h2.7a9.26 9.26 0 0 1 9.16-9.36 1.22 1.22 0 0 1 .26-.02z"/><path d="m45.72 112.68h2.7c0-21.55-7.69-37.68-17.51-37.68v2.7c8.03.03 14.81 16.13 14.81 34.98z"/><path d="m41.68 62.91v2.7c5.2 0 9.43 5.32 9.43 10.71h2.69c0-6.73-5.44-13.41-12.12-13.41z"/><path d="m100.94 107.29h2.69c0-12.12 6-22.83 13.47-22.83v-2.69c-9.1 0-16.16 10.71-16.16 25.52z"/><path d="m36.3 110h2.7a8.31 8.31 0 0 0 -8.08-8v2.69a5.54 5.54 0 0 1 5.38 5.31z"/><path d="m107.67 35.98h2.69v2.69h-2.69z"/><path d="m91.51 68.3h2.69v2.69h-2.69z"/><path d="m104.98 44.06h2.69v2.69h-2.69z"/><path d="m113.06 44.06h2.69v2.69h-2.69z"/><path d="m110.36 56.18h2.69v2.69h-2.69z"/><path d="m113.06 62.91h2.69v2.69h-2.69z"/><path d="m110.36 101.97h2.69v2.69h-2.69z"/><path d="m100.94 83.11h2.69v2.69h-2.69z"/><path d="m100.94 110.05h2.69v2.69h-2.69z"/><path d="m94.2 38.67h2.69v2.69h-2.69z"/><path d="m47.07 38.67h2.69v2.69h-2.69z"/><path d="m38.99 46.75h2.69v2.69h-2.69z"/><path d="m36.3 38.67h2.69v2.69h-2.69z"/><path d="m51.11 79.07h2.69v2.69h-2.69z"/><path d="m40.34 70.99h2.69v2.69h-2.69z"/><path d="m32.26 56.18h2.69v2.69h-2.69z"/><path d="m32.26 88.5h2.69v2.69h-2.69z"/></g></svg>