<svg viewBox="0 0 149.47 149.47" xmlns="http://www.w3.org/2000/svg"><path d="m73.47.71c41.28 0 76 32.71 76 74a74.74 74.74 0 0 1 -149.47-.02c0-41.27 32.2-73.98 73.47-73.98z" fill="none"/><g fill="#aa4269"><path d="m74.72 149.42a74.73 74.73 0 1 1 74.74-74.73 74.82 74.82 0 0 1 -74.74 74.73zm0-146.19a71.46 71.46 0 1 0 71.46 71.46 71.55 71.55 0 0 0 -71.46-71.46z"/><path d="m87.67 89v16.86a8.42 8.42 0 0 1 -8.43 8.43h-37.34a8.43 8.43 0 0 1 -8.43-8.43v-37.32a8.44 8.44 0 0 1 8.44-8.44h16.86v-16.86a8.43 8.43 0 0 1 8.43-8.43h37.33a8.43 8.43 0 0 1 8.47 8.43v37.34a8.44 8.44 0 0 1 -8.47 8.42zm-2.41-2.4v-18.06a6 6 0 0 0 -6-6h-18.08v18.04a6 6 0 0 0 6 6zm-49.38 11.34v7.93a5.94 5.94 0 0 0 1 3.32l23.56-23.56a8.36 8.36 0 0 1 -1.67-5v-5.58zm2.7 13a6 6 0 0 0 3.32 1h7.93l22.89-22.94h-5.53a8.31 8.31 0 0 1 -5-1.68zm-2.7-28.62v12.21l22.88-22.88v-9.14h-3.11zm29.61 29.61 19.77-19.81v-3.12h-9.13l-22.88 22.88zm19.77-16.4-16.36 16.37h10.34a6 6 0 0 0 6-6zm-49.38-16.66 16.36-16.36h-10.34a6 6 0 0 0 -6 6zm74.68-27.7v-7.93a6 6 0 0 0 -1-3.32l-23.56 23.57a8.29 8.29 0 0 1 1.68 5.05v5.52zm-2.7-13a6.05 6.05 0 0 0 -3.33-1h-7.93l-22.88 22.92h5.52a8.42 8.42 0 0 1 5.05 1.68zm2.7 28.62v-12.21l-22.88 22.88v9.14h3.11zm-29.56-29.57-19.83 19.78v3.12h9.14l22.88-22.9zm-19.83 16.36 16.37-16.36h-10.34a6 6 0 0 0 -6 6zm49.39 16.66-16.37 16.36h10.35a6 6 0 0 0 6-6z" fill-rule="evenodd"/></g></svg>