<svg id="_4D758E" data-name="#4D758E" xmlns="http://www.w3.org/2000/svg" viewBox="0 0 209.08 68.97"><defs><style>.cls-1{fill:#4d758e;}</style></defs><path class="cls-1" d="M35.06,0A34.52,34.52,0,1,0,69.57,34.51,34.51,34.51,0,0,0,35.06,0Zm0,67.5a33,33,0,1,1,33-33A33,33,0,0,1,35.1,67.5Z"/><path class="cls-1" d="M87.84,21.61a9.61,9.61,0,0,1,3.31-.55,10.49,10.49,0,0,1,3.31.55,8.34,8.34,0,0,1,5,4.6,9.91,9.91,0,0,1,.8,4.13,10.61,10.61,0,0,1-.81,4.11,10.33,10.33,0,0,1-2.28,3.39,10.77,10.77,0,0,1-3.56,2.3A12,12,0,0,1,89,41a12.6,12.6,0,0,1-4.65-.81,9.86,9.86,0,0,1-3.49-2.29,9.63,9.63,0,0,1-2.19-3.5A12.88,12.88,0,0,1,78,29.91a15.5,15.5,0,0,1,3.52-9.27l7-9.4a4,4,0,0,1,1.41-1.07A4.91,4.91,0,0,1,92,9.73h5.86l-9.17,11ZM88.9,35.79a4.68,4.68,0,0,0,3.42-1.43,4.9,4.9,0,0,0,1-1.57,5.07,5.07,0,0,0,.38-2,6.14,6.14,0,0,0-.35-2.13,4.57,4.57,0,0,0-1-1.57,4.3,4.3,0,0,0-1.54-1,5.58,5.58,0,0,0-2-.34,4.51,4.51,0,0,0-1.82.35,4,4,0,0,0-1.43,1,4.58,4.58,0,0,0-1,1.57,5.74,5.74,0,0,0-.34,2.06,6.82,6.82,0,0,0,.28,2.05,4.09,4.09,0,0,0,.85,1.58,3.73,3.73,0,0,0,1.44,1A5.39,5.39,0,0,0,88.9,35.79Z"/><path class="cls-1" d="M124.92,28.64v3.69a1.18,1.18,0,0,1-1.28,1.21h-1.91v7.11H116V33.54H103.57a1.77,1.77,0,0,1-1.12-.38,1.64,1.64,0,0,1-.63-.95L101.15,29l14.3-19.23h6.28V28.64Zm-8.92,0V20.57c0-.49,0-1,.06-1.6s.09-1.17.16-1.79L108,28.64Z"/><path class="cls-1" d="M128.14,45.9a1.18,1.18,0,0,1-.46-.94.86.86,0,0,1,.15-.45,1.51,1.51,0,0,1,.36-.44l.59-.62c.23-.25.45-.53.68-.82a7.47,7.47,0,0,0,.63-1,4.9,4.9,0,0,0,.43-1.12,4,4,0,0,1-1.32-.36,3.38,3.38,0,0,1-1-.78,3.23,3.23,0,0,1-.66-1.1,3.83,3.83,0,0,1-.24-1.37,3.09,3.09,0,0,1,.26-1.26,2.94,2.94,0,0,1,.73-1,3.69,3.69,0,0,1,1.13-.69,4.26,4.26,0,0,1,3.11.07,3.43,3.43,0,0,1,1.16.89,3.78,3.78,0,0,1,.69,1.3,5.22,5.22,0,0,1,.23,1.54,8.61,8.61,0,0,1-.34,2.26,12,12,0,0,1-1,2.41,14.67,14.67,0,0,1-1.67,2.37,13.7,13.7,0,0,1-2.29,2.13Z"/><path class="cls-1" d="M159.83,25.18a25.25,25.25,0,0,1-.87,7,14.31,14.31,0,0,1-2.41,4.92A9.71,9.71,0,0,1,152.9,40a10.88,10.88,0,0,1-4.57,1,10.75,10.75,0,0,1-4.55-1,9.69,9.69,0,0,1-3.62-2.91,14.29,14.29,0,0,1-2.39-4.92,25.65,25.65,0,0,1-.86-7,25.65,25.65,0,0,1,.86-7,14.29,14.29,0,0,1,2.39-4.92,9.57,9.57,0,0,1,3.62-2.9,10.9,10.9,0,0,1,4.55-.94,11,11,0,0,1,4.57.94,9.58,9.58,0,0,1,3.65,2.9A14.31,14.31,0,0,1,159,18.15,25.25,25.25,0,0,1,159.83,25.18Zm-6.79,0a27.87,27.87,0,0,0-.4-5.25,11,11,0,0,0-1.07-3.22,3.94,3.94,0,0,0-1.52-1.6,3.76,3.76,0,0,0-1.72-.44,3.69,3.69,0,0,0-1.71.44,3.82,3.82,0,0,0-1.49,1.6,11.36,11.36,0,0,0-1,3.22,28.86,28.86,0,0,0-.39,5.25,28.82,28.82,0,0,0,.39,5.26,11.58,11.58,0,0,0,1,3.22,3.8,3.8,0,0,0,1.49,1.61,3.69,3.69,0,0,0,1.71.44,3.76,3.76,0,0,0,1.72-.44,3.91,3.91,0,0,0,1.52-1.61,11.19,11.19,0,0,0,1.07-3.22A27.84,27.84,0,0,0,153,25.18Z"/><path class="cls-1" d="M184.46,25.18a25.25,25.25,0,0,1-.87,7,14.68,14.68,0,0,1-2.41,4.92A9.86,9.86,0,0,1,177.53,40,11,11,0,0,1,173,41a10.75,10.75,0,0,1-4.55-1,9.69,9.69,0,0,1-3.62-2.91,14.29,14.29,0,0,1-2.39-4.92,25.65,25.65,0,0,1-.86-7,25.65,25.65,0,0,1,.86-7,14.29,14.29,0,0,1,2.39-4.92,9.57,9.57,0,0,1,3.62-2.9A10.9,10.9,0,0,1,173,9.39a11.11,11.11,0,0,1,4.58.94,9.74,9.74,0,0,1,3.65,2.9,14.68,14.68,0,0,1,2.41,4.92A25.25,25.25,0,0,1,184.46,25.18Zm-6.8,0a27.87,27.87,0,0,0-.4-5.25,11,11,0,0,0-1.07-3.22,3.87,3.87,0,0,0-1.52-1.6,3.76,3.76,0,0,0-1.72-.44,3.69,3.69,0,0,0-1.71.44,3.75,3.75,0,0,0-1.48,1.6,10.76,10.76,0,0,0-1,3.22,27.87,27.87,0,0,0-.4,5.25,27.84,27.84,0,0,0,.4,5.26,11,11,0,0,0,1,3.22,3.53,3.53,0,0,0,4.91,1.61,3.84,3.84,0,0,0,1.52-1.61,11.19,11.19,0,0,0,1.07-3.22A27.84,27.84,0,0,0,177.66,25.18Z"/><path class="cls-1" d="M209.08,25.18a25.25,25.25,0,0,1-.87,7,14.49,14.49,0,0,1-2.41,4.92A9.86,9.86,0,0,1,202.15,40a11,11,0,0,1-4.58,1A10.75,10.75,0,0,1,193,40a9.77,9.77,0,0,1-3.62-2.91A14.48,14.48,0,0,1,187,32.21a25.65,25.65,0,0,1-.86-7,25.65,25.65,0,0,1,.86-7,14.48,14.48,0,0,1,2.39-4.92,9.65,9.65,0,0,1,3.62-2.9,10.9,10.9,0,0,1,4.55-.94,11.11,11.11,0,0,1,4.58.94,9.74,9.74,0,0,1,3.65,2.9,14.49,14.49,0,0,1,2.41,4.92A25.25,25.25,0,0,1,209.08,25.18Zm-6.8,0a27.87,27.87,0,0,0-.4-5.25,10.69,10.69,0,0,0-1.07-3.22,3.87,3.87,0,0,0-1.52-1.6,3.73,3.73,0,0,0-1.72-.44,3.69,3.69,0,0,0-1.71.44,3.81,3.81,0,0,0-1.48,1.6,11,11,0,0,0-1,3.22,28.86,28.86,0,0,0-.39,5.25,28.82,28.82,0,0,0,.39,5.26,11.26,11.26,0,0,0,1,3.22,3.78,3.78,0,0,0,1.48,1.61,3.69,3.69,0,0,0,1.71.44,3.73,3.73,0,0,0,1.72-.44,3.84,3.84,0,0,0,1.52-1.61,10.89,10.89,0,0,0,1.07-3.22A27.84,27.84,0,0,0,202.28,25.18Z"/><path class="cls-1" d="M81.06,50.16a6.24,6.24,0,0,1,1.54.17,3.1,3.1,0,0,1,1.05.49,1.91,1.91,0,0,1,.6.78,2.63,2.63,0,0,1,.19,1,2,2,0,0,1-.1.64,1.91,1.91,0,0,1-.31.58,2.51,2.51,0,0,1-.53.49,3.35,3.35,0,0,1-.76.36c1.33.28,2,1,2,2.11a2.64,2.64,0,0,1-.22,1.1,2.48,2.48,0,0,1-.65.86,3,3,0,0,1-1,.56,4.8,4.8,0,0,1-1.43.2H78V50.16Zm-1.59,1.19v2.93H81a2.36,2.36,0,0,0,1.46-.38,1.3,1.3,0,0,0,.48-1.09,1.34,1.34,0,0,0-.45-1.12,2.34,2.34,0,0,0-1.42-.34Zm1.89,7a2.77,2.77,0,0,0,.87-.12,1.72,1.72,0,0,0,.58-.33,1.34,1.34,0,0,0,.32-.49,1.74,1.74,0,0,0,.1-.61,1.32,1.32,0,0,0-.45-1.05,2.22,2.22,0,0,0-1.43-.38H79.47v3Z"/><path class="cls-1" d="M90.14,58.3a2.47,2.47,0,0,0,1-.18,2,2,0,0,0,.72-.51,2.24,2.24,0,0,0,.46-.78,3.31,3.31,0,0,0,.15-1V50.16H94v5.65a4.47,4.47,0,0,1-.26,1.53,3.51,3.51,0,0,1-.76,1.21,3.46,3.46,0,0,1-1.2.8,4.11,4.11,0,0,1-1.6.29,4,4,0,0,1-1.59-.29,3.46,3.46,0,0,1-1.2-.8,3.51,3.51,0,0,1-.76-1.21,4.47,4.47,0,0,1-.26-1.53V50.16h1.52V55.8a3.26,3.26,0,0,0,.16,1,2.12,2.12,0,0,0,.45.79,1.89,1.89,0,0,0,.72.51A2.42,2.42,0,0,0,90.14,58.3Z"/><path class="cls-1" d="M101,51.76a.52.52,0,0,1-.15.17.34.34,0,0,1-.2.06.56.56,0,0,1-.28-.11l-.37-.23a3.82,3.82,0,0,0-.53-.23,2.29,2.29,0,0,0-.73-.11,2.09,2.09,0,0,0-.69.1,1.34,1.34,0,0,0-.5.27,1.18,1.18,0,0,0-.4.93.92.92,0,0,0,.19.6,1.6,1.6,0,0,0,.5.41,3.78,3.78,0,0,0,.7.29l.81.27q.42.15.81.33a2.63,2.63,0,0,1,.71.46,2.14,2.14,0,0,1,.5.68,2.43,2.43,0,0,1,.19,1,3.29,3.29,0,0,1-.22,1.17,2.74,2.74,0,0,1-.62.95,2.86,2.86,0,0,1-1,.64,3.62,3.62,0,0,1-1.36.24,4.31,4.31,0,0,1-.88-.09,4.47,4.47,0,0,1-.81-.25,3.93,3.93,0,0,1-.73-.39,4.19,4.19,0,0,1-.6-.5l.44-.73a.54.54,0,0,1,.15-.15.46.46,0,0,1,.2-.05.63.63,0,0,1,.34.14,3.64,3.64,0,0,0,.44.31,3,3,0,0,0,.62.3,2.27,2.27,0,0,0,.87.14,1.85,1.85,0,0,0,1.28-.4,1.42,1.42,0,0,0,.45-1.11,1,1,0,0,0-.19-.65,1.39,1.39,0,0,0-.5-.42,3.78,3.78,0,0,0-.7-.29l-.81-.25c-.27-.09-.54-.19-.81-.31a2.6,2.6,0,0,1-.7-.47,2,2,0,0,1-.5-.71,2.59,2.59,0,0,1-.19-1.07,2.53,2.53,0,0,1,.2-1,2.43,2.43,0,0,1,.58-.85,2.77,2.77,0,0,1,.94-.58,3.38,3.38,0,0,1,1.27-.23,4.2,4.2,0,0,1,1.49.26,3.54,3.54,0,0,1,1.16.72Z"/><path class="cls-1" d="M104.71,59.53h-1.53V50.16h1.53Z"/><path class="cls-1" d="M114.69,50.16v9.37h-.77a.67.67,0,0,1-.3-.06.85.85,0,0,1-.24-.2l-5.15-6.62a2.43,2.43,0,0,1,0,.38c0,.12,0,.23,0,.34v6.16h-1.34V50.16h1a.5.5,0,0,1,.13,0l.11.08.11.13L113.4,57a2.56,2.56,0,0,1,0-.39c0-.14,0-.26,0-.37V50.16Z"/><path class="cls-1" d="M122.78,58.3v1.23h-5.85V50.16h5.85v1.23h-4.32v2.82h3.45v1.2h-3.45V58.3Z"/><path class="cls-1" d="M129.32,51.76a.41.41,0,0,1-.14.17.34.34,0,0,1-.2.06.56.56,0,0,1-.28-.11l-.37-.23a3.82,3.82,0,0,0-.53-.23,2.29,2.29,0,0,0-.73-.11,2.09,2.09,0,0,0-.69.1,1.34,1.34,0,0,0-.5.27,1.18,1.18,0,0,0-.4.93.92.92,0,0,0,.19.6,1.67,1.67,0,0,0,.49.41,4.2,4.2,0,0,0,.71.29l.81.27q.42.15.81.33a2.63,2.63,0,0,1,.71.46,2.31,2.31,0,0,1,.5.68,2.43,2.43,0,0,1,.18,1,3.28,3.28,0,0,1-.21,1.17,2.74,2.74,0,0,1-.62.95,2.86,2.86,0,0,1-1,.64,3.62,3.62,0,0,1-1.36.24,4.31,4.31,0,0,1-.88-.09,4.47,4.47,0,0,1-.81-.25,3.93,3.93,0,0,1-.73-.39,4.19,4.19,0,0,1-.6-.5l.44-.73a.54.54,0,0,1,.15-.15.46.46,0,0,1,.2-.05.58.58,0,0,1,.33.14l.44.31a3.37,3.37,0,0,0,.63.3,2.27,2.27,0,0,0,.87.14A1.87,1.87,0,0,0,128,58a1.42,1.42,0,0,0,.45-1.11,1,1,0,0,0-.19-.65,1.48,1.48,0,0,0-.5-.42,3.78,3.78,0,0,0-.7-.29l-.81-.25c-.27-.09-.54-.19-.81-.31a2.6,2.6,0,0,1-.7-.47,2,2,0,0,1-.5-.71,2.59,2.59,0,0,1-.19-1.07,2.36,2.36,0,0,1,.2-1,2.43,2.43,0,0,1,.58-.85,2.68,2.68,0,0,1,.94-.58,3.38,3.38,0,0,1,1.27-.23,4.14,4.14,0,0,1,1.48.26,3.49,3.49,0,0,1,1.17.72Z"/><path class="cls-1" d="M136.43,51.76a.52.52,0,0,1-.15.17.34.34,0,0,1-.2.06.56.56,0,0,1-.28-.11l-.37-.23a3.82,3.82,0,0,0-.53-.23,2.29,2.29,0,0,0-.73-.11,2.09,2.09,0,0,0-.69.1,1.34,1.34,0,0,0-.5.27,1.18,1.18,0,0,0-.4.93.92.92,0,0,0,.19.6,1.6,1.6,0,0,0,.5.41,3.78,3.78,0,0,0,.7.29l.81.27q.42.15.81.33a2.63,2.63,0,0,1,.71.46,2.14,2.14,0,0,1,.5.68,2.43,2.43,0,0,1,.19,1,3.29,3.29,0,0,1-.22,1.17,2.74,2.74,0,0,1-.62.95,2.86,2.86,0,0,1-1,.64,3.62,3.62,0,0,1-1.36.24,4.31,4.31,0,0,1-.88-.09,4.47,4.47,0,0,1-.81-.25,3.56,3.56,0,0,1-.72-.39,3.79,3.79,0,0,1-.61-.5l.44-.73a.54.54,0,0,1,.15-.15.46.46,0,0,1,.2-.05.63.63,0,0,1,.34.14,3.64,3.64,0,0,0,.44.31,3,3,0,0,0,.62.3,2.27,2.27,0,0,0,.87.14,1.85,1.85,0,0,0,1.28-.4,1.42,1.42,0,0,0,.45-1.11,1,1,0,0,0-.19-.65,1.39,1.39,0,0,0-.5-.42,3.78,3.78,0,0,0-.7-.29l-.81-.25c-.27-.09-.54-.19-.81-.31a2.6,2.6,0,0,1-.7-.47,2,2,0,0,1-.5-.71,2.59,2.59,0,0,1-.19-1.07,2.53,2.53,0,0,1,.2-1,2.43,2.43,0,0,1,.58-.85,2.77,2.77,0,0,1,.94-.58,3.38,3.38,0,0,1,1.27-.23,4.2,4.2,0,0,1,1.49.26,3.54,3.54,0,0,1,1.16.72Z"/><path class="cls-1" d="M144.48,58.3v1.23h-5.84V50.16h5.84v1.23h-4.31v2.82h3.45v1.2h-3.45V58.3Z"/><path class="cls-1" d="M151,51.76a.52.52,0,0,1-.15.17.34.34,0,0,1-.2.06.56.56,0,0,1-.28-.11l-.37-.23a3.82,3.82,0,0,0-.53-.23,2.29,2.29,0,0,0-.73-.11,2.09,2.09,0,0,0-.69.1,1.34,1.34,0,0,0-.5.27,1.18,1.18,0,0,0-.4.93.92.92,0,0,0,.19.6,1.6,1.6,0,0,0,.5.41,3.78,3.78,0,0,0,.7.29l.81.27q.42.15.81.33a2.63,2.63,0,0,1,.71.46,2.14,2.14,0,0,1,.5.68,2.43,2.43,0,0,1,.19,1,3.29,3.29,0,0,1-.22,1.17,2.74,2.74,0,0,1-.62.95,2.86,2.86,0,0,1-1,.64,3.62,3.62,0,0,1-1.36.24,4.14,4.14,0,0,1-.87-.09,4.34,4.34,0,0,1-.82-.25,3.56,3.56,0,0,1-.72-.39,3.79,3.79,0,0,1-.61-.5l.44-.73a.54.54,0,0,1,.15-.15.46.46,0,0,1,.2-.05.63.63,0,0,1,.34.14,3.64,3.64,0,0,0,.44.31,3,3,0,0,0,.62.3,2.27,2.27,0,0,0,.87.14,1.85,1.85,0,0,0,1.28-.4,1.42,1.42,0,0,0,.45-1.11,1,1,0,0,0-.19-.65,1.39,1.39,0,0,0-.5-.42,3.78,3.78,0,0,0-.7-.29l-.81-.25c-.27-.09-.54-.19-.81-.31a2.6,2.6,0,0,1-.7-.47,2.17,2.17,0,0,1-.5-.71,2.59,2.59,0,0,1-.19-1.07,2.53,2.53,0,0,1,.2-1,2.43,2.43,0,0,1,.58-.85,2.77,2.77,0,0,1,.94-.58,3.38,3.38,0,0,1,1.27-.23,4.2,4.2,0,0,1,1.49.26,3.54,3.54,0,0,1,1.16.72Z"/><path class="cls-1" d="M158,51.39v3h3.66v1.23H158v3.91h-1.53V50.16h5.84v1.23Z"/><path class="cls-1" d="M167.53,58.3a2.42,2.42,0,0,0,1-.18,2,2,0,0,0,.73-.51,2.22,2.22,0,0,0,.45-.78,3.3,3.3,0,0,0,.16-1V50.16h1.51v5.65a4.47,4.47,0,0,1-.26,1.53,3.51,3.51,0,0,1-.76,1.21,3.46,3.46,0,0,1-1.2.8,4.5,4.5,0,0,1-3.18,0,3.46,3.46,0,0,1-1.2-.8,3.36,3.36,0,0,1-.76-1.21,4.24,4.24,0,0,1-.27-1.53V50.16h1.53V55.8a3.26,3.26,0,0,0,.15,1,2.43,2.43,0,0,0,.45.79,2.05,2.05,0,0,0,.72.51A2.5,2.5,0,0,0,167.53,58.3Z"/><path class="cls-1" d="M181.22,50.16v9.37h-.78a.6.6,0,0,1-.53-.26l-5.15-6.62,0,.38c0,.12,0,.23,0,.34v6.16h-1.34V50.16h1a.42.42,0,0,1,.12,0l.12.08.11.13L179.92,57l0-.39c0-.14,0-.26,0-.37V50.16Z"/><path class="cls-1" d="M191.68,54.85a5.3,5.3,0,0,1-.34,1.9,4.18,4.18,0,0,1-2.43,2.44,5.16,5.16,0,0,1-1.92.34h-3.54V50.16H187a5.16,5.16,0,0,1,1.92.34,4.18,4.18,0,0,1,2.43,2.44A5.32,5.32,0,0,1,191.68,54.85Zm-1.56,0a4.43,4.43,0,0,0-.22-1.46,2.86,2.86,0,0,0-.62-1.08,2.55,2.55,0,0,0-1-.68,3.35,3.35,0,0,0-1.3-.24h-2V58.3h2a3.54,3.54,0,0,0,1.3-.23,2.78,2.78,0,0,0,1-.68,3,3,0,0,0,.62-1.09A4.37,4.37,0,0,0,190.12,54.85Z"/><path class="cls-1" d="M199.2,58.3v1.23h-5.85V50.16h5.85v1.23h-4.32v2.82h3.45v1.2h-3.45V58.3Z"/><path class="cls-1" d="M209.08,54.85a5.3,5.3,0,0,1-.34,1.9,4.18,4.18,0,0,1-2.43,2.44,5.16,5.16,0,0,1-1.92.34h-3.54V50.16h3.54a5.16,5.16,0,0,1,1.92.34,4.18,4.18,0,0,1,2.43,2.44A5.32,5.32,0,0,1,209.08,54.85Zm-1.56,0a4.43,4.43,0,0,0-.22-1.46,2.86,2.86,0,0,0-.62-1.08,2.55,2.55,0,0,0-1-.68,3.35,3.35,0,0,0-1.3-.24h-2V58.3h2a3.54,3.54,0,0,0,1.3-.23,2.78,2.78,0,0,0,1-.68,3,3,0,0,0,.62-1.09A4.37,4.37,0,0,0,207.52,54.85Z"/><path class="cls-1" d="M54.62,29.28a1.87,1.87,0,0,0-.18-.73c-1.34-2.58-2.71-5.15-4-7.73a1,1,0,0,0-1-.61h-1.7V12.32c0-.85-.26-1.12-1.1-1.12H19.36c-.84,0-1.08.24-1.08,1.07v7.94H16.83a1,1,0,0,0-1,.66c-1.08,2.58-2.18,5.16-3.27,7.75a1.63,1.63,0,0,0-.12.62c0,.93,0,1.85,0,2.78a.8.8,0,0,0,.91.92h2.22l.39,0V53.34h-.54c-2.33,0-2.25-.12-2.23,2.24,0,.41,0,.81,0,1.21,0,.79.25,1,1,1h38.7c.67,0,1-.28,1-1,0-.87,0-1.73,0-2.59,0-.67-.29-.94-1-.94s-1.14,0-1.73,0V32.94c.83,0,1.64,0,2.44,0s1-.29,1-1C54.63,31.06,54.64,30.17,54.62,29.28Zm-5.69-7.46a.4.4,0,0,1,.27.17l3.23,6.16s0,.05,0,.11l-.26,0H46.61c-.19,0-.34,0-.42-.24-.63-2-1.28-4-1.92-6.05a1.72,1.72,0,0,1,0-.18ZM30.74,39.23c0-.77-.24-1-1-1H22c-.94,0-1.14.2-1.15,1.12v14H17.55V33h32V53.31H30.74V39.23Zm-1.63.57V53.31H22.5V39.8Zm-.5-9.88v1.41H22.13V29.92Zm-6.2-1.64.49-1.57c.46-1.51.93-3,1.39-4.54a.42.42,0,0,1,.5-.36c1.39,0,2.79,0,4.19,0l.38,0-.63,6.45Zm14.28,1.63v1.42H30.28V29.91Zm-6.36-1.63c.21-2.14.41-4.29.63-6.46h4.63c.34,2.14.68,4.28,1,6.46Zm13.76,0c-1.8,0-3.6,0-5.4,0-.37,0-.5-.08-.55-.47-.29-2-.62-3.95-.94-6h2.94c.7,0,1.39,0,2.09,0,.22,0,.33.05.4.28.62,2,1.25,3.91,1.87,5.86a1.82,1.82,0,0,1,0,.31Zm.74,1.62v1.43H38.36V29.88Zm-25-17.07H46v7.37H19.87Zm-3.8,11.5c.32-.74.62-1.49.95-2.22a.46.46,0,0,1,.32-.26c1.79,0,3.57,0,5.4,0-.35,1.16-.7,2.28-1,3.41-.29.93-.57,1.87-.88,2.79,0,.12-.19.29-.3.29-2,0-4,0-6,0l-.09,0Zm-2.07,7v-1.4h6.5v1.4ZM52.27,54.94V56.2H14.75V54.94ZM53,31.32h-6.5v-1.4H53Z"/><path class="cls-1" d="M46.8,39.78c0-.76-.27-1-1-1H34.73c-.73,0-1,.27-1,1v10c0,.78.27,1,1,1h11c.74,0,1-.28,1-1ZM45.16,49.2h-9.8V40.37h9.8Z"/><path class="cls-1" d="M25.77,36.28h-3.9c-.58,0-.91-.28-.92-.78s.33-.8.91-.8q3.88,0,7.77,0a.82.82,0,0,1,.93.79.85.85,0,0,1-1,.8C28.33,36.26,27.05,36.28,25.77,36.28Z"/><path class="cls-1" d="M37,16.45c0-.06,0-.08.06-.08s.06.06.06.1a.18.18,0,0,1-.06.13c-.09.12-.58.76-1.11.76a.6.6,0,0,1-.58-.53c0-.3.4-.69.86-.78a.38.38,0,0,1-.27-.34c0-.31.5-.66.8-.66a.36.36,0,0,1,.18.1c.07,0,.17.11.17.18a.91.91,0,0,1-.12.34c-.09.14-.16.21-.22.21s-.14-.07-.14-.13.15-.3.2-.3.06.05.06.05a.54.54,0,0,0,.08-.17.1.1,0,0,0-.09-.09c-.22,0-.62.27-.62.54a.34.34,0,0,0,.19.29c.07,0,.12.05.12.09s0,.06-.14.08a1,1,0,0,0-.77.74.22.22,0,0,0,.23.24C36.31,17.22,36.86,16.59,37,16.45Z"/><path class="cls-1" d="M37.92,16.37s0,0-.06.08a1.1,1.1,0,0,1-.27.25.3.3,0,0,0,0-.09c0-.28-.15-.3-.15-.5s.19-.23.19-.29a.2.2,0,0,0-.2-.16c-.06,0-.15.18-.19.36s-.25.35-.36.51a.18.18,0,0,0-.11.16c0,.12.2.26.46.26a.86.86,0,0,0,.67-.35c0-.07.06-.09.06-.13S37.94,16.37,37.92,16.37Zm-.75.43c-.08,0-.17-.12-.17-.17l.31-.45s0,.2,0,.35S37.26,16.8,37.17,16.8Z"/><path class="cls-1" d="M37.82,16.62a2.06,2.06,0,0,1,.27-.73.19.19,0,0,1-.14-.12,0,0,0,0,1,0,0,.36.36,0,0,0,.16,0,3.15,3.15,0,0,0,.15-.31,0,0,0,0,1,0,0,.21.21,0,0,1,.17.18.29.29,0,0,1-.06.15h.18s.05,0,.05,0-.07.15-.16.15h-.15a1.33,1.33,0,0,0-.12.24,1.45,1.45,0,0,0-.17.5c0,.13,0,.17,0,.21a.09.09,0,0,1-.06.07A.31.31,0,0,1,37.82,16.62Z"/><path class="cls-1" d="M38.62,16.55a.16.16,0,0,1,.15.16.27.27,0,0,1-.23.24.17.17,0,0,1-.16-.17.2.2,0,0,1,.14-.17S38.56,16.55,38.62,16.55Z"/><path class="cls-1" d="M40.41,15.33c0,.1,0,.19-.27.69a2.93,2.93,0,0,0-.32.82c0,.07-.07.09-.11.09a.2.2,0,0,1-.13-.2,3.14,3.14,0,0,1,.35-.89s-.22.2-.27.2a.19.19,0,0,1-.14-.13s0,0,.1-.07a1.82,1.82,0,0,0,.51-.47c.06-.09.1-.2.13-.2A.16.16,0,0,1,40.41,15.33Z"/><path class="cls-1" d="M41.3,15.34a.41.41,0,0,0-.3-.12c-.19,0-.58.43-.58.77s.46.43.46.43-.21.34-.5.34c0,0-.06,0-.06,0s.15.14.28.14c.39,0,.91-.75.91-1.25C41.51,15.4,41.36,15.42,41.3,15.34Zm-.36,1s-.2,0-.2-.23.26-.66.41-.66a.11.11,0,0,1,.09.12A1.55,1.55,0,0,1,40.94,16.31Z"/><path class="cls-1" d="M43.79,15.19a1.63,1.63,0,0,0-.23.07.17.17,0,0,0-.1,0c-.2,0-.66.57-.66,1.16,0,.31.11.57.39.57.5,0,1-.75,1-1.36A.37.37,0,0,0,43.79,15.19Zm-.56,1.61c-.08,0-.15-.13-.15-.32a2,2,0,0,1,.54-1.11.25.25,0,0,1,.1,0c.1,0,.14.09.14.23C43.86,16,43.51,16.8,43.23,16.8Z"/><path class="cls-1" d="M42.8,15.51a.41.41,0,0,0-.4-.36c-.24,0-.76.56-.76.76a.18.18,0,0,0,.16.18c.08,0,.26-.3.26-.38a.16.16,0,0,0,0-.13c.07-.09.27-.29.42-.29s.09,0,.09.11a2.79,2.79,0,0,1-.84,1.23c-.1.09-.21.12-.21.17a.15.15,0,0,0,.14.15c.07,0,.09-.06.22-.06s.31.05.53.05.24-.05.24-.11a1.39,1.39,0,0,0,0-.15s0-.06,0-.1a0,0,0,0,0,0,0,.59.59,0,0,1-.48.18c-.16,0-.19,0-.19,0C42.25,16.43,42.8,15.92,42.8,15.51Z"/><path class="cls-1" d="M57.22,43.7h-.48v-5h.48a.47.47,0,0,0,.5-.5.46.46,0,0,0-.51-.48h-.47a2.53,2.53,0,0,0-2.16-2,.75.75,0,0,0,.25-1.13.74.74,0,0,0-1.32.47.81.81,0,0,0,.42.66,2.56,2.56,0,0,0-2.16,2h-.54a.42.42,0,0,0-.35.18.54.54,0,0,0,0,.55.45.45,0,0,0,.44.25h.49v5h-.49a.49.49,0,0,0,0,1h.49a2.49,2.49,0,0,0,2.15,2,.75.75,0,1,0,.65,0A2.66,2.66,0,0,0,56,46a2.54,2.54,0,0,0,.74-1.36h.48a.49.49,0,1,0,0-1Zm-2.92-7a1.46,1.46,0,0,1,1.37,1.09H52.83A1.53,1.53,0,0,1,54.3,36.66Zm-1.52,2.09H54l-1.18,1.18Zm0,2.69s0-.07.07-.1l2.46-2.46c.13-.14.28-.07.43-.09a.36.36,0,0,1-.1.37c-.92.9-1.83,1.81-2.74,2.72l-.12.12Zm1.5,4.33a1.44,1.44,0,0,1-1.44-1.08h2.84A1.43,1.43,0,0,1,54.27,45.77Zm1.46-2.08H54.55l1.18-1.16Zm0-2.74a.2.2,0,0,1-.06.13l-2.5,2.55c-.12.12-.26,0-.4.07a.43.43,0,0,1,.12-.44l2.72-2.71.12-.12C55.74,40.63,55.75,40.79,55.74,41Z"/><path class="cls-1" d="M33.57,15.81l-1.46-.12-1.54-.12L29,15.44l-1.54-.13a.3.3,0,0,0-.32.16c-.17.29-.34.58-.52.86,0,0,0,.08-.07.08s-.24,0-.38,0a.44.44,0,0,0,.05-.09l.4-.69a.2.2,0,0,0-.18-.31H25.1c0-.16,0-.31-.06-.46a1.5,1.5,0,0,0-1.64-1.15,1.44,1.44,0,0,0-1.18,1,1.55,1.55,0,0,0,.24,1.57,4.44,4.44,0,0,0,.38.37,1.49,1.49,0,0,0,.91,2.76,1.45,1.45,0,0,0,.78-.34,1.52,1.52,0,0,0,.56-1.18h.07c1.13,0,2.27,0,3.4-.09.61-.06,1.22-.09,1.83-.13l2.31-.16a1.69,1.69,0,0,0,.45-.07,1.17,1.17,0,0,0,.84-1A.48.48,0,0,0,33.57,15.81Zm-11-.57a1.08,1.08,0,0,1,.78-1.09,1.1,1.1,0,0,1,1.24.52,1.22,1.22,0,0,1,.13.68c0,.35,0,.39.39.39h1.05c-.14.22-.26.44-.38.65l-.07,0c-.7,0-1.41,0-2.11,0A1.09,1.09,0,0,1,22.52,15.24Zm10.39,1.81-1.3.1-1.9.13-1.47.1c-1.09.1-2.19.06-3.29.07-.2,0-.28.08-.28.28a1.4,1.4,0,0,1-.11.64,1.08,1.08,0,0,1-1.77.25,1,1,0,0,1-.16-1.16,1.05,1.05,0,0,1,1-.63h3a.32.32,0,0,0,.29-.16c.16-.29.33-.57.49-.85a.15.15,0,0,1,.16-.08l1.62.13,1.53.12,1.56.13,1.19.1c.09,0,.12,0,.11.12A.76.76,0,0,1,32.91,17.05Z"/><path class="cls-1" d="M23.6,17.26a.65.65,0,0,0-.66.64.67.67,0,0,0,.65.66.68.68,0,0,0,.66-.66A.65.65,0,0,0,23.6,17.26Zm0,.88a.23.23,0,0,1-.24-.21.24.24,0,1,1,.48,0A.24.24,0,0,1,23.59,18.14Z"/><path class="cls-1" d="M27.79,16.63a.24.24,0,0,1,.23-.25.23.23,0,0,1,.25.24.24.24,0,0,1-.24.25A.24.24,0,0,1,27.79,16.63Z"/><path class="cls-1" d="M23.62,14.61a.66.66,0,0,0-.68.63.65.65,0,0,0,.64.67.66.66,0,0,0,.67-.63A.68.68,0,0,0,23.62,14.61Zm0,.9a.25.25,0,0,1-.24-.22A.26.26,0,0,1,23.6,15a.25.25,0,0,1,.23.24A.25.25,0,0,1,23.59,15.51Z"/><path class="cls-1" d="M28.56,45.74l-.1,0H27.6a.33.33,0,0,0,0-.15.51.51,0,0,0-.25-.21.42.42,0,0,0-.38,0,.46.46,0,0,0-.3.45v1.37a.51.51,0,0,0,0,.13.48.48,0,0,0,.47.37.49.49,0,0,0,.34-.14.45.45,0,0,0,.14-.33v-.91h.86a.21.21,0,0,0,.22-.16v-.2A.21.21,0,0,0,28.56,45.74Z"/></svg>