<svg id="Layer_1" data-name="Layer 1" xmlns="http://www.w3.org/2000/svg" viewBox="0 0 149.47 149.47"><defs><style>.cls-1{fill:none;}.cls-2{fill:#aa4269;}</style></defs><title>Kapitus_Icons_NormalState</title><g id="Ellipse_184" data-name="Ellipse 184"><circle class="cls-1" cx="74.72" cy="75.11" r="74.73"/><path class="cls-2" d="M74.72,149.84a74.74,74.74,0,1,1,74.73-74.73A74.82,74.82,0,0,1,74.72,149.84Zm0-146.19a71.46,71.46,0,1,0,71.46,71.46A71.53,71.53,0,0,0,74.72,3.65Z"/></g><path class="cls-2" d="M48.32,49.85V40.57c0-.81,0-1.62,0-2.43a7.53,7.53,0,0,1,7.89-7.86l24,.17a11.38,11.38,0,0,0,1.54-.1A4.89,4.89,0,0,1,86.21,32a9.22,9.22,0,0,1,2.19,5.89c0,1-.66,1.54-1.82,1.56-2.11,0-4.21,0-6.32,0l-.74,0v10.3H83.4c2.55,0,4.4,1.59,4.26,4.12a5.38,5.38,0,0,0,2.24,4.86,15.08,15.08,0,0,1,5.38,12c0,.54,0,1.08,0,1.72h1.18c2.66,0,5.31,0,8,0a4.35,4.35,0,0,1,4.37,4.4q0,17.55,0,35.08a4.37,4.37,0,0,1-4.62,4.36c-3.79,0-7.58,0-11.37,0-1.55,0-3.11,0-4.66,0A1.08,1.08,0,0,0,87,117a5.32,5.32,0,0,1-5,3q-17.78,0-35.56,0A5.56,5.56,0,0,1,40.64,114q0-27.12,0-54.23c0-1.84,0-3.69,0-5.53A4.06,4.06,0,0,1,45,49.86C46.06,49.84,47.13,49.85,48.32,49.85Zm0,1H45.1c-2.2,0-3.36,1.18-3.36,3.36V114a4.5,4.5,0,0,0,4.75,4.76c2.08,0,4.15,0,6.22,0H81.76a4.45,4.45,0,0,0,4.76-3.69,11.37,11.37,0,0,0,0-2V66.4c0-4.15,0-8.3,0-12.44,0-1.68-.85-2.93-2.35-3.1a44.61,44.61,0,0,0-4.78,0c0,2.36,0,4.52,0,6.69,0,.83-.24,1.13-1.11,1.13q-14.43,0-28.85,0c-.84,0-1.14-.24-1.11-1.11C48.36,55.37,48.32,53.2,48.32,50.87ZM87.75,73.53v41.52a.44.44,0,0,0,.15,0c5.6,0,11.2,0,16.8,0a3.09,3.09,0,0,0,3-2.48,8.62,8.62,0,0,0,.22-2q0-16.45,0-32.92c0-2.86-1.27-4.14-4.15-4.14h-16Zm-9.46-16c0-.32.06-.54.06-.77q0-9.12,0-18.26a11.39,11.39,0,0,1,1-5.37c.28-.56.66-1.06,1.13-1.8-8.47,0-16.72-.08-25,0A6.37,6.37,0,0,0,49.39,38q0,9.09,0,18.17v1.4ZM94.22,72.43c.43-5.88-1.76-10.44-6.4-14v14ZM79.33,38.31c2.71,0,5,0,7.36,0,.24,0,.7-.45.68-.65a7.88,7.88,0,0,0-2-5.13,2.52,2.52,0,0,0-3.79-.18,3.88,3.88,0,0,0-1.19,1.61C79.93,35.3,79.69,36.73,79.33,38.31Z"/><path class="cls-2" d="M63.6,120.87H46.44A6.51,6.51,0,0,1,39.69,114V58.16c0-1.31,0-2.62,0-3.93A5,5,0,0,1,45,48.92c.73,0,1.46,0,2.24,0h.16V38.14a8.82,8.82,0,0,1,2.48-6.34,9,9,0,0,1,6.35-2.46c4.48,0,9,.06,13.43.09l10.57.08a10.11,10.11,0,0,0,1.44-.09,5.81,5.81,0,0,1,5.27,1.93,10.22,10.22,0,0,1,2.42,6.47,2.34,2.34,0,0,1-.6,1.73,2.9,2.9,0,0,1-2.15.82H80.46v8.45h3a5.35,5.35,0,0,1,4,1.55,4.65,4.65,0,0,1,1.23,3.56A4.45,4.45,0,0,0,90.51,58a16.13,16.13,0,0,1,5.71,12.73v.77h2.63c1.86,0,3.73,0,5.59,0a5.27,5.27,0,0,1,5.3,5.34q0,17.55,0,35.09a5.35,5.35,0,0,1-5.56,5.29c-2.71,0-5.41,0-8.12,0H91.62c-1.17,0-2.33,0-3.49,0a.61.61,0,0,0-.22,0l-.08.13A6.24,6.24,0,0,1,82,120.86ZM46.25,51.81H45.11c-1.68,0-2.42.76-2.42,2.42V114a3.55,3.55,0,0,0,3.82,3.81H81.76a3.52,3.52,0,0,0,3.84-2.92,4.86,4.86,0,0,0,0-1.08c0-.26,0-.51,0-.77V63q0-4.53,0-9.06c0-.6-.16-2-1.52-2.16a21.66,21.66,0,0,0-3.14-.06h-.59v1.09c0,1.59,0,3.12,0,4.65a2.07,2.07,0,0,1-.5,1.56,2.26,2.26,0,0,1-1.55.53c-9.28,0-18.72,0-28.85,0a2.08,2.08,0,0,1-1.57-.52,2.1,2.1,0,0,1-.49-1.55c0-1.53,0-3,0-4.65v-1H46.25ZM88.7,114.16H92c4.24,0,8.48,0,12.71,0a2.16,2.16,0,0,0,2.08-1.76,7.65,7.65,0,0,0,.19-1.8q0-12.09,0-24.19V77.67c0-2.36-.84-3.2-3.21-3.2H88.7Zm.06-42.67h4.56a14,14,0,0,0-4.56-11ZM50.34,56.6H77.4V38.52a12.38,12.38,0,0,1,1.14-5.8c.08-.15.15-.29.24-.43H73.2c-6.07,0-11.8,0-17.65,0A5.42,5.42,0,0,0,50.34,38V56.6ZM80.5,37.37h.65c1.86,0,3.56,0,5.25,0a6.58,6.58,0,0,0-1.73-4.17A1.6,1.6,0,0,0,82.16,33a2.9,2.9,0,0,0-.9,1.18c-.29.91-.49,1.88-.71,2.91C80.53,37.21,80.52,37.29,80.5,37.37Z"/><path class="cls-2" d="M63.9,62.05c5.31,0,10.62,0,15.93,0,.92,0,1.16.31,1.15,1.19q0,7.91,0,15.83c0,.84-.26,1.13-1.12,1.13q-15.93,0-31.86,0c-.77,0-1.09-.2-1.09-1q.06-8,0-15.94c0-.88.24-1.17,1.15-1.17C53.34,62.07,58.62,62.05,63.9,62.05ZM48,79H79.78V63.13H48Z"/><path class="cls-2" d="M79.87,81.13h0q-15.93,0-31.86,0a1.77,1.77,0,0,1-2-2c0-5.32,0-10.67,0-15.92a1.85,1.85,0,0,1,2.1-2.12q6,0,12.08,0h7.91c3.93,0,7.84,0,11.77,0a2.15,2.15,0,0,1,1.57.52,2.13,2.13,0,0,1,.52,1.61c0,5,0,10.18,0,15.83a2.14,2.14,0,0,1-.51,1.55A2.1,2.1,0,0,1,79.87,81.13Zm-31-3.1H78.84v-14H48.91Z"/><path class="cls-2" d="M76.5,92.2c-.77,0-1.55,0-2.33,0a3.18,3.18,0,0,1,.19-6.36c1.45,0,2.91,0,4.36,0a3.18,3.18,0,0,1,.21,6.36c-.81.06-1.62,0-2.43,0Zm0-1.11h0c.8,0,1.61,0,2.42,0A2,2,0,0,0,80.83,89,1.9,1.9,0,0,0,79,87c-1.61-.06-3.23-.06-4.85,0a1.9,1.9,0,0,0-1.88,2,2,2,0,0,0,2,2.08C75,91.11,75.74,91.09,76.52,91.09Z"/><path class="cls-2" d="M75,93.16q-.47,0-.93,0a4.12,4.12,0,0,1,.23-8.24c1.47,0,2.93,0,4.4,0a4.07,4.07,0,0,1,4.15,4A4.11,4.11,0,0,1,79,93.13c-.6,0-1.19,0-1.76,0H75Zm1.44-5.29c-.78,0-1.57,0-2.35,0a1,1,0,0,0-1,1.1,1,1,0,0,0,1.07,1.14c.45,0,.9,0,1.34,0h1.71c.54,0,1.07,0,1.6,0a1,1,0,0,0,1-1.12,1,1,0,0,0-1-1.1C78.11,87.88,77.3,87.87,76.48,87.87Z"/><path class="cls-2" d="M52.19,92.21c-.75,0-1.49,0-2.24,0a3.19,3.19,0,1,1,.16-6.37c1.42,0,2.85,0,4.27,0a3.19,3.19,0,1,1,.14,6.37C53.74,92.24,53,92.21,52.19,92.21Zm0-1.12c.77,0,1.55,0,2.32,0A2,2,0,0,0,56.55,89a1.94,1.94,0,0,0-2-2q-2.32-.08-4.65,0a1.94,1.94,0,0,0-2,2.07,2,2,0,0,0,2,2.06C50.67,91.11,51.41,91.09,52.16,91.09Z"/><path class="cls-2" d="M50.78,93.16c-.29,0-.58,0-.88,0a4.13,4.13,0,0,1-4-4.24,4.08,4.08,0,0,1,4.23-4q2.15,0,4.29,0a4.13,4.13,0,1,1,.18,8.25c-.55,0-1.1,0-1.66,0-.24,0-.48,0-.72,0H50.78Zm1.38-3h.73c.52,0,1,0,1.56,0A1.06,1.06,0,0,0,55.6,89a1,1,0,0,0-1.08-1.1c-1.54,0-3.09,0-4.59,0a1,1,0,0,0-1,1.13A1,1,0,0,0,50,90.14c.48,0,1,0,1.45,0Z"/><path class="cls-2" d="M63.85,111.69c-.77,0-1.55,0-2.33,0a3.12,3.12,0,0,1-3.05-2.93,3,3,0,0,1,2.59-3.32,31.85,31.85,0,0,1,5.61,0,3,3,0,0,1,2.64,3.29,3.13,3.13,0,0,1-3.13,3C65.41,111.71,64.63,111.69,63.85,111.69Zm-.05-1.12h0c.81,0,1.62,0,2.43,0a2.07,2.07,0,0,0,0-4.13q-2.32-.06-4.65,0a2.06,2.06,0,0,0-.06,4.12C62.25,110.62,63,110.57,63.8,110.57Z"/><path class="cls-2" d="M62.39,112.64h-.9a4.06,4.06,0,0,1-4-3.82A3.92,3.92,0,0,1,61,104.49a33.8,33.8,0,0,1,5.78,0,4,4,0,0,1,3.5,4.3,4.06,4.06,0,0,1-4,3.84c-.53,0-1.06,0-1.6,0H62.39Zm1.46-1.12v0Zm.89-1.87c.48,0,1,0,1.43,0a1,1,0,0,0,1.08-1.13,1,1,0,0,0-1.08-1.12c-1.54,0-3.09,0-4.61,0a1.12,1.12,0,0,0,0,2.24c.49,0,1,0,1.52,0h.74Z"/><path class="cls-2" d="M76.32,111.69c-.78,0-1.56,0-2.33,0a3.12,3.12,0,0,1-3.08-2.91,2.94,2.94,0,0,1,2.47-3.31,32.19,32.19,0,0,1,5.89,0,3,3,0,0,1,2.47,3.32,3.12,3.12,0,0,1-3,2.9C77.94,111.71,77.13,111.68,76.32,111.69Zm0-5.25H75.16c-.39,0-.78,0-1.17,0a2,2,0,0,0-2,2,1.93,1.93,0,0,0,1.88,2.15c1.62,0,3.24,0,4.85,0a1.91,1.91,0,0,0,1.88-2.14,2,2,0,0,0-2-2C77.87,106.41,77.1,106.44,76.32,106.44Z"/><path class="cls-2" d="M77.81,112.64H75.62c-.55,0-1.11,0-1.66,0a4,4,0,0,1-4-3.78,3.87,3.87,0,0,1,3.32-4.32,34.18,34.18,0,0,1,6.07,0,3.53,3.53,0,0,1,2.39,1.29,4.19,4.19,0,0,1,.93,3.06,4.09,4.09,0,0,1-3.9,3.75Zm-3.35-5.27H74A1,1,0,0,0,73,108.44a1,1,0,0,0,1,1.18c1.61,0,3.22,0,4.78,0a1,1,0,0,0,1-1.17,1,1,0,0,0-1.08-1.06c-.52,0-1,0-1.56,0H74.46Z"/><path class="cls-2" d="M52,111.69c-.78,0-1.56,0-2.33,0a3.12,3.12,0,0,1-3-3,3,3,0,0,1,2.61-3.31,32.7,32.7,0,0,1,5.51,0,3.08,3.08,0,0,1,2.72,3.34,3.14,3.14,0,0,1-3.14,3C53.54,111.71,52.76,111.69,52,111.69Zm.15-5.26c-.81,0-1.62,0-2.42,0a2,2,0,0,0-2,2,1.92,1.92,0,0,0,1.87,2.15c1.61.06,3.23.06,4.84,0a2.06,2.06,0,0,0-.09-4.12C53.62,106.4,52.88,106.43,52.14,106.43Z"/><path class="cls-2" d="M50.54,112.64c-.31,0-.62,0-.92,0a4.07,4.07,0,0,1-3.94-3.83,3.93,3.93,0,0,1,3.47-4.31,34.62,34.62,0,0,1,5.67,0,4,4,0,0,1,3.58,4.35,4.06,4.06,0,0,1-4.06,3.82c-.55,0-1.11,0-1.66,0H50.54Zm.1-5.28-.88,0a1,1,0,0,0-1.08,1.06,1,1,0,0,0,1,1.18c1.61.06,3.21.06,4.76,0a1.12,1.12,0,0,0-.09-2.23c-.49,0-1,0-1.48,0h-2.2Z"/><path class="cls-2" d="M64.22,85.83c.78,0,1.56,0,2.33,0a3.08,3.08,0,0,1,3,2.84,2.93,2.93,0,0,1-2.48,3.39,30.26,30.26,0,0,1-5.71,0,3,3,0,0,1-2.59-3.4,3.08,3.08,0,0,1,3.1-2.87C62.67,85.81,63.45,85.83,64.22,85.83Zm0,5.26c.74,0,1.48,0,2.23,0a2.11,2.11,0,0,0,2.1-2.1,2,2,0,0,0-2-2c-1.55,0-3.11,0-4.66,0a2,2,0,0,0-2,2.07,2,2,0,0,0,2,2.06C62.63,91.11,63.41,91.09,64.19,91.09Z"/><path class="cls-2" d="M64.08,93.16c-.93,0-1.86,0-2.78-.12a3.91,3.91,0,0,1-3.45-4.42,4,4,0,0,1,4-3.73c.56,0,1.11,0,1.67,0H65c.54,0,1.09,0,1.63,0a4,4,0,0,1,3.92,3.71A3.85,3.85,0,0,1,67.18,93C66.15,93.11,65.11,93.16,64.08,93.16Zm.1-5.3c-.78,0-1.55,0-2.32,0A1,1,0,0,0,60.79,89a1.11,1.11,0,0,0,1.11,1.13c.51,0,1,0,1.54,0h1.44c.5,0,1,0,1.5,0A1.16,1.16,0,0,0,67.57,89a1.06,1.06,0,0,0-1.11-1.09Q65.32,87.86,64.18,87.86Z"/><path class="cls-2" d="M52.06,96.1c.81,0,1.62,0,2.43,0a3.15,3.15,0,0,1,3,3.11,3.05,3.05,0,0,1-2.89,3.17q-2.52.12-5,0a3.06,3.06,0,0,1-2.93-3.14,3.12,3.12,0,0,1,3-3.15C50.45,96.07,51.26,96.1,52.06,96.1ZM52,101.36c.74,0,1.49,0,2.23,0a2.07,2.07,0,0,0,2.12-2.07,2,2,0,0,0-2.05-2.11c-1.51,0-3-.06-4.55,0a2,2,0,0,0-2,2.15,2,2,0,0,0,2,2C50.51,101.39,51.26,101.36,52,101.36Z"/><path class="cls-2" d="M52,103.39c-.84,0-1.69,0-2.53,0a4,4,0,0,1-3.83-4.09,4.07,4.07,0,0,1,3.93-4.09c.57,0,1.16,0,1.74,0h1.47c.58,0,1.16,0,1.73,0a4.11,4.11,0,0,1,3.87,4,4,4,0,0,1-3.79,4.12C53.77,103.37,52.9,103.39,52,103.39Zm0-5.32c-.76,0-1.49,0-2.21,0a1.06,1.06,0,0,0-1.11,1.19,1.08,1.08,0,0,0,1.14,1.11c.49,0,1,0,1.46,0H52.7c.5,0,1,0,1.49,0a1.13,1.13,0,0,0,1.21-1.14,1.06,1.06,0,0,0-1.13-1.16C53.49,98.08,52.73,98.07,52,98.07Z"/><path class="cls-2" d="M63.9,102.4c-.87,0-1.75.06-2.62,0a3.15,3.15,0,0,1,.12-6.27c1.64-.07,3.3-.06,4.94,0a3.15,3.15,0,0,1,.08,6.29c-.84.06-1.68,0-2.52,0Zm0-1c.71,0,1.42,0,2.13,0a2,2,0,0,0,2.16-2.11,2,2,0,0,0-2.09-2.07c-1.48,0-3,0-4.46,0a2,2,0,0,0-2.06,2.1,2,2,0,0,0,2.09,2.08C62.41,101.38,63.16,101.36,63.9,101.36Z"/><path class="cls-2" d="M65.47,103.37H63.1a17.31,17.31,0,0,1-1.9,0,4.09,4.09,0,0,1,.16-8.16c1.61-.06,3.3-.06,5,0a4.09,4.09,0,0,1,.11,8.17Q66,103.37,65.47,103.37Zm-1.61-5.3c-.74,0-1.47,0-2.19,0a1.07,1.07,0,0,0-1.15,1.16,1.11,1.11,0,0,0,1.19,1.14c.48,0,1,0,1.45,0h1.41c.48,0,1,0,1.43,0s1.26-.24,1.25-1.16a1.07,1.07,0,0,0-1.18-1.14C65.33,98.08,64.59,98.07,63.86,98.07Z"/><path class="cls-2" d="M76.31,96.11c.85,0,1.69,0,2.53,0a3.12,3.12,0,0,1,2.92,3.07A3,3,0,0,1,79,102.37a44.55,44.55,0,0,1-5.42,0,3,3,0,0,1-2.67-3.27,3.1,3.1,0,0,1,2.89-3c.84,0,1.68,0,2.52,0Zm0,5.25c.75,0,1.49,0,2.23,0a2,2,0,0,0,2.13-2,2,2,0,0,0-2-2.14c-1.51-.06-3,0-4.56,0a2,2,0,0,0-2,2.13,2,2,0,0,0,2.12,2C74.85,101.38,75.56,101.36,76.27,101.36Z"/><path class="cls-2" d="M76.37,103.39c-1,0-1.93,0-2.86-.09A3.94,3.94,0,0,1,70,99.05a4,4,0,0,1,3.78-3.88c.6,0,1.2,0,1.8,0h1.55c.6,0,1.2,0,1.8,0a4.06,4.06,0,0,1,3.81,4,4,4,0,0,1-3.65,4.16C78.15,103.36,77.25,103.39,76.37,103.39Zm-.1-3H77c.5,0,1,0,1.5,0a1.12,1.12,0,0,0,1.22-1.12,1.07,1.07,0,0,0-1.12-1.18c-1.48,0-3,0-4.49,0A1.05,1.05,0,0,0,73,99.29a1.11,1.11,0,0,0,1.22,1.12c.47,0,.94,0,1.41,0Z"/><path class="cls-2" d="M63.21,40.44H55.93a2.42,2.42,0,0,1-.76-.06c-.15-.05-.36-.27-.35-.38a.74.74,0,0,1,.35-.49,1.92,1.92,0,0,1,.76-.07H70.78a1.64,1.64,0,0,1,.67.05.65.65,0,0,1,.38.45.59.59,0,0,1-.38.45,3,3,0,0,1-.86,0H63.21Z"/><path class="cls-2" d="M70.94,41.39H55.82a3,3,0,0,1-.94-.1,1.44,1.44,0,0,1-1-1.41,1.63,1.63,0,0,1,.91-1.23,2.43,2.43,0,0,1,1-.15h15.1a1.9,1.9,0,0,1,.92.14,1.56,1.56,0,0,1,.94,1.3,1.51,1.51,0,0,1-1,1.36A2.52,2.52,0,0,1,70.94,41.39Z"/><path class="cls-2" d="M59.82,45.69H55.49a1,1,0,0,1-.46-.06.56.56,0,0,1-.21-.39.83.83,0,0,1,.21-.49.77.77,0,0,1,.45-.07h8.84a.67.67,0,0,1,.4,0,.68.68,0,0,1,.23.46.66.66,0,0,1-.22.44,1,1,0,0,1-.52.06Z"/><path class="cls-2" d="M64.42,46.59H55.48a1.8,1.8,0,0,1-.88-.17,1.4,1.4,0,0,1-.67-1.25A1.59,1.59,0,0,1,54.51,44a1.48,1.48,0,0,1,.92-.24h8.9a1.36,1.36,0,0,1,.93.23,1.59,1.59,0,0,1,.59,1.17,1.49,1.49,0,0,1-.71,1.25A1.52,1.52,0,0,1,64.42,46.59Z"/><path class="cls-2" d="M62.72,50.93H55.87a2.15,2.15,0,0,1-.72-.06c-.14,0-.34-.27-.33-.38a.75.75,0,0,1,.33-.49,1.72,1.72,0,0,1,.72-.07h14a1.46,1.46,0,0,1,.63,0,.64.64,0,0,1,.36.46.61.61,0,0,1-.36.44,2.72,2.72,0,0,1-.81.06h-7Z"/><path class="cls-2" d="M70,51.85H55.76a2.84,2.84,0,0,1-.91-.11,1.39,1.39,0,0,1-.93-1.37,1.57,1.57,0,0,1,.85-1.2,2.22,2.22,0,0,1,1-.16h.11q7,0,14,0H70a1.87,1.87,0,0,1,.91.14,1.53,1.53,0,0,1,.88,1.27,1.5,1.5,0,0,1-1,1.33A2.43,2.43,0,0,1,70,51.85Z"/><path class="cls-2" d="M99.57,84.15c0-1.83,0-3.67,0-5.5a1.61,1.61,0,0,1,0-.58.55.55,0,0,1,.39-.26.76.76,0,0,1,.49.26,1.26,1.26,0,0,1,.07.58V89.87a1,1,0,0,1,0,.5.67.67,0,0,1-.46.29.6.6,0,0,1-.44-.29,1.57,1.57,0,0,1-.06-.65V84.15Z"/><path class="cls-2" d="M100.07,91.67a1.6,1.6,0,0,1-1.38-.91,2.09,2.09,0,0,1-.13-.93V78.65a2.26,2.26,0,0,1,.14-1,1.52,1.52,0,0,1,1.42-.88,1.69,1.69,0,0,1,1.27.78,1.74,1.74,0,0,1,.2,1v11.3a1.72,1.72,0,0,1-.19,1,1.65,1.65,0,0,1-1.31.79Z"/><path class="cls-2" d="M94.33,87.83V79.14a3.51,3.51,0,0,1,.06-.92c0-.18.27-.43.38-.41a.73.73,0,0,1,.49.42,2.7,2.7,0,0,1,.07.91V96.88a2.33,2.33,0,0,1,0,.8c-.07.2-.29.45-.45.45s-.4-.25-.45-.45a4.4,4.4,0,0,1,0-1q0-4.41,0-8.82Z"/><path class="cls-2" d="M94.82,99.16a1.62,1.62,0,0,1-1.43-1.22,3.92,3.92,0,0,1-.1-1.1v-10h0V79a3.89,3.89,0,0,1,.09-1,1.52,1.52,0,0,1,1.55-1.16,1.73,1.73,0,0,1,1.29,1.08,2.94,2.94,0,0,1,.13,1.1V97a2.62,2.62,0,0,1-.11,1,1.71,1.71,0,0,1-1.4,1.13Z"/></svg>