<svg id="Layer_1" data-name="Layer 1" xmlns="http://www.w3.org/2000/svg" viewBox="0 0 149.47 149.47"><defs><style>.cls-1{fill:none;}.cls-2{fill:#aa4269;}</style></defs><title>Kapitus_Icons_NormalState</title><g id="Ellipse_184" data-name="Ellipse 184"><circle class="cls-1" cx="75.15" cy="75.22" r="74.73"/><path class="cls-2" d="M75.15,150a74.74,74.74,0,1,1,74.74-74.74A74.82,74.82,0,0,1,75.15,150Zm0-146.2a71.46,71.46,0,1,0,71.46,71.46A71.55,71.55,0,0,0,75.15,3.76Z"/></g><rect class="cls-1" x="61.19" y="73.59" width="30.74" height="11.14"/><rect class="cls-1" x="61.19" y="65.24" width="30.74" height="2.79"/><path class="cls-2" d="M73.66,108.8A33.45,33.45,0,0,1,44.66,82l-.18-1,5-1.08-8.36-7.58L36.58,82.73l4.48-1,.2,1a37,37,0,0,0,32.89,29.61A8.5,8.5,0,0,1,73.66,108.8Z"/><path class="cls-2" d="M50.79,55.49A33.33,33.33,0,0,1,88.34,44l.93.32L87.7,49.14l10.75-3.43L91.78,36.6,90.36,41l-1-.33A36.89,36.89,0,0,0,47.61,53.85L48,54A8.37,8.37,0,0,1,50.79,55.49Z"/><path class="cls-2" d="M101.79,103.38a36.93,36.93,0,0,0,9.31-43.14,8.74,8.74,0,0,1-2.25,1.69c-.22.11-.46.21-.69.3a33.54,33.54,0,0,1-8.71,38.58l-.75.64-3.4-3.78-2.4,11,11.21-1.21L101,104.05Z"/><path class="cls-2" d="M42.75,70.22a8.43,8.43,0,0,0,2.62.41A8.55,8.55,0,0,0,53,58.17a8.43,8.43,0,0,0-2.16-2.68c-.4.54-.79,1.08-1.16,1.64a6.35,6.35,0,0,1,1.54,2,6.54,6.54,0,0,1-6.4,9.51c0,.07,0,.14,0,.21l-.27-.25A6.54,6.54,0,1,1,46.4,55.63c.39-.6.79-1.2,1.21-1.78a8.54,8.54,0,0,0-4.86,16.37Z"/><path class="cls-2" d="M49.63,57.13c.37-.56.76-1.1,1.16-1.64A8.37,8.37,0,0,0,48,54l-.35-.1c-.42.58-.82,1.18-1.21,1.78A6.54,6.54,0,0,1,49.63,57.13Z"/><path class="cls-2" d="M44.73,68.81c0-.07,0-.14,0-.21l-.31,0Z"/><path class="cls-2" d="M49.4,60a4.6,4.6,0,0,1,.29,3.47,4.51,4.51,0,0,1-2.25,2.65,4.43,4.43,0,0,1-2.17.48c-.19.66-.35,1.32-.5,2a6.54,6.54,0,0,0,6.4-9.51,6.35,6.35,0,0,0-1.54-2c-.38.57-.74,1.15-1.09,1.74A4.57,4.57,0,0,1,49.4,60Z"/><path class="cls-2" d="M42.06,65.18a4.38,4.38,0,0,1-.74-1,4.54,4.54,0,0,1,3.93-6.63c.36-.65.75-1.28,1.15-1.91a6.46,6.46,0,0,0-4,.64,6.54,6.54,0,0,0,2.1,12.29l-2.68-2.43C41.87,65.81,42,65.49,42.06,65.18Z"/><path class="cls-2" d="M45.25,57.54h.1a4.48,4.48,0,0,1,3.19,1.33c.35-.59.71-1.17,1.09-1.74a6.54,6.54,0,0,0-3.23-1.5C46,56.26,45.61,56.89,45.25,57.54Z"/><path class="cls-2" d="M42.06,65.18c-.1.31-.19.63-.28.95l2.68,2.43.31,0c.15-.68.31-1.34.5-2A4.48,4.48,0,0,1,42.06,65.18Z"/><path class="cls-2" d="M99.12,57.33a6.54,6.54,0,1,1,11,1q.51,1,1,2a8.53,8.53,0,0,0,1.43-9.82,8.54,8.54,0,1,0-10.2,12,8.74,8.74,0,0,0,2.62.41,8.52,8.52,0,0,0,3.21-.65q-.39-.91-.84-1.8A6.54,6.54,0,0,1,99.12,57.33Z"/><path class="cls-2" d="M111.1,60.24q-.45-1-1-2a6.48,6.48,0,0,1-2.21,1.86c-.2.1-.4.2-.61.28q.45.89.84,1.8c.23-.09.47-.19.69-.3A8.74,8.74,0,0,0,111.1,60.24Z"/><path class="cls-2" d="M110.75,51.33a6.54,6.54,0,1,0-3.43,9.1c-.31-.61-.63-1.21-1-1.79a4.52,4.52,0,0,1-5.22-6.74c-.44-.44-.9-.87-1.37-1.29l3.77-1.2.46.48a4.4,4.4,0,0,1,1-.11,4.7,4.7,0,0,1,1.39.22A4.51,4.51,0,0,1,109,56.32c.4.65.78,1.3,1.14,2A6.53,6.53,0,0,0,110.75,51.33Z"/><path class="cls-2" d="M102.86,50.29a5.17,5.17,0,0,1,1.12-.4l-.46-.48-3.77,1.2c.47.42.93.85,1.37,1.29A4.44,4.44,0,0,1,102.86,50.29Z"/><path class="cls-2" d="M107,58.37a5.66,5.66,0,0,1-.68.27c.35.58.67,1.18,1,1.79.21-.08.41-.18.61-.28a6.48,6.48,0,0,0,2.21-1.86c-.36-.67-.74-1.32-1.14-2A4.46,4.46,0,0,1,107,58.37Z"/><path class="cls-2" d="M84.77,101.33a8.43,8.43,0,0,0-6.51.54,8.53,8.53,0,0,0-4.6,6.93c.66.07,1.32.13,2,.17a6.54,6.54,0,1,1,.73,3.54c-.75,0-1.5-.06-2.23-.13a7.86,7.86,0,0,0,.42,1,8.54,8.54,0,1,0,10.2-12Z"/><path class="cls-2" d="M76.35,112.46a6.46,6.46,0,0,1-.7-3.49c-.67,0-1.33-.1-2-.17a8.5,8.5,0,0,0,.49,3.58c.73.07,1.48.11,2.23.13Z"/><path class="cls-2" d="M77.65,109a4.53,4.53,0,0,1,4.51-4.1,4.39,4.39,0,0,1,1.39.22,4.51,4.51,0,0,1,2.66,2.24c.07.14.11.29.17.44.53-.15,1.07-.28,1.6-.46l-.84,3.89-.91.22a4.51,4.51,0,0,1-7.43,1c-.44,0-.88,0-1.32,0l-1.1,0a6.55,6.55,0,1,0-.73-3.54c.6,0,1.21,0,1.83,0Z"/><path class="cls-2" d="M86.23,111.47l.91-.22.84-3.89c-.53.18-1.07.31-1.6.46A4.54,4.54,0,0,1,86.23,111.47Z"/><path class="cls-2" d="M76.35,112.46l0,.05,1.1,0c.44,0,.88,0,1.32,0A4.37,4.37,0,0,1,77.65,109h-.17c-.62,0-1.23,0-1.83,0A6.46,6.46,0,0,0,76.35,112.46Z"/><path class="cls-2" d="M94.72,84.73V65.24a2.79,2.79,0,0,0-2.78-2.78H61.19a2.79,2.79,0,0,0-2.78,2.78V84.73a2.79,2.79,0,0,0,2.78,2.78H91.94A2.79,2.79,0,0,0,94.72,84.73Zm-2.78,0H61.19V73.59H91.94Zm0-16.7H61.19V65.24H91.94Z"/></svg>