<svg id="Layer_1" data-name="Layer 1" xmlns="http://www.w3.org/2000/svg" viewBox="0 0 149.47 149.47"><defs><style>.cls-1{fill:none;}.cls-2{fill:#aa4269;}</style></defs><title>Kapitus_Icons_NormalState</title><g id="Ellipse_184" data-name="Ellipse 184"><circle class="cls-1" cx="74.79" cy="74.73" r="74.73"/><path class="cls-2" d="M74.79,149.46a74.73,74.73,0,1,1,74.73-74.73A74.82,74.82,0,0,1,74.79,149.46Zm0-146.19a71.46,71.46,0,1,0,71.46,71.46A71.54,71.54,0,0,0,74.79,3.27Z"/></g><path class="cls-2" d="M83,101.84a1.67,1.67,0,0,0,1.58,1l4.89-.5a19.68,19.68,0,0,0,2.06,2.12l-.61,4.87a1.58,1.58,0,0,0,.93,1.62l5.8,2.48a1.61,1.61,0,0,0,1.8-.45l3.11-3.81a19.22,19.22,0,0,0,2.94,0l3,3.88a1.57,1.57,0,0,0,1.81.49l5.88-2.35a1.58,1.58,0,0,0,1-1.59l-.51-4.87a18.85,18.85,0,0,0,2.11-2.08l4.88.61a1.59,1.59,0,0,0,1.61-.92l2.5-5.8a1.59,1.59,0,0,0-.45-1.81l-3.81-3.1a19.46,19.46,0,0,0,0-3l3.87-3a1.57,1.57,0,0,0,.49-1.79L125.53,78a1.56,1.56,0,0,0-1.59-.95l-4.88.49A19.67,19.67,0,0,0,117,75.42l.61-4.87a1.58,1.58,0,0,0-.93-1.62l-5.8-2.48a1.58,1.58,0,0,0-1.8.45L106,70.71a19.44,19.44,0,0,0-3,0l-3-3.88a1.58,1.58,0,0,0-1.79-.49l-5.88,2.35a1.6,1.6,0,0,0-1,1.6l.5,4.89a20.44,20.44,0,0,0-2.1,2.06l-4.89-.61a1.58,1.58,0,0,0-1.6.92l-2.5,5.8a1.59,1.59,0,0,0,.45,1.81L85,88.21a18.26,18.26,0,0,0,0,3l-3.89,3A1.57,1.57,0,0,0,80.63,96Zm2.44-2.22-1.49-3.73,3.58-2.77a1.57,1.57,0,0,0,.6-1.4,16.13,16.13,0,0,1,0-4,1.59,1.59,0,0,0-.55-1.41l-3.54-2.87,1.58-3.68,4.51.58a1.56,1.56,0,0,0,1.4-.56A16.54,16.54,0,0,1,94.42,77,1.57,1.57,0,0,0,95,75.6l-.48-4.52,3.72-1.49,2.79,3.6a1.59,1.59,0,0,0,1.38.59,16.3,16.3,0,0,1,4,0,1.56,1.56,0,0,0,1.4-.56l2.88-3.54,3.66,1.58-.58,4.53a1.58,1.58,0,0,0,.58,1.4,16.37,16.37,0,0,1,2.8,2.84,1.58,1.58,0,0,0,1.38.61l4.52-.48,1.5,3.73L121,86.72a1.56,1.56,0,0,0-.59,1.39,16.13,16.13,0,0,1-.06,4,1.56,1.56,0,0,0,.54,1.41l3.55,2.88-1.56,3.67-4.53-.57a1.56,1.56,0,0,0-1.4.56,16.13,16.13,0,0,1-2.86,2.8,1.54,1.54,0,0,0-.59,1.38l.46,4.53-3.72,1.49-2.78-3.6a1.56,1.56,0,0,0-1.39-.59,15.82,15.82,0,0,1-4-.06,1.6,1.6,0,0,0-1.4.57l-2.86,3.53-3.68-1.57.58-4.53a1.61,1.61,0,0,0-.58-1.4,16.37,16.37,0,0,1-2.79-2.85,1.57,1.57,0,0,0-1.4-.6l-4.5.47Zm8.33-5.5a11.32,11.32,0,1,0,6.3-14.71A11.34,11.34,0,0,0,93.75,94.12ZM96.61,93a8.23,8.23,0,1,1,10.71,4.58A8.23,8.23,0,0,1,96.61,93Z"/><path class="cls-2" d="M104.24,89.23a1.16,1.16,0,1,1,1.29-1.17.66.66,0,0,0,1.32,0,2.52,2.52,0,0,0-2-2.38l0-1.15a.66.66,0,0,0-1.31,0l0,1.15a2.57,2.57,0,0,0-1.93,2.45,2.61,2.61,0,0,0,2.68,2.46A1.16,1.16,0,1,1,103,91.78a.67.67,0,0,0-.67-.65.72.72,0,0,0-.65.67,2.51,2.51,0,0,0,2,2.37l0,1.15a.67.67,0,0,0,.67.65.68.68,0,0,0,.65-.67l0-1.15a2.58,2.58,0,0,0,1.93-2.45A2.51,2.51,0,0,0,104.24,89.23Z"/><path class="cls-2" d="M53.57,61.45a1.7,1.7,0,0,0,1.58,1l4.89-.5A19.66,19.66,0,0,0,62.1,64l-.61,4.86a1.6,1.6,0,0,0,.92,1.63L68.22,73A1.58,1.58,0,0,0,70,72.55l3.12-3.81a19.21,19.21,0,0,0,2.94,0l3,3.89a1.6,1.6,0,0,0,1.81.49l5.88-2.36a1.57,1.57,0,0,0,1-1.59l-.51-4.87a19.77,19.77,0,0,0,2.12-2.07l4.88.6a1.59,1.59,0,0,0,1.61-.92l2.49-5.79a1.58,1.58,0,0,0-.45-1.81l-3.8-3.11a18.24,18.24,0,0,0,0-3l3.88-3a1.59,1.59,0,0,0,.49-1.79l-2.35-5.89a1.6,1.6,0,0,0-1.6-1l-4.87.5A19.86,19.86,0,0,0,87.57,35l.62-4.87a1.61,1.61,0,0,0-.93-1.62l-5.81-2.47a1.58,1.58,0,0,0-1.79.44l-3.12,3.81a18.26,18.26,0,0,0-3,0l-3-3.88a1.59,1.59,0,0,0-1.79-.5l-5.88,2.36a1.57,1.57,0,0,0-1,1.6l.5,4.89a19.47,19.47,0,0,0-2.11,2l-4.88-.61a1.61,1.61,0,0,0-1.61.92l-2.49,5.8a1.58,1.58,0,0,0,.45,1.81l3.8,3.1a19.47,19.47,0,0,0,0,3l-3.88,3a1.58,1.58,0,0,0-.48,1.79ZM56,59.23l-1.5-3.74,3.59-2.77a1.57,1.57,0,0,0,.6-1.4,16.05,16.05,0,0,1,0-4,1.58,1.58,0,0,0-.55-1.41l-3.54-2.88,1.57-3.68,4.52.59a1.56,1.56,0,0,0,1.4-.56A15.86,15.86,0,0,1,65,36.59a1.56,1.56,0,0,0,.6-1.39l-.47-4.52,3.72-1.48,2.79,3.59a1.56,1.56,0,0,0,1.37.59,16.3,16.3,0,0,1,4,.06,1.56,1.56,0,0,0,1.4-.56l2.88-3.54L85,30.92l-.58,4.52a1.55,1.55,0,0,0,.57,1.4,16.14,16.14,0,0,1,2.81,2.85,1.56,1.56,0,0,0,1.38.6l4.52-.47,1.49,3.73-3.6,2.77a1.59,1.59,0,0,0-.58,1.4,15.66,15.66,0,0,1-.07,4,1.59,1.59,0,0,0,.55,1.41L95,56l-1.56,3.67-4.52-.58a1.57,1.57,0,0,0-1.41.56,16.2,16.2,0,0,1-2.86,2.81,1.59,1.59,0,0,0-.59,1.38l.46,4.53-3.71,1.48L78,66.25a1.58,1.58,0,0,0-1.39-.58,16.3,16.3,0,0,1-4-.06,1.56,1.56,0,0,0-1.4.56l-2.87,3.54L64.7,68.13l.57-4.53a1.54,1.54,0,0,0-.57-1.39,16.37,16.37,0,0,1-2.79-2.85,1.55,1.55,0,0,0-1.4-.6l-4.5.47Zm8.32-5.5A11.32,11.32,0,1,0,70.64,39,11.35,11.35,0,0,0,64.33,53.73Zm2.87-1.15a8.23,8.23,0,1,1,10.7,4.58A8.21,8.21,0,0,1,67.2,52.58Z"/><path class="cls-2" d="M74.83,48.84a1.16,1.16,0,1,1,0-2.3,1.23,1.23,0,0,1,1.33,1.13.66.66,0,1,0,1.31,0,2.5,2.5,0,0,0-2-2.37l0-1.15a.66.66,0,0,0-1.32,0l0,1.15a2.5,2.5,0,0,0,.76,4.92,1.23,1.23,0,0,1,1.33,1.12,1.33,1.33,0,0,1-2.63.05.66.66,0,0,0-.67-.64.7.7,0,0,0-.64.67,2.5,2.5,0,0,0,2,2.37l0,1.15a.66.66,0,1,0,1.31,0l0-1.15a2.54,2.54,0,0,0,1.92-2.44A2.5,2.5,0,0,0,74.83,48.84Z"/><path class="cls-2" d="M45.3,89.23a1.16,1.16,0,1,1,0-2.29,1.23,1.23,0,0,1,1.34,1.12.66.66,0,0,0,1.31,0,2.52,2.52,0,0,0-2-2.38l0-1.15a.66.66,0,1,0-1.31,0l0,1.15a2.57,2.57,0,0,0-1.93,2.45,2.61,2.61,0,0,0,2.68,2.46,1.16,1.16,0,1,1,0,2.3A1.23,1.23,0,0,1,44,91.78a.67.67,0,0,0-.67-.65.72.72,0,0,0-.65.67,2.52,2.52,0,0,0,2,2.37l0,1.15a.67.67,0,0,0,.67.65.68.68,0,0,0,.65-.67l0-1.15A2.58,2.58,0,0,0,48,91.7,2.51,2.51,0,0,0,45.3,89.23Z"/><path class="cls-2" d="M24,101.84a1.67,1.67,0,0,0,1.58,1l4.89-.5a19.68,19.68,0,0,0,2.06,2.12L32,109.29a1.58,1.58,0,0,0,.93,1.62l5.8,2.48a1.61,1.61,0,0,0,1.8-.45l3.11-3.81a19.34,19.34,0,0,0,2.95,0l3,3.88a1.55,1.55,0,0,0,1.8.49l5.88-2.35a1.58,1.58,0,0,0,1-1.59l-.51-4.87a18.85,18.85,0,0,0,2.11-2.08l4.89.61a1.58,1.58,0,0,0,1.6-.92l2.5-5.8a1.59,1.59,0,0,0-.45-1.81l-3.81-3.1a19.46,19.46,0,0,0,0-3l3.87-3a1.59,1.59,0,0,0,.5-1.79L66.59,78A1.56,1.56,0,0,0,65,77l-4.88.49a18.77,18.77,0,0,0-2.07-2.11l.61-4.87a1.58,1.58,0,0,0-.93-1.62l-5.8-2.48a1.58,1.58,0,0,0-1.8.45L47,70.71a19.59,19.59,0,0,0-3,0l-3-3.88a1.58,1.58,0,0,0-1.79-.49l-5.88,2.35a1.6,1.6,0,0,0-1,1.6l.5,4.89a20.44,20.44,0,0,0-2.1,2.06l-4.89-.61a1.58,1.58,0,0,0-1.6.92l-2.5,5.8a1.59,1.59,0,0,0,.45,1.81l3.81,3.1a18.26,18.26,0,0,0,0,3l-3.89,3A1.58,1.58,0,0,0,21.69,96Zm2.44-2.22L25,95.89l3.58-2.77a1.57,1.57,0,0,0,.6-1.4,16.13,16.13,0,0,1,0-4,1.56,1.56,0,0,0-.55-1.41l-3.54-2.87,1.58-3.68,4.51.58a1.56,1.56,0,0,0,1.4-.56A16.54,16.54,0,0,1,35.48,77a1.57,1.57,0,0,0,.61-1.38l-.48-4.52,3.72-1.49,2.79,3.6a1.59,1.59,0,0,0,1.38.59,16.3,16.3,0,0,1,4,0,1.56,1.56,0,0,0,1.4-.56l2.88-3.54,3.66,1.58-.58,4.53a1.61,1.61,0,0,0,.58,1.4,16.37,16.37,0,0,1,2.8,2.84,1.59,1.59,0,0,0,1.39.61l4.52-.48,1.49,3.73-3.6,2.78a1.56,1.56,0,0,0-.59,1.39,16.13,16.13,0,0,1-.06,4A1.54,1.54,0,0,0,62,93.51l3.54,2.88-1.56,3.67-4.53-.57a1.56,1.56,0,0,0-1.4.56,16.13,16.13,0,0,1-2.86,2.8,1.54,1.54,0,0,0-.59,1.38l.46,4.53-3.72,1.49-2.77-3.6a1.59,1.59,0,0,0-1.4-.59,15.82,15.82,0,0,1-4-.06,1.6,1.6,0,0,0-1.4.57l-2.86,3.53-3.68-1.57.58-4.53a1.61,1.61,0,0,0-.58-1.4,16,16,0,0,1-2.78-2.85,1.6,1.6,0,0,0-1.41-.6l-4.5.47Zm8.33-5.5a11.32,11.32,0,1,0,6.3-14.71A11.34,11.34,0,0,0,34.81,94.12ZM37.67,93a8.23,8.23,0,1,1,10.71,4.58A8.23,8.23,0,0,1,37.67,93Z"/></svg>