<svg id="Layer_1" data-name="Layer 1" xmlns="http://www.w3.org/2000/svg" viewBox="0 0 150 150"><defs><style>.cls-1{fill:none;}.cls-2{fill:#ffffff;}</style></defs><g id="Ellipse_184" data-name="Ellipse 184"><circle class="cls-1" cx="74.87" cy="75.12" r="74.73"/><path class="cls-2" d="M74.87,149.85A74.74,74.74,0,1,1,149.6,75.12,74.82,74.82,0,0,1,74.87,149.85Zm0-146.19a71.46,71.46,0,1,0,71.46,71.46A71.53,71.53,0,0,0,74.87,3.66Z"/></g><path class="cls-2" d="M88.07,59.86l5.31-4.21,2,2.49C93,60,90.75,61.8,88.52,63.64a1.58,1.58,0,0,0-.52,1c0,3.47,0,6.94,0,10.41a4.92,4.92,0,0,0,.09.73l5.29-4.22,2,2.45-7.19,5.79a1.7,1.7,0,0,0,1.77,1c2.89,0,5.79,0,8.68,0,1.53,0,2.13-.6,2.14-2.14,0-1.86,0-3.73,0-5.59a2,2,0,0,0-.94-1.85c-2.16-1.68-4.29-3.41-6.47-5.16l2-2.48,5.35,4.25c0-4.34,0-8.49,0-12.64,0-1-.68-1.52-1.73-1.53q-4.6,0-9.2,0c-.79,0-1.6.34-1.66,1.2C88,56.51,88.07,58.13,88.07,59.86Zm-31-1.73c-2.32,1.85-4.59,3.64-6.81,5.48a1.71,1.71,0,0,0-.56,1.12c0,3.41,0,6.82,0,10.24v.93l5.4-4.29,2,2.45-7.43,6c.67.32,1.15.74,1.64.75,3.15.06,6.31.06,9.47,0,1.14,0,1.67-.67,1.68-1.84a32.66,32.66,0,0,1,0-4,4.63,4.63,0,0,0-2.43-5,61.43,61.43,0,0,1-5-3.91l2-2.48,5.26,4.18a1.68,1.68,0,0,0,.09-.33c0-4,0-8.09,0-12.13a1.54,1.54,0,0,0-1.72-1.63q-4.61-.06-9.2,0a1.7,1.7,0,0,0-1.81,1.86c0,.57,0,1.15,0,1.72V60l2.73-2.19,2.63-2.08a3.8,3.8,0,0,1,.28.27ZM80.8,39.37h1.69c1.83,0,2.31.48,2.31,2.27,0,2.64,0,5.28,0,7.92v.91h4.52c0-.46-.06-.86-.11-1.25-.43-3.47-.86-6.93-1.3-10.4-.38-3-.75-6.08-1.17-9.11a1.57,1.57,0,0,0-1.81-1.53H65.57a1.67,1.67,0,0,0-1.9,1.66c-.15,1-.25,2.05-.38,3.07q-.74,5.93-1.48,11.84c-.23,1.9-.46,3.79-.69,5.72h4.57v-1c0-2.73,0-5.45,0-8.17,0-1.38.56-1.91,2-1.93h1.9a15,15,0,0,1-.64-3.11,6.7,6.7,0,0,1,.73-2.95,6.92,6.92,0,0,1,2-2.36,6.18,6.18,0,0,1,7.43.18C81.57,33.1,82.13,35.67,80.8,39.37Zm4,33.43V60.1h-19V72.8Zm-38.16-18,12-10.49.24-1.8c-1.3,0-2.5,0-3.69,0-1.79,0-2.24-.46-2.24-2.23V34.61h3.11V39.3h3.24c.36-2.94.74-5.85,1.08-8.78.2-1.84.57-3.56,2.25-4.69a5.37,5.37,0,0,1,3.1-.83q9.51,0,19,0c3.12,0,4.89,1.72,5.25,4.85s.8,6.3,1.2,9.48h3.15V34.6h3.21v3.31c0,.92,0,1.84,0,2.76,0,1.27-.55,1.84-1.83,1.87s-2.63,0-4.07,0l1,8h1c1.93,0,3.85,0,5.77,0a4.7,4.7,0,0,1,4.55,4.12c0,.19,0,3.79,0,3.79v1.08c0,6.4-.08,12.8,0,19.19A5.05,5.05,0,0,1,98.69,84c-2.86-.12-5.74,0-8.6,0-3.34,0-5.28-2-5.28-5.29V76.07H65.69v2.45C65.69,82,63.76,84,60.28,84c-2.84,0-5.68,0-8.52,0a5,5,0,0,1-5.22-5.2c.08-6.4,0-12.79,0-19.19V58.47l0-3.63c.54-3,2.16-4.29,5.14-4.3,1.81,0,3.61,0,5.42,0,.59,0,.81-.17.82-.77s.15-1.36.26-2.19C58.27,47.62,58.63,44.35,58.63,44.35Zm10.21,6.13h12.7V42.55H70.41c-1.57,0-1.57,0-1.57,1.61Zm-3.08,6.36h19l.18-3.09H65.51Zm6.31-20.77a3.18,3.18,0,0,0,3,3.29,3.3,3.3,0,0,0,3.31-3.15A3.22,3.22,0,0,0,75.3,33,3.16,3.16,0,0,0,72.07,36.07Z"/><path class="cls-2" d="M73.68,79.22h3.11v41.35H73.68Z"/><path class="cls-2" d="M107,120.15l-3,1L92.86,87.69l3-1C99.6,97.85,103.31,109,107,120.15Z"/><path class="cls-2" d="M54.6,86.67l3,1C53.89,98.85,50.18,110,46.45,121.15l-3-1Z"/><path class="cls-2" d="M55.07,109l2.27-2.27L59,108.76l.27-.16v-3.85h3.18v3.83l.2.11,1.71-2,2.24,2.25c-1.58,1.66-3.13,3.34-4.75,4.95a1.35,1.35,0,0,1-2.07-.07C58.2,112.24,56.66,110.62,55.07,109Z"/><path class="cls-2" d="M35.38,104.78v3.78l.16.11,1.56-2L39.43,109c-1.52,1.6-3.11,3.33-4.78,5a1.37,1.37,0,0,1-2-.18c-1.58-1.55-3.12-3.12-4.74-4.75L30.33,107l1.61,1.73.19-.11v-3.8Z"/><path class="cls-2" d="M83.7,109l2.35-2.21,1.64,1.91.25-.15v-3.8h3.21v3.93l1.84-2L95.25,109c-1.52,1.57-3.12,3.28-4.78,4.92a1.42,1.42,0,0,1-2.08-.22C86.83,112.22,85.32,110.66,83.7,109Z"/><path class="cls-2" d="M118.47,108.66l1.69-2,2.51,2.69a3,3,0,0,0-.85.46c-1.26,1.22-2.47,2.47-3.73,3.7-1,1-1.76,1-2.79,0-1.5-1.49-3-3-4.46-4.46l2.27-2.32,2,2.06v-4.09h3.18v3.84Z"/><path class="cls-2" d="M32.74,91.47l2.14-2.2,1.76,2,.28-.16V87.26h3.26v4l1.9-2.08,2.05,2.26c-1.5,1.59-3.07,3.33-4.72,5a1.27,1.27,0,0,1-1.86-.1C35.92,94.72,34.33,93.08,32.74,91.47Z"/><path class="cls-2" d="M106.06,91.55l2.18-2.29,1.82,1.93.22-.11V87.25h3.23v4l1.9-2.1,2.5,2.6a10.29,10.29,0,0,0-1.19.87c-1.18,1.14-2.31,2.32-3.49,3.46a1.61,1.61,0,0,1-2.66,0C109.06,94.55,107.56,93,106.06,91.55Z"/><path class="cls-2" d="M83.21,91.07v-3.8h3.13v4l1.86-2.21,2.31,2.55L87.6,94.57c-.5.51-1,1-1.52,1.52a1.58,1.58,0,0,1-2.55,0c-1.54-1.49-3-3-4.53-4.54l2.44-2.31L83,91.21Z"/><path class="cls-2" d="M69.06,89l2.45,2.42c-1.6,1.62-3.17,3.25-4.79,4.83a1.41,1.41,0,0,1-2.14,0c-1.61-1.55-3.14-3.17-4.71-4.76l2.35-2.23,1.83,2v-4h3.17V91l.17.12Z"/></svg>