<svg id="Layer_1" data-name="Layer 1" xmlns="http://www.w3.org/2000/svg" viewBox="0 0 150 150"><defs><style>.cls-1{fill:none;}.cls-2{fill:#ffffff;}</style></defs><g id="Ellipse_184" data-name="Ellipse 184"><circle class="cls-1" cx="74.63" cy="74.34" r="74.73"/><path class="cls-2" d="M74.63,149.08a74.74,74.74,0,1,1,74.73-74.74A74.82,74.82,0,0,1,74.63,149.08Zm0-146.2a71.46,71.46,0,1,0,71.46,71.46A71.55,71.55,0,0,0,74.63,2.88Z"/></g><circle class="cls-2" cx="59.54" cy="28.48" r="2.63"/><path class="cls-2" d="M59.54,31.71a3.24,3.24,0,1,1,3.23-3.23A3.24,3.24,0,0,1,59.54,31.71Zm0-5.27a2,2,0,1,0,2,2A2,2,0,0,0,59.54,26.44Z"/><circle class="cls-2" cx="62.91" cy="36.27" r="2.63"/><path class="cls-2" d="M62.91,39.5a3.24,3.24,0,1,1,3.24-3.23A3.23,3.23,0,0,1,62.91,39.5Zm0-5.26a2,2,0,1,0,2,2A2,2,0,0,0,62.91,34.24Z"/><circle class="cls-2" cx="67.63" cy="43.4" r="2.63"/><path class="cls-2" d="M67.62,46.63a3.24,3.24,0,1,1,3.24-3.23A3.23,3.23,0,0,1,67.62,46.63Zm0-5.27a2,2,0,1,0,2,2A2,2,0,0,0,67.62,41.36Z"/><circle class="cls-2" cx="75.37" cy="49.35" r="2.63"/><path class="cls-2" d="M75.37,52.58a3.24,3.24,0,1,1,3.23-3.23A3.24,3.24,0,0,1,75.37,52.58Zm0-5.27a2,2,0,1,0,2,2A2,2,0,0,0,75.37,47.31Z"/><circle class="cls-2" cx="78.96" cy="55.24" r="2.63"/><path class="cls-2" d="M79,58.47a3.24,3.24,0,1,1,3.24-3.23A3.23,3.23,0,0,1,79,58.47Zm0-5.27a2,2,0,1,0,2,2A2,2,0,0,0,79,53.2Z"/><circle class="cls-2" cx="83.56" cy="62.48" r="2.63"/><path class="cls-2" d="M83.56,65.71a3.23,3.23,0,1,1,3.23-3.23A3.24,3.24,0,0,1,83.56,65.71Zm0-5.26a2,2,0,1,0,2,2A2,2,0,0,0,83.56,60.45Z"/><circle class="cls-2" cx="86.19" cy="70.08" r="2.63"/><path class="cls-2" d="M86.19,73.31a3.24,3.24,0,1,1,3.23-3.23A3.24,3.24,0,0,1,86.19,73.31Zm0-5.26a2,2,0,1,0,2,2A2,2,0,0,0,86.19,68.05Z"/><circle class="cls-2" cx="86.19" cy="78.68" r="2.63"/><path class="cls-2" d="M86.19,81.91a3.24,3.24,0,1,1,3.23-3.23A3.24,3.24,0,0,1,86.19,81.91Zm0-5.26a2,2,0,1,0,2,2A2,2,0,0,0,86.19,76.65Z"/><circle class="cls-2" cx="83.3" cy="86.75" r="2.63"/><path class="cls-2" d="M83.3,90a3.24,3.24,0,1,1,3.24-3.23A3.23,3.23,0,0,1,83.3,90Zm0-5.26a2,2,0,1,0,2,2A2,2,0,0,0,83.3,84.72Z"/><circle class="cls-2" cx="78.93" cy="93.53" r="2.63"/><path class="cls-2" d="M78.93,96.76a3.23,3.23,0,1,1,3.24-3.23A3.23,3.23,0,0,1,78.93,96.76Zm0-5.26a2,2,0,1,0,2,2A2,2,0,0,0,78.93,91.5Z"/><circle class="cls-2" cx="75.37" cy="99.56" r="2.63"/><path class="cls-2" d="M75.37,102.79a3.24,3.24,0,1,1,3.23-3.23A3.24,3.24,0,0,1,75.37,102.79Zm0-5.26a2,2,0,1,0,2,2A2,2,0,0,0,75.37,97.53Z"/><circle class="cls-2" cx="67.38" cy="105.29" r="2.63"/><path class="cls-2" d="M67.38,108.52a3.24,3.24,0,1,1,3.23-3.23A3.24,3.24,0,0,1,67.38,108.52Zm0-5.26a2,2,0,1,0,2,2A2,2,0,0,0,67.38,103.26Z"/><circle class="cls-2" cx="62.86" cy="112.3" r="2.63"/><path class="cls-2" d="M62.86,115.53a3.24,3.24,0,1,1,3.23-3.23A3.24,3.24,0,0,1,62.86,115.53Zm0-5.27a2,2,0,1,0,2,2A2,2,0,0,0,62.86,110.26Z"/><circle class="cls-2" cx="59.92" cy="120.21" r="2.63"/><path class="cls-2" d="M59.92,123.44a3.24,3.24,0,1,1,3.23-3.23A3.24,3.24,0,0,1,59.92,123.44Zm0-5.26a2,2,0,1,0,2,2A2,2,0,0,0,59.92,118.18Z"/><circle class="cls-2" cx="89.72" cy="28.48" r="2.63"/><path class="cls-2" d="M89.72,31.71A3.24,3.24,0,1,1,93,28.48,3.24,3.24,0,0,1,89.72,31.71Zm0-5.27a2,2,0,1,0,2,2A2,2,0,0,0,89.72,26.44Z"/><circle class="cls-2" cx="86.34" cy="36.27" r="2.63"/><path class="cls-2" d="M86.34,39.5a3.24,3.24,0,1,1,3.24-3.23A3.23,3.23,0,0,1,86.34,39.5Zm0-5.26a2,2,0,1,0,2,2A2,2,0,0,0,86.34,34.24Z"/><circle class="cls-2" cx="81.63" cy="43.4" r="2.63"/><path class="cls-2" d="M81.63,46.63a3.24,3.24,0,1,1,3.24-3.23A3.23,3.23,0,0,1,81.63,46.63Zm0-5.27a2,2,0,1,0,2,2A2,2,0,0,0,81.63,41.36Z"/><circle class="cls-2" cx="70.3" cy="55.24" r="2.63"/><path class="cls-2" d="M70.3,58.47a3.24,3.24,0,1,1,3.23-3.23A3.24,3.24,0,0,1,70.3,58.47Zm0-5.27a2,2,0,1,0,2,2A2,2,0,0,0,70.3,53.2Z"/><circle class="cls-2" cx="65.7" cy="62.48" r="2.63"/><path class="cls-2" d="M65.7,65.71a3.23,3.23,0,1,1,3.24-3.23A3.23,3.23,0,0,1,65.7,65.71Zm0-5.26a2,2,0,1,0,2,2A2,2,0,0,0,65.7,60.45Z"/><circle class="cls-2" cx="63.07" cy="70.08" r="2.63"/><path class="cls-2" d="M63.07,73.31a3.24,3.24,0,1,1,3.23-3.23A3.24,3.24,0,0,1,63.07,73.31Zm0-5.26a2,2,0,1,0,2,2A2,2,0,0,0,63.07,68.05Z"/><circle class="cls-2" cx="63.07" cy="78.68" r="2.63"/><path class="cls-2" d="M63.07,81.91a3.24,3.24,0,1,1,3.23-3.23A3.24,3.24,0,0,1,63.07,81.91Zm0-5.26a2,2,0,1,0,2,2A2,2,0,0,0,63.07,76.65Z"/><circle class="cls-2" cx="65.95" cy="86.75" r="2.63"/><path class="cls-2" d="M66,90a3.24,3.24,0,1,1,3.24-3.23A3.23,3.23,0,0,1,66,90Zm0-5.26a2,2,0,1,0,2,2A2,2,0,0,0,66,84.72Z"/><circle class="cls-2" cx="70.33" cy="93.53" r="2.63"/><path class="cls-2" d="M70.33,96.76a3.23,3.23,0,1,1,3.23-3.23A3.24,3.24,0,0,1,70.33,96.76Zm0-5.26a2,2,0,1,0,2,2A2,2,0,0,0,70.33,91.5Z"/><circle class="cls-2" cx="81.88" cy="105.29" r="2.63"/><path class="cls-2" d="M81.88,108.52a3.24,3.24,0,1,1,3.23-3.23A3.24,3.24,0,0,1,81.88,108.52Zm0-5.26a2,2,0,1,0,2,2A2,2,0,0,0,81.88,103.26Z"/><circle class="cls-2" cx="86.4" cy="112.3" r="2.63"/><path class="cls-2" d="M86.4,115.53a3.24,3.24,0,1,1,3.23-3.23A3.24,3.24,0,0,1,86.4,115.53Zm0-5.27a2,2,0,1,0,2,2A2,2,0,0,0,86.4,110.26Z"/><circle class="cls-2" cx="89.34" cy="120.21" r="2.63"/><path class="cls-2" d="M89.34,123.44a3.24,3.24,0,1,1,3.23-3.23A3.24,3.24,0,0,1,89.34,123.44Zm0-5.26a2,2,0,1,0,2,2A2,2,0,0,0,89.34,118.18Z"/></svg>