<?xml version="1.0" encoding="utf-8"?>
<svg id="Layer_1" data-name="Layer 1" xmlns="http://www.w3.org/2000/svg" viewBox="0 0 149.47 149.47"><defs><style>.cls-2{fill:#ffffff;}.cls-1{fill:none;}</style></defs><path class="cls-2" d="M117.92,96.71a3.92,3.92,0,0,1-2.38,3.49l-23.3,9.71-16.47,6.85c-2.64,1.11-4.58.36-5.67-2.26Q62.86,97.1,55.62,79.69a4,4,0,0,1,2.32-5.25c5.55-2.13,11-4.53,16.49-6.8l22.3-9.19a9.7,9.7,0,0,1,2.17-.81A3.65,3.65,0,0,1,103,60.21q2.42,5.87,4.84,11.71,4.86,11.76,9.72,23.52A11.21,11.21,0,0,1,117.92,96.71Zm-3.73.3c0-.23,0-.3,0-.36Q107,79.27,99.84,61.89c-.28-.7-.64-.6-1.16-.38-4,1.64-8,3.28-12,4.89-.75.3-1,.57-.61,1.4,1.87,4.35,3.66,8.73,5.48,13.1.62,1.5.34,2.24-1.16,2.88-2.46,1-4.92,2.08-7.38,3.11-.44.18-.88.34-1.32.53-1.52.66-2.32.37-3-1.17Q76,79.8,73.33,73.33c-.33-.79-.65-1-1.5-.64-3.89,1.64-7.8,3.25-11.73,4.79-1,.37-1,.75-.66,1.62q7,16.7,13.88,33.41c.34.82.66,1,1.5.64q15.51-6.39,31.05-12.71Zm-32-28.44a2.32,2.32,0,0,0-.46.08l-4.95,2.06c-.53.22-.54.58-.34,1.05q2.35,5.65,4.69,11.33c.21.49.44.67,1,.43q2.37-1,4.78-2c.63-.24.63-.6.43-1.1-1.56-3.78-3.11-7.56-4.68-11.33A2.27,2.27,0,0,0,82.2,68.57Z"/><path class="cls-2" d="M48.93,76.29a3.9,3.9,0,0,1-3.88-2.61Q43,68.76,41,63.84c-2.28-5.53-4.57-11.05-6.81-16.6a5.46,5.46,0,0,1-.49-2.43,3.35,3.35,0,0,1,2.19-2.93q8.71-3.57,17.43-7.18Q60.15,31.87,67,29c2.66-1.11,4.61-.32,5.71,2.35Q78.1,44.49,83.52,57.6c1,2.5.23,4.46-2.27,5.49q-15.51,6.42-31,12.81A11.72,11.72,0,0,1,48.93,76.29ZM37.17,45.18C41,54.39,44.74,63.45,48.5,72.55L80.21,59.44a6.14,6.14,0,0,0-.21-.67q-5.35-13-10.72-25.95c-.3-.75-.67-.65-1.24-.42-2.89,1.15-5.78,2.31-8.69,3.39-.83.31-.91.65-.59,1.42,1.33,3.14,2.6,6.31,3.88,9.47.76,1.85.42,2.65-1.43,3.4-2.13.86-4.25,1.72-6.38,2.6-1.49.61-2.26.3-2.88-1.2-1.19-2.9-2.33-5.83-3.55-8.72-1-2.34-.48-2.11-2.79-1.15C42.83,42.76,40.08,44,37.17,45.18Zm21.72,2c-1.1-2.75-2.15-5.37-3.21-8a2.7,2.7,0,0,0-.41-.91,1,1,0,0,0-.82-.25,20,20,0,0,0-2.69,1.15,1,1,0,0,0-.43.88c1,2.72,2.08,5.41,3.12,8.12.19.5.46.59.93.39C56.5,48.07,57.63,47.63,58.89,47.14Z"/><path class="cls-2" d="M60.07,114.54c4.87-.87,8.64.76,11.54,4.76,1.53-.62,3.08-1.24,4.62-1.88L106.28,105c.88-.37,1.77-.6,2.54.19,1.05,1.08.68,2.53-.83,3.17-2.64,1.12-5.31,2.19-8,3.29-8.61,3.57-17.22,7.16-25.85,10.68a1.35,1.35,0,0,0-1,1.71,10.24,10.24,0,0,1-4.44,10c-3.43,2.4-7.2,2.94-11,.94-6.49-3.38-8.63-13.54-1.47-18.52.69-.48.4-.88.2-1.35Q51,102,45.59,89q-5.34-12.9-10.67-25.81a1.87,1.87,0,0,0-1.49-1.28c-2-.46-4-1-6-1.55a5.23,5.23,0,0,1-1.15-.4,1.69,1.69,0,0,1-.9-1.87,1.57,1.57,0,0,1,1.54-1.37,3.14,3.14,0,0,1,1,.08c2.62.65,5.24,1.33,7.86,2a2.53,2.53,0,0,1,1.84,1.7q10.92,26.41,21.87,52.82C59.68,113.66,59.86,114.06,60.07,114.54Zm2.51,3.53a7.1,7.1,0,0,0-7.29,7,7.25,7.25,0,0,0,7.14,7.22,7.33,7.33,0,0,0,7.12-7.15A7,7,0,0,0,62.58,118.07Z"/><path class="cls-2" d="M86.58,104.31c-.22.24-.54.92-1.06,1.15-2.58,1.16-5.21,2.22-7.83,3.27-.89.36-1.71-.14-2.14-1.17a1.63,1.63,0,0,1,1-2.22c1.69-.75,3.42-1.43,5.13-2.14.74-.31,1.48-.65,2.24-.92A2,2,0,0,1,86.58,104.31Z"/><path class="cls-2" d="M84,97.56c-.39.44-.69,1.09-1.19,1.31-2.51,1.14-5.08,2.18-7.64,3.22A1.86,1.86,0,0,1,72.8,101a1.58,1.58,0,0,1,.85-2.12c2.63-1.15,5.27-2.26,7.93-3.31C82.69,95.12,83.77,96.1,84,97.56Z"/><path class="cls-2" d="M65.21,124.87c-.13,1.43-1.59,1.51-2.64,2.07a1.63,1.63,0,0,1-2.12-.3,1.77,1.77,0,0,1,.52-2.93,12.13,12.13,0,0,1,1.67-.71A2,2,0,0,1,65.21,124.87Z"/><g id="Ellipse_184" data-name="Ellipse 184"><circle class="cls-1" cx="74.79" cy="74.73" r="74.73"/><path class="cls-2" d="M74.79,149.46a74.73,74.73,0,1,1,74.73-74.73A74.82,74.82,0,0,1,74.79,149.46Zm0-146.19a71.46,71.46,0,1,0,71.46,71.46A71.54,71.54,0,0,0,74.79,3.27Z"/></g></svg>